<svg width="60" height="60" viewBox="0 0 60 60" fill="none" xmlns="http://www.w3.org/2000/svg">
<g opacity="0.9" clip-path="url(#clip0_649_23088)">
<g filter="url(#filter0_d_649_23088)">
<path d="M26.1303 12.3352C25.6899 11.8959 25.146 11.5747 24.5487 11.4011C23.9515 11.2275 23.3201 11.2072 22.7129 11.3419C22.1057 11.4767 21.5423 11.7622 21.0745 12.1721C20.6067 12.5821 20.2498 13.1032 20.0365 13.6875L7.73419 47.5266C7.53209 48.0846 7.46681 48.6829 7.54382 49.2714C7.62084 49.8599 7.83791 50.4213 8.1768 50.9085C8.5157 51.3957 8.96653 51.7946 9.49146 52.0715C10.0164 52.3484 10.6001 52.4954 11.1936 52.5C11.6305 52.497 12.0636 52.4177 12.4732 52.2656L46.31 39.9609C46.8944 39.748 47.4158 39.3912 47.826 38.9235C48.2362 38.4559 48.522 37.8925 48.657 37.2852C48.792 36.678 48.7718 36.0466 48.5984 35.4492C48.4249 34.8518 48.1038 34.3077 47.6646 33.8672L26.1303 12.3352ZM15.267 37.7648L19.767 25.3922L34.6076 40.2328L22.2326 44.7328L15.267 37.7648ZM37.4998 16.875C37.535 15.6074 37.8419 14.3622 38.3998 13.2234C39.642 10.7414 41.9857 9.375 44.9998 9.375C46.5701 9.375 47.5779 8.83828 48.199 7.68516C48.5261 7.04003 48.7137 6.33332 48.7498 5.61094C48.7517 5.11366 48.951 4.63748 49.304 4.28717C49.6569 3.93686 50.1346 3.7411 50.6318 3.74297C51.1291 3.74483 51.6053 3.94417 51.9556 4.29712C52.3059 4.65006 52.5017 5.12772 52.4998 5.625C52.4998 8.63906 50.5029 13.125 44.9998 13.125C43.4295 13.125 42.4217 13.6617 41.8006 14.8148C41.4736 15.46 41.2859 16.1667 41.2498 16.8891C41.2489 17.1353 41.1995 17.3789 41.1044 17.6061C41.0093 17.8332 40.8704 18.0394 40.6957 18.2128C40.5209 18.3863 40.3137 18.5236 40.0858 18.617C39.858 18.7104 39.614 18.758 39.3678 18.757C39.1215 18.7561 38.8779 18.7067 38.6508 18.6116C38.4236 18.5165 38.2175 18.3776 38.044 18.2029C37.8706 18.0281 37.7332 17.8209 37.6398 17.5931C37.5465 17.3652 37.4989 17.1212 37.4998 16.875ZM31.8748 9.375V3.75C31.8748 3.25272 32.0724 2.77581 32.424 2.42417C32.7756 2.07254 33.2525 1.875 33.7498 1.875C34.2471 1.875 34.724 2.07254 35.0756 2.42417C35.4273 2.77581 35.6248 3.25272 35.6248 3.75V9.375C35.6248 9.87228 35.4273 10.3492 35.0756 10.7008C34.724 11.0525 34.2471 11.25 33.7498 11.25C33.2525 11.25 32.7756 11.0525 32.424 10.7008C32.0724 10.3492 31.8748 9.87228 31.8748 9.375ZM55.7014 28.6734C55.8754 28.8476 56.0135 29.0544 56.1076 29.282C56.2017 29.5095 56.2501 29.7534 56.25 29.9997C56.2499 30.2459 56.2013 30.4897 56.107 30.7172C56.0126 30.9447 55.8744 31.1513 55.7002 31.3254C55.526 31.4994 55.3192 31.6375 55.0917 31.7316C54.8641 31.8258 54.6202 31.8742 54.374 31.874C54.1277 31.8739 53.8839 31.8253 53.6564 31.731C53.429 31.6366 53.2223 31.4984 53.0482 31.3242L49.2982 27.5742C48.9464 27.2224 48.7488 26.7452 48.7488 26.2477C48.7488 25.7501 48.9464 25.2729 49.2982 24.9211C49.6501 24.5693 50.1273 24.3716 50.6248 24.3716C51.1224 24.3716 51.5995 24.5693 51.9514 24.9211L55.7014 28.6734ZM56.8428 18.6539L51.2178 20.5289C50.746 20.6862 50.231 20.6496 49.7862 20.4272C49.3414 20.2048 49.0032 19.8148 48.8459 19.343C48.6886 18.8712 48.7252 18.3562 48.9476 17.9114C49.17 17.4666 49.56 17.1284 50.0318 16.9711L55.6568 15.0961C56.1286 14.9388 56.6436 14.9754 57.0884 15.1978C57.5332 15.4202 57.8714 15.8102 58.0287 16.282C58.186 16.7538 58.1494 17.2688 57.927 17.7136C57.7046 18.1584 57.3146 18.4966 56.8428 18.6539Z" fill="#1B1B1B"/>
</g>
</g>
<defs>
<filter id="filter0_d_649_23088" x="-0.487549" y="-2.125" width="66.6125" height="66.625" filterUnits="userSpaceOnUse" color-interpolation-filters="sRGB">
<feFlood flood-opacity="0" result="BackgroundImageFix"/>
<feColorMatrix in="SourceAlpha" type="matrix" values="0 0 0 0 0 0 0 0 0 0 0 0 0 0 0 0 0 0 127 0" result="hardAlpha"/>
<feOffset dy="4"/>
<feGaussianBlur stdDeviation="4"/>
<feComposite in2="hardAlpha" operator="out"/>
<feColorMatrix type="matrix" values="0 0 0 0 0 0 0 0 0 0 0 0 0 0 0 0 0 0 0.16 0"/>
<feBlend mode="normal" in2="BackgroundImageFix" result="effect1_dropShadow_649_23088"/>
<feBlend mode="normal" in="SourceGraphic" in2="effect1_dropShadow_649_23088" result="shape"/>
</filter>
<clipPath id="clip0_649_23088">
<rect width="60" height="60" fill="white"/>
</clipPath>
</defs>
</svg>
