<svg width="60" height="60" viewBox="0 0 60 60" fill="none" xmlns="http://www.w3.org/2000/svg">
<g opacity="0.9">
<path d="M20.6181 42.7634C19.9533 39.7126 16.9555 37.2153 15.7245 35.5695C13.2689 32.2864 11.8 28.1194 11.8 23.5848C11.8 12.9928 19.8141 4.40625 29.7 4.40625C39.586 4.40625 47.6 12.9928 47.6 23.5848C47.6 28.1218 46.1296 32.2907 43.6717 35.5748C42.4413 37.2184 39.4461 39.713 38.7821 42.7634H20.6181ZM38.65 47.558V49.9554C38.65 52.6034 36.6466 54.75 34.175 54.75H25.225C22.7536 54.75 20.75 52.6034 20.75 49.9554V47.558H38.65ZM31.9375 23.5963V13.9955L21.8688 28.391H27.4625V37.9803L37.5313 23.5963H31.9375Z" fill="#1B1B1B"/>
</g>
</svg>
