<svg width="20" height="20" viewBox="0 0 20 20" fill="none" xmlns="http://www.w3.org/2000/svg">
<g clip-path="url(#clip0_2994_10781)">
<path d="M-0.00390625 10.002C-0.00390625 5.28699 -0.00390638 2.92951 1.46084 1.46475C2.9256 -1.25508e-07 5.28308 0 9.99805 0C14.713 0 17.0705 -1.25508e-07 18.5353 1.46475C20 2.92951 20 5.28699 20 10.002C20 14.7169 20 17.0744 18.5353 18.5392C17.0705 20.0039 14.713 20.0039 9.99805 20.0039C5.28308 20.0039 2.9256 20.0039 1.46084 18.5392C-0.00390638 17.0744 -0.00390625 14.7169 -0.00390625 10.002Z" fill="#98A2B3"/>
<path d="M14.7373 10.0007C14.7373 12.6173 12.6161 14.7385 9.99949 14.7385C7.38289 14.7385 5.26172 12.6173 5.26172 10.0007C5.26172 7.38411 7.38289 5.26294 9.99949 5.26294C12.6161 5.26294 14.7373 7.38411 14.7373 10.0007Z" fill="white"/>
<path d="M15.7966 4.21069H15.7891H15.7966Z" fill="#D9D9D9"/>
<path d="M15.7966 4.21069H15.7891" stroke="white" stroke-width="1.57926" stroke-linecap="round" stroke-linejoin="round"/>
</g>
<defs>
<clipPath id="clip0_2994_10781">
<rect width="20" height="20" fill="white"/>
</clipPath>
</defs>
</svg>
