<svg width="60" height="60" viewBox="0 0 60 60" fill="none" xmlns="http://www.w3.org/2000/svg">
<path d="M30 24.75C34.9705 24.75 39 20.7206 39 15.75C39 10.7794 34.9705 6.75 30 6.75C25.0294 6.75 21 10.7794 21 15.75C21 20.7206 25.0294 24.75 30 24.75ZM15.375 31.5C18.4816 31.5 21 28.9816 21 25.875C21 22.7684 18.4816 20.25 15.375 20.25C12.2684 20.25 9.75 22.7684 9.75 25.875C9.75 28.9816 12.2684 31.5 15.375 31.5ZM50.25 25.875C50.25 28.9816 47.7316 31.5 44.625 31.5C41.5184 31.5 39 28.9816 39 25.875C39 22.7684 41.5184 20.25 44.625 20.25C47.7316 20.25 50.25 22.7684 50.25 25.875ZM30 27C36.2132 27 41.25 32.0368 41.25 38.25V51.75H18.75V38.25C18.75 32.0368 23.7868 27 30 27ZM14.25 38.2498C14.25 36.6907 14.4765 35.1846 14.8984 33.7626L14.5169 33.7959C10.5713 34.2234 7.5 37.5656 7.5 41.6248V51.7498H14.25V38.2498ZM52.5 51.7498V41.6248C52.5 37.4351 49.2283 34.0094 45.1015 33.7626C45.5234 35.1846 45.75 36.6907 45.75 38.2498V51.7498H52.5Z" fill="#1B1B1B"/>
</svg>
