<svg width="38" height="45" viewBox="0 0 38 45" fill="none" xmlns="http://www.w3.org/2000/svg">
<path fill-rule="evenodd" clip-rule="evenodd" d="M17.1511 36.3149C12.599 36.4777 8.03633 37.284 3.62048 38.0981C2.67036 38.2766 2.02449 39.1815 2.24458 40.0953C2.3996 41.0306 3.31387 41.6391 4.19871 41.4815C8.47756 40.6889 12.8982 39.8912 17.2405 39.7473C18.1673 39.7209 18.9205 38.9249 18.9045 37.9746C18.8888 37.025 18.078 36.2892 17.1511 36.3149Z" fill="white"/>
<path fill-rule="evenodd" clip-rule="evenodd" d="M25.8406 25.8013C18.5089 18.8774 10.323 12.9144 3.12077 5.79213C2.47776 5.12581 1.38075 5.13129 0.72099 5.80216C0.061256 6.47372 0.0350868 7.56098 0.746571 8.22465C7.94963 15.3682 16.1364 21.3517 23.4689 28.2968C24.1797 28.944 25.2754 28.9111 25.9345 28.2218C26.5251 27.5358 26.5515 26.4485 25.8406 25.8013Z" fill="white"/>
<path fill-rule="evenodd" clip-rule="evenodd" d="M28.2989 3.08755C29.7227 6.96177 31.1461 10.8361 32.5701 14.711C32.8513 15.6124 33.8538 16.0635 34.7559 15.734C35.6579 15.4038 36.0723 14.4326 35.7909 13.5305C34.3651 9.64971 32.9398 5.76948 31.5142 1.88937C31.1676 1.00834 30.1668 0.561786 29.2662 0.896517C28.4311 1.21084 27.9525 2.20717 28.2989 3.08755Z" fill="white"/>
</svg>
