<svg width="245" height="210" viewBox="0 0 245 210" fill="none" xmlns="http://www.w3.org/2000/svg">
<path opacity="0.25" fill-rule="evenodd" clip-rule="evenodd" d="M243.592 91.5799C244.004 91.1681 244.235 90.6096 244.235 90.0273C244.235 89.4449 244.004 88.8864 243.592 88.4746C243.18 88.0628 242.622 87.8315 242.039 87.8315H138.837V73.3722L171.774 40.4354L187.787 56.4482C187.991 56.6523 188.233 56.8143 188.499 56.9248C188.766 57.0353 189.052 57.0922 189.34 57.0922C189.629 57.0922 189.915 57.0353 190.181 56.9248C190.448 56.8143 190.69 56.6523 190.894 56.4482L226.669 20.6733V37.3284C226.669 37.9107 226.9 38.4692 227.312 38.881C227.724 39.2928 228.282 39.5242 228.864 39.5242C229.447 39.5242 230.005 39.2928 230.417 38.881C230.829 38.4692 231.06 37.9107 231.06 37.3284V15.3705C231.06 14.7881 230.829 14.2296 230.417 13.8178C230.005 13.4061 229.447 13.1747 228.864 13.1747L206.907 13.1747C206.324 13.1747 205.766 13.4061 205.354 13.8178C204.942 14.2296 204.711 14.7881 204.711 15.3705C204.711 15.9529 204.942 16.5114 205.354 16.9232C205.766 17.335 206.324 17.5663 206.907 17.5663H223.562L189.34 51.7876L173.328 35.7749C173.124 35.5707 172.881 35.4087 172.615 35.2982C172.348 35.1877 172.063 35.1309 171.774 35.1309C171.485 35.1309 171.2 35.1877 170.933 35.2982C170.667 35.4087 170.424 35.5707 170.221 35.7749L138.837 67.1581V2.19579C138.837 1.61343 138.606 1.05492 138.194 0.643131C137.782 0.231342 137.224 0 136.641 0C136.059 0 135.501 0.231342 135.089 0.643131C134.677 1.05492 134.446 1.61343 134.446 2.19579V90.0273C134.446 90.6096 134.677 91.1681 135.089 91.5799C135.501 91.9917 136.059 92.223 136.641 92.223H242.039C242.622 92.223 243.18 91.9917 243.592 91.5799ZM43.9157 71.6468C43.9157 71.0645 44.1471 70.506 44.5589 70.0942C44.9706 69.6824 45.5292 69.451 46.1115 69.451H63.6778C64.2602 69.451 64.8187 69.6824 65.2305 70.0942C65.6423 70.506 65.8736 71.0645 65.8736 71.6468C65.8736 72.2292 65.6423 72.7877 65.2305 73.1995C64.8187 73.6113 64.2602 73.8426 63.6778 73.8426H46.1115C45.5292 73.8426 44.9706 73.6113 44.5589 73.1995C44.1471 72.7877 43.9157 72.2292 43.9157 71.6468ZM109.789 49.689V119.954C109.789 121.701 109.095 123.377 107.86 124.612C106.625 125.847 104.949 126.542 103.202 126.542H6.58736C4.84028 126.542 3.16476 125.847 1.92939 124.612C0.694024 123.377 0 121.701 0 119.954L0 49.689C0 47.9419 0.694024 46.2664 1.92939 45.031C3.16476 43.7956 4.84028 43.1016 6.58736 43.1016H30.741V36.5142C30.741 33.6025 31.8977 30.8099 33.9567 28.751C36.0156 26.692 38.8082 25.5353 41.7199 25.5353L68.0694 25.5353C70.9812 25.5353 73.7737 26.692 75.8327 28.751C77.8916 30.8099 79.0483 33.6025 79.0483 36.5142V43.1016H103.202C104.949 43.1016 106.625 43.7956 107.86 45.031C109.095 46.2664 109.789 47.9419 109.789 49.689ZM35.1326 43.1016H74.6567V36.5142C74.6567 34.7672 73.9627 33.0916 72.7273 31.8563C71.492 30.6209 69.8165 29.9269 68.0694 29.9269L41.7199 29.9269C39.9729 29.9269 38.2973 30.6209 37.062 31.8563C35.8266 33.0916 35.1326 34.7672 35.1326 36.5142V43.1016ZM4.39157 49.689V73.8426C19.819 82.4889 37.2095 87.0255 54.8947 87.0173C72.5798 87.0255 89.9703 82.4889 105.398 73.8426V49.689C105.398 49.1066 105.166 48.5481 104.755 48.1363C104.343 47.7245 103.784 47.4932 103.202 47.4932H6.58736C6.005 47.4932 5.44649 47.7245 5.0347 48.1363C4.62291 48.5481 4.39157 49.1066 4.39157 49.689ZM105.398 119.954V78.838C89.8453 87.0968 72.5039 91.4132 54.8947 91.4089C37.2852 91.4146 19.9436 87.098 4.39157 78.838L4.39157 119.954C4.39157 120.537 4.62291 121.095 5.0347 121.507C5.44649 121.919 6.005 122.15 6.58736 122.15H103.202C103.784 122.15 104.343 121.919 104.755 121.507C105.166 121.095 105.398 120.537 105.398 119.954ZM195.594 205.223H189.006V115.196C189.006 114.613 188.775 114.055 188.363 113.643C187.951 113.231 187.393 113 186.811 113H156.07C155.487 113 154.929 113.231 154.517 113.643C154.105 114.055 153.874 114.613 153.874 115.196V139.349H125.329C124.746 139.349 124.188 139.581 123.776 139.993C123.364 140.404 123.133 140.963 123.133 141.545V165.699H98.9791C98.3968 165.699 97.8383 165.93 97.4265 166.342C97.0147 166.754 96.7833 167.312 96.7833 167.895V205.223H90.196C89.6136 205.223 89.0551 205.454 88.6433 205.866C88.2315 206.278 88.0002 206.837 88.0002 207.419C88.0002 208.001 88.2315 208.56 88.6433 208.972C89.0551 209.383 89.6136 209.615 90.196 209.615H195.594C196.176 209.615 196.735 209.383 197.146 208.972C197.558 208.56 197.79 208.001 197.79 207.419C197.79 206.837 197.558 206.278 197.146 205.866C196.735 205.454 196.176 205.223 195.594 205.223ZM158.265 117.392H184.615V205.223H158.265V117.392ZM127.524 143.741H153.874V205.223H127.524V143.741ZM101.175 170.09H123.133V205.223H101.175V170.09Z" fill="url(#paint0_linear_3534_65808)"/>
<defs>
<linearGradient id="paint0_linear_3534_65808" x1="116.086" y1="-41.5" x2="116.086" y2="295" gradientUnits="userSpaceOnUse">
<stop stop-color="white"/>
<stop offset="1" stop-color="white" stop-opacity="0"/>
</linearGradient>
</defs>
</svg>
