<svg width="233" height="230" viewBox="0 0 233 230" fill="none" xmlns="http://www.w3.org/2000/svg">
<path opacity="0.2" fill-rule="evenodd" clip-rule="evenodd" d="M232.66 40.7872C232.66 37.8508 231.493 35.0348 229.417 32.9585C227.341 30.8822 224.525 29.7157 221.588 29.7157H179.517V20.698C183.205 20.1656 186.579 18.3219 189.019 15.5047C191.459 12.6876 192.802 9.08553 192.802 5.35858C192.802 -8.9457 179.113 -18.2402 178.531 -18.6277C178.168 -18.8704 177.74 -19 177.302 -19C176.865 -19 176.437 -18.8704 176.074 -18.6277C175.492 -18.2402 161.802 -8.9457 161.802 5.35858C161.803 9.08553 163.146 12.6876 165.586 15.5047C168.026 18.3219 171.399 20.1656 175.088 20.698V29.7157H133.017C130.08 29.7157 127.264 30.8822 125.188 32.9585C123.112 35.0348 121.945 37.8508 121.945 40.7872V53.702C121.947 58.3082 123.508 62.7781 126.374 66.3843V89.5014C126.374 92.4378 127.54 95.2538 129.617 97.3301C131.693 99.4064 134.509 100.573 137.445 100.573H217.16C220.096 100.573 222.912 99.4064 224.988 97.3301C227.065 95.2538 228.231 92.4378 228.231 89.5014V66.3843C231.097 62.7781 232.658 58.3082 232.66 53.702V40.7872ZM166.231 5.35858C166.231 -4.26803 174.186 -11.542 177.302 -14.0164C180.419 -11.5364 188.374 -4.26249 188.374 5.35858C188.374 8.29491 187.207 11.111 185.131 13.1873C183.055 15.2636 180.239 16.43 177.302 16.43C174.366 16.43 171.55 15.2636 169.474 13.1873C167.397 11.111 166.231 8.29491 166.231 5.35858ZM137.445 96.1443C135.684 96.1443 133.994 95.4444 132.748 94.1986C131.502 92.9529 130.802 91.2632 130.802 89.5014V70.5305C133.898 72.6817 137.552 73.8875 141.32 74.0014C145.07 74.0979 148.771 73.1379 152.002 71.2311C155.232 69.3243 157.861 66.5475 159.588 63.2179C161.265 66.4708 163.805 69.1993 166.929 71.1042C170.054 73.009 173.643 74.0167 177.302 74.0167C180.962 74.0167 184.551 73.009 187.676 71.1042C190.8 69.1993 193.34 66.4708 195.017 63.2179C196.702 66.4628 199.244 69.1837 202.367 71.085C205.49 72.9862 209.075 73.9949 212.731 74.0014H213.285C217.052 73.8891 220.706 72.6853 223.802 70.5361V89.5014C223.802 91.2632 223.103 92.9529 221.857 94.1986C220.611 95.4444 218.921 96.1443 217.16 96.1443H137.445ZM228.231 53.702C228.231 62.2214 221.472 69.3404 213.168 69.5673C211.097 69.6258 209.035 69.2683 207.104 68.5159C205.173 67.7635 203.412 66.6316 201.926 65.187C200.441 63.7424 199.259 62.0145 198.453 60.1055C197.646 58.1965 197.231 56.1452 197.231 54.0729C197.231 53.4856 196.998 52.9224 196.582 52.5071C196.167 52.0919 195.604 51.8586 195.017 51.8586C194.429 51.8586 193.866 52.0919 193.451 52.5071C193.036 52.9224 192.802 53.4856 192.802 54.0729C192.802 58.1837 191.169 62.1262 188.263 65.033C185.356 67.9398 181.413 69.5729 177.302 69.5729C173.192 69.5729 169.249 67.9398 166.342 65.033C163.436 62.1262 161.802 58.1837 161.802 54.0729C161.802 53.4856 161.569 52.9224 161.154 52.5071C160.739 52.0919 160.175 51.8586 159.588 51.8586C159.001 51.8586 158.438 52.0919 158.022 52.5071C157.607 52.9224 157.374 53.4856 157.374 54.0729C157.375 56.1457 156.96 58.1976 156.154 60.1072C155.347 62.0169 154.166 63.7454 152.681 65.1906C151.195 66.6358 149.434 67.7682 147.503 68.5209C145.571 69.2737 143.509 69.6314 141.437 69.5729C133.133 69.3459 126.374 62.227 126.374 53.7075V40.7872C126.374 39.0254 127.074 37.3357 128.32 36.0899C129.565 34.8442 131.255 34.1443 133.017 34.1443H221.588C223.35 34.1443 225.04 34.8442 226.285 36.0899C227.531 37.3357 228.231 39.0254 228.231 40.7872V53.702ZM41.0293 93.9156C40.2532 93.1379 39.2934 92.5686 38.2387 92.2607C37.184 91.9527 36.0686 91.916 34.996 92.154C33.9233 92.3919 32.9281 92.8968 32.1025 93.6218C31.277 94.3469 30.6478 95.2686 30.2734 96.3015L1.21091 176.226C0.852882 177.21 0.736151 178.264 0.870529 179.302C1.00491 180.34 1.38647 181.331 1.98313 182.19C2.5798 183.05 3.37414 183.754 4.29938 184.243C5.22462 184.732 6.25373 184.992 7.30019 185C8.07091 184.999 8.83541 184.862 9.55877 184.596L89.4834 155.534C90.5164 155.159 91.4381 154.53 92.1631 153.705C92.8882 152.879 93.3931 151.884 93.631 150.811C93.8689 149.738 93.8322 148.623 93.5243 147.568C93.2163 146.514 92.6471 145.554 91.8693 144.778L41.0293 93.9156ZM37.4145 169.755L16.0411 148.393L25.0034 123.753L62.0484 160.804L37.4145 169.755ZM8.07519 180.428C7.6991 180.562 7.29257 180.587 6.9029 180.499C6.51322 180.412 6.15643 180.215 5.87401 179.933C5.5916 179.651 5.39518 179.294 5.3076 178.904C5.22002 178.515 5.24488 178.108 5.3793 177.732L14.3859 152.976L32.8309 171.421L8.07519 180.428ZM89.3395 149.843C89.2632 150.189 89.1002 150.509 88.8658 150.775C88.6315 151.04 88.3335 151.241 87.9998 151.36L66.6541 159.11L26.6697 119.164L34.4197 97.8183C34.5381 97.4847 34.7395 97.1867 35.0048 96.9524C35.2702 96.718 35.5908 96.555 35.9364 96.4787C36.0913 96.4466 36.2489 96.4299 36.407 96.4289C36.6845 96.4244 36.9599 96.4771 37.2161 96.5838C37.4723 96.6905 37.7038 96.8488 37.8961 97.0489L88.7582 147.911C89.0099 148.16 89.1943 148.469 89.294 148.809C89.3937 149.149 89.4056 149.508 89.3284 149.854L89.3395 149.843ZM102.664 76.5003C102.664 81.8589 99.4256 92.0003 87.1639 92.0003C82.5638 92.0003 79.3143 93.8215 77.5207 97.4197C76.6659 99.1872 76.1799 101.11 76.0925 103.072C76.0925 103.659 75.8592 104.222 75.444 104.637C75.0287 105.053 74.4655 105.286 73.8782 105.286C73.291 105.286 72.7278 105.053 72.3125 104.637C71.8972 104.222 71.6639 103.659 71.6639 103.072C71.7514 100.422 72.3965 97.8212 73.5572 95.438C75.3507 91.8508 79.1704 87.5717 87.1639 87.5717C97.8423 87.5717 98.2354 77.6074 98.2354 76.5003C98.2354 75.913 98.4687 75.3498 98.8839 74.9345C99.2992 74.5193 99.8624 74.286 100.45 74.286C101.037 74.286 101.6 74.5193 102.015 74.9345C102.431 75.3498 102.664 75.913 102.664 76.5003ZM58.3782 85.3574V72.0717C58.3782 71.4844 58.6115 70.9212 59.0268 70.506C59.442 70.0907 60.0053 69.8574 60.5925 69.8574C61.1798 69.8574 61.743 70.0907 62.1583 70.506C62.5735 70.9212 62.8068 71.4844 62.8068 72.0717V85.3574C62.8068 85.9447 62.5735 86.5079 62.1583 86.9232C61.743 87.3384 61.1798 87.5717 60.5925 87.5717C60.0053 87.5717 59.442 87.3384 59.0268 86.9232C58.6115 86.5079 58.3782 85.9447 58.3782 85.3574ZM110.873 132.505C111.289 132.921 111.522 133.484 111.522 134.072C111.522 134.659 111.289 135.223 110.873 135.638C110.458 136.054 109.894 136.287 109.307 136.287C108.719 136.287 108.156 136.054 107.74 135.638L98.8831 126.781C98.6773 126.575 98.5141 126.331 98.4028 126.062C98.2915 125.794 98.2341 125.506 98.2341 125.215C98.2341 124.924 98.2915 124.636 98.4028 124.367C98.5141 124.098 98.6773 123.854 98.8831 123.648C99.0888 123.442 99.333 123.279 99.6018 123.168C99.8706 123.056 100.159 122.999 100.45 122.999C100.741 122.999 101.029 123.056 101.298 123.168C101.566 123.279 101.811 123.442 102.016 123.648L110.873 132.505ZM114.433 105.175L101.147 109.604C100.922 109.678 100.687 109.715 100.45 109.715C99.925 109.713 99.4178 109.526 99.0185 109.186C98.6192 108.845 98.3536 108.374 98.2692 107.857C98.1848 107.339 98.287 106.808 98.5576 106.358C98.8281 105.909 99.2495 105.57 99.7466 105.402L113.032 100.974C113.59 100.788 114.198 100.831 114.723 101.094C115.248 101.356 115.648 101.817 115.833 102.374C116.019 102.931 115.976 103.54 115.713 104.065C115.451 104.59 114.99 104.99 114.433 105.175ZM205.956 127.43H221.456C223.218 127.43 224.908 128.13 226.154 129.376C227.399 130.621 228.099 132.311 228.099 134.073V222.644C228.099 224.406 227.399 226.096 226.154 227.341C224.908 228.587 223.218 229.287 221.456 229.287H132.885C131.123 229.287 129.434 228.587 128.188 227.341C126.942 226.096 126.242 224.406 126.242 222.644V134.073C126.242 132.311 126.942 130.621 128.188 129.376C129.434 128.13 131.123 127.43 132.885 127.43H148.385V120.787C148.385 120.2 148.618 119.637 149.034 119.221C149.449 118.806 150.012 118.573 150.599 118.573C151.187 118.573 151.75 118.806 152.165 119.221C152.58 119.637 152.814 120.2 152.814 120.787V127.43H201.528V120.787C201.528 120.2 201.761 119.637 202.176 119.221C202.592 118.806 203.155 118.573 203.742 118.573C204.329 118.573 204.893 118.806 205.308 119.221C205.723 119.637 205.956 120.2 205.956 120.787V127.43ZM148.385 131.858H132.885C132.298 131.858 131.735 132.092 131.319 132.507C130.904 132.922 130.671 133.485 130.671 134.073V154.001H223.671V134.073C223.671 133.485 223.437 132.922 223.022 132.507C222.607 132.092 222.044 131.858 221.456 131.858H205.956V138.501C205.956 139.089 205.723 139.652 205.308 140.067C204.893 140.482 204.329 140.716 203.742 140.716C203.155 140.716 202.592 140.482 202.176 140.067C201.761 139.652 201.528 139.089 201.528 138.501V131.858H152.814V138.501C152.814 139.089 152.58 139.652 152.165 140.067C151.75 140.482 151.187 140.716 150.599 140.716C150.012 140.716 149.449 140.482 149.034 140.067C148.618 139.652 148.385 139.089 148.385 138.501V131.858ZM132.885 224.858H221.456C222.044 224.858 222.607 224.625 223.022 224.21C223.437 223.795 223.671 223.231 223.671 222.644V158.43H130.671V222.644C130.671 223.231 130.904 223.795 131.319 224.21C131.735 224.625 132.298 224.858 132.885 224.858ZM166.099 209.358V173.93C166.1 173.552 166.003 173.181 165.82 172.851C165.636 172.521 165.371 172.244 165.05 172.045C164.728 171.846 164.362 171.733 163.984 171.716C163.607 171.699 163.232 171.779 162.894 171.948L154.037 176.377C153.511 176.639 153.112 177.1 152.926 177.658C152.74 178.215 152.783 178.824 153.046 179.349C153.309 179.875 153.77 180.275 154.327 180.46C154.885 180.646 155.493 180.603 156.019 180.34L161.671 177.512V209.358C161.671 209.946 161.904 210.509 162.319 210.924C162.735 211.339 163.298 211.573 163.885 211.573C164.472 211.573 165.036 211.339 165.451 210.924C165.866 210.509 166.099 209.946 166.099 209.358ZM186.028 207.144L199.314 189.43C200.759 187.517 201.536 185.184 201.528 182.787C201.528 180.35 200.724 177.981 199.24 176.048C197.756 174.114 195.676 172.724 193.322 172.093C190.968 171.463 188.472 171.626 186.22 172.559C183.968 173.491 182.087 175.141 180.869 177.251C180.604 177.757 180.545 178.346 180.704 178.895C180.863 179.443 181.228 179.909 181.723 180.195C182.217 180.481 182.803 180.564 183.357 180.428C183.912 180.293 184.393 179.948 184.699 179.466C185.43 178.197 186.558 177.205 187.91 176.644C189.262 176.083 190.761 175.984 192.175 176.363C193.589 176.742 194.838 177.577 195.729 178.738C196.619 179.9 197.101 181.323 197.099 182.787C197.105 184.232 196.634 185.639 195.76 186.789L179.828 208.03C179.581 208.359 179.431 208.75 179.394 209.16C179.357 209.569 179.435 209.981 179.619 210.349C179.803 210.717 180.085 211.026 180.435 211.242C180.785 211.458 181.188 211.573 181.599 211.573H199.314C199.901 211.573 200.464 211.339 200.879 210.924C201.295 210.509 201.528 209.946 201.528 209.358C201.528 208.771 201.295 208.208 200.879 207.793C200.464 207.377 199.901 207.144 199.314 207.144H186.028Z" fill="url(#paint0_linear_3534_65765)"/>
<defs>
<linearGradient id="paint0_linear_3534_65765" x1="121.387" y1="-53.1897" x2="121.387" y2="491.237" gradientUnits="userSpaceOnUse">
<stop stop-color="white"/>
<stop offset="1" stop-color="white" stop-opacity="0"/>
</linearGradient>
</defs>
</svg>
