<svg width="243" height="218" viewBox="0 0 243 218" fill="none" xmlns="http://www.w3.org/2000/svg">
<path opacity="0.25" fill-rule="evenodd" clip-rule="evenodd" d="M243.591 90.5799C244.003 90.1681 244.234 89.6096 244.234 89.0273C244.234 88.4449 244.003 87.8864 243.591 87.4746C243.18 87.0628 242.621 86.8315 242.039 86.8315H138.837V72.3722L171.774 39.4354L187.786 55.4482C187.99 55.6523 188.232 55.8143 188.499 55.9248C188.766 56.0353 189.051 56.0922 189.34 56.0922C189.628 56.0922 189.914 56.0353 190.181 55.9248C190.447 55.8143 190.689 55.6523 190.893 55.4482L226.668 19.6733V36.3284C226.668 36.9107 226.9 37.4692 227.311 37.881C227.723 38.2928 228.282 38.5242 228.864 38.5242C229.446 38.5242 230.005 38.2928 230.417 37.881C230.828 37.4692 231.06 36.9107 231.06 36.3284V14.3705C231.06 13.7881 230.828 13.2296 230.417 12.8178C230.005 12.4061 229.446 12.1747 228.864 12.1747L206.906 12.1747C206.324 12.1747 205.765 12.4061 205.353 12.8178C204.942 13.2296 204.71 13.7881 204.71 14.3705C204.71 14.9529 204.942 15.5114 205.353 15.9232C205.765 16.335 206.324 16.5663 206.906 16.5663H223.561L189.34 50.7876L173.327 34.7749C173.123 34.5707 172.881 34.4087 172.614 34.2982C172.348 34.1877 172.062 34.1309 171.774 34.1309C171.485 34.1309 171.199 34.1877 170.933 34.2982C170.666 34.4087 170.424 34.5707 170.22 34.7749L138.837 66.1581V1.19579C138.837 0.613428 138.605 0.0549213 138.194 -0.356869C137.782 -0.768658 137.223 -1 136.641 -1C136.059 -1 135.5 -0.768658 135.088 -0.356869C134.677 0.0549213 134.445 0.613428 134.445 1.19579V89.0273C134.445 89.6096 134.677 90.1681 135.088 90.5799C135.5 90.9917 136.059 91.223 136.641 91.223H242.039C242.621 91.223 243.18 90.9917 243.591 90.5799ZM43.9152 70.6468C43.9152 70.0645 44.1466 69.506 44.5584 69.0942C44.9702 68.6824 45.5287 68.451 46.111 68.451H63.6773C64.2597 68.451 64.8182 68.6824 65.23 69.0942C65.6418 69.506 65.8731 70.0645 65.8731 70.6468C65.8731 71.2292 65.6418 71.7877 65.23 72.1995C64.8182 72.6113 64.2597 72.8426 63.6773 72.8426H46.111C45.5287 72.8426 44.9702 72.6113 44.5584 72.1995C44.1466 71.7877 43.9152 71.2292 43.9152 70.6468ZM109.789 48.689V118.954C109.789 120.701 109.095 122.377 107.859 123.612C106.624 124.847 104.949 125.542 103.201 125.542H6.58687C4.83979 125.542 3.16427 124.847 1.9289 123.612C0.693535 122.377 -0.000488281 120.701 -0.000488281 118.954L-0.000488281 48.689C-0.000488281 46.9419 0.693535 45.2664 1.9289 44.031C3.16427 42.7956 4.83979 42.1016 6.58687 42.1016H30.7405V35.5142C30.7405 32.6025 31.8972 29.8099 33.9562 27.751C36.0151 25.692 38.8077 24.5353 41.7195 24.5353L68.0689 24.5353C70.9807 24.5353 73.7732 25.692 75.8322 27.751C77.8911 29.8099 79.0478 32.6025 79.0478 35.5142V42.1016H103.201C104.949 42.1016 106.624 42.7956 107.859 44.031C109.095 45.2664 109.789 46.9419 109.789 48.689ZM35.1321 42.1016H74.6562V35.5142C74.6562 33.7672 73.9622 32.0916 72.7269 30.8563C71.4915 29.6209 69.816 28.9269 68.0689 28.9269L41.7195 28.9269C39.9724 28.9269 38.2969 29.6209 37.0615 30.8563C35.8261 32.0916 35.1321 33.7672 35.1321 35.5142V42.1016ZM4.39108 48.689V72.8426C19.8185 81.4889 37.209 86.0255 54.8942 86.0173C72.5793 86.0255 89.9698 81.4889 105.397 72.8426V48.689C105.397 48.1066 105.166 47.5481 104.754 47.1363C104.342 46.7245 103.784 46.4932 103.201 46.4932H6.58687C6.00451 46.4932 5.44601 46.7245 5.03422 47.1363C4.62243 47.5481 4.39108 48.1066 4.39108 48.689ZM105.397 118.954V77.838C89.8448 86.0968 72.5034 90.4132 54.8942 90.4089C37.2847 90.4146 19.9431 86.098 4.39108 77.838L4.39108 118.954C4.39108 119.537 4.62243 120.095 5.03422 120.507C5.44601 120.919 6.00451 121.15 6.58687 121.15H103.201C103.784 121.15 104.342 120.919 104.754 120.507C105.166 120.095 105.397 119.537 105.397 118.954ZM176.634 212.769H170.047V122.741C170.047 122.159 169.816 121.601 169.404 121.189C168.992 120.777 168.433 120.546 167.851 120.546H137.11C136.528 120.546 135.969 120.777 135.557 121.189C135.146 121.601 134.914 122.159 134.914 122.741V146.895H106.369C105.787 146.895 105.228 147.126 104.816 147.538C104.405 147.95 104.173 148.509 104.173 149.091V173.245H80.0197C79.4373 173.245 78.8788 173.476 78.467 173.888C78.0552 174.299 77.8239 174.858 77.8239 175.44V212.769H71.2365C70.6542 212.769 70.0956 213 69.6839 213.412C69.2721 213.824 69.0407 214.382 69.0407 214.965C69.0407 215.547 69.2721 216.105 69.6839 216.517C70.0956 216.929 70.6542 217.16 71.2365 217.16H176.634C177.217 217.16 177.775 216.929 178.187 216.517C178.599 216.105 178.83 215.547 178.83 214.965C178.83 214.382 178.599 213.824 178.187 213.412C177.775 213 177.217 212.769 176.634 212.769ZM139.306 124.937H165.655V212.769H139.306V124.937ZM108.565 151.287H134.914V212.769H108.565V151.287ZM82.2154 177.636H104.173V212.769H82.2154V177.636Z" fill="url(#paint0_linear_2601_7359)"/>
<defs>
<linearGradient id="paint0_linear_2601_7359" x1="116.086" y1="-42.5" x2="116.086" y2="294" gradientUnits="userSpaceOnUse">
<stop stop-color="white"/>
<stop offset="1" stop-color="white" stop-opacity="0"/>
</linearGradient>
</defs>
</svg>
