<svg width="253" height="221" viewBox="0 0 253 221" fill="none" xmlns="http://www.w3.org/2000/svg">
<path opacity="0.2" fill-rule="evenodd" clip-rule="evenodd" d="M248.369 -7H152.285C150.548 -7 148.882 -6.3098 147.653 -5.08122C146.425 -3.85265 145.734 -2.18635 145.734 -0.448881V78.1645C145.734 79.902 146.425 81.5683 147.653 82.7969C148.882 84.0255 150.548 84.7157 152.285 84.7157H159.595C160.009 84.715 160.413 84.5972 160.762 84.376C161.111 84.1547 161.39 83.839 161.566 83.4655C163.866 78.6065 167.499 74.5005 172.041 71.6252C176.584 68.7499 181.849 67.2234 187.225 67.2234C192.601 67.2234 197.866 68.7499 202.408 71.6252C206.951 74.5005 210.583 78.6065 212.883 83.4655C213.06 83.839 213.339 84.1547 213.688 84.376C214.037 84.5972 214.441 84.715 214.854 84.7157H248.369C250.106 84.7157 251.772 84.0255 253.001 82.7969C254.229 81.5683 254.92 79.902 254.92 78.1645V-0.448881C254.92 -2.18635 254.229 -3.85265 253.001 -5.08122C251.772 -6.3098 250.106 -7 248.369 -7ZM250.552 78.1645C250.552 78.7437 250.322 79.2991 249.913 79.7087C249.503 80.1182 248.948 80.3483 248.369 80.3483H216.203C212.188 72.8039 205.399 67.1139 197.27 64.4782C200.97 62.278 203.845 58.9239 205.454 54.9311C207.063 50.9384 207.316 46.5278 206.175 42.377C205.034 38.2262 202.562 34.5649 199.139 31.9553C195.715 29.3458 191.53 27.9325 187.225 27.9325C182.92 27.9325 178.734 29.3458 175.311 31.9553C171.887 34.5649 169.415 38.2262 168.274 42.377C167.133 46.5278 167.387 50.9384 168.996 54.9311C170.605 58.9239 173.48 62.278 177.18 64.4782C169.05 67.1139 162.262 72.8039 158.247 80.3483H152.285C151.706 80.3483 151.151 80.1182 150.741 79.7087C150.332 79.2991 150.102 78.7437 150.102 78.1645V-0.448881C150.102 -1.02804 150.332 -1.58347 150.741 -1.99299C151.151 -2.40252 151.706 -2.63259 152.285 -2.63259H248.369C248.948 -2.63259 249.503 -2.40252 249.913 -1.99299C250.322 -1.58347 250.552 -1.02804 250.552 -0.448881V78.1645ZM187.225 62.8786C184.202 62.8786 181.246 61.9821 178.732 60.3025C176.219 58.6228 174.259 56.2355 173.102 53.4423C171.945 50.6492 171.643 47.5757 172.233 44.6105C172.822 41.6453 174.278 38.9216 176.416 36.7839C178.554 34.6461 181.277 33.1902 184.243 32.6004C187.208 32.0106 190.281 32.3133 193.074 33.4703C195.868 34.6272 198.255 36.5865 199.935 39.1002C201.614 41.614 202.511 44.5694 202.511 47.5927C202.511 49.6 202.115 51.5878 201.347 53.4423C200.579 55.2969 199.453 56.982 198.034 58.4015C196.614 59.8209 194.929 60.9468 193.074 61.715C191.22 62.4832 189.232 62.8786 187.225 62.8786ZM237.45 12.6534V65.0623C237.45 65.6415 237.22 66.1969 236.81 66.6064C236.401 67.0159 235.845 67.246 235.266 67.246H226.532C225.952 67.246 225.397 67.0159 224.987 66.6064C224.578 66.1969 224.348 65.6415 224.348 65.0623C224.348 64.4832 224.578 63.9277 224.987 63.5182C225.397 63.1087 225.952 62.8786 226.532 62.8786H233.083V14.8371H167.571V21.3882C167.571 21.9673 167.341 22.5228 166.932 22.9323C166.522 23.3418 165.967 23.5719 165.388 23.5719C164.809 23.5719 164.253 23.3418 163.844 22.9323C163.434 22.5228 163.204 21.9673 163.204 21.3882V12.6534C163.204 12.0742 163.434 11.5188 163.844 11.1092C164.253 10.6997 164.809 10.4697 165.388 10.4697H235.266C235.845 10.4697 236.401 10.6997 236.81 11.1092C237.22 11.5188 237.45 12.0742 237.45 12.6534ZM134.232 110.831L68.7206 75.8917C68.4046 75.7235 68.0521 75.6355 67.6942 75.6355C67.3363 75.6355 66.9838 75.7235 66.6679 75.8917L1.15668 110.831C0.807301 111.017 0.515111 111.295 0.311369 111.634C0.107627 111.974 0 112.362 0 112.758C0 113.154 0.107627 113.542 0.311369 113.882C0.515111 114.221 0.807301 114.499 1.15668 114.685L17.469 123.387V151.131C17.4565 152.739 18.0399 154.295 19.1067 155.499C26.0127 163.191 41.4897 176.097 67.6942 176.097C79.1587 176.097 88.5486 173.629 96.0824 170.206V191.372C96.0824 191.951 96.3125 192.506 96.722 192.916C97.1315 193.325 97.6869 193.555 98.2661 193.555C98.8452 193.555 99.4007 193.325 99.8102 192.916C100.22 192.506 100.45 191.951 100.45 191.372V167.995C106.385 164.734 111.736 160.507 116.282 155.488C117.348 154.284 117.931 152.728 117.919 151.12V123.387L134.232 114.685C134.581 114.499 134.873 114.221 135.077 113.882C135.281 113.542 135.388 113.154 135.388 112.758C135.388 112.362 135.281 111.974 135.077 111.634C134.873 111.295 134.581 111.017 134.232 110.831ZM67.6942 171.718C43.2203 171.718 28.7969 159.708 22.3823 152.567C22.0289 152.173 21.8344 151.661 21.8364 151.131V125.713L66.6679 149.625C66.9838 149.793 67.3363 149.881 67.6942 149.881C68.0521 149.881 68.4046 149.793 68.7206 149.625L96.0824 135.032V165.347C88.7561 168.989 79.3716 171.718 67.6942 171.718ZM113.552 151.131C113.551 151.662 113.357 152.174 113.006 152.573C109.345 156.619 105.115 160.113 100.45 162.945V132.701L113.552 125.713V151.131ZM100.128 127.924C99.9243 127.592 99.6359 127.321 99.2924 127.138L68.7206 110.831C68.2106 110.571 67.6186 110.521 67.0723 110.693C66.526 110.864 66.069 111.244 65.7998 111.749C65.5306 112.255 65.4708 112.846 65.6331 113.395C65.7955 113.944 66.1671 114.407 66.6679 114.685L95.8094 130.228L67.6942 145.224L6.8234 112.758L67.6942 80.2919L128.565 112.758L100.128 127.924ZM211.992 113.242V119.886C219.118 120.442 225.772 123.663 230.629 128.908C235.486 134.152 238.188 141.034 238.196 148.181V213.693C238.196 215.43 237.506 217.096 236.277 218.325C235.049 219.553 233.382 220.244 231.645 220.244H153.032C151.294 220.244 149.628 219.553 148.399 218.325C147.171 217.096 146.48 215.43 146.48 213.693V148.181C146.489 141.034 149.191 134.152 154.048 128.908C158.904 123.663 165.559 120.442 172.685 119.886V113.242C172.685 110.346 173.835 107.569 175.883 105.521C177.931 103.474 180.708 102.323 183.603 102.323H201.073C202.507 102.323 203.927 102.606 205.251 103.155C206.576 103.703 207.78 104.508 208.794 105.521C209.808 106.535 210.612 107.739 211.161 109.064C211.709 110.388 211.992 111.808 211.992 113.242ZM201.073 106.691H183.603C181.866 106.691 180.2 107.381 178.971 108.61C177.743 109.838 177.052 111.505 177.052 113.242V119.793H207.624V113.242C207.624 111.505 206.934 109.838 205.705 108.61C204.477 107.381 202.811 106.691 201.073 106.691ZM168.318 185.304H216.359V178.753C216.359 177.016 215.669 175.349 214.44 174.121C213.212 172.892 211.545 172.202 209.808 172.202H174.869C173.131 172.202 171.465 172.892 170.236 174.121C169.008 175.349 168.318 177.016 168.318 178.753V185.304ZM198.889 189.672H168.318V215.876H216.359V189.672H203.257V196.223C203.257 196.802 203.027 197.357 202.617 197.767C202.208 198.176 201.652 198.407 201.073 198.407C200.494 198.407 199.939 198.176 199.529 197.767C199.119 197.357 198.889 196.802 198.889 196.223V189.672ZM233.189 215.237C233.599 214.827 233.829 214.272 233.829 213.693V148.181C233.822 141.813 231.288 135.707 226.785 131.204C222.282 126.701 216.176 124.168 209.808 124.161H174.869C168.5 124.168 162.395 126.701 157.891 131.204C153.388 135.707 150.855 141.813 150.848 148.181V213.693C150.848 214.272 151.078 214.827 151.487 215.237C151.897 215.646 152.452 215.876 153.032 215.876H163.95V178.753C163.95 175.857 165.1 173.08 167.148 171.033C169.196 168.985 171.973 167.835 174.869 167.835H209.808C212.704 167.835 215.481 168.985 217.529 171.033C219.576 173.08 220.726 175.857 220.726 178.753V215.876H231.645C232.224 215.876 232.78 215.646 233.189 215.237ZM202.617 145.358C203.027 144.949 203.257 144.393 203.257 143.814C203.257 143.235 203.027 142.679 202.617 142.27C202.208 141.86 201.652 141.63 201.073 141.63H183.603C183.024 141.63 182.469 141.86 182.059 142.27C181.65 142.679 181.42 143.235 181.42 143.814C181.42 144.393 181.65 144.949 182.059 145.358C182.469 145.768 183.024 145.998 183.603 145.998H201.073C201.652 145.998 202.208 145.768 202.617 145.358Z" fill="url(#paint0_linear_3534_65882)"/>
<defs>
<linearGradient id="paint0_linear_3534_65882" x1="121.714" y1="-7" x2="121.714" y2="379.686" gradientUnits="userSpaceOnUse">
<stop stop-color="white"/>
<stop offset="0.863821" stop-color="white" stop-opacity="0"/>
</linearGradient>
</defs>
</svg>
