<svg width="250" height="216" viewBox="0 0 250 216" fill="none" xmlns="http://www.w3.org/2000/svg">
<path opacity="0.2" fill-rule="evenodd" clip-rule="evenodd" d="M121.458 15.6016H143.578C144.792 15.5406 173.821 13.7277 201.446 -9.44049C202.415 -10.2549 203.597 -10.7759 204.852 -10.9423C206.107 -11.1087 207.383 -10.9135 208.531 -10.3797C209.679 -9.84588 210.651 -8.99561 211.332 -7.92874C212.014 -6.86186 212.377 -5.62267 212.379 -4.35669V84.3466C212.387 85.6137 212.029 86.8562 211.349 87.9251C210.668 88.994 209.694 89.8439 208.542 90.3729C207.66 90.7822 206.699 90.9959 205.726 90.9994C204.164 90.9961 202.654 90.4403 201.463 89.4304C177.923 69.6828 153.363 65.4528 145.868 64.5935V84.7125C145.87 85.809 145.6 86.8889 145.084 87.8561C144.567 88.8233 143.82 89.6479 142.907 90.2565L136.809 94.3202C135.925 94.9096 134.913 95.2788 133.857 95.3967C132.801 95.5145 131.732 95.3778 130.739 94.9978C129.747 94.6178 128.86 94.0057 128.153 93.2126C127.446 92.4195 126.939 91.4686 126.675 90.4394L119.75 64.3329C113.432 63.9065 107.527 61.0396 103.284 56.3382C99.0408 51.6369 96.7925 45.4697 97.0143 39.1407C97.2361 32.8116 99.9105 26.8169 104.472 22.4241C109.034 18.0313 115.125 15.5846 121.458 15.6016ZM145.851 60.1195C153.352 60.868 179.115 64.8984 204.296 86.0375C204.618 86.3099 205.012 86.4845 205.431 86.5407C205.849 86.5969 206.275 86.5324 206.659 86.3548C207.042 86.1772 207.366 85.8939 207.594 85.5381C207.822 85.1823 207.943 84.769 207.944 84.3466V-4.35669C207.944 -4.77775 207.824 -5.19009 207.598 -5.54549C207.372 -5.90088 207.05 -6.18465 206.669 -6.3636C206.363 -6.50082 206.033 -6.57258 205.698 -6.57427C205.179 -6.56481 204.681 -6.3679 204.296 -6.01987C179.115 15.0971 153.352 19.1275 145.851 19.8759V60.1195ZM130.955 89.3362C131.041 89.6811 131.208 90.0002 131.444 90.2668C131.679 90.5333 131.975 90.7394 132.306 90.8676C132.638 90.9959 132.995 91.0426 133.349 91.0038C133.702 90.9649 134.041 90.8417 134.337 90.6445L140.435 86.5808C140.739 86.3781 140.988 86.1036 141.16 85.7815C141.332 85.4595 141.422 85.0999 141.422 84.7347V64.3884H124.346L130.955 89.3362ZM121.458 59.9532H141.416V20.0367H121.458C116.165 20.0367 111.088 22.1395 107.345 25.8824C103.602 29.6253 101.5 34.7017 101.5 39.995C101.5 45.2882 103.602 50.3647 107.345 54.1076C111.088 57.8505 116.165 59.9532 121.458 59.9532ZM246.172 113.308H230.649V106.655C230.649 106.067 230.416 105.503 230 105.087C229.584 104.671 229.02 104.438 228.432 104.438C227.844 104.438 227.28 104.671 226.864 105.087C226.448 105.503 226.214 106.067 226.214 106.655V113.308H177.427V106.655C177.427 106.067 177.194 105.503 176.778 105.087C176.362 104.671 175.798 104.438 175.21 104.438C174.622 104.438 174.058 104.671 173.642 105.087C173.226 105.503 172.992 106.067 172.992 106.655V113.308H157.469C155.705 113.308 154.013 114.009 152.765 115.257C151.517 116.504 150.816 118.196 150.816 119.961V208.664C150.816 210.429 151.517 212.121 152.765 213.368C154.013 214.616 155.705 215.317 157.469 215.317H246.172C247.937 215.317 249.629 214.616 250.877 213.368C252.124 212.121 252.825 210.429 252.825 208.664V119.961C252.825 118.196 252.124 116.504 250.877 115.257C249.629 114.009 247.937 113.308 246.172 113.308ZM157.469 117.743H172.992V124.396C172.992 124.984 173.226 125.548 173.642 125.964C174.058 126.38 174.622 126.614 175.21 126.614C175.798 126.614 176.362 126.38 176.778 125.964C177.194 125.548 177.427 124.984 177.427 124.396V117.743H226.214V124.396C226.214 124.984 226.448 125.548 226.864 125.964C227.28 126.38 227.844 126.614 228.432 126.614C229.02 126.614 229.584 126.38 230 125.964C230.416 125.548 230.649 124.984 230.649 124.396V117.743H246.172C246.761 117.743 247.325 117.977 247.741 118.393C248.156 118.809 248.39 119.373 248.39 119.961V139.919H155.252V119.961C155.252 119.373 155.485 118.809 155.901 118.393C156.317 117.977 156.881 117.743 157.469 117.743ZM246.172 210.882H157.469C156.881 210.882 156.317 210.648 155.901 210.232C155.485 209.816 155.252 209.252 155.252 208.664V144.354H248.39V208.664C248.39 209.252 248.156 209.816 247.741 210.232C247.325 210.648 246.761 210.882 246.172 210.882ZM190.733 159.877V195.359C190.733 195.947 190.499 196.511 190.083 196.927C189.667 197.343 189.103 197.576 188.515 197.576C187.927 197.576 187.363 197.343 186.947 196.927C186.531 196.511 186.298 195.947 186.298 195.359V163.464L180.637 166.297C180.111 166.56 179.502 166.604 178.943 166.418C178.385 166.231 177.923 165.831 177.66 165.305C177.397 164.778 177.354 164.169 177.54 163.611C177.726 163.052 178.126 162.591 178.653 162.328L187.523 157.893C187.861 157.723 188.237 157.643 188.615 157.66C188.993 157.677 189.36 157.791 189.682 157.99C190.003 158.188 190.269 158.466 190.453 158.797C190.637 159.127 190.733 159.499 190.733 159.877ZM223.997 175.4L210.691 193.141H223.997C224.585 193.141 225.149 193.375 225.565 193.791C225.981 194.206 226.214 194.77 226.214 195.359C226.214 195.947 225.981 196.511 225.565 196.927C225.149 197.343 224.585 197.576 223.997 197.576H206.256C205.844 197.576 205.44 197.462 205.09 197.245C204.74 197.028 204.457 196.719 204.272 196.35C204.088 195.982 204.01 195.57 204.047 195.159C204.084 194.749 204.235 194.358 204.482 194.028L220.437 172.756C221.313 171.604 221.784 170.195 221.779 168.748C221.781 167.282 221.298 165.856 220.406 164.693C219.515 163.53 218.264 162.693 216.848 162.314C215.432 161.935 213.93 162.034 212.576 162.596C211.222 163.158 210.092 164.151 209.361 165.421C209.054 165.904 208.572 166.249 208.017 166.385C207.461 166.522 206.875 166.438 206.379 166.151C205.884 165.865 205.519 165.399 205.359 164.849C205.2 164.3 205.259 163.71 205.524 163.204C206.745 161.09 208.628 159.438 210.883 158.504C213.138 157.57 215.639 157.406 217.996 158.038C220.354 158.67 222.437 160.062 223.923 161.998C225.409 163.934 226.214 166.307 226.214 168.748C226.223 171.148 225.444 173.485 223.997 175.4ZM123.059 152.155C123.629 152.301 124.233 152.214 124.739 151.914C125.239 151.614 125.6 151.13 125.746 150.565C125.891 150.001 125.808 149.402 125.515 148.898C121.745 142.534 116.368 138.016 110.375 135.881C113.135 134.148 115.429 131.766 117.056 128.943C118.683 126.119 119.594 122.94 119.709 119.683C119.824 116.426 119.14 113.191 117.717 110.259C116.293 107.328 114.173 104.79 111.542 102.866C108.912 100.943 105.85 99.6929 102.625 99.2256C99.3996 98.7583 96.109 99.088 93.0406 100.186C89.9722 101.283 87.2192 103.116 85.0222 105.523C82.8252 107.93 81.2511 110.838 80.4373 113.994C80.2902 114.563 80.3756 115.168 80.6745 115.675C80.9734 116.182 81.4614 116.549 82.0312 116.696C82.6009 116.843 83.2057 116.758 83.7126 116.459C84.2194 116.16 84.5868 115.672 84.7338 115.102C85.4596 112.291 86.9591 109.74 89.062 107.739C91.1649 105.737 93.7869 104.366 96.6303 103.78C99.4736 103.194 102.424 103.417 105.147 104.423C107.87 105.43 110.256 107.18 112.035 109.475C113.813 111.77 114.912 114.518 115.207 117.406C115.502 120.294 114.981 123.207 113.703 125.814C112.426 128.421 110.443 130.617 107.98 132.154C105.517 133.69 102.672 134.505 99.7691 134.506C99.1809 134.506 98.6169 134.74 98.201 135.156C97.7851 135.572 97.5515 136.136 97.5515 136.724C97.5515 137.312 97.7851 137.876 98.201 138.292C98.6169 138.708 99.1809 138.941 99.7691 138.941C100.473 138.941 101.176 138.904 101.876 138.831C102.091 138.901 102.315 138.939 102.541 138.941C110.097 138.941 117.083 143.377 121.701 151.138C122.001 151.644 122.49 152.01 123.059 152.155ZM97.4957 190.496C97.6474 189.928 97.5678 189.324 97.2743 188.815C92.4607 180.549 84.6993 174.41 75.5475 171.629C80.3967 169.112 84.2606 165.04 86.5199 160.065C88.7792 155.091 89.3031 149.502 88.0077 144.194C86.7123 138.886 83.6726 134.167 79.3756 130.793C75.0787 127.419 69.7734 125.584 64.3099 125.584C58.8464 125.584 53.5411 127.419 49.2442 130.793C44.9472 134.167 41.9075 138.886 40.6121 144.194C39.3167 149.502 39.8406 155.091 42.0999 160.065C44.3592 165.04 48.2231 169.112 53.0723 171.629C43.9205 174.41 36.1591 180.549 31.3455 188.815C31.0804 189.322 31.0214 189.911 31.1807 190.461C31.3401 191.01 31.7055 191.476 32.2007 191.763C32.6959 192.049 33.2825 192.133 33.8381 191.997C34.3936 191.861 34.8751 191.515 35.182 191.032C38.1708 185.966 42.4297 181.766 47.538 178.849C52.6462 175.931 58.4272 174.396 64.3099 174.396C70.1926 174.396 75.9736 175.931 81.0818 178.849C86.1901 181.766 90.449 185.966 93.4378 191.032C93.6323 191.369 93.9119 191.649 94.2486 191.844C94.5852 192.038 94.9672 192.141 95.3561 192.141C95.7458 192.142 96.1287 192.039 96.4648 191.842C96.9732 191.547 97.3439 191.063 97.4957 190.496ZM75.3981 166.602C72.116 168.795 68.2573 169.965 64.3099 169.965C59.0166 169.965 53.9402 167.863 50.1973 164.12C46.4544 160.377 44.3517 155.3 44.3517 150.007C44.3517 146.06 45.5222 142.201 47.7152 138.919C49.9083 135.637 53.0253 133.079 56.6722 131.568C60.3191 130.058 64.332 129.662 68.2036 130.432C72.0751 131.202 75.6313 133.103 78.4225 135.895C81.2137 138.686 83.1146 142.242 83.8847 146.113C84.6547 149.985 84.2595 153.998 82.7489 157.645C81.2383 161.292 78.6802 164.409 75.3981 166.602ZM20.6176 132.132C23.0808 133.668 25.9255 134.483 28.8286 134.484C29.4167 134.484 29.9808 134.718 30.3967 135.134C30.8125 135.549 31.0462 136.113 31.0462 136.702C31.0462 137.29 30.8125 137.854 30.3967 138.27C29.9808 138.686 29.4167 138.919 28.8286 138.919C24.0054 138.9 19.245 140.013 14.931 142.17C10.617 144.327 6.86992 147.467 3.99166 151.338C3.63877 151.808 3.11343 152.119 2.5312 152.202C1.94898 152.286 1.35755 152.134 0.887042 151.781C0.416531 151.428 0.105472 150.903 0.0222969 150.321C-0.0608786 149.739 0.0906419 149.147 0.443526 148.677C4.94131 142.637 11.2559 138.197 18.4614 136.009C15.6673 134.309 13.3339 131.948 11.6662 129.135C9.99863 126.321 9.04799 123.141 8.89794 119.874C8.74789 116.607 9.40305 113.353 10.8058 110.398C12.2085 107.444 14.3158 104.879 16.9422 102.93C19.5687 100.982 22.6339 99.708 25.8681 99.2218C29.1023 98.7356 32.4065 99.0516 35.4899 100.142C38.5733 101.233 41.3414 103.064 43.5508 105.476C45.7602 107.887 47.3432 110.805 48.1604 113.971C48.3074 114.541 48.2221 115.146 47.9232 115.653C47.6242 116.16 47.1362 116.527 46.5665 116.674C45.9967 116.821 45.3919 116.736 44.885 116.437C44.3782 116.138 44.0108 115.65 43.8638 115.08C43.138 112.269 41.6385 109.718 39.5356 107.717C37.4327 105.715 34.8107 104.344 31.9673 103.757C29.124 103.171 26.1733 103.394 23.4503 104.401C20.7273 105.408 18.3413 107.158 16.5631 109.453C14.7849 111.748 13.6859 114.495 13.3909 117.383C13.0959 120.272 13.6167 123.185 14.8941 125.792C16.1716 128.398 18.1545 130.595 20.6176 132.132Z" fill="url(#paint0_linear_3534_65722)"/>
<defs>
<linearGradient id="paint0_linear_3534_65722" x1="148" y1="-5" x2="148" y2="310.068" gradientUnits="userSpaceOnUse">
<stop stop-color="white"/>
<stop offset="1" stop-color="white" stop-opacity="0"/>
</linearGradient>
</defs>
</svg>
