<svg width="227" height="220" viewBox="0 0 227 220" fill="none" xmlns="http://www.w3.org/2000/svg">
<path opacity="0.2" fill-rule="evenodd" clip-rule="evenodd" d="M209.105 36.3103H222.384C222.971 36.3103 223.534 36.0771 223.949 35.6621C224.364 35.247 224.597 34.6841 224.597 34.0971C224.597 33.5101 224.364 32.9471 223.949 32.5321C223.534 32.117 222.971 31.8838 222.384 31.8838H209.105C208.518 31.8838 207.955 32.117 207.54 32.5321C207.124 32.9471 206.891 33.5101 206.891 34.0971C206.891 34.6841 207.124 35.247 207.54 35.6621C207.955 36.0771 208.518 36.3103 209.105 36.3103ZM175.906 31.8838H182.546C183.133 31.8838 183.696 32.117 184.111 32.5321C184.526 32.9471 184.759 33.5101 184.759 34.0971C184.759 34.6841 184.526 35.247 184.111 35.6621C183.696 36.0771 183.133 36.3103 182.546 36.3103H175.906V42.95C175.906 43.537 175.673 44.1 175.258 44.515C174.843 44.9301 174.28 45.1633 173.693 45.1633C173.106 45.1633 172.543 44.9301 172.128 44.515C171.713 44.1 171.479 43.537 171.479 42.95V36.3103H164.84C164.253 36.3103 163.69 36.0771 163.275 35.6621C162.86 35.247 162.626 34.6841 162.626 34.0971C162.626 33.5101 162.86 32.9471 163.275 32.5321C163.69 32.117 164.253 31.8838 164.84 31.8838H171.479V25.2441C171.479 24.6571 171.713 24.0942 172.128 23.6791C172.543 23.264 173.106 23.0309 173.693 23.0309C174.28 23.0309 174.843 23.264 175.258 23.6791C175.673 24.0942 175.906 24.6571 175.906 25.2441V31.8838ZM251.154 91.485C253.393 90.1925 255.322 88.4252 256.805 86.3074C258.145 84.3968 259.093 82.2391 259.592 79.9595C260.092 77.68 260.134 75.3239 259.716 73.028L250.658 26.4614C250.661 26.4431 250.661 26.4244 250.658 26.406C249.367 19.2578 245.608 12.7894 240.036 8.12812C234.465 3.46687 227.435 0.908347 220.171 0.898438H171.419C164.148 0.89955 157.11 3.46359 151.542 8.13987C145.974 12.8161 142.233 19.3054 140.975 26.4669L131.918 73.0723C131.469 75.618 131.582 78.2311 132.251 80.7282C132.92 83.2253 134.127 85.5456 135.788 87.5263C137.449 89.507 139.524 91.0999 141.866 92.1932C144.209 93.2864 146.762 93.8535 149.347 93.8546C154.042 93.8505 158.545 91.9863 161.868 88.6701L161.968 88.5649L184.604 62.8692H207.052L229.688 88.5705L229.782 88.6701C231.61 90.4984 233.816 91.9041 236.246 92.7885C238.675 93.6729 241.269 94.0145 243.844 93.7893C246.42 93.5641 248.915 92.7776 251.154 91.485ZM230.334 56.4211C227.112 57.7558 223.659 58.4427 220.171 58.4427H183.564C183.249 58.4431 182.939 58.5104 182.653 58.6402C182.367 58.7699 182.111 58.9591 181.904 59.1952L158.665 85.5826C157.159 87.0722 155.318 88.1799 153.297 88.8133C151.276 89.4466 149.132 89.5873 147.045 89.2234C143.584 88.613 140.506 86.6552 138.485 83.7791C136.465 80.9031 135.667 77.3433 136.267 73.8801L145.33 27.2747C146.402 21.1306 149.606 15.5612 154.379 11.5464C159.151 7.53153 165.187 5.32853 171.424 5.32492H220.171C223.659 5.32492 227.112 6.01189 230.334 7.3466C233.557 8.68131 236.485 10.6376 238.951 13.1038C241.417 15.5701 243.373 18.4979 244.708 21.7202C246.043 24.9424 246.73 28.3961 246.73 31.8838C246.73 35.3716 246.043 38.8252 244.708 42.0475C243.373 45.2697 241.417 48.1976 238.951 50.6638C236.485 53.13 233.557 55.0863 230.334 56.4211ZM249.292 42.4908L255.378 73.8414H255.406C255.896 76.6172 255.49 79.4772 254.247 82.0072C253.004 84.5372 250.988 86.6061 248.492 87.9143C245.995 89.2225 243.146 89.7023 240.359 89.2841C237.571 88.8659 234.989 87.5714 232.985 85.5881L212.978 62.8692H220.171C226.527 62.8636 232.729 60.9061 237.937 57.2615C243.145 53.6169 247.109 48.461 249.292 42.4908ZM104.02 81.8489H23.9341L100.147 61.7305C100.43 61.6561 100.695 61.5264 100.927 61.349C101.159 61.1715 101.354 60.9499 101.5 60.6968C101.646 60.4437 101.741 60.1642 101.778 59.8744C101.816 59.5845 101.795 59.2902 101.719 59.0082L97.2035 42.4089C96.7364 40.7387 95.6302 39.3196 94.1245 38.4591C92.6187 37.5985 90.8346 37.3656 89.1584 37.8109L4.88366 60.054C4.04422 60.2712 3.25656 60.6537 2.56679 61.1791C1.87703 61.7045 1.29902 62.3622 0.866625 63.1138C0.440565 63.8478 0.164444 64.6591 0.0542667 65.5006C-0.0559103 66.3421 0.00204881 67.1972 0.224785 68.0161L4.46868 83.6139C4.43821 83.7614 4.42337 83.9116 4.42441 84.0621V132.753C4.42441 134.514 5.12395 136.203 6.36914 137.448C7.61433 138.694 9.30317 139.393 11.0641 139.393H99.5938C101.355 139.393 103.044 138.694 104.289 137.448C105.534 136.203 106.234 134.514 106.234 132.753V84.0621C106.234 83.4751 106 82.9122 105.585 82.4971C105.17 82.0821 104.607 81.8489 104.02 81.8489ZM54.2224 51.5994L75.2482 63.728L48.7335 70.7273L27.7298 58.6098L54.2224 51.5994ZM90.2761 42.0825C90.4567 42.0352 90.6426 42.0111 90.8294 42.0105C91.3059 41.997 91.7733 42.1425 92.158 42.424C92.5427 42.7055 92.8228 43.1071 92.9541 43.5653L96.8826 58.0178L81.3346 62.1234L60.3088 49.9948L90.2761 42.0825ZM4.67893 65.3215C4.82073 65.077 5.00966 64.863 5.23476 64.6921C5.45987 64.5211 5.71667 64.3965 5.99028 64.3255L21.6324 60.1978L42.6582 72.3209L8.43591 81.362L4.49634 66.8763C4.42615 66.6174 4.4081 66.3471 4.44324 66.0811C4.47839 65.8152 4.56603 65.5588 4.70107 65.327L4.67893 65.3215ZM101.807 132.753C101.807 133.34 101.574 133.903 101.159 134.318C100.744 134.734 100.181 134.967 99.5938 134.967H11.0641C10.4771 134.967 9.9142 134.734 9.49914 134.318C9.08407 133.903 8.85089 133.34 8.85089 132.753V86.2754H101.807V132.753ZM212.899 104.457C212.634 104.25 212.326 104.106 211.997 104.036C211.668 103.966 211.328 103.972 211.001 104.053L140.178 121.759C139.699 121.879 139.274 122.155 138.97 122.544C138.666 122.933 138.501 123.412 138.501 123.906V189.678C135.759 186.569 132.014 184.521 127.918 183.89C123.821 183.258 119.633 184.085 116.083 186.224C112.533 188.363 109.846 191.68 108.49 195.597C107.134 199.514 107.195 203.782 108.663 207.658C110.13 211.535 112.911 214.773 116.521 216.81C120.131 218.847 124.341 219.552 128.418 218.804C132.495 218.056 136.18 215.901 138.831 212.715C141.483 209.529 142.932 205.514 142.927 201.369V152.191L209.325 135.592V171.972C206.583 168.863 202.838 166.815 198.741 166.184C194.645 165.553 190.457 166.379 186.907 168.518C183.357 170.657 180.669 173.974 179.314 177.891C177.958 181.808 178.019 186.076 179.486 189.952C180.954 193.829 183.735 197.067 187.345 199.104C190.955 201.141 195.165 201.846 199.242 201.098C203.319 200.35 207.004 198.195 209.655 195.009C212.306 191.823 213.756 187.808 213.751 183.663V106.2C213.751 105.864 213.674 105.532 213.526 105.23C213.379 104.928 213.164 104.664 212.899 104.457ZM125.222 214.649C122.595 214.649 120.028 213.87 117.844 212.411C115.66 210.951 113.958 208.877 112.953 206.451C111.948 204.024 111.685 201.354 112.197 198.778C112.71 196.202 113.974 193.836 115.832 191.979C117.689 190.122 120.055 188.857 122.631 188.345C125.207 187.832 127.877 188.095 130.303 189.101C132.73 190.106 134.804 191.808 136.263 193.991C137.722 196.175 138.501 198.743 138.501 201.369C138.501 204.891 137.102 208.269 134.612 210.759C132.121 213.25 128.743 214.649 125.222 214.649ZM196.045 196.943C193.419 196.943 190.851 196.164 188.668 194.705C186.484 193.245 184.782 191.172 183.777 188.745C182.772 186.319 182.509 183.648 183.021 181.073C183.533 178.497 184.798 176.13 186.655 174.273C188.512 172.416 190.879 171.151 193.455 170.639C196.031 170.127 198.701 170.389 201.127 171.395C203.554 172.4 205.628 174.102 207.087 176.286C208.546 178.469 209.325 181.037 209.325 183.663C209.325 187.185 207.926 190.563 205.435 193.053C202.945 195.544 199.567 196.943 196.045 196.943ZM142.927 147.632V125.632L209.325 109.033V131.032L142.927 147.632Z" fill="url(#paint0_linear_3534_65829)"/>
<defs>
<linearGradient id="paint0_linear_3534_65829" x1="135" y1="-41.5" x2="135" y2="437.5" gradientUnits="userSpaceOnUse">
<stop stop-color="white"/>
<stop offset="1" stop-color="white" stop-opacity="0"/>
</linearGradient>
</defs>
</svg>
