<svg width="239" height="209" viewBox="0 0 239 209" fill="none" xmlns="http://www.w3.org/2000/svg">
<path opacity="0.2" fill-rule="evenodd" clip-rule="evenodd" d="M254.242 53.1553C254.812 53.3008 255.416 53.2141 255.922 52.9142C256.422 52.6144 256.783 52.1298 256.929 51.5655C257.074 51.0011 256.991 50.4022 256.698 49.8983C252.928 43.5339 247.551 39.0155 241.558 36.8811C244.318 35.1484 246.612 32.7663 248.239 29.9427C249.866 27.1191 250.777 23.94 250.892 20.6832C251.007 17.4263 250.323 14.1908 248.9 11.2593C247.476 8.32783 245.356 5.78951 242.726 3.86614C240.095 1.94277 237.033 0.692857 233.808 0.225599C230.583 -0.241658 227.292 0.0879561 224.224 1.18565C221.155 2.28334 218.402 4.11571 216.205 6.52267C214.008 8.92964 212.434 11.838 211.62 14.9936C211.473 15.5634 211.559 16.1682 211.858 16.675C212.156 17.1819 212.645 17.5492 213.214 17.6963C213.784 17.8433 214.389 17.758 214.896 17.4591C215.403 17.1602 215.77 16.6721 215.917 16.1024C216.643 13.2914 218.142 10.7404 220.245 8.73888C222.348 6.7374 224.97 5.36573 227.813 4.77967C230.657 4.19361 233.607 4.41664 236.33 5.42343C239.053 6.43022 241.439 8.18042 243.218 10.4753C244.996 12.7701 246.095 15.5176 246.39 18.4057C246.685 21.2938 246.164 24.2067 244.887 26.8137C243.609 29.4206 241.626 31.6171 239.163 33.1537C236.7 34.6902 233.855 35.5053 230.952 35.5062C230.364 35.5062 229.8 35.7399 229.384 36.1557C228.968 36.5716 228.735 37.1357 228.735 37.7238C228.735 38.312 228.968 38.876 229.384 39.2919C229.8 39.7078 230.364 39.9414 230.952 39.9414C231.656 39.9408 232.359 39.9038 233.059 39.8305C233.274 39.9012 233.498 39.9386 233.724 39.9414C241.281 39.9414 248.266 44.3766 252.884 52.1381C253.184 52.6438 253.673 53.0097 254.242 53.1553ZM228.679 91.4957C228.831 90.9282 228.751 90.3237 228.457 89.8148C223.644 81.5492 215.882 75.4098 206.731 72.6285C211.58 70.1116 215.444 66.0396 217.703 61.0652C219.962 56.0907 220.486 50.5018 219.191 45.1941C217.895 39.8864 214.856 35.1672 210.559 31.7929C206.262 28.4186 200.956 26.5844 195.493 26.5844C190.03 26.5844 184.724 28.4186 180.427 31.7929C176.13 35.1672 173.091 39.8864 171.795 45.1941C170.5 50.5018 171.024 56.0907 173.283 61.0652C175.542 66.0396 179.406 70.1116 184.255 72.6285C175.104 75.4098 167.342 81.5492 162.529 89.8148C162.264 90.3216 162.204 90.9113 162.364 91.4606C162.523 92.0099 162.889 92.4764 163.384 92.7626C163.879 93.0489 164.466 93.1327 165.021 92.9966C165.577 92.8605 166.058 92.5151 166.365 92.0324C169.354 86.9656 173.613 82.766 178.721 79.8485C183.829 76.931 189.61 75.3965 195.493 75.3965C201.376 75.3965 207.157 76.931 212.265 79.8485C217.373 82.766 221.632 86.9656 224.621 92.0324C224.815 92.3692 225.095 92.6489 225.432 92.8435C225.768 93.0381 226.15 93.1408 226.539 93.1412C226.929 93.1424 227.312 93.039 227.648 92.8418C228.156 92.5474 228.527 92.0633 228.679 91.4957ZM206.581 67.6018C203.299 69.7948 199.44 70.9654 195.493 70.9654C190.2 70.9654 185.123 68.8626 181.38 65.1197C177.637 61.3768 175.535 56.3004 175.535 51.0071C175.535 47.0598 176.705 43.201 178.898 39.9189C181.091 36.6368 184.208 34.0787 187.855 32.5681C191.502 31.0575 195.515 30.6623 199.387 31.4324C203.258 32.2025 206.814 34.1033 209.606 36.8945C212.397 39.6857 214.298 43.2419 215.068 47.1135C215.838 50.985 215.443 54.9979 213.932 58.6448C212.421 62.2917 209.863 65.4088 206.581 67.6018ZM151.801 33.1315C154.264 34.6681 157.109 35.4831 160.012 35.4841C160.6 35.4841 161.164 35.7177 161.58 36.1336C161.996 36.5494 162.229 37.1135 162.229 37.7016C162.229 38.2898 161.996 38.8538 161.58 39.2697C161.164 39.6856 160.6 39.9192 160.012 39.9192C155.189 39.8997 150.428 41.0132 146.114 43.1703C141.8 45.3273 138.053 48.4674 135.175 52.3377C134.822 52.8082 134.297 53.1192 133.714 53.2024C133.132 53.2856 132.541 53.1341 132.07 52.7812C131.6 52.4283 131.289 51.903 131.205 51.3207C131.122 50.7385 131.274 50.1471 131.627 49.6766C136.124 43.6369 142.439 39.1972 149.644 37.0086C146.85 35.3087 144.517 32.9481 142.849 30.1347C141.182 27.3212 140.231 24.141 140.081 20.8739C139.931 17.6068 140.586 14.3528 141.989 11.3983C143.392 8.44386 145.499 5.87937 148.125 3.93047C150.752 1.98157 153.817 0.707994 157.051 0.221782C160.285 -0.26443 163.59 0.0516205 166.673 1.14213C169.756 2.23264 172.525 4.06419 174.734 6.47566C176.943 8.88712 178.526 11.8046 179.343 14.9714C179.49 15.5412 179.405 16.146 179.106 16.6529C178.807 17.1597 178.319 17.5271 177.75 17.6741C177.18 17.8211 176.575 17.7358 176.068 17.4369C175.561 17.138 175.194 16.65 175.047 16.0802C174.321 13.2693 172.822 10.7182 170.719 8.71671C168.616 6.71523 165.994 5.34356 163.15 4.7575C160.307 4.17143 157.356 4.39446 154.633 5.40125C151.91 6.40804 149.524 8.15824 147.746 10.4531C145.968 12.7479 144.869 15.4954 144.574 18.3835C144.279 21.2716 144.8 24.1845 146.077 26.7915C147.355 29.3985 149.338 31.595 151.801 33.1315ZM95.3556 18.9624H79.8325V12.3096C79.8325 11.7215 79.5988 11.1574 79.183 10.7416C78.7671 10.3257 78.203 10.092 77.6149 10.092C77.0268 10.092 76.4627 10.3257 76.0468 10.7416C75.631 11.1574 75.3973 11.7215 75.3973 12.3096V18.9624H26.6105V12.3096C26.6105 11.7215 26.3769 11.1574 25.961 10.7416C25.5451 10.3257 24.9811 10.092 24.3929 10.092C23.8048 10.092 23.2407 10.3257 22.8249 10.7416C22.409 11.1574 22.1753 11.7215 22.1753 12.3096V18.9624H6.65226C4.88784 18.9624 3.19569 19.6633 1.94806 20.9109C0.700423 22.1585 -0.000488281 23.8507 -0.000488281 25.6151V114.318C-0.000488281 116.083 0.700423 117.775 1.94806 119.023C3.19569 120.27 4.88784 120.971 6.65226 120.971H95.3556C97.12 120.971 98.8121 120.27 100.06 119.023C101.307 117.775 102.008 116.083 102.008 114.318V25.6151C102.008 23.8507 101.307 22.1585 100.06 20.9109C98.8121 19.6633 97.12 18.9624 95.3556 18.9624ZM6.65226 23.3975H22.1753V30.0503C22.1753 30.6384 22.409 31.2025 22.8249 31.6183C23.2407 32.0342 23.8048 32.2679 24.3929 32.2679C24.9811 32.2679 25.5451 32.0342 25.961 31.6183C26.3769 31.2025 26.6105 30.6384 26.6105 30.0503V23.3975H75.3973V30.0503C75.3973 30.6384 75.631 31.2025 76.0468 31.6183C76.4627 32.0342 77.0268 32.2679 77.6149 32.2679C78.203 32.2679 78.7671 32.0342 79.183 31.6183C79.5988 31.2025 79.8325 30.6384 79.8325 30.0503V23.3975H95.3556C95.9437 23.3975 96.5078 23.6312 96.9236 24.047C97.3395 24.4629 97.5731 25.027 97.5731 25.6151V45.5734H4.43468V25.6151C4.43468 25.027 4.66831 24.4629 5.08419 24.047C5.50007 23.6312 6.06412 23.3975 6.65226 23.3975ZM95.3556 116.536H6.65226C6.06412 116.536 5.50007 116.302 5.08419 115.886C4.66831 115.471 4.43468 114.907 4.43468 114.318V50.0085H97.5731V114.318C97.5731 114.907 97.3395 115.471 96.9236 115.886C96.5078 116.302 95.9437 116.536 95.3556 116.536ZM39.916 65.5316V101.013C39.916 101.601 39.6824 102.165 39.2665 102.581C38.8506 102.997 38.2866 103.23 37.6984 103.23C37.1103 103.23 36.5462 102.997 36.1303 102.581C35.7145 102.165 35.4808 101.601 35.4808 101.013V69.1185L29.8205 71.9515C29.2941 72.2147 28.6847 72.258 28.1264 72.0719C27.5681 71.8858 27.1065 71.4855 26.8433 70.9591C26.5802 70.4327 26.5368 69.8234 26.723 69.265C26.9091 68.7067 27.3093 68.2452 27.8357 67.982L36.706 63.5469C37.0443 63.3776 37.4201 63.2977 37.798 63.3147C38.1758 63.3316 38.543 63.445 38.8646 63.6438C39.1863 63.8427 39.4518 64.1206 39.6358 64.451C39.8198 64.7814 39.9163 65.1534 39.916 65.5316ZM73.1797 81.0547L59.8742 98.7953H73.1797C73.7679 98.7953 74.3319 99.029 74.7478 99.4448C75.1637 99.8607 75.3973 100.425 75.3973 101.013C75.3973 101.601 75.1637 102.165 74.7478 102.581C74.3319 102.997 73.7679 103.23 73.1797 103.23H55.4391C55.0272 103.23 54.6235 103.116 54.2732 102.899C53.9229 102.683 53.6398 102.373 53.4556 102.005C53.2714 101.636 53.1935 101.224 53.2304 100.814C53.2674 100.404 53.4179 100.012 53.665 99.6824L69.6205 78.4102C70.496 77.2578 70.9675 75.8491 70.9622 74.4019C70.9638 72.9361 70.4812 71.5107 69.5895 70.3473C68.6977 69.1839 67.4467 68.3476 66.0307 67.9683C64.6148 67.589 63.1132 67.688 61.7593 68.2499C60.4054 68.8118 59.275 69.8051 58.5437 71.0755C58.2368 71.5582 57.7554 71.9037 57.1998 72.0398C56.6443 72.1758 56.0577 72.092 55.5625 71.8058C55.0673 71.5195 54.7018 71.053 54.5425 70.5037C54.3831 69.9544 54.4421 69.3648 54.7073 68.858C55.9277 66.7443 57.8115 65.0924 60.0665 64.1584C62.3215 63.2244 64.8216 63.0606 67.1792 63.6923C69.5368 64.324 71.62 65.716 73.1059 67.6523C74.5918 69.5887 75.3972 71.9612 75.3973 74.4019C75.4058 76.8024 74.6268 79.1394 73.1797 81.0547ZM118.643 128.743H140.763C141.977 128.682 171.006 126.869 198.631 103.701C199.6 102.886 200.782 102.365 202.037 102.199C203.292 102.032 204.568 102.228 205.716 102.761C206.864 103.295 207.836 104.146 208.518 105.212C209.199 106.279 209.562 107.518 209.564 108.784V197.488C209.572 198.755 209.214 199.997 208.534 201.066C207.853 202.135 206.879 202.985 205.727 203.514C204.845 203.923 203.884 204.137 202.911 204.14C201.349 204.137 199.839 203.581 198.648 202.572C175.108 182.824 150.548 178.594 143.053 177.735V197.854C143.055 198.95 142.785 200.03 142.269 200.997C141.752 201.964 141.005 202.789 140.093 203.398L133.994 207.461C133.11 208.051 132.098 208.42 131.042 208.538C129.986 208.656 128.917 208.519 127.924 208.139C126.932 207.759 126.045 207.147 125.338 206.354C124.631 205.561 124.124 204.61 123.86 203.581L116.935 177.474C110.617 177.048 104.712 174.181 100.469 169.479C96.2259 164.778 93.9776 158.611 94.1994 152.282C94.4211 145.953 97.0956 139.958 101.657 135.565C106.219 131.172 112.31 128.726 118.643 128.743ZM143.036 173.261C150.537 174.009 176.3 178.04 201.481 199.179C201.803 199.451 202.197 199.626 202.616 199.682C203.035 199.738 203.46 199.674 203.844 199.496C204.227 199.318 204.551 199.035 204.779 198.679C205.007 198.323 205.128 197.91 205.129 197.488V108.784C205.129 108.363 205.009 107.951 204.783 107.596C204.557 107.24 204.235 106.956 203.854 106.778C203.548 106.64 203.218 106.569 202.883 106.567C202.364 106.576 201.866 106.773 201.481 107.121C176.3 128.238 150.537 132.269 143.036 133.017V173.261ZM128.14 202.477C128.226 202.822 128.393 203.141 128.629 203.408C128.864 203.674 129.16 203.88 129.491 204.009C129.823 204.137 130.18 204.184 130.534 204.145C130.887 204.106 131.226 203.983 131.522 203.786L137.62 199.722C137.924 199.519 138.173 199.245 138.345 198.923C138.517 198.601 138.607 198.241 138.607 197.876V177.529H121.531L128.14 202.477ZM118.643 173.094H138.601V133.178H118.643C113.35 133.178 108.273 135.281 104.53 139.023C100.787 142.766 98.6847 147.843 98.6847 153.136C98.6847 158.429 100.787 163.506 104.53 167.249C108.273 170.992 113.35 173.094 118.643 173.094Z" fill="url(#paint0_linear_2601_7404)"/>
<defs>
<linearGradient id="paint0_linear_2601_7404" x1="124.999" y1="-22" x2="124.999" y2="293.068" gradientUnits="userSpaceOnUse">
<stop stop-color="white"/>
<stop offset="1" stop-color="white" stop-opacity="0"/>
</linearGradient>
</defs>
</svg>
