<svg width="228" height="222" viewBox="0 0 228 222" fill="none" xmlns="http://www.w3.org/2000/svg">
<path opacity="0.2" fill-rule="evenodd" clip-rule="evenodd" d="M150.769 -2.26089C160.272 -8.61077 171.445 -12 182.874 -12C198.196 -11.9832 212.885 -5.88936 223.718 4.94443C234.552 15.7782 240.646 30.4672 240.663 45.7885C240.663 57.2179 237.274 68.3908 230.924 77.894C224.574 87.3973 215.549 94.8042 204.989 99.178C194.43 103.552 182.81 104.696 171.6 102.467C160.391 100.237 150.094 94.7329 142.012 86.6511C133.93 78.5692 128.426 68.2723 126.196 57.0624C123.967 45.8526 125.111 34.2332 129.485 23.6738C133.859 13.1143 141.266 4.08899 150.769 -2.26089ZM206.851 61.9692H233.52C236.88 51.4436 236.88 40.1333 233.52 29.6077H206.851C208.785 40.3082 208.785 51.2687 206.851 61.9692ZM181.996 98.7681C182.273 98.8905 182.572 98.9537 182.874 98.9539C183.177 98.9537 183.476 98.8905 183.753 98.7681C184.029 98.6457 184.277 98.4668 184.481 98.2431C192.369 89.7482 198.073 78.7568 201.13 66.5923H164.619C167.676 78.7568 173.38 89.7482 181.268 98.2431C181.471 98.4668 181.719 98.6457 181.996 98.7681ZM163.602 29.6077C161.56 40.2983 161.56 51.2787 163.602 61.9692H202.147C204.189 51.2787 204.189 40.2983 202.147 29.6077H163.602ZM183.753 -7.19112C183.476 -7.31352 183.177 -7.3768 182.874 -7.37692C182.572 -7.3768 182.273 -7.31352 181.996 -7.19112C181.719 -7.06872 181.471 -6.88991 181.268 -6.66612C173.38 1.82878 167.676 12.849 164.619 24.9846H201.13C198.073 12.849 192.369 1.82878 184.481 -6.66612C184.277 -6.88991 184.029 -7.06872 183.753 -7.19112ZM205.88 24.9846H231.798C228.21 16.5871 222.526 9.25139 215.29 3.68016C208.054 -1.89107 199.509 -5.51126 190.474 -6.83371C197.79 2.03104 203.043 13.0051 205.88 24.9846ZM159.869 24.9846C162.706 13.0051 167.977 2.03104 175.275 -6.83371C166.239 -5.51126 157.695 -1.89107 150.459 3.68016C143.223 9.25139 137.539 16.5871 133.951 24.9846H159.869ZM158.898 29.6077H132.229C128.869 40.1333 128.869 51.4436 132.229 61.9692H158.898C156.964 51.2687 156.964 40.3082 158.898 29.6077ZM159.869 66.5923H133.962H133.951C137.539 74.9899 143.223 82.3255 150.459 87.8968C157.695 93.468 166.239 97.0882 175.275 98.4106C167.959 89.5459 162.706 78.5719 159.869 66.5923ZM190.487 98.4087C199.52 97.0865 208.062 93.468 215.297 87.8994C222.535 82.328 228.22 74.9914 231.81 66.5923H205.892C203.054 78.571 197.785 89.5443 190.487 98.4087ZM96.6702 67.2682L73.5548 44.1528C73.34 43.9382 73.085 43.7681 72.8044 43.6521C72.5238 43.536 72.2231 43.4765 71.9194 43.4767H25.6886C23.8495 43.4767 22.0856 44.2073 20.7851 45.5078C19.4846 46.8083 18.754 48.5721 18.754 50.4113V61.969H7.19634C5.35716 61.969 3.59331 62.6996 2.29282 64.0001C0.992327 65.3006 0.261719 67.0644 0.261719 68.9036V152.119C0.261719 153.958 0.992327 155.722 2.29282 157.023C3.59331 158.323 5.35716 159.054 7.19634 159.054H71.9194C73.7586 159.054 75.5224 158.323 76.8229 157.023C78.1234 155.722 78.854 153.958 78.854 152.119V140.561H90.4117C92.2509 140.561 94.0148 139.831 95.3152 138.53C96.6157 137.23 97.3464 135.466 97.3464 133.627V68.9036C97.3466 68.6 97.287 68.2993 97.171 68.0186C97.055 67.738 96.8848 67.483 96.6702 67.2682ZM74.231 152.119C74.231 152.732 73.9874 153.32 73.5539 153.754C73.1204 154.187 72.5325 154.431 71.9194 154.431H7.19634C6.58328 154.431 5.99533 154.187 5.56183 153.754C5.12833 153.32 4.8848 152.732 4.8848 152.119V68.9036C4.8848 68.2906 5.12833 67.7026 5.56183 67.2691C5.99533 66.8356 6.58328 66.5921 7.19634 66.5921H52.4678L74.231 88.3552V152.119ZM92.7233 133.627C92.7233 134.24 92.4797 134.828 92.0462 135.261C91.6127 135.695 91.0248 135.938 90.4117 135.938H78.854V87.3959C78.8543 87.0923 78.7947 86.7916 78.6787 86.511C78.5627 86.2303 78.3925 85.9753 78.1779 85.7605L55.0625 62.6451C54.8477 62.4305 54.5927 62.2604 54.3121 62.1444C54.0315 62.0284 53.7308 61.9688 53.4271 61.969H23.3771V50.4113C23.3771 49.7982 23.6206 49.2103 24.0541 48.7768C24.4876 48.3433 25.0756 48.0998 25.6886 48.0998H70.9601L92.7233 69.8629V133.627ZM55.7387 115.134C55.7387 115.747 55.4951 116.335 55.0616 116.769C54.6281 117.202 54.0402 117.446 53.4271 117.446H25.6886C25.0756 117.446 24.4876 117.202 24.0541 116.769C23.6206 116.335 23.3771 115.747 23.3771 115.134C23.3771 114.521 23.6206 113.933 24.0541 113.5C24.4876 113.066 25.0756 112.823 25.6886 112.823H53.4271C54.0402 112.823 54.6281 113.066 55.0616 113.5C55.4951 113.933 55.7387 114.521 55.7387 115.134ZM55.7387 133.627C55.7387 134.24 55.4951 134.828 55.0616 135.261C54.6281 135.695 54.0402 135.938 53.4271 135.938H25.6886C25.0756 135.938 24.4876 135.695 24.0541 135.261C23.6206 134.828 23.3771 134.24 23.3771 133.627C23.3771 133.014 23.6206 132.426 24.0541 131.992C24.4876 131.559 25.0756 131.315 25.6886 131.315H53.4271C54.0402 131.315 54.6281 131.559 55.0616 131.992C55.4951 132.426 55.7387 133.014 55.7387 133.627ZM178.91 220.266C178.782 220.763 178.492 221.203 178.086 221.517C177.68 221.831 177.181 222.001 176.668 222C176.473 222.001 176.279 221.977 176.09 221.931L157.598 217.307C157.34 217.244 157.096 217.136 156.875 216.99L143.006 207.743C142.753 207.575 142.536 207.358 142.367 207.106C142.198 206.854 142.081 206.571 142.021 206.273C141.961 205.975 141.961 205.668 142.02 205.37C142.079 205.072 142.196 204.789 142.364 204.536C142.705 204.026 143.234 203.672 143.835 203.551C144.133 203.492 144.44 203.491 144.738 203.55C145.036 203.609 145.319 203.726 145.572 203.895L159.106 212.921L177.246 217.446C177.54 217.522 177.817 217.654 178.061 217.837C178.304 218.02 178.509 218.249 178.663 218.511C178.818 218.773 178.919 219.063 178.962 219.364C179.004 219.665 178.986 219.972 178.91 220.266ZM255.636 164.356C255.352 165.22 254.899 166.019 254.304 166.706C253.709 167.394 252.983 167.956 252.168 168.361L238.149 175.376L206.053 207.472C205.768 207.749 205.416 207.948 205.031 208.049C204.646 208.15 204.242 208.151 203.857 208.05L166.873 198.804C166.589 198.735 166.322 198.611 166.087 198.44L133.864 175.445L119.671 168.343C118.856 167.936 118.13 167.373 117.533 166.685C116.936 165.997 116.48 165.198 116.192 164.334C115.904 163.47 115.789 162.558 115.853 161.649C115.918 160.741 116.16 159.854 116.568 159.039L130.922 130.33C131.329 129.515 131.893 128.789 132.581 128.192C133.269 127.595 134.068 127.139 134.932 126.851C135.796 126.563 136.708 126.448 137.616 126.512C138.525 126.577 139.412 126.82 140.226 127.227L153.783 134.005L185.278 125.002C185.694 124.886 186.134 124.886 186.55 125.002L218.044 134.005L231.601 127.227C232.416 126.82 233.303 126.577 234.211 126.512C235.12 126.448 236.032 126.563 236.896 126.851C237.76 127.139 238.559 127.595 239.247 128.192C239.935 128.789 240.498 129.515 240.905 130.33L255.26 159.045C255.67 159.859 255.915 160.745 255.979 161.654C256.044 162.563 255.927 163.475 255.636 164.339V164.356ZM121.734 164.211L134.026 170.354L150.449 137.507L138.163 131.364C137.892 131.228 137.596 131.147 137.294 131.125C136.991 131.103 136.687 131.14 136.399 131.236C136.11 131.331 135.844 131.483 135.614 131.681C135.385 131.88 135.196 132.122 135.06 132.393L120.705 161.108C120.569 161.379 120.488 161.675 120.466 161.978C120.444 162.281 120.481 162.585 120.577 162.873C120.672 163.161 120.824 163.428 121.022 163.657C121.221 163.887 121.463 164.075 121.734 164.211ZM224.054 182.894L204.533 167.257C193.825 176.942 179.811 178.531 168.323 171.192C167.445 170.636 166.704 169.889 166.153 169.007C165.603 168.125 165.258 167.131 165.144 166.098C165.029 165.065 165.149 164.019 165.493 163.039C165.837 162.058 166.398 161.167 167.133 160.432L193.542 134.814C193.975 134.394 194.556 134.159 195.16 134.161H201.771L185.914 129.631L155.165 138.415L138.013 172.724L168.41 194.435L203.695 203.259L224.054 182.894ZM233.948 173.001L216.848 138.784H196.096L170.386 163.726C170.147 163.966 169.965 164.257 169.854 164.577C169.742 164.897 169.705 165.239 169.745 165.575C169.782 165.926 169.897 166.264 170.082 166.564C170.267 166.864 170.517 167.118 170.814 167.309C178.875 172.458 191.502 173.92 202.765 162.57C203.167 162.166 203.705 161.924 204.275 161.892C204.844 161.86 205.406 162.04 205.851 162.397L227.354 179.618L233.948 173.001ZM251.117 161.108L236.768 132.393C236.632 132.122 236.443 131.88 236.214 131.681C235.984 131.483 235.717 131.331 235.429 131.236C235.141 131.14 234.837 131.103 234.534 131.125C234.231 131.147 233.936 131.228 233.665 131.364L221.379 137.507L237.802 170.354L250.094 164.211C250.365 164.075 250.607 163.887 250.805 163.657C251.004 163.428 251.155 163.161 251.251 162.873C251.346 162.585 251.384 162.281 251.362 161.978C251.34 161.675 251.259 161.379 251.122 161.108H251.117Z" fill="url(#paint0_linear_3534_65701)"/>
<defs>
<linearGradient id="paint0_linear_3534_65701" x1="116.909" y1="-12" x2="116.909" y2="404.94" gradientUnits="userSpaceOnUse">
<stop stop-color="white"/>
<stop offset="1" stop-color="white" stop-opacity="0"/>
</linearGradient>
</defs>
</svg>
