<svg width="232" height="192" viewBox="0 0 232 192" fill="none" xmlns="http://www.w3.org/2000/svg">
<path opacity="0.2" fill-rule="evenodd" clip-rule="evenodd" d="M166.278 57.2513C172.38 54.4751 177.348 49.6936 180.355 43.702C183.363 37.7103 184.228 30.8697 182.808 24.3179C181.387 17.7661 177.767 11.898 172.548 7.68955C167.33 3.48113 160.828 1.18605 154.124 1.18605C147.42 1.18605 140.918 3.48113 135.699 7.68955C130.481 11.898 126.86 17.7661 125.44 24.3179C124.02 30.8697 124.885 37.7103 127.893 43.702C130.9 49.6936 135.868 54.4751 141.97 57.2513C130.34 60.2659 120.257 67.5214 113.705 77.5919C113.55 77.8224 113.442 78.0815 113.388 78.354C113.334 78.6265 113.334 78.9071 113.39 79.1793C113.445 79.4516 113.554 79.7102 113.71 79.94C113.866 80.1699 114.066 80.3664 114.299 80.5182C114.532 80.67 114.792 80.774 115.065 80.8242C115.339 80.8744 115.619 80.8697 115.891 80.8106C116.162 80.7514 116.419 80.6389 116.647 80.4795C116.874 80.3202 117.068 80.1171 117.216 79.8823C121.214 73.7349 126.684 68.6834 133.129 65.1864C139.574 61.6895 146.791 59.8578 154.124 59.8578C161.457 59.8578 168.674 61.6895 175.119 65.1864C181.564 68.6834 187.034 73.7349 191.032 79.8823C191.18 80.1171 191.374 80.3202 191.601 80.4795C191.829 80.6389 192.086 80.7514 192.357 80.8106C192.629 80.8697 192.909 80.8744 193.182 80.8242C193.456 80.774 193.716 80.67 193.949 80.5182C194.182 80.3664 194.382 80.1699 194.538 79.94C194.694 79.7102 194.803 79.4516 194.858 79.1793C194.914 78.9071 194.914 78.6265 194.86 78.354C194.806 78.0815 194.698 77.8224 194.543 77.5919C187.991 67.5214 177.908 60.2659 166.278 57.2513ZM128.967 30.5218C128.967 25.5462 130.442 20.6823 133.206 16.5452C135.971 12.4082 139.9 9.18371 144.497 7.27962C149.094 5.37554 154.152 4.87734 159.032 5.84804C163.912 6.81873 168.394 9.21472 171.913 12.733C175.431 16.2513 177.827 20.7339 178.798 25.6139C179.768 30.4939 179.27 35.5522 177.366 40.1491C175.462 44.7459 172.238 48.6749 168.1 51.4392C163.963 54.2035 159.1 55.679 154.124 55.679C147.454 55.6721 141.059 53.0193 136.343 48.303C131.626 43.5866 128.974 37.1918 128.967 30.5218ZM240.078 80.4955C239.612 80.7981 239.045 80.9035 238.502 80.7885C237.958 80.6735 237.483 80.3476 237.179 79.8823C233.184 73.7274 227.711 68.6714 221.259 65.1759C214.808 61.6805 207.583 59.8569 200.245 59.8719C199.689 59.8719 199.156 59.651 198.763 59.2578C198.37 58.8647 198.149 58.3314 198.149 57.7754C198.149 57.2194 198.37 56.6862 198.763 56.293C199.156 55.8999 199.689 55.679 200.245 55.679C203.951 55.677 207.61 54.8564 210.962 53.2759C214.313 51.6954 217.274 49.394 219.633 46.5362C221.992 43.6785 223.691 40.3349 224.607 36.7445C225.524 33.1541 225.636 29.4055 224.935 25.7668C224.235 22.1281 222.739 18.689 220.556 15.6953C218.372 12.7017 215.553 10.2275 212.302 8.44958C209.051 6.67163 205.447 5.63385 201.749 5.41042C198.05 5.18699 194.347 5.78343 190.906 7.15709C190.65 7.26033 190.377 7.3122 190.101 7.30974C189.825 7.30727 189.553 7.25052 189.299 7.14272C189.045 7.03492 188.815 6.87818 188.622 6.68146C188.428 6.48474 188.276 6.25189 188.173 5.9962C188.069 5.74051 188.017 5.46698 188.02 5.19125C188.022 4.91551 188.079 4.64296 188.187 4.38916C188.295 4.13535 188.451 3.90527 188.648 3.71204C188.845 3.51881 189.078 3.36622 189.333 3.26298C196.492 0.204932 204.572 0.11588 211.797 3.01541C219.021 5.91495 224.797 11.5655 227.855 18.7242C230.913 25.8828 231.002 33.963 228.103 41.1872C225.203 48.4115 219.553 54.188 212.394 57.2461C224.029 60.2672 234.112 67.5325 240.659 77.6129C240.96 78.0736 241.067 78.634 240.959 79.1733C240.85 79.7126 240.533 80.1874 240.078 80.4955ZM0.728509 62.4551C0.502018 62.6501 0.31984 62.8913 0.194193 63.1625C0.0685464 63.4337 0.00233571 63.7286 0 64.0274V152.046C0 152.602 0.220874 153.135 0.614031 153.529C1.00719 153.922 1.54042 154.143 2.09643 154.143C2.65244 154.143 3.18567 153.922 3.57883 153.529C3.97199 153.135 4.19286 152.602 4.19286 152.046V127.869C19.6023 115.09 33.0527 121.738 47.2776 128.769L47.2902 128.776C55.938 133.058 64.7588 137.423 74.0879 137.423C80.9746 137.423 88.1392 135.039 95.7126 128.482C95.9381 128.287 96.1193 128.045 96.244 127.774C96.3687 127.503 96.4341 127.208 96.4358 126.91V64.0169C96.4336 63.616 96.3164 63.2242 96.0982 62.8878C95.88 62.5514 95.5699 62.2847 95.2048 62.1192C94.8396 61.9537 94.4346 61.8964 94.0378 61.9541C93.6411 62.0118 93.2692 62.182 92.9662 62.4446C77.2758 76.043 63.673 69.3229 49.236 62.1906L49.1456 62.1459C34.1037 54.7088 18.5534 47.0254 0.728509 62.4551ZM92.243 125.93C76.8298 138.717 63.3765 132.063 49.1479 125.024L49.1456 125.023L49.1072 125.004C35.0626 118.055 20.5668 110.883 4.19286 122.581V65.0023C19.606 52.2147 33.0593 58.8695 47.288 65.9078L47.2902 65.909L47.3286 65.928C61.3732 72.877 75.869 80.0492 92.243 68.3513V125.93ZM152.317 115.615H131.406C125.419 115.599 119.66 117.912 115.348 122.064C111.035 126.217 108.507 131.884 108.297 137.868C108.088 143.851 110.213 149.681 114.224 154.126C118.236 158.57 123.818 161.281 129.791 161.684L136.337 186.364C136.587 187.337 137.066 188.236 137.735 188.986C138.404 189.735 139.242 190.314 140.18 190.673C141.118 191.032 142.129 191.162 143.127 191.05C144.125 190.939 145.082 190.59 145.918 190.033L151.683 186.191C152.546 185.616 153.252 184.836 153.741 183.922C154.229 183.007 154.484 181.986 154.482 180.95V161.93C161.568 162.742 184.786 166.741 207.04 185.41C208.166 186.365 209.594 186.89 211.07 186.893C211.99 186.89 212.898 186.688 213.732 186.301C214.821 185.801 215.742 184.997 216.385 183.987C217.029 182.976 217.367 181.802 217.359 180.604V96.7467C217.358 95.5499 217.014 94.3784 216.37 93.3698C215.726 92.3612 214.807 91.5574 213.722 91.0527C212.637 90.5481 211.43 90.3636 210.243 90.5209C209.057 90.6781 207.94 91.1707 207.024 91.9406C180.908 113.843 153.465 115.557 152.317 115.615ZM209.718 182.202C185.913 162.218 161.557 158.408 154.466 157.7V119.655C161.557 118.948 185.913 115.138 209.718 95.1744C210.082 94.8454 210.553 94.6592 211.044 94.6503C211.36 94.6518 211.672 94.7197 211.961 94.8494C212.321 95.0186 212.626 95.2868 212.839 95.6228C213.053 95.9588 213.166 96.3486 213.166 96.7467V180.604C213.166 181.003 213.051 181.394 212.836 181.73C212.621 182.067 212.314 182.335 211.952 182.502C211.589 182.67 211.187 182.731 210.791 182.678C210.395 182.625 210.023 182.46 209.718 182.202ZM140.846 186.201C140.623 185.949 140.465 185.647 140.384 185.321L134.136 161.736H150.279V180.971C150.279 181.316 150.194 181.656 150.031 181.96C149.868 182.265 149.633 182.524 149.346 182.716L143.581 186.558C143.301 186.744 142.981 186.861 142.647 186.897C142.313 186.934 141.975 186.89 141.661 186.769C141.348 186.647 141.068 186.453 140.846 186.201ZM150.273 157.543H131.406C126.402 157.543 121.602 155.555 118.064 152.017C114.526 148.479 112.538 143.679 112.538 138.675C112.538 133.671 114.526 128.872 118.064 125.334C121.602 121.795 126.402 119.807 131.406 119.807H150.273V157.543Z" fill="url(#paint0_linear_3534_65786)"/>
<defs>
<linearGradient id="paint0_linear_3534_65786" x1="107.751" y1="-2.09668" x2="107.751" y2="301" gradientUnits="userSpaceOnUse">
<stop stop-color="white"/>
<stop offset="1" stop-color="white" stop-opacity="0"/>
</linearGradient>
</defs>
</svg>
