<svg width="227" height="206" viewBox="0 0 227 206" fill="none" xmlns="http://www.w3.org/2000/svg">
<path opacity="0.2" fill-rule="evenodd" clip-rule="evenodd" d="M220.574 -6H144.421C142.738 -6 141.124 -5.3314 139.934 -4.14128C138.744 -2.95116 138.075 -1.33701 138.075 0.34608V10.9229H127.498C125.815 10.9229 124.201 11.5915 123.011 12.7816C121.821 13.9717 121.152 15.5859 121.152 17.269V76.499C121.152 78.1821 121.821 79.7963 123.011 80.9864C124.201 82.1765 125.815 82.8451 127.498 82.8451H203.651C205.334 82.8451 206.949 82.1765 208.139 80.9864C209.329 79.7963 209.997 78.1821 209.997 76.499V65.9222H220.574C222.257 65.9222 223.871 65.2536 225.062 64.0635C226.252 62.8734 226.92 61.2592 226.92 59.5762V0.34608C226.92 -1.33701 226.252 -2.95116 225.062 -4.14128C223.871 -5.3314 222.257 -6 220.574 -6ZM142.306 0.34608C142.306 -0.214948 142.529 -0.752998 142.926 -1.1497C143.322 -1.54641 143.86 -1.76928 144.421 -1.76928H220.574C221.135 -1.76928 221.673 -1.54641 222.07 -1.1497C222.467 -0.752998 222.69 -0.214948 222.69 0.34608V38.6341L213.758 29.702C213.168 29.1104 212.467 28.6409 211.696 28.3206C210.925 28.0003 210.098 27.8355 209.262 27.8355C208.427 27.8355 207.6 28.0003 206.829 28.3206C206.057 28.6409 205.357 29.1104 204.767 29.702L192.694 41.7754L167.949 17.0098C167.36 16.4182 166.659 15.9488 165.888 15.6285C165.116 15.3082 164.289 15.1433 163.454 15.1433C162.619 15.1433 161.792 15.3082 161.021 15.6285C160.249 15.9488 159.549 16.4182 158.959 17.0098L142.306 33.663V0.34608ZM205.767 76.499C205.767 77.0601 205.544 77.5981 205.147 77.9948C204.75 78.3915 204.212 78.6144 203.651 78.6144H127.498C126.937 78.6144 126.399 78.3915 126.003 77.9948C125.606 77.5981 125.383 77.0601 125.383 76.499V17.269C125.383 16.7079 125.606 16.1699 126.003 15.7732C126.399 15.3765 126.937 15.1536 127.498 15.1536H138.075V59.5762C138.075 61.2592 138.744 62.8734 139.934 64.0635C141.124 65.2536 142.738 65.9222 144.421 65.9222H205.767V76.499ZM220.574 61.6915H144.421C143.86 61.6915 143.322 61.4687 142.926 61.0719C142.529 60.6752 142.306 60.1372 142.306 59.5762V39.66L161.963 20.0031C162.159 19.8064 162.393 19.6504 162.649 19.5439C162.906 19.4374 163.182 19.3827 163.46 19.3827C163.738 19.3827 164.013 19.4374 164.27 19.5439C164.526 19.6504 164.76 19.8064 164.956 20.0031L191.218 46.2653C191.615 46.6609 192.152 46.883 192.712 46.883C193.272 46.883 193.81 46.6609 194.206 46.2653L207.776 32.6952C207.973 32.4985 208.206 32.3425 208.463 32.2361C208.72 32.1296 208.995 32.0748 209.273 32.0748C209.551 32.0748 209.826 32.1296 210.083 32.2361C210.34 32.3425 210.573 32.4985 210.77 32.6952L222.69 44.6153V59.5762C222.69 60.1372 222.467 60.6752 222.07 61.0719C221.673 61.4687 221.135 61.6915 220.574 61.6915ZM193.075 15.1536C193.075 14.3168 193.323 13.4989 193.788 12.8031C194.252 12.1074 194.913 11.5651 195.686 11.2449C196.459 10.9247 197.31 10.8409 198.131 11.0042C198.951 11.1674 199.705 11.5704 200.297 12.162C200.889 12.7537 201.291 13.5075 201.455 14.3282C201.618 15.1489 201.534 15.9996 201.214 16.7726C200.894 17.5457 200.351 18.2064 199.656 18.6713C198.96 19.1362 198.142 19.3843 197.305 19.3843C196.183 19.3843 195.107 18.9386 194.314 18.1452C193.52 17.3518 193.075 16.2757 193.075 15.1536ZM52.884 63.23C42.4246 63.23 32.2 66.3316 23.5032 72.1425C14.8065 77.9535 8.02824 86.2129 4.02558 95.8762C0.022913 105.539 -1.02437 116.173 1.01618 126.431C3.05672 136.69 8.09343 146.113 15.4894 153.509C22.8853 160.905 32.3084 165.941 42.5669 167.982C52.8254 170.022 63.4586 168.975 73.1219 164.972C82.7851 160.97 91.0445 154.191 96.8555 145.495C102.666 136.798 105.768 126.573 105.768 116.114C105.753 102.093 100.176 88.6507 90.2617 78.7364C80.3473 68.822 66.905 63.2454 52.884 63.23ZM21.6137 153.355C24.7524 147.828 29.2999 143.232 34.7929 140.034C40.2859 136.837 46.5282 135.152 52.884 135.152C59.2399 135.152 65.4822 136.837 70.9752 140.034C76.4682 143.232 81.0156 147.828 84.1543 153.355C75.4016 160.725 64.3267 164.767 52.884 164.767C41.4414 164.767 30.3665 160.725 21.6137 153.355ZM87.3485 150.42C82.0934 141.634 73.6686 135.198 63.8099 132.439C68.3936 130.002 72.0305 126.101 74.1419 121.358C76.2532 116.615 76.7178 111.302 75.4616 106.265C74.2054 101.227 71.3006 96.7547 67.2094 93.5584C63.1183 90.3622 58.0757 88.626 52.884 88.626C47.6923 88.626 42.6498 90.3622 38.5586 93.5584C34.4674 96.7547 31.5627 101.227 30.3065 106.265C29.0503 111.302 29.5148 116.615 31.6262 121.358C33.7375 126.101 37.3744 130.002 41.9582 132.439C32.0995 135.198 23.6746 141.634 18.4195 150.42C11.6326 143.609 7.01613 134.939 5.15292 125.506C3.28971 116.073 4.26336 106.299 7.95091 97.4193C11.6385 88.5393 17.8746 80.9509 25.8718 75.6125C33.869 70.2741 43.2687 67.425 52.884 67.425C62.4993 67.425 71.899 70.2741 79.8963 75.6125C87.8935 80.9509 94.1296 88.5393 97.8171 97.4193C101.505 106.299 102.478 116.073 100.615 125.506C98.7519 134.939 94.1354 143.609 87.3485 150.42ZM52.884 130.922C49.1186 130.921 45.4378 129.805 42.3069 127.713C39.1761 125.621 36.7359 122.648 35.295 119.169C33.854 115.69 33.477 111.862 34.2116 108.169C34.9462 104.476 36.7594 101.084 39.422 98.4212C42.0845 95.7587 45.4768 93.9454 49.1698 93.2108C52.8629 92.4762 56.6909 92.8533 60.1696 94.2942C63.6484 95.7352 66.6218 98.1754 68.7137 101.306C70.8057 104.437 71.9223 108.118 71.9223 111.883C71.9223 116.933 69.9165 121.775 66.3461 125.345C62.7757 128.916 57.9333 130.922 52.884 130.922ZM174.073 105.649L216.412 145.624C217.057 146.218 217.572 146.939 217.924 147.742C218.276 148.545 218.458 149.412 218.459 150.289V199.185C218.459 200.868 217.79 202.483 216.6 203.673C215.41 204.863 213.796 205.531 212.113 205.531H186.728C185.045 205.531 183.431 204.863 182.241 203.673C181.051 202.483 180.382 200.868 180.382 199.185V173.801C180.382 173.24 180.16 172.702 179.763 172.305C179.366 171.908 178.828 171.686 178.267 171.686H161.344C160.783 171.686 160.245 171.908 159.848 172.305C159.452 172.702 159.229 173.24 159.229 173.801V199.185C159.229 200.868 158.56 202.483 157.37 203.673C156.18 204.863 154.566 205.531 152.883 205.531H127.498C125.815 205.531 124.201 204.863 123.011 203.673C121.821 202.483 121.152 200.868 121.152 199.185V150.289C121.153 149.405 121.338 148.532 121.696 147.724C122.054 146.916 122.577 146.192 123.231 145.598L165.506 105.676C166.673 104.602 168.199 104.004 169.785 103.999C171.37 103.994 172.9 104.583 174.073 105.649ZM213.609 200.681C214.005 200.284 214.228 199.746 214.228 199.185V150.336C214.231 150.038 214.171 149.742 214.051 149.469C213.932 149.196 213.756 148.95 213.535 148.75L171.196 108.78C170.809 108.434 170.307 108.242 169.787 108.242C169.267 108.242 168.765 108.434 168.378 108.78L126.102 148.702C125.879 148.902 125.7 149.147 125.576 149.42C125.452 149.693 125.386 149.989 125.383 150.289V199.185C125.383 199.746 125.606 200.284 126.003 200.681C126.399 201.078 126.937 201.301 127.498 201.301H152.883C153.444 201.301 153.982 201.078 154.379 200.681C154.775 200.284 154.998 199.746 154.998 199.185V173.801C154.998 172.118 155.667 170.504 156.857 169.314C158.047 168.124 159.661 167.455 161.344 167.455H178.267C179.95 167.455 181.564 168.124 182.754 169.314C183.945 170.504 184.613 172.118 184.613 173.801V199.185C184.613 199.746 184.836 200.284 185.233 200.681C185.629 201.078 186.167 201.301 186.728 201.301H212.113C212.674 201.301 213.212 201.078 213.609 200.681Z" fill="url(#paint0_linear_3534_65744)"/>
<defs>
<linearGradient id="paint0_linear_3534_65744" x1="118.01" y1="-35.1283" x2="118.01" y2="428.703" gradientUnits="userSpaceOnUse">
<stop stop-color="white"/>
<stop offset="1" stop-color="white" stop-opacity="0"/>
</linearGradient>
</defs>
</svg>
