<svg width="231" height="222" viewBox="0 0 231 222" fill="none" xmlns="http://www.w3.org/2000/svg">
<path opacity="0.2" fill-rule="evenodd" clip-rule="evenodd" d="M194.532 72.7541C205.083 72.7541 214.332 67.2187 219.908 57.5725C220.077 57.3067 220.191 57.0094 220.242 56.6986C220.293 56.3877 220.281 56.0698 220.206 55.7638C220.131 55.4579 219.995 55.1702 219.806 54.9182C219.617 54.6662 219.379 54.455 219.106 54.2974C218.833 54.1397 218.531 54.0389 218.219 54.0009C217.906 53.9629 217.589 53.9886 217.286 54.0764C216.984 54.1641 216.702 54.3122 216.458 54.5116C216.215 54.7111 216.014 54.9578 215.868 55.2369C211.074 63.5225 203.495 68.0829 194.532 68.0829C185.569 68.0829 177.989 63.5225 173.196 55.2369C172.872 54.7285 172.365 54.3646 171.78 54.2213C171.195 54.078 170.577 54.1663 170.056 54.4678C169.534 54.7692 169.149 55.2606 168.981 55.8391C168.813 56.4177 168.876 57.0387 169.155 57.5725C174.731 67.2187 183.98 72.7541 194.532 72.7541ZM243.082 74.8311C249.498 65.2288 252.922 53.9395 252.922 42.3909C252.905 26.9099 246.748 12.0678 235.801 1.12107C224.855 -9.82566 210.013 -15.983 194.532 -16C182.983 -16 171.694 -12.5754 162.091 -6.15936C152.489 0.25671 145.005 9.37612 140.585 20.0457C136.166 30.7152 135.01 42.4557 137.263 53.7824C139.516 65.1091 145.077 75.5134 153.243 83.6795C161.409 91.8456 171.813 97.4068 183.14 99.6598C194.467 101.913 206.207 100.756 216.877 96.337C227.546 91.9175 236.666 84.4334 243.082 74.8311ZM239.198 12.5459C245.101 21.38 248.251 31.7661 248.251 42.3909C248.236 56.6335 242.571 70.2883 232.5 80.3593C222.429 90.4303 208.774 96.095 194.532 96.1105C183.907 96.1105 173.521 92.9599 164.687 87.0571C155.852 81.1543 148.967 72.7645 144.901 62.9485C140.835 53.1325 139.771 42.3313 141.844 31.9107C143.917 21.4901 149.033 11.9182 156.546 4.40538C164.059 -3.10744 173.631 -8.22374 184.051 -10.2965C194.472 -12.3693 205.273 -11.3055 215.089 -7.23957C224.905 -3.17366 233.295 3.71172 239.198 12.5459ZM176.106 34.5967C175.338 35.11 174.435 35.384 173.511 35.384C172.272 35.384 171.084 34.8918 170.208 34.0158C169.332 33.1398 168.84 31.9516 168.84 30.7127C168.84 29.7888 169.114 28.8857 169.627 28.1175C170.14 27.3493 170.87 26.7506 171.723 26.397C172.577 26.0435 173.516 25.9509 174.422 26.1312C175.328 26.3114 176.161 26.7563 176.814 27.4096C177.467 28.0629 177.912 28.8952 178.092 29.8014C178.273 30.7075 178.18 31.6468 177.827 32.5003C177.473 33.3539 176.874 34.0834 176.106 34.5967ZM212.957 26.8287C213.725 26.3154 214.628 26.0414 215.552 26.0414C216.791 26.0414 217.979 26.5336 218.855 27.4096C219.731 28.2857 220.224 29.4738 220.224 30.7127C220.224 31.6366 219.95 32.5397 219.436 33.3079C218.923 34.0761 218.193 34.6748 217.34 35.0284C216.486 35.382 215.547 35.4745 214.641 35.2942C213.735 35.114 212.902 34.6691 212.249 34.0158C211.596 33.3625 211.151 32.5302 210.971 31.624C210.79 30.7179 210.883 29.7786 211.237 28.9251C211.59 28.0715 212.189 27.342 212.957 26.8287ZM58.3787 67.6989C61.6124 67.6989 64.7734 66.74 67.462 64.9435C70.1507 63.147 72.2462 60.5936 73.4837 57.6061C74.7211 54.6186 75.0449 51.3313 74.414 48.1598C73.7832 44.9884 72.2261 42.0752 69.9395 39.7887C67.653 37.5021 64.7398 35.945 61.5684 35.3142C58.3969 34.6833 55.1096 35.0071 52.1221 36.2445C49.1346 37.482 46.5812 39.5775 44.7847 42.2662C42.9882 44.9548 42.0293 48.1158 42.0293 51.3495C42.0293 55.6856 43.7518 59.8441 46.8179 62.9103C49.8841 65.9764 54.0426 67.6989 58.3787 67.6989ZM58.3787 39.6713C60.6885 39.6713 62.9463 40.3562 64.8668 41.6394C66.7873 42.9226 68.2841 44.7465 69.168 46.8804C70.0519 49.0143 70.2831 51.3624 69.8325 53.6278C69.3819 55.8931 68.2697 57.9739 66.6365 59.6072C65.0032 61.2404 62.9224 62.3526 60.657 62.8032C58.3917 63.2538 56.0436 63.0226 53.9097 62.1387C51.7758 61.2548 49.9519 59.758 48.6687 57.8375C47.3855 55.917 46.7006 53.6592 46.7006 51.3495C46.7006 48.2522 47.9309 45.2818 50.121 43.0917C52.3111 40.9017 55.2815 39.6713 58.3787 39.6713ZM116.536 79.7099C116.11 77.617 114.967 75.7383 113.304 74.3983C111.641 73.0583 109.563 72.3409 107.427 72.3702H9.3304C7.20271 72.3729 5.1397 73.1019 3.48258 74.4365C1.82547 75.771 0.673534 77.6312 0.217308 79.7095C-0.238917 81.7877 0.027899 83.9594 0.973625 85.8653C1.91935 87.7713 3.48733 89.2973 5.41821 90.1911H5.45325L36.9201 104.047L24.1208 152.687C23.144 154.921 23.0797 157.449 23.9416 159.731C24.8036 162.012 26.5234 163.866 28.7337 164.896C29.9685 165.485 31.3187 165.792 32.6868 165.796C34.4466 165.795 36.1705 165.298 37.6602 164.361C39.1498 163.424 40.3445 162.086 41.1067 160.5L58.3787 130.761L75.6508 160.54C76.725 162.726 78.6101 164.405 80.9044 165.221C83.1988 166.037 85.721 165.925 87.934 164.909C90.1469 163.893 91.8756 162.053 92.7518 159.781C93.628 157.509 93.5825 154.984 92.625 152.745L79.8257 104.106L111.357 90.2319C113.314 89.3606 114.904 87.8306 115.851 85.9082C116.797 83.9858 117.039 81.7926 116.536 79.7099ZM109.407 85.9344L76.1237 100.596C75.6144 100.82 75.2016 101.218 74.9596 101.719C74.7177 102.22 74.6626 102.791 74.8041 103.329L88.1581 154.082C88.1934 154.217 88.2403 154.347 88.2982 154.474C88.8215 155.596 88.8774 156.881 88.4537 158.045C88.0299 159.209 87.1612 160.157 86.0385 160.681C84.9157 161.204 83.6311 161.26 82.4671 160.836C81.3031 160.412 80.3551 159.543 79.8316 158.421C79.8039 158.359 79.7728 158.298 79.7381 158.24L60.3991 124.922C60.1938 124.568 59.8991 124.274 59.5445 124.07C59.1899 123.866 58.7879 123.758 58.3787 123.758C57.9696 123.758 57.5676 123.866 57.213 124.07C56.8584 124.274 56.5637 124.568 56.3584 124.922L37.0194 158.24C36.9847 158.298 36.9535 158.359 36.9259 158.421C36.6724 158.986 36.3091 159.494 35.8573 159.917C35.4054 160.341 34.8739 160.67 34.2937 160.886C33.7136 161.102 33.0962 161.2 32.4777 161.175C31.8591 161.151 31.2516 161.003 30.6905 160.742C30.1295 160.48 29.626 160.109 29.2093 159.652C28.7927 159.194 28.4712 158.658 28.2636 158.074C28.056 157.491 27.9664 156.872 28 156.254C28.0335 155.636 28.1897 155.031 28.4593 154.474C28.5172 154.347 28.5641 154.217 28.5994 154.082L41.9534 103.317C42.0949 102.779 42.0398 102.208 41.7978 101.707C41.5559 101.207 41.1431 100.808 40.6338 100.585L7.35095 85.9344C6.39377 85.481 5.61905 84.7159 5.15387 83.7644C4.68869 82.8129 4.56065 81.7316 4.79077 80.6977C5.02088 79.6639 5.59548 78.739 6.42033 78.0747C7.24517 77.4103 8.2713 77.046 9.3304 77.0414H107.427C108.487 77.0434 109.515 77.4058 110.342 78.0692C111.169 78.7327 111.745 79.6576 111.977 80.6921C112.209 81.7266 112.082 82.8091 111.617 83.7617C111.151 84.7144 110.376 85.4806 109.418 85.9344H109.407ZM221.737 182.203C220.277 181.079 218.578 180.308 216.77 179.951C214.963 179.593 213.098 179.659 211.32 180.142L204.343 181.748C219.028 169.147 226.467 156.71 226.467 144.693C226.467 130.527 215.081 119.001 201.09 119.001C196.87 118.967 192.708 119.988 188.982 121.97C185.256 123.952 182.084 126.833 179.754 130.352C177.424 126.833 174.252 123.952 170.526 121.97C166.8 119.988 162.638 118.967 158.418 119.001C144.428 119.001 133.041 130.527 133.041 144.693C133.041 151.612 135.441 158.38 140.521 165.714C136.415 165.866 132.519 167.571 129.62 170.484L115.723 184.399H98.0069C96.1486 184.399 94.3663 185.137 93.0523 186.451C91.7382 187.765 91 189.547 91 191.405V214.762C91 216.62 91.7382 218.402 93.0523 219.716C94.3663 221.031 96.1486 221.769 98.0069 221.769H158.733C158.93 221.77 159.126 221.747 159.317 221.699L196.687 212.356C196.807 212.325 196.924 212.286 197.038 212.239L219.705 202.582L219.834 202.523C221.66 201.61 223.224 200.247 224.378 198.563C225.532 196.879 226.239 194.929 226.431 192.896C226.623 190.863 226.294 188.815 225.476 186.944C224.658 185.074 223.378 183.442 221.755 182.203H221.737ZM158.418 123.672C162.502 123.621 166.508 124.79 169.924 127.028C173.34 129.266 176.01 132.473 177.594 136.238C177.77 136.666 178.069 137.033 178.454 137.29C178.838 137.548 179.291 137.686 179.754 137.686C180.217 137.686 180.67 137.548 181.055 137.29C181.439 137.033 181.739 136.666 181.915 136.238C183.498 132.473 186.168 129.266 189.584 127.028C193 124.79 197.006 123.621 201.09 123.672C212.313 123.672 221.796 133.301 221.796 144.693C221.796 157.113 212.377 170.385 193.803 184.171L182.528 186.734C183.771 184.608 184.426 182.19 184.425 179.727C184.425 176.011 182.949 172.446 180.321 169.818C177.693 167.19 174.128 165.714 170.412 165.714H146.29C140.451 158.123 137.713 151.408 137.713 144.693C137.713 133.301 147.195 123.672 158.418 123.672ZM95.6713 214.762V191.405C95.6713 190.786 95.9173 190.192 96.3554 189.754C96.7934 189.316 97.3875 189.07 98.0069 189.07H114.356V217.097H98.0069C97.3875 217.097 96.7934 216.851 96.3554 216.413C95.9173 215.975 95.6713 215.381 95.6713 214.762ZM217.784 198.313L195.356 207.872L158.447 217.097H119.028V187.704L132.925 173.806C134.006 172.718 135.293 171.856 136.71 171.268C138.127 170.681 139.647 170.381 141.181 170.385H170.412C172.889 170.385 175.266 171.369 177.018 173.121C178.77 174.873 179.754 177.25 179.754 179.727C179.754 182.205 178.77 184.581 177.018 186.333C175.266 188.086 172.889 189.07 170.412 189.07H154.062C153.443 189.07 152.849 189.316 152.411 189.754C151.973 190.192 151.727 190.786 151.727 191.405C151.727 192.025 151.973 192.619 152.411 193.057C152.849 193.495 153.443 193.741 154.062 193.741H172.747C172.924 193.742 173.1 193.722 173.273 193.683L212.395 184.685H212.488C214.241 184.22 216.104 184.419 217.719 185.244C219.335 186.068 220.588 187.461 221.24 189.153C221.891 190.846 221.895 192.719 221.249 194.414C220.604 196.109 219.355 197.506 217.743 198.336L217.784 198.313Z" fill="url(#paint0_linear_3534_65851)"/>
<defs>
<linearGradient id="paint0_linear_3534_65851" x1="124.461" y1="-38.5" x2="124.461" y2="303.5" gradientUnits="userSpaceOnUse">
<stop stop-color="white"/>
<stop offset="1" stop-color="white" stop-opacity="0"/>
</linearGradient>
</defs>
</svg>
