<svg width="1687" height="742" viewBox="0 0 1687 742" fill="none" xmlns="http://www.w3.org/2000/svg">
<path d="M1581.73 205.707H1586.56C1599.12 139.069 1623.26 115.891 1657.06 115.891C1667.68 115.891 1678.31 117.823 1687 120.72C1683.14 143.898 1681.2 184.46 1680.24 215.364C1671.55 212.467 1660.92 211.501 1652.23 211.501C1613.6 211.501 1598.15 229.85 1598.15 310.974C1598.15 441.351 1597.18 617.119 1600.08 733.01H1510.27C1511.23 647.058 1511.23 551.448 1511.23 416.242C1511.23 289.727 1511.23 204.741 1510.27 120.72H1583.66C1582.7 145.829 1581.73 172.871 1581.73 205.707Z" fill="white"/>
<path d="M1393.98 422.036C1393.98 219.227 1376.6 188.322 1343.76 188.322C1311.89 188.322 1293.54 218.261 1293.54 422.036C1292.58 625.811 1310.93 664.441 1343.76 664.441C1377.57 664.441 1393.98 625.811 1393.98 422.036ZM1479.94 415.275C1479.94 664.441 1436.48 741.702 1343.76 741.702C1251.05 741.702 1209.52 664.441 1209.52 415.275C1209.52 165.144 1254.91 112.028 1343.76 112.028C1432.61 112.028 1479.94 165.144 1479.94 415.275Z" fill="white"/>
<path d="M1201.01 199.912L1130.51 198.946C1128.58 319.666 1127.62 461.632 1127.62 618.085C1127.62 648.023 1138.24 658.647 1160.45 658.647C1173.97 658.647 1186.53 654.784 1198.12 647.057C1199.08 673.133 1204.88 705.969 1208.74 727.215C1185.56 733.976 1171.08 738.804 1144.03 738.804C1069.67 738.804 1044.56 693.414 1044.56 620.982C1044.56 505.091 1046.49 367.954 1047.46 197.98L1016.55 197.014V120.72H1047.46V24.1438C1060.98 24.1438 1075.47 25.1096 1090.92 25.1096C1104.44 25.1096 1118.93 25.1095 1133.41 24.1438C1132.45 54.0823 1131.48 86.9181 1131.48 121.685C1154.66 121.685 1178.8 121.685 1201.98 120.72C1201.01 145.829 1200.05 174.802 1201.01 199.912Z" fill="white"/>
<path d="M912.391 558.207V436.522C903.699 434.59 894.041 433.625 883.418 433.625C849.617 433.625 834.165 448.111 834.165 546.618C834.165 653.817 840.925 664.441 867 664.441C897.905 664.441 912.391 624.845 912.391 558.207ZM916.254 668.304H910.459C900.802 715.626 874.726 738.804 834.165 738.804C781.048 738.804 751.109 709.831 751.109 559.173C751.109 416.241 791.671 379.542 867.966 379.542C885.35 379.542 900.802 381.474 913.357 385.337C913.357 338.015 913.357 289.727 913.357 243.37C913.357 212.466 903.699 191.219 880.521 191.219C852.514 191.219 838.993 206.672 842.856 318.699C831.267 316.768 818.712 316.768 806.158 316.768C789.74 316.768 773.322 317.734 760.767 318.699C753.041 176.733 786.842 112.993 879.555 112.993C960.679 112.993 997.378 156.452 997.378 242.405C997.378 360.227 995.446 442.316 995.446 541.789C995.446 614.221 997.378 710.797 1003.17 733.01H931.706C916.254 733.01 914.323 730.112 914.323 711.763C914.323 699.208 915.288 682.79 916.254 668.304Z" fill="white"/>
<path d="M613.201 183.494C582.296 183.494 566.844 217.295 563.947 398.858C591.954 400.789 624.79 399.823 651.831 398.858C652.797 382.44 653.762 358.296 653.762 317.734C653.762 214.398 641.208 183.494 613.201 183.494ZM690.461 533.098H729.092C731.023 683.756 704.948 741.702 613.201 741.702C527.248 741.702 483.789 693.414 483.789 435.556C483.789 177.699 530.145 112.028 615.132 112.028C701.085 112.028 729.092 171.905 729.092 316.768C729.092 366.988 727.16 440.385 725.228 462.598C701.085 461.632 666.317 461.632 635.413 461.632C608.372 461.632 584.228 461.632 563.947 462.598C564.913 641.263 580.365 668.304 614.166 668.304C644.105 668.304 652.797 640.297 651.831 533.098H690.461Z" fill="white"/>
<path d="M388.114 205.707H392.943C405.498 139.069 429.642 115.891 463.444 115.891C474.067 115.891 484.69 117.823 493.382 120.72C489.519 143.898 487.587 184.46 486.622 215.364C477.93 212.467 467.307 211.501 458.615 211.501C419.984 211.501 404.532 229.85 404.532 310.974C404.532 441.351 403.567 617.119 406.464 733.01H316.648C317.614 647.058 317.614 551.448 317.614 416.242C317.614 289.727 317.614 204.741 316.648 120.72H390.046C389.08 145.829 388.114 172.871 388.114 205.707Z" fill="white"/>
<path d="M234.679 305.179H192.186C194.117 272.344 194.117 245.303 194.117 224.056C194.117 101.405 176.734 82.0894 144.864 82.0894C109.131 82.0894 88.8497 103.336 88.8497 365.056C88.8497 637.4 109.131 659.613 146.795 659.613C181.562 659.613 196.049 623.88 196.049 500.263C196.049 481.913 196.049 462.598 195.083 441.351H237.576H280.07C281.035 455.838 281.035 470.324 281.035 483.845C281.035 655.749 242.405 741.702 145.829 741.702C43.4591 741.702 0 671.202 0 366.988C0 69.5346 44.4248 0 146.795 0C245.302 0 279.104 63.74 279.104 225.987C279.104 249.165 278.138 276.207 277.172 305.179H234.679Z" fill="white"/>
</svg>
