<svg width="121" height="20" viewBox="0 0 121 20" fill="none" xmlns="http://www.w3.org/2000/svg">
<mask id="path-1-outside-1_4202_12063" maskUnits="userSpaceOnUse" x="8.5" y="3.28564" width="105" height="14" fill="black">
<rect fill="white" x="8.5" y="3.28564" width="105" height="14"/>
<path d="M90.7194 6.52448C90.7194 5.28801 91.6809 4.28564 92.8671 4.28564V5.30272C92.2476 5.30272 91.7454 5.82622 91.7454 6.47199V12.3582C91.7454 12.9457 91.6278 13.4819 91.3925 13.9668C91.1517 14.446 90.7933 14.8596 90.3172 15.2075C89.8411 15.5498 89.2474 15.815 88.536 16.0033C87.8246 16.1915 86.9956 16.2856 86.0489 16.2856C85.1022 16.2856 84.2732 16.1915 83.5619 16.0033C82.8505 15.815 82.2595 15.5498 81.7889 15.2075C81.3128 14.8596 80.9571 14.446 80.7218 13.9668C80.481 13.4819 80.3607 12.9457 80.3607 12.3582V4.29792H81.3867V12.4438C81.3867 12.8374 81.4879 13.211 81.6904 13.5647C81.8874 13.9126 82.1829 14.2178 82.5769 14.4802C82.9709 14.7426 83.4579 14.9508 84.0379 15.1048C84.618 15.2589 85.2883 15.3359 86.0489 15.3359C86.815 15.3359 87.4881 15.2589 88.0681 15.1048C88.6482 14.9508 89.1352 14.7426 89.5292 14.4802C89.9232 14.2178 90.2214 13.9126 90.4239 13.5647C90.6209 13.211 90.7194 12.8374 90.7194 12.4438V6.52448Z"/>
<path fill-rule="evenodd" clip-rule="evenodd" d="M25.9536 11.3479C25.6687 11.603 25.4351 11.9751 25.4351 12.3666V16.0546H24.4091V4.29792L30.0473 4.29792C30.8962 4.29791 31.6243 4.29789 32.2315 4.43918C32.8444 4.57609 33.3451 4.78715 33.7336 5.07237C34.1276 5.35188 34.4149 5.77535 34.5955 6.19747C34.776 6.6196 34.8663 7.11302 34.8663 7.67776C34.8663 8.55623 34.6447 9.26072 34.2015 9.79122C33.7582 10.316 33.2263 10.8693 30.6653 10.8693L33.1321 14.192C33.5281 14.7254 33.8075 15.0535 34.7855 15.0376H35.6195V16.0546L34.2653 16.0546C33.6108 16.0546 32.9941 15.7351 32.5988 15.1913L29.5697 11.0234H26.7934C26.4852 11.0234 26.1873 11.1385 25.9536 11.3479ZM33.8075 7.67776C33.8075 7.17577 33.7227 6.77076 33.553 6.46273C33.3834 6.14898 33.107 5.90655 32.724 5.73542C32.3409 5.56429 31.8375 5.4502 31.2137 5.39316C30.5953 5.33041 29.8347 5.29903 28.9318 5.29903H25.4351V10.6034C25.8221 10.2298 26.33 9.9496 26.8575 9.9496H28.899C29.8019 9.9496 30.5652 9.92393 31.1891 9.87259C31.2225 9.86954 31.2555 9.86654 31.2882 9.86357C31.8667 9.81106 32.3398 9.76811 32.7076 9.61154C33.0961 9.4404 33.3752 9.20367 33.5448 8.90134C33.7199 8.59331 33.8075 8.18544 33.8075 7.67776Z"/>
<path fill-rule="evenodd" clip-rule="evenodd" d="M20.499 7.90878C20.499 8.49633 20.4059 9.01543 20.2199 9.46607C20.0393 9.91672 19.752 10.2961 19.358 10.6041C18.964 10.9121 18.4551 11.146 17.8313 11.3057C17.213 11.4598 16.466 11.5368 15.5905 11.5368L11.9636 11.4732C11.6237 11.4673 11.293 11.5884 11.0313 11.8144C10.7554 12.0527 10.526 12.4067 10.526 12.7802V16.0546H9.5V4.29792H15.5905C16.466 4.29792 17.213 4.30513 17.8313 4.46485C18.4551 4.61887 18.964 4.84705 19.358 5.14938C19.752 5.45171 20.0393 5.90085 20.2199 6.35149C20.4059 6.80213 20.499 7.32123 20.499 7.90878ZM19.4401 7.90878C19.4401 7.34975 19.3498 6.89911 19.1692 6.55685C18.9941 6.21459 18.7205 5.95218 18.3484 5.76964C17.9818 5.5814 17.5139 5.4559 16.9448 5.39316C16.3812 5.33041 15.7109 5.29903 14.9338 5.29903H10.526V11.1168C10.8863 10.7445 11.3731 10.463 11.8804 10.463H14.9338C15.2348 10.463 15.5549 10.4658 15.8942 10.4716C16.2389 10.4716 16.5782 10.4544 16.912 10.4202C17.017 10.4076 17.1204 10.3997 17.2222 10.3919C17.4439 10.375 17.6579 10.3586 17.8641 10.2961C18.1706 10.1991 18.4387 10.0536 18.6685 9.85967C18.9038 9.66573 19.0899 9.41188 19.2267 9.09814C19.369 8.7844 19.4401 8.38795 19.4401 7.90878Z"/>
<path d="M39.9662 16.0546V4.29792H49.3645V5.29903H41.0825V9.92747C41.4682 9.55391 41.9751 9.34628 42.5016 9.34628H48.9459V10.3388H42.4391C42.1308 10.3388 41.8328 10.4542 41.5992 10.6639C41.3154 10.9188 41.0825 11.2899 41.0825 11.6804V15.0535H49.4877V16.0546H39.9662Z"/>
<path d="M68.3406 16.0546V6.05201L62.3903 15.656C62.2364 15.9045 61.972 16.0546 61.6882 16.0546C61.404 16.0546 61.1393 15.9041 60.9854 15.655L55.0269 6.00923V16.0546H54.0009V4.29792C54.6867 4.29792 55.3258 4.66026 55.6985 5.26041L61.7166 14.9508L67.6699 5.25637C68.0366 4.65918 68.67 4.29792 69.3502 4.29792V16.0546H68.3406Z"/>
<path d="M74.5036 16.0546V4.29792H75.5296V16.0546H74.5036Z"/>
<path d="M111.348 16.0546V6.05201L105.397 15.656C105.243 15.9045 104.979 16.0546 104.695 16.0546C104.411 16.0546 104.146 15.9041 103.992 15.655L98.0339 6.00923V16.0546H97.0078V4.29792C97.6936 4.29792 98.3327 4.66026 98.7055 5.2604L104.724 14.9508L110.677 5.25638C111.044 4.65918 111.677 4.29792 112.357 4.29792V16.0546H111.348Z"/>
</mask>
<path d="M90.7194 6.52448C90.7194 5.28801 91.6809 4.28564 92.8671 4.28564V5.30272C92.2476 5.30272 91.7454 5.82622 91.7454 6.47199V12.3582C91.7454 12.9457 91.6278 13.4819 91.3925 13.9668C91.1517 14.446 90.7933 14.8596 90.3172 15.2075C89.8411 15.5498 89.2474 15.815 88.536 16.0033C87.8246 16.1915 86.9956 16.2856 86.0489 16.2856C85.1022 16.2856 84.2732 16.1915 83.5619 16.0033C82.8505 15.815 82.2595 15.5498 81.7889 15.2075C81.3128 14.8596 80.9571 14.446 80.7218 13.9668C80.481 13.4819 80.3607 12.9457 80.3607 12.3582V4.29792H81.3867V12.4438C81.3867 12.8374 81.4879 13.211 81.6904 13.5647C81.8874 13.9126 82.1829 14.2178 82.5769 14.4802C82.9709 14.7426 83.4579 14.9508 84.0379 15.1048C84.618 15.2589 85.2883 15.3359 86.0489 15.3359C86.815 15.3359 87.4881 15.2589 88.0681 15.1048C88.6482 14.9508 89.1352 14.7426 89.5292 14.4802C89.9232 14.2178 90.2214 13.9126 90.4239 13.5647C90.6209 13.211 90.7194 12.8374 90.7194 12.4438V6.52448Z" fill="white"/>
<path fill-rule="evenodd" clip-rule="evenodd" d="M25.9536 11.3479C25.6687 11.603 25.4351 11.9751 25.4351 12.3666V16.0546H24.4091V4.29792L30.0473 4.29792C30.8962 4.29791 31.6243 4.29789 32.2315 4.43918C32.8444 4.57609 33.3451 4.78715 33.7336 5.07237C34.1276 5.35188 34.4149 5.77535 34.5955 6.19747C34.776 6.6196 34.8663 7.11302 34.8663 7.67776C34.8663 8.55623 34.6447 9.26072 34.2015 9.79122C33.7582 10.316 33.2263 10.8693 30.6653 10.8693L33.1321 14.192C33.5281 14.7254 33.8075 15.0535 34.7855 15.0376H35.6195V16.0546L34.2653 16.0546C33.6108 16.0546 32.9941 15.7351 32.5988 15.1913L29.5697 11.0234H26.7934C26.4852 11.0234 26.1873 11.1385 25.9536 11.3479ZM33.8075 7.67776C33.8075 7.17577 33.7227 6.77076 33.553 6.46273C33.3834 6.14898 33.107 5.90655 32.724 5.73542C32.3409 5.56429 31.8375 5.4502 31.2137 5.39316C30.5953 5.33041 29.8347 5.29903 28.9318 5.29903H25.4351V10.6034C25.8221 10.2298 26.33 9.9496 26.8575 9.9496H28.899C29.8019 9.9496 30.5652 9.92393 31.1891 9.87259C31.2225 9.86954 31.2555 9.86654 31.2882 9.86357C31.8667 9.81106 32.3398 9.76811 32.7076 9.61154C33.0961 9.4404 33.3752 9.20367 33.5448 8.90134C33.7199 8.59331 33.8075 8.18544 33.8075 7.67776Z" fill="white"/>
<path fill-rule="evenodd" clip-rule="evenodd" d="M20.499 7.90878C20.499 8.49633 20.4059 9.01543 20.2199 9.46607C20.0393 9.91672 19.752 10.2961 19.358 10.6041C18.964 10.9121 18.4551 11.146 17.8313 11.3057C17.213 11.4598 16.466 11.5368 15.5905 11.5368L11.9636 11.4732C11.6237 11.4673 11.293 11.5884 11.0313 11.8144C10.7554 12.0527 10.526 12.4067 10.526 12.7802V16.0546H9.5V4.29792H15.5905C16.466 4.29792 17.213 4.30513 17.8313 4.46485C18.4551 4.61887 18.964 4.84705 19.358 5.14938C19.752 5.45171 20.0393 5.90085 20.2199 6.35149C20.4059 6.80213 20.499 7.32123 20.499 7.90878ZM19.4401 7.90878C19.4401 7.34975 19.3498 6.89911 19.1692 6.55685C18.9941 6.21459 18.7205 5.95218 18.3484 5.76964C17.9818 5.5814 17.5139 5.4559 16.9448 5.39316C16.3812 5.33041 15.7109 5.29903 14.9338 5.29903H10.526V11.1168C10.8863 10.7445 11.3731 10.463 11.8804 10.463H14.9338C15.2348 10.463 15.5549 10.4658 15.8942 10.4716C16.2389 10.4716 16.5782 10.4544 16.912 10.4202C17.017 10.4076 17.1204 10.3997 17.2222 10.3919C17.4439 10.375 17.6579 10.3586 17.8641 10.2961C18.1706 10.1991 18.4387 10.0536 18.6685 9.85967C18.9038 9.66573 19.0899 9.41188 19.2267 9.09814C19.369 8.7844 19.4401 8.38795 19.4401 7.90878Z" fill="white"/>
<path d="M39.9662 16.0546V4.29792H49.3645V5.29903H41.0825V9.92747C41.4682 9.55391 41.9751 9.34628 42.5016 9.34628H48.9459V10.3388H42.4391C42.1308 10.3388 41.8328 10.4542 41.5992 10.6639C41.3154 10.9188 41.0825 11.2899 41.0825 11.6804V15.0535H49.4877V16.0546H39.9662Z" fill="white"/>
<path d="M68.3406 16.0546V6.05201L62.3903 15.656C62.2364 15.9045 61.972 16.0546 61.6882 16.0546C61.404 16.0546 61.1393 15.9041 60.9854 15.655L55.0269 6.00923V16.0546H54.0009V4.29792C54.6867 4.29792 55.3258 4.66026 55.6985 5.26041L61.7166 14.9508L67.6699 5.25637C68.0366 4.65918 68.67 4.29792 69.3502 4.29792V16.0546H68.3406Z" fill="white"/>
<path d="M74.5036 16.0546V4.29792H75.5296V16.0546H74.5036Z" fill="white"/>
<path d="M111.348 16.0546V6.05201L105.397 15.656C105.243 15.9045 104.979 16.0546 104.695 16.0546C104.411 16.0546 104.146 15.9041 103.992 15.655L98.0339 6.00923V16.0546H97.0078V4.29792C97.6936 4.29792 98.3327 4.66026 98.7055 5.2604L104.724 14.9508L110.677 5.25638C111.044 4.65918 111.677 4.29792 112.357 4.29792V16.0546H111.348Z" fill="white"/>
<path d="M90.7194 6.52448C90.7194 5.28801 91.6809 4.28564 92.8671 4.28564V5.30272C92.2476 5.30272 91.7454 5.82622 91.7454 6.47199V12.3582C91.7454 12.9457 91.6278 13.4819 91.3925 13.9668C91.1517 14.446 90.7933 14.8596 90.3172 15.2075C89.8411 15.5498 89.2474 15.815 88.536 16.0033C87.8246 16.1915 86.9956 16.2856 86.0489 16.2856C85.1022 16.2856 84.2732 16.1915 83.5619 16.0033C82.8505 15.815 82.2595 15.5498 81.7889 15.2075C81.3128 14.8596 80.9571 14.446 80.7218 13.9668C80.481 13.4819 80.3607 12.9457 80.3607 12.3582V4.29792H81.3867V12.4438C81.3867 12.8374 81.4879 13.211 81.6904 13.5647C81.8874 13.9126 82.1829 14.2178 82.5769 14.4802C82.9709 14.7426 83.4579 14.9508 84.0379 15.1048C84.618 15.2589 85.2883 15.3359 86.0489 15.3359C86.815 15.3359 87.4881 15.2589 88.0681 15.1048C88.6482 14.9508 89.1352 14.7426 89.5292 14.4802C89.9232 14.2178 90.2214 13.9126 90.4239 13.5647C90.6209 13.211 90.7194 12.8374 90.7194 12.4438V6.52448Z" stroke="white" stroke-width="0.685714" mask="url(#path-1-outside-1_4202_12063)"/>
<path fill-rule="evenodd" clip-rule="evenodd" d="M25.9536 11.3479C25.6687 11.603 25.4351 11.9751 25.4351 12.3666V16.0546H24.4091V4.29792L30.0473 4.29792C30.8962 4.29791 31.6243 4.29789 32.2315 4.43918C32.8444 4.57609 33.3451 4.78715 33.7336 5.07237C34.1276 5.35188 34.4149 5.77535 34.5955 6.19747C34.776 6.6196 34.8663 7.11302 34.8663 7.67776C34.8663 8.55623 34.6447 9.26072 34.2015 9.79122C33.7582 10.316 33.2263 10.8693 30.6653 10.8693L33.1321 14.192C33.5281 14.7254 33.8075 15.0535 34.7855 15.0376H35.6195V16.0546L34.2653 16.0546C33.6108 16.0546 32.9941 15.7351 32.5988 15.1913L29.5697 11.0234H26.7934C26.4852 11.0234 26.1873 11.1385 25.9536 11.3479ZM33.8075 7.67776C33.8075 7.17577 33.7227 6.77076 33.553 6.46273C33.3834 6.14898 33.107 5.90655 32.724 5.73542C32.3409 5.56429 31.8375 5.4502 31.2137 5.39316C30.5953 5.33041 29.8347 5.29903 28.9318 5.29903H25.4351V10.6034C25.8221 10.2298 26.33 9.9496 26.8575 9.9496H28.899C29.8019 9.9496 30.5652 9.92393 31.1891 9.87259C31.2225 9.86954 31.2555 9.86654 31.2882 9.86357C31.8667 9.81106 32.3398 9.76811 32.7076 9.61154C33.0961 9.4404 33.3752 9.20367 33.5448 8.90134C33.7199 8.59331 33.8075 8.18544 33.8075 7.67776Z" stroke="white" stroke-width="0.685714" mask="url(#path-1-outside-1_4202_12063)"/>
<path fill-rule="evenodd" clip-rule="evenodd" d="M20.499 7.90878C20.499 8.49633 20.4059 9.01543 20.2199 9.46607C20.0393 9.91672 19.752 10.2961 19.358 10.6041C18.964 10.9121 18.4551 11.146 17.8313 11.3057C17.213 11.4598 16.466 11.5368 15.5905 11.5368L11.9636 11.4732C11.6237 11.4673 11.293 11.5884 11.0313 11.8144C10.7554 12.0527 10.526 12.4067 10.526 12.7802V16.0546H9.5V4.29792H15.5905C16.466 4.29792 17.213 4.30513 17.8313 4.46485C18.4551 4.61887 18.964 4.84705 19.358 5.14938C19.752 5.45171 20.0393 5.90085 20.2199 6.35149C20.4059 6.80213 20.499 7.32123 20.499 7.90878ZM19.4401 7.90878C19.4401 7.34975 19.3498 6.89911 19.1692 6.55685C18.9941 6.21459 18.7205 5.95218 18.3484 5.76964C17.9818 5.5814 17.5139 5.4559 16.9448 5.39316C16.3812 5.33041 15.7109 5.29903 14.9338 5.29903H10.526V11.1168C10.8863 10.7445 11.3731 10.463 11.8804 10.463H14.9338C15.2348 10.463 15.5549 10.4658 15.8942 10.4716C16.2389 10.4716 16.5782 10.4544 16.912 10.4202C17.017 10.4076 17.1204 10.3997 17.2222 10.3919C17.4439 10.375 17.6579 10.3586 17.8641 10.2961C18.1706 10.1991 18.4387 10.0536 18.6685 9.85967C18.9038 9.66573 19.0899 9.41188 19.2267 9.09814C19.369 8.7844 19.4401 8.38795 19.4401 7.90878Z" stroke="white" stroke-width="0.685714" mask="url(#path-1-outside-1_4202_12063)"/>
<path d="M39.9662 16.0546V4.29792H49.3645V5.29903H41.0825V9.92747C41.4682 9.55391 41.9751 9.34628 42.5016 9.34628H48.9459V10.3388H42.4391C42.1308 10.3388 41.8328 10.4542 41.5992 10.6639C41.3154 10.9188 41.0825 11.2899 41.0825 11.6804V15.0535H49.4877V16.0546H39.9662Z" stroke="white" stroke-width="0.685714" mask="url(#path-1-outside-1_4202_12063)"/>
<path d="M68.3406 16.0546V6.05201L62.3903 15.656C62.2364 15.9045 61.972 16.0546 61.6882 16.0546C61.404 16.0546 61.1393 15.9041 60.9854 15.655L55.0269 6.00923V16.0546H54.0009V4.29792C54.6867 4.29792 55.3258 4.66026 55.6985 5.26041L61.7166 14.9508L67.6699 5.25637C68.0366 4.65918 68.67 4.29792 69.3502 4.29792V16.0546H68.3406Z" stroke="white" stroke-width="0.685714" mask="url(#path-1-outside-1_4202_12063)"/>
<path d="M74.5036 16.0546V4.29792H75.5296V16.0546H74.5036Z" stroke="white" stroke-width="0.685714" mask="url(#path-1-outside-1_4202_12063)"/>
<path d="M111.348 16.0546V6.05201L105.397 15.656C105.243 15.9045 104.979 16.0546 104.695 16.0546C104.411 16.0546 104.146 15.9041 103.992 15.655L98.0339 6.00923V16.0546H97.0078V4.29792C97.6936 4.29792 98.3327 4.66026 98.7055 5.2604L104.724 14.9508L110.677 5.25638C111.044 4.65918 111.677 4.29792 112.357 4.29792V16.0546H111.348Z" stroke="white" stroke-width="0.685714" mask="url(#path-1-outside-1_4202_12063)"/>
</svg>
