<svg width="120" height="20" viewBox="0 0 120 20" fill="none" xmlns="http://www.w3.org/2000/svg">
<g id="Premium Branding">
<g id="Union">
<mask id="path-1-outside-1_4190_12075" maskUnits="userSpaceOnUse" x="8" y="3.28564" width="105" height="14" fill="black">
<rect fill="white" x="8" y="3.28564" width="105" height="14"/>
<path d="M90.2194 6.52448C90.2194 5.28801 91.1809 4.28564 92.3671 4.28564V5.30272C91.7476 5.30272 91.2454 5.82622 91.2454 6.47199V12.3582C91.2454 12.9457 91.1278 13.4819 90.8925 13.9668C90.6517 14.446 90.2933 14.8596 89.8172 15.2075C89.3411 15.5498 88.7474 15.815 88.036 16.0033C87.3246 16.1915 86.4956 16.2856 85.5489 16.2856C84.6022 16.2856 83.7732 16.1915 83.0619 16.0033C82.3505 15.815 81.7595 15.5498 81.2889 15.2075C80.8128 14.8596 80.4571 14.446 80.2218 13.9668C79.981 13.4819 79.8607 12.9457 79.8607 12.3582V4.29792H80.8867V12.4438C80.8867 12.8374 80.9879 13.211 81.1904 13.5647C81.3874 13.9126 81.6829 14.2178 82.0769 14.4802C82.4708 14.7426 82.9579 14.9508 83.5379 15.1048C84.118 15.2589 84.7883 15.3359 85.5489 15.3359C86.315 15.3359 86.9881 15.2589 87.5681 15.1048C88.1482 14.9508 88.6352 14.7426 89.0292 14.4802C89.4232 14.2178 89.7214 13.9126 89.9239 13.5647C90.1209 13.211 90.2194 12.8374 90.2194 12.4438V6.52448Z"/>
<path fill-rule="evenodd" clip-rule="evenodd" d="M25.4536 11.3479C25.1687 11.603 24.9351 11.9751 24.9351 12.3666V16.0546H23.9091V4.29792L29.5473 4.29792C30.3962 4.29791 31.1243 4.29789 31.7315 4.43918C32.3444 4.57609 32.8451 4.78715 33.2336 5.07237C33.6276 5.35188 33.9149 5.77535 34.0955 6.19747C34.276 6.6196 34.3663 7.11302 34.3663 7.67776C34.3663 8.55623 34.1447 9.26072 33.7015 9.79122C33.2582 10.316 32.7263 10.8693 30.1653 10.8693L32.6321 14.192C33.0281 14.7254 33.3075 15.0535 34.2855 15.0376H35.1195V16.0546L33.7653 16.0546C33.1108 16.0546 32.4941 15.7351 32.0988 15.1913L29.0697 11.0234H26.2934C25.9852 11.0234 25.6873 11.1385 25.4536 11.3479ZM33.3075 7.67776C33.3075 7.17577 33.2227 6.77076 33.053 6.46273C32.8834 6.14898 32.607 5.90655 32.224 5.73542C31.8409 5.56429 31.3375 5.4502 30.7137 5.39316C30.0953 5.33041 29.3347 5.29903 28.4318 5.29903H24.9351V10.6034C25.3221 10.2298 25.83 9.9496 26.3575 9.9496H28.399C29.3019 9.9496 30.0652 9.92393 30.6891 9.87259C30.7225 9.86954 30.7555 9.86654 30.7882 9.86357C31.3667 9.81106 31.8398 9.76811 32.2076 9.61154C32.5961 9.4404 32.8752 9.20367 33.0448 8.90134C33.2199 8.59331 33.3075 8.18544 33.3075 7.67776Z"/>
<path fill-rule="evenodd" clip-rule="evenodd" d="M19.999 7.90878C19.999 8.49633 19.9059 9.01543 19.7199 9.46607C19.5393 9.91672 19.252 10.2961 18.858 10.6041C18.464 10.9121 17.9551 11.146 17.3313 11.3057C16.713 11.4598 15.966 11.5368 15.0905 11.5368L11.4636 11.4732C11.1237 11.4673 10.793 11.5884 10.5313 11.8144C10.2554 12.0527 10.026 12.4067 10.026 12.7802V16.0546H9V4.29792H15.0905C15.966 4.29792 16.713 4.30513 17.3313 4.46485C17.9551 4.61887 18.464 4.84705 18.858 5.14938C19.252 5.45171 19.5393 5.90085 19.7199 6.35149C19.9059 6.80213 19.999 7.32123 19.999 7.90878ZM18.9401 7.90878C18.9401 7.34975 18.8498 6.89911 18.6692 6.55685C18.4941 6.21459 18.2205 5.95218 17.8484 5.76964C17.4818 5.5814 17.0139 5.4559 16.4448 5.39316C15.8812 5.33041 15.2109 5.29903 14.4338 5.29903H10.026V11.1168C10.3863 10.7445 10.8731 10.463 11.3804 10.463H14.4338C14.7348 10.463 15.0549 10.4658 15.3942 10.4716C15.7389 10.4716 16.0782 10.4544 16.412 10.4202C16.517 10.4076 16.6204 10.3997 16.7222 10.3919C16.9439 10.375 17.1579 10.3586 17.3641 10.2961C17.6706 10.1991 17.9387 10.0536 18.1685 9.85967C18.4038 9.66573 18.5899 9.41188 18.7267 9.09814C18.869 8.7844 18.9401 8.38795 18.9401 7.90878Z"/>
<path d="M39.4662 16.0546V4.29792H48.8645V5.29903H40.5825V9.92747C40.9682 9.55391 41.4751 9.34628 42.0016 9.34628H48.4459V10.3388H41.9391C41.6308 10.3388 41.3328 10.4542 41.0992 10.6639C40.8154 10.9188 40.5825 11.2899 40.5825 11.6804V15.0535H48.9877V16.0546H39.4662Z"/>
<path d="M67.8406 16.0546V6.05201L61.8903 15.656C61.7364 15.9045 61.472 16.0546 61.1882 16.0546C60.904 16.0546 60.6393 15.9041 60.4854 15.655L54.5269 6.00923V16.0546H53.5009V4.29792C54.1867 4.29792 54.8258 4.66026 55.1985 5.26041L61.2166 14.9508L67.1699 5.25637C67.5366 4.65918 68.17 4.29792 68.8502 4.29792V16.0546H67.8406Z"/>
<path d="M74.0036 16.0546V4.29792H75.0296V16.0546H74.0036Z"/>
<path d="M110.848 16.0546V6.05201L104.897 15.656C104.743 15.9045 104.479 16.0546 104.195 16.0546C103.911 16.0546 103.646 15.9041 103.492 15.655L97.5339 6.00923V16.0546H96.5078V4.29792C97.1937 4.29792 97.8327 4.66026 98.2055 5.2604L104.224 14.9508L110.177 5.25638C110.544 4.65918 111.177 4.29792 111.857 4.29792V16.0546H110.848Z"/>
</mask>
<path d="M90.2194 6.52448C90.2194 5.28801 91.1809 4.28564 92.3671 4.28564V5.30272C91.7476 5.30272 91.2454 5.82622 91.2454 6.47199V12.3582C91.2454 12.9457 91.1278 13.4819 90.8925 13.9668C90.6517 14.446 90.2933 14.8596 89.8172 15.2075C89.3411 15.5498 88.7474 15.815 88.036 16.0033C87.3246 16.1915 86.4956 16.2856 85.5489 16.2856C84.6022 16.2856 83.7732 16.1915 83.0619 16.0033C82.3505 15.815 81.7595 15.5498 81.2889 15.2075C80.8128 14.8596 80.4571 14.446 80.2218 13.9668C79.981 13.4819 79.8607 12.9457 79.8607 12.3582V4.29792H80.8867V12.4438C80.8867 12.8374 80.9879 13.211 81.1904 13.5647C81.3874 13.9126 81.6829 14.2178 82.0769 14.4802C82.4708 14.7426 82.9579 14.9508 83.5379 15.1048C84.118 15.2589 84.7883 15.3359 85.5489 15.3359C86.315 15.3359 86.9881 15.2589 87.5681 15.1048C88.1482 14.9508 88.6352 14.7426 89.0292 14.4802C89.4232 14.2178 89.7214 13.9126 89.9239 13.5647C90.1209 13.211 90.2194 12.8374 90.2194 12.4438V6.52448Z" fill="#1B1B1B"/>
<path fill-rule="evenodd" clip-rule="evenodd" d="M25.4536 11.3479C25.1687 11.603 24.9351 11.9751 24.9351 12.3666V16.0546H23.9091V4.29792L29.5473 4.29792C30.3962 4.29791 31.1243 4.29789 31.7315 4.43918C32.3444 4.57609 32.8451 4.78715 33.2336 5.07237C33.6276 5.35188 33.9149 5.77535 34.0955 6.19747C34.276 6.6196 34.3663 7.11302 34.3663 7.67776C34.3663 8.55623 34.1447 9.26072 33.7015 9.79122C33.2582 10.316 32.7263 10.8693 30.1653 10.8693L32.6321 14.192C33.0281 14.7254 33.3075 15.0535 34.2855 15.0376H35.1195V16.0546L33.7653 16.0546C33.1108 16.0546 32.4941 15.7351 32.0988 15.1913L29.0697 11.0234H26.2934C25.9852 11.0234 25.6873 11.1385 25.4536 11.3479ZM33.3075 7.67776C33.3075 7.17577 33.2227 6.77076 33.053 6.46273C32.8834 6.14898 32.607 5.90655 32.224 5.73542C31.8409 5.56429 31.3375 5.4502 30.7137 5.39316C30.0953 5.33041 29.3347 5.29903 28.4318 5.29903H24.9351V10.6034C25.3221 10.2298 25.83 9.9496 26.3575 9.9496H28.399C29.3019 9.9496 30.0652 9.92393 30.6891 9.87259C30.7225 9.86954 30.7555 9.86654 30.7882 9.86357C31.3667 9.81106 31.8398 9.76811 32.2076 9.61154C32.5961 9.4404 32.8752 9.20367 33.0448 8.90134C33.2199 8.59331 33.3075 8.18544 33.3075 7.67776Z" fill="#1B1B1B"/>
<path fill-rule="evenodd" clip-rule="evenodd" d="M19.999 7.90878C19.999 8.49633 19.9059 9.01543 19.7199 9.46607C19.5393 9.91672 19.252 10.2961 18.858 10.6041C18.464 10.9121 17.9551 11.146 17.3313 11.3057C16.713 11.4598 15.966 11.5368 15.0905 11.5368L11.4636 11.4732C11.1237 11.4673 10.793 11.5884 10.5313 11.8144C10.2554 12.0527 10.026 12.4067 10.026 12.7802V16.0546H9V4.29792H15.0905C15.966 4.29792 16.713 4.30513 17.3313 4.46485C17.9551 4.61887 18.464 4.84705 18.858 5.14938C19.252 5.45171 19.5393 5.90085 19.7199 6.35149C19.9059 6.80213 19.999 7.32123 19.999 7.90878ZM18.9401 7.90878C18.9401 7.34975 18.8498 6.89911 18.6692 6.55685C18.4941 6.21459 18.2205 5.95218 17.8484 5.76964C17.4818 5.5814 17.0139 5.4559 16.4448 5.39316C15.8812 5.33041 15.2109 5.29903 14.4338 5.29903H10.026V11.1168C10.3863 10.7445 10.8731 10.463 11.3804 10.463H14.4338C14.7348 10.463 15.0549 10.4658 15.3942 10.4716C15.7389 10.4716 16.0782 10.4544 16.412 10.4202C16.517 10.4076 16.6204 10.3997 16.7222 10.3919C16.9439 10.375 17.1579 10.3586 17.3641 10.2961C17.6706 10.1991 17.9387 10.0536 18.1685 9.85967C18.4038 9.66573 18.5899 9.41188 18.7267 9.09814C18.869 8.7844 18.9401 8.38795 18.9401 7.90878Z" fill="#1B1B1B"/>
<path d="M39.4662 16.0546V4.29792H48.8645V5.29903H40.5825V9.92747C40.9682 9.55391 41.4751 9.34628 42.0016 9.34628H48.4459V10.3388H41.9391C41.6308 10.3388 41.3328 10.4542 41.0992 10.6639C40.8154 10.9188 40.5825 11.2899 40.5825 11.6804V15.0535H48.9877V16.0546H39.4662Z" fill="#1B1B1B"/>
<path d="M67.8406 16.0546V6.05201L61.8903 15.656C61.7364 15.9045 61.472 16.0546 61.1882 16.0546C60.904 16.0546 60.6393 15.9041 60.4854 15.655L54.5269 6.00923V16.0546H53.5009V4.29792C54.1867 4.29792 54.8258 4.66026 55.1985 5.26041L61.2166 14.9508L67.1699 5.25637C67.5366 4.65918 68.17 4.29792 68.8502 4.29792V16.0546H67.8406Z" fill="#1B1B1B"/>
<path d="M74.0036 16.0546V4.29792H75.0296V16.0546H74.0036Z" fill="#1B1B1B"/>
<path d="M110.848 16.0546V6.05201L104.897 15.656C104.743 15.9045 104.479 16.0546 104.195 16.0546C103.911 16.0546 103.646 15.9041 103.492 15.655L97.5339 6.00923V16.0546H96.5078V4.29792C97.1937 4.29792 97.8327 4.66026 98.2055 5.2604L104.224 14.9508L110.177 5.25638C110.544 4.65918 111.177 4.29792 111.857 4.29792V16.0546H110.848Z" fill="#1B1B1B"/>
<path d="M90.2194 6.52448C90.2194 5.28801 91.1809 4.28564 92.3671 4.28564V5.30272C91.7476 5.30272 91.2454 5.82622 91.2454 6.47199V12.3582C91.2454 12.9457 91.1278 13.4819 90.8925 13.9668C90.6517 14.446 90.2933 14.8596 89.8172 15.2075C89.3411 15.5498 88.7474 15.815 88.036 16.0033C87.3246 16.1915 86.4956 16.2856 85.5489 16.2856C84.6022 16.2856 83.7732 16.1915 83.0619 16.0033C82.3505 15.815 81.7595 15.5498 81.2889 15.2075C80.8128 14.8596 80.4571 14.446 80.2218 13.9668C79.981 13.4819 79.8607 12.9457 79.8607 12.3582V4.29792H80.8867V12.4438C80.8867 12.8374 80.9879 13.211 81.1904 13.5647C81.3874 13.9126 81.6829 14.2178 82.0769 14.4802C82.4708 14.7426 82.9579 14.9508 83.5379 15.1048C84.118 15.2589 84.7883 15.3359 85.5489 15.3359C86.315 15.3359 86.9881 15.2589 87.5681 15.1048C88.1482 14.9508 88.6352 14.7426 89.0292 14.4802C89.4232 14.2178 89.7214 13.9126 89.9239 13.5647C90.1209 13.211 90.2194 12.8374 90.2194 12.4438V6.52448Z" stroke="#1B1B1B" mask="url(#path-1-outside-1_4190_12075)"/>
<path fill-rule="evenodd" clip-rule="evenodd" d="M25.4536 11.3479C25.1687 11.603 24.9351 11.9751 24.9351 12.3666V16.0546H23.9091V4.29792L29.5473 4.29792C30.3962 4.29791 31.1243 4.29789 31.7315 4.43918C32.3444 4.57609 32.8451 4.78715 33.2336 5.07237C33.6276 5.35188 33.9149 5.77535 34.0955 6.19747C34.276 6.6196 34.3663 7.11302 34.3663 7.67776C34.3663 8.55623 34.1447 9.26072 33.7015 9.79122C33.2582 10.316 32.7263 10.8693 30.1653 10.8693L32.6321 14.192C33.0281 14.7254 33.3075 15.0535 34.2855 15.0376H35.1195V16.0546L33.7653 16.0546C33.1108 16.0546 32.4941 15.7351 32.0988 15.1913L29.0697 11.0234H26.2934C25.9852 11.0234 25.6873 11.1385 25.4536 11.3479ZM33.3075 7.67776C33.3075 7.17577 33.2227 6.77076 33.053 6.46273C32.8834 6.14898 32.607 5.90655 32.224 5.73542C31.8409 5.56429 31.3375 5.4502 30.7137 5.39316C30.0953 5.33041 29.3347 5.29903 28.4318 5.29903H24.9351V10.6034C25.3221 10.2298 25.83 9.9496 26.3575 9.9496H28.399C29.3019 9.9496 30.0652 9.92393 30.6891 9.87259C30.7225 9.86954 30.7555 9.86654 30.7882 9.86357C31.3667 9.81106 31.8398 9.76811 32.2076 9.61154C32.5961 9.4404 32.8752 9.20367 33.0448 8.90134C33.2199 8.59331 33.3075 8.18544 33.3075 7.67776Z" stroke="#1B1B1B" mask="url(#path-1-outside-1_4190_12075)"/>
<path fill-rule="evenodd" clip-rule="evenodd" d="M19.999 7.90878C19.999 8.49633 19.9059 9.01543 19.7199 9.46607C19.5393 9.91672 19.252 10.2961 18.858 10.6041C18.464 10.9121 17.9551 11.146 17.3313 11.3057C16.713 11.4598 15.966 11.5368 15.0905 11.5368L11.4636 11.4732C11.1237 11.4673 10.793 11.5884 10.5313 11.8144C10.2554 12.0527 10.026 12.4067 10.026 12.7802V16.0546H9V4.29792H15.0905C15.966 4.29792 16.713 4.30513 17.3313 4.46485C17.9551 4.61887 18.464 4.84705 18.858 5.14938C19.252 5.45171 19.5393 5.90085 19.7199 6.35149C19.9059 6.80213 19.999 7.32123 19.999 7.90878ZM18.9401 7.90878C18.9401 7.34975 18.8498 6.89911 18.6692 6.55685C18.4941 6.21459 18.2205 5.95218 17.8484 5.76964C17.4818 5.5814 17.0139 5.4559 16.4448 5.39316C15.8812 5.33041 15.2109 5.29903 14.4338 5.29903H10.026V11.1168C10.3863 10.7445 10.8731 10.463 11.3804 10.463H14.4338C14.7348 10.463 15.0549 10.4658 15.3942 10.4716C15.7389 10.4716 16.0782 10.4544 16.412 10.4202C16.517 10.4076 16.6204 10.3997 16.7222 10.3919C16.9439 10.375 17.1579 10.3586 17.3641 10.2961C17.6706 10.1991 17.9387 10.0536 18.1685 9.85967C18.4038 9.66573 18.5899 9.41188 18.7267 9.09814C18.869 8.7844 18.9401 8.38795 18.9401 7.90878Z" stroke="#1B1B1B" mask="url(#path-1-outside-1_4190_12075)"/>
<path d="M39.4662 16.0546V4.29792H48.8645V5.29903H40.5825V9.92747C40.9682 9.55391 41.4751 9.34628 42.0016 9.34628H48.4459V10.3388H41.9391C41.6308 10.3388 41.3328 10.4542 41.0992 10.6639C40.8154 10.9188 40.5825 11.2899 40.5825 11.6804V15.0535H48.9877V16.0546H39.4662Z" stroke="#1B1B1B" mask="url(#path-1-outside-1_4190_12075)"/>
<path d="M67.8406 16.0546V6.05201L61.8903 15.656C61.7364 15.9045 61.472 16.0546 61.1882 16.0546C60.904 16.0546 60.6393 15.9041 60.4854 15.655L54.5269 6.00923V16.0546H53.5009V4.29792C54.1867 4.29792 54.8258 4.66026 55.1985 5.26041L61.2166 14.9508L67.1699 5.25637C67.5366 4.65918 68.17 4.29792 68.8502 4.29792V16.0546H67.8406Z" stroke="#1B1B1B" mask="url(#path-1-outside-1_4190_12075)"/>
<path d="M74.0036 16.0546V4.29792H75.0296V16.0546H74.0036Z" stroke="#1B1B1B" mask="url(#path-1-outside-1_4190_12075)"/>
<path d="M110.848 16.0546V6.05201L104.897 15.656C104.743 15.9045 104.479 16.0546 104.195 16.0546C103.911 16.0546 103.646 15.9041 103.492 15.655L97.5339 6.00923V16.0546H96.5078V4.29792C97.1937 4.29792 97.8327 4.66026 98.2055 5.2604L104.224 14.9508L110.177 5.25638C110.544 4.65918 111.177 4.29792 111.857 4.29792V16.0546H110.848Z" stroke="#1B1B1B" mask="url(#path-1-outside-1_4190_12075)"/>
</g>
</g>
</svg>
