<svg width="175" height="77" viewBox="0 0 175 77" fill="none" xmlns="http://www.w3.org/2000/svg">
<path d="M24.5223 31.7H20.1223C20.3223 28.3 20.3223 25.5 20.3223 23.3C20.3223 10.6 18.5223 8.6 15.2223 8.6C11.5223 8.6 9.42227 10.8 9.42227 37.9C9.42227 66.1 11.5223 68.4 15.4223 68.4C19.0223 68.4 20.5223 64.7 20.5223 51.9C20.5223 50 20.5223 48 20.4223 45.8H24.8223H29.2223C29.3223 47.3 29.3223 48.8 29.3223 50.2C29.3223 68 25.3223 76.9 15.3223 76.9C4.72227 76.9 0.222266 69.6 0.222266 38.1C0.222266 7.3 4.82227 0.0999937 15.4223 0.0999937C25.6223 0.0999937 29.1223 6.7 29.1223 23.5C29.1223 25.9 29.0223 28.7 28.9223 31.7H24.5223ZM40.409 21.4H40.909C42.209 14.5 44.709 12.1 48.209 12.1C49.309 12.1 50.409 12.3 51.309 12.6C50.909 15 50.709 19.2 50.609 22.4C49.709 22.1 48.609 22 47.709 22C43.709 22 42.109 23.9 42.109 32.3C42.109 45.8 42.009 64 42.309 76H33.009C33.109 67.1 33.109 57.2 33.109 43.2C33.109 30.1 33.109 21.3 33.009 12.6H40.609C40.509 15.2 40.409 18 40.409 21.4ZM63.7145 19.1C60.5145 19.1 58.9145 22.6 58.6145 41.4C61.5145 41.6 64.9145 41.5 67.7145 41.4C67.8145 39.7 67.9145 37.2 67.9145 33C67.9145 22.3 66.6145 19.1 63.7145 19.1ZM71.7145 55.3H75.7145C75.9145 70.9 73.2145 76.9 63.7145 76.9C54.8145 76.9 50.3145 71.9 50.3145 45.2C50.3145 18.5 55.1145 11.7 63.9145 11.7C72.8145 11.7 75.7145 17.9 75.7145 32.9C75.7145 38.1 75.5145 45.7 75.3145 48C72.8145 47.9 69.2145 47.9 66.0145 47.9C63.2145 47.9 60.7145 47.9 58.6145 48C58.7145 66.5 60.3145 69.3 63.8145 69.3C66.9145 69.3 67.8145 66.4 67.7145 55.3H71.7145ZM94.6949 57.9V45.3C93.7949 45.1 92.7949 45 91.6949 45C88.1949 45 86.5949 46.5 86.5949 56.7C86.5949 67.8 87.2949 68.9 89.9949 68.9C93.1949 68.9 94.6949 64.8 94.6949 57.9ZM95.0949 69.3H94.4949C93.4949 74.2 90.7949 76.6 86.5949 76.6C81.0949 76.6 77.9949 73.6 77.9949 58C77.9949 43.2 82.1949 39.4 90.0949 39.4C91.8949 39.4 93.4949 39.6 94.7949 40C94.7949 35.1 94.7949 30.1 94.7949 25.3C94.7949 22.1 93.7949 19.9 91.3949 19.9C88.4949 19.9 87.0949 21.5 87.4949 33.1C86.2949 32.9 84.9949 32.9 83.6949 32.9C81.9949 32.9 80.2949 33 78.9949 33.1C78.1949 18.4 81.6949 11.8 91.2949 11.8C99.6949 11.8 103.495 16.3 103.495 25.2C103.495 37.4 103.295 45.9 103.295 56.2C103.295 63.7 103.495 73.7 104.095 76H96.6949C95.0949 76 94.8949 75.7 94.8949 73.8C94.8949 72.5 94.9949 70.8 95.0949 69.3ZM124.58 20.8L117.28 20.7C117.08 33.2 116.98 47.9 116.98 64.1C116.98 67.2 118.08 68.3 120.38 68.3C121.78 68.3 123.08 67.9 124.28 67.1C124.38 69.8 124.98 73.2 125.38 75.4C122.98 76.1 121.48 76.6 118.68 76.6C110.98 76.6 108.38 71.9 108.38 64.4C108.38 52.4 108.58 38.2 108.68 20.6L105.48 20.5V12.6H108.68V2.6C110.08 2.6 111.58 2.7 113.18 2.7C114.58 2.7 116.08 2.7 117.58 2.6C117.48 5.7 117.38 9.1 117.38 12.7C119.78 12.7 122.28 12.7 124.68 12.6C124.58 15.2 124.48 18.2 124.58 20.8ZM144.564 43.8C144.564 22.8 142.764 19.6 139.364 19.6C136.064 19.6 134.164 22.7 134.164 43.8C134.064 64.9 135.964 68.9 139.364 68.9C142.864 68.9 144.564 64.9 144.564 43.8ZM153.464 43.1C153.464 68.9 148.964 76.9 139.364 76.9C129.764 76.9 125.464 68.9 125.464 43.1C125.464 17.2 130.164 11.7 139.364 11.7C148.564 11.7 153.464 17.2 153.464 43.1ZM164.003 21.4H164.503C165.803 14.5 168.303 12.1 171.803 12.1C172.903 12.1 174.003 12.3 174.903 12.6C174.503 15 174.303 19.2 174.203 22.4C173.303 22.1 172.203 22 171.303 22C167.303 22 165.703 23.9 165.703 32.3C165.703 45.8 165.603 64 165.903 76H156.603C156.703 67.1 156.703 57.2 156.703 43.2C156.703 30.1 156.703 21.3 156.603 12.6H164.203C164.103 15.2 164.003 18 164.003 21.4Z" fill="white"/>
</svg>
