<svg width="240" height="88" viewBox="0 0 240 88" fill="none" xmlns="http://www.w3.org/2000/svg">
<path d="M9.7 49.7V56.2C9.7 66.4 10.9 68.9 14.8 68.9C18.5 68.9 19.7 66.6 19.7 60.3C19.7 53.3 17.6 47.6 12.6 42.5C4.5 35.2 0.9 27.7 0.9 16.4C0.9 5 5.5 0.0999937 14.6 0.0999937C24.3 0.0999937 28.2 4.69999 28.2 18.9C28.2 21.5 28.1 24.2 28 27.2H24C22.4 27.2 20.8 27.2 19.5 27.3C19.6 24.2 19.7 21.2 19.7 18C19.7 10.4 18.4 8.2 14.8 8.2C11.2 8.2 9.8 10.6 9.8 16.5C9.8 23.2 11.3 28.2 16.6 33.7C23.5 40.5 28.3 48.4 28.3 59.3C28.3 71.1 24.4 76.9 14.7 76.9C3.8 76.9 0.5 69.4 0.5 57.5C0.5 53.6 0.6 51.7 0.7 49.6C1.8 49.7 3 49.8 4.8 49.8C6.7 49.8 8.4 49.7 9.7 49.7ZM49.3383 12.6H58.2383C58.2383 21.6 58.1383 30.3 58.1383 44C58.1383 57.6 58.2383 67.9 58.2383 76H49.3383C49.3383 73.8 49.3383 72.3 49.4383 70.5L49.0383 70.4C47.5383 74.9 44.3383 76.7 40.2383 76.7C34.6383 76.7 31.5383 73 31.5383 64.2C31.5383 50.4 31.6383 44.2 31.6383 36.3C31.6383 27.2 31.6383 20 31.4383 12.6H40.4383C40.3383 25.3 40.3383 41.2 40.3383 62.8C40.3383 67.1 41.2383 69 44.1383 69C47.2383 69 49.4383 66.7 49.4383 60.8C49.4383 29.6 49.3383 21.3 49.3383 12.6ZM71.5414 29.9V67.9C72.7414 68.5 74.2414 68.9 75.9414 68.9C79.7414 68.9 81.4414 65.9 81.4414 43.7C81.4414 22.1 79.8414 19.8 76.7414 19.8C73.9414 19.8 71.5414 21.8 71.5414 29.9ZM71.5414 18.7L72.0414 18.8C73.4414 14 76.2414 11.9 80.4414 11.9C87.0414 11.9 90.1414 16.4 90.1414 43.8C90.1414 71.2 86.4414 76.7 79.8414 76.7C75.5414 76.7 73.1414 74.7 71.8414 71.9H71.4414C71.5414 73.9 71.6414 76.3 71.6414 78.4V87.4H62.6414C62.8414 77.4 62.9414 62 62.9414 43.5C62.9414 30.5 62.7414 20 62.7414 12.6H71.7414C71.7414 13.8 71.6414 14.7 71.6414 16.2C71.6414 17.1 71.6414 17.9 71.5414 18.7ZM102.159 29.9V67.9C103.359 68.5 104.859 68.9 106.559 68.9C110.359 68.9 112.059 65.9 112.059 43.7C112.059 22.1 110.459 19.8 107.359 19.8C104.559 19.8 102.159 21.8 102.159 29.9ZM102.159 18.7L102.659 18.8C104.059 14 106.859 11.9 111.059 11.9C117.659 11.9 120.759 16.4 120.759 43.8C120.759 71.2 117.059 76.7 110.459 76.7C106.159 76.7 103.759 74.7 102.459 71.9H102.059C102.159 73.9 102.259 76.3 102.259 78.4V87.4H93.2586C93.4586 77.4 93.5586 62 93.5586 43.5C93.5586 30.5 93.3586 20 93.3586 12.6H102.359C102.359 13.8 102.259 14.7 102.259 16.2C102.259 17.1 102.259 17.9 102.159 18.7ZM141.676 43.8C141.676 22.8 139.876 19.6 136.476 19.6C133.176 19.6 131.276 22.7 131.276 43.8C131.176 64.9 133.076 68.9 136.476 68.9C139.976 68.9 141.676 64.9 141.676 43.8ZM150.576 43.1C150.576 68.9 146.076 76.9 136.476 76.9C126.876 76.9 122.576 68.9 122.576 43.1C122.576 17.2 127.276 11.7 136.476 11.7C145.676 11.7 150.576 17.2 150.576 43.1ZM161.114 21.4H161.614C162.914 14.5 165.414 12.1 168.914 12.1C170.014 12.1 171.114 12.3 172.014 12.6C171.614 15 171.414 19.2 171.314 22.4C170.414 22.1 169.314 22 168.414 22C164.414 22 162.814 23.9 162.814 32.3C162.814 45.8 162.714 64 163.014 76H153.714C153.814 67.1 153.814 57.2 153.814 43.2C153.814 30.1 153.814 21.3 153.714 12.6H161.314C161.214 15.2 161.114 18 161.114 21.4ZM190.789 20.8L183.489 20.7C183.289 33.2 183.189 47.9 183.189 64.1C183.189 67.2 184.289 68.3 186.589 68.3C187.989 68.3 189.289 67.9 190.489 67.1C190.589 69.8 191.189 73.2 191.589 75.4C189.189 76.1 187.689 76.6 184.889 76.6C177.189 76.6 174.589 71.9 174.589 64.4C174.589 52.4 174.789 38.2 174.889 20.6L171.689 20.5V12.6H174.889V2.6C176.289 2.6 177.789 2.7 179.389 2.7C180.789 2.7 182.289 2.7 183.789 2.6C183.689 5.7 183.589 9.1 183.589 12.7C185.989 12.7 188.489 12.7 190.889 12.6C190.789 15.2 190.689 18.2 190.789 20.8ZM205.173 19.1C201.973 19.1 200.373 22.6 200.073 41.4C202.973 41.6 206.373 41.5 209.173 41.4C209.273 39.7 209.373 37.2 209.373 33C209.373 22.3 208.073 19.1 205.173 19.1ZM213.173 55.3H217.173C217.373 70.9 214.673 76.9 205.173 76.9C196.273 76.9 191.773 71.9 191.773 45.2C191.773 18.5 196.573 11.7 205.373 11.7C214.273 11.7 217.173 17.9 217.173 32.9C217.173 38.1 216.973 45.7 216.773 48C214.273 47.9 210.673 47.9 207.473 47.9C204.673 47.9 202.173 47.9 200.073 48C200.173 66.5 201.773 69.3 205.273 69.3C208.373 69.3 209.273 66.4 209.173 55.3H213.173ZM228.454 21.4H228.954C230.254 14.5 232.754 12.1 236.254 12.1C237.354 12.1 238.454 12.3 239.354 12.6C238.954 15 238.754 19.2 238.654 22.4C237.754 22.1 236.654 22 235.754 22C231.754 22 230.154 23.9 230.154 32.3C230.154 45.8 230.054 64 230.354 76H221.054C221.154 67.1 221.154 57.2 221.154 43.2C221.154 30.1 221.154 21.3 221.054 12.6H228.654C228.554 15.2 228.454 18 228.454 21.4Z" fill="#1B1B1B"/>
</svg>
