<svg width="1759" height="643" viewBox="0 0 1759 643" fill="none" xmlns="http://www.w3.org/2000/svg">
<path d="M1678.55 157.122H1682.23C1691.8 106.335 1710.2 88.6702 1735.96 88.6702C1744.06 88.6702 1752.16 90.1423 1758.78 92.3504C1755.84 110.015 1754.37 140.929 1753.63 164.482C1747 162.274 1738.91 161.538 1732.28 161.538C1702.84 161.538 1691.07 175.523 1691.07 237.35C1691.07 336.716 1690.33 470.675 1692.54 559H1624.09C1624.82 493.492 1624.82 420.624 1624.82 317.579C1624.82 221.157 1624.82 156.386 1624.09 92.3504H1680.03C1679.29 111.487 1678.55 132.097 1678.55 157.122Z" fill="#1B1B1B"/>
<path d="M1507.2 140.193C1483.65 140.193 1471.87 165.954 1469.66 304.33C1491.01 305.802 1516.03 305.066 1536.64 304.33C1537.38 291.817 1538.11 273.416 1538.11 242.503C1538.11 163.746 1528.54 140.193 1507.2 140.193ZM1566.08 406.64H1595.52C1597 521.462 1577.12 565.624 1507.2 565.624C1441.69 565.624 1408.57 528.822 1408.57 332.299C1408.57 135.777 1443.9 85.7261 1508.67 85.7261C1574.18 85.7261 1595.52 131.361 1595.52 241.767C1595.52 280.041 1594.05 335.98 1592.58 352.909C1574.18 352.173 1547.68 352.173 1524.13 352.173C1503.52 352.173 1485.12 352.173 1469.66 352.909C1470.4 489.076 1482.17 509.685 1507.94 509.685C1530.75 509.685 1537.38 488.34 1536.64 406.64H1566.08Z" fill="#1B1B1B"/>
<path d="M1401.33 161.706L1347.59 160.97C1346.12 252.975 1345.39 352.173 1345.39 471.411C1345.39 494.228 1353.48 502.325 1370.41 502.325C1380.72 502.325 1390.29 499.381 1399.12 493.492C1399.85 513.366 1404.27 538.391 1407.21 554.584C1389.55 559.736 1378.51 563.416 1357.9 563.416C1301.22 563.416 1282.09 528.822 1282.09 473.619C1282.09 385.294 1283.56 280.777 1284.3 151.234L1260.74 150.498V92.3506H1284.3V18.7466C1294.6 18.7466 1305.64 19.4826 1317.42 19.4826C1327.72 19.4826 1338.76 19.4826 1349.8 18.7466C1349.07 41.5638 1348.33 66.5892 1348.33 93.0866C1366 93.0866 1384.4 93.0866 1402.06 92.3506C1401.33 111.488 1400.59 142.569 1401.33 161.706Z" fill="#1B1B1B"/>
<path d="M1182.9 157.122H1186.58C1196.15 106.335 1215.24 92.5 1241 92.5C1249.1 92.5 1278 92.5002 1285.5 92.5002C1285.5 111.15 1285.74 137.985 1285 161.538C1278.38 159.33 1237.5 161.538 1237.5 161.538C1208.06 161.538 1195.42 175.523 1195.42 237.35C1195.42 336.716 1194.68 470.675 1196.89 559H1128.44C1129.17 493.492 1129.17 420.624 1129.17 317.579C1129.17 221.158 1129.17 156.386 1128.44 92.3506H1184.38C1183.64 111.488 1182.9 132.097 1182.9 157.122Z" fill="#1B1B1B"/>
<path d="M1039.83 321.995C1039.83 167.427 1026.58 143.873 1001.55 143.873C977.262 143.873 963.278 166.69 963.278 321.995C962.542 477.299 976.526 506.741 1001.55 506.741C1027.31 506.741 1039.83 477.299 1039.83 321.995ZM1105.33 316.843C1105.33 506.741 1072.21 565.624 1001.55 565.624C930.892 565.624 899.242 506.741 899.242 316.843C899.242 126.208 933.836 85.7261 1001.55 85.7261C1069.27 85.7261 1105.33 126.208 1105.33 316.843Z" fill="#1B1B1B"/>
<path d="M748.969 219.685V499.381C757.801 503.797 768.842 506.741 781.354 506.741C809.324 506.741 821.836 484.66 821.836 321.259C821.836 162.274 810.06 145.345 787.243 145.345C766.633 145.345 748.969 160.066 748.969 219.685ZM748.969 137.249L752.649 137.985C762.953 102.655 783.562 87.1982 814.476 87.1982C863.055 87.1982 885.872 120.32 885.872 321.995C885.872 523.67 858.638 564.152 810.06 564.152C778.41 564.152 760.745 549.431 751.177 528.822H748.232C748.969 543.543 749.705 561.208 749.705 576.665V642.909H683.461C684.933 569.305 685.669 455.954 685.669 319.787C685.669 224.102 684.197 146.818 684.197 92.3505H750.441C750.441 101.183 749.705 107.807 749.705 118.848C749.705 125.472 749.705 131.361 748.969 137.249Z" fill="#1B1B1B"/>
<path d="M523.609 219.685V499.381C532.442 503.797 543.482 506.741 555.995 506.741C583.964 506.741 596.477 484.66 596.477 321.259C596.477 162.274 584.7 145.345 561.883 145.345C541.274 145.345 523.609 160.066 523.609 219.685ZM523.609 137.249L527.289 137.985C537.594 102.655 558.203 87.1982 589.117 87.1982C637.695 87.1982 660.513 120.32 660.513 321.995C660.513 523.67 633.279 564.152 584.7 564.152C553.051 564.152 535.386 549.431 525.817 528.822H522.873C523.609 543.543 524.345 561.208 524.345 576.665V642.909H458.102C459.574 569.305 460.31 455.954 460.31 319.787C460.31 224.102 458.838 146.818 458.838 92.3505H525.081C525.081 101.183 524.345 107.807 524.345 118.848C524.345 125.472 524.345 131.361 523.609 137.249Z" fill="#1B1B1B"/>
<path d="M360.189 92.3506H425.696C425.696 158.594 424.96 222.63 424.96 323.467C424.96 423.569 425.696 499.381 425.696 559H360.189C360.189 542.807 360.189 531.767 360.925 518.518L357.981 517.782C346.94 550.904 323.387 564.152 293.209 564.152C251.991 564.152 229.174 536.919 229.174 472.147C229.174 370.574 229.91 324.939 229.91 266.792C229.91 199.812 229.91 146.818 228.438 92.3506H294.681C293.945 185.828 293.945 302.858 293.945 461.843C293.945 493.492 300.569 507.477 321.915 507.477C344.732 507.477 360.925 490.548 360.925 447.122C360.925 217.477 360.189 156.386 360.189 92.3506Z" fill="#1B1B1B"/>
<path d="M68.4344 365.421V413.264C68.4344 488.34 77.2669 506.741 105.972 506.741C133.206 506.741 142.038 489.812 142.038 443.442C142.038 391.919 126.582 349.964 89.7796 312.426C30.1604 258.696 3.66291 203.493 3.66291 120.32C3.66291 36.4114 37.5208 0.345459 104.5 0.345459C175.896 0.345459 204.602 34.2033 204.602 138.721C204.602 157.858 203.866 177.731 203.13 199.812H173.688C161.912 199.812 150.135 199.812 140.566 200.548C141.302 177.731 142.038 155.65 142.038 132.097C142.038 76.1576 132.47 59.9647 105.972 59.9647C79.475 59.9647 69.1705 77.6297 69.1705 121.056C69.1705 170.371 80.2111 207.173 119.221 247.655C170.008 297.706 205.338 355.853 205.338 436.081C205.338 522.934 176.632 565.624 105.236 565.624C25.0081 565.624 0.71875 510.421 0.71875 422.832C0.71875 394.127 1.45479 380.142 2.19083 364.685C10.2873 365.421 19.1197 366.157 32.3685 366.157C46.3532 366.157 58.8659 365.421 68.4344 365.421Z" fill="#1B1B1B"/>
</svg>
