<svg width="604" height="101" viewBox="0 0 604 101" fill="none" xmlns="http://www.w3.org/2000/svg">
<path fill-rule="evenodd" clip-rule="evenodd" d="M466.711 29.4534V19.3149H464.198C456.75 19.3149 450.889 25.5778 450.889 33.0812V62.8332C450.889 64.3634 450.514 65.8151 449.733 67.2233C448.94 68.5794 447.736 69.8396 446.027 70.9774C444.328 72.109 442.149 73.0581 439.432 73.7797C436.775 74.485 433.617 74.8567 429.927 74.8567C426.267 74.8567 423.122 74.4854 420.464 73.7797C417.747 73.0581 415.568 72.109 413.869 70.9774C412.156 69.8369 410.971 68.5776 410.207 67.2291L410.204 67.2238L410.201 67.2186C409.393 65.8071 409.007 64.3577 409.007 62.8332V19.3766H398.823V62.4031C398.823 65.7104 399.504 68.7929 400.901 71.6063C402.281 74.4126 404.349 76.7926 407.032 78.7537L407.037 78.7572C409.711 80.7017 412.984 82.1484 416.784 83.154C420.619 84.1689 425.011 84.6569 429.927 84.6569C434.844 84.6569 439.236 84.1689 443.071 83.154C446.87 82.1486 450.152 80.7035 452.848 78.7653L452.856 78.7595L452.864 78.7537C455.546 76.7932 457.625 74.4164 459.031 71.617L459.039 71.6015L459.047 71.5858C460.41 68.7767 461.073 65.7016 461.073 62.4031V32.8173C461.073 30.86 462.569 29.4534 464.198 29.4534H466.711ZM429.927 77.3698C429.926 77.3698 429.925 77.3698 429.924 77.3698C429.925 77.3698 429.925 77.3699 429.926 77.3699C429.926 77.3699 429.927 77.3698 429.927 77.3698ZM424.533 77.0795C422.848 76.886 421.276 76.5959 419.818 76.2087C416.903 75.4345 414.455 74.388 412.474 73.0691C410.494 71.7502 409.009 70.2163 408.019 68.4673C407.001 66.6896 406.492 64.8116 406.492 62.8333V21.8898L401.336 21.8898H406.494V62.8332C406.494 64.8116 407.002 66.6896 408.02 68.4672C409.01 70.2162 410.495 71.7502 412.476 73.0691C414.456 74.388 416.904 75.4345 419.82 76.2086C421.277 76.5957 422.848 76.886 424.533 77.0795ZM464.196 21.8281V26.9403C464.197 26.9403 464.197 26.9402 464.198 26.9402V21.8281C464.197 21.8281 464.197 21.8281 464.196 21.8281ZM463.538 26.98C460.734 27.3196 458.558 29.8035 458.558 32.8174V62.4032C458.558 65.3564 457.967 68.0515 456.784 70.4886C455.574 72.8971 453.772 74.9758 451.38 76.7248C448.987 78.4451 446.002 79.7783 442.427 80.7245C441.533 80.9609 440.603 81.168 439.636 81.3454C440.603 81.168 441.534 80.961 442.428 80.7244C446.004 79.7783 448.988 78.445 451.381 76.7247C453.774 74.9757 455.575 72.897 456.786 70.4886C457.968 68.0515 458.56 65.3563 458.56 62.4031V32.8173C458.56 29.804 460.735 27.3203 463.538 26.98ZM117.594 83.4956H127.777V62.4456C127.777 61.4455 128.424 60.2031 129.547 59.1968C130.27 58.5491 131.174 58.2071 132.091 58.2071H144.766L159.238 78.1207C161.682 81.4838 165.528 83.4957 169.647 83.4957L178.967 83.4957V73.3573H172.242L172.221 73.3576C170.043 73.3931 168.985 73.0398 168.314 72.6327C167.576 72.1842 166.989 71.4959 165.97 70.1225L156.435 57.2802C160.353 57.0124 163.195 56.4028 165.367 55.532C168.484 54.2817 170.03 52.5623 171.246 51.1224L171.251 51.1173L171.255 51.1121C173.953 47.8825 175.181 43.7191 175.181 38.8779C175.181 35.7756 174.686 32.9462 173.617 30.4491C172.589 28.0462 170.902 25.4933 168.446 23.7448C166.147 22.0614 163.293 20.8899 159.983 20.1495C156.651 19.376 152.751 19.3763 148.66 19.3766L117.594 19.3766V83.4956ZM176.452 80.9826L176.454 80.9826V75.8704H172.262C167.346 75.9506 165.942 74.3012 163.952 71.6205L151.553 54.9198C151.552 54.9198 151.552 54.9198 151.551 54.9198L163.95 71.6206C165.94 74.3013 167.345 75.9506 172.261 75.8705H176.452V80.9826ZM156.469 54.7583C165.178 54.1287 167.415 51.7621 169.325 49.5008C171.553 46.8344 172.667 43.2934 172.667 38.8779C172.667 36.0394 172.213 33.5593 171.305 31.4376C170.398 29.3158 168.954 27.1874 166.973 25.7825C165.021 24.3489 162.504 23.288 159.423 22.5999C156.883 22.0088 153.922 21.9097 150.54 21.8931C153.922 21.9096 156.884 22.0086 159.425 22.5998C162.505 23.288 165.022 24.3488 166.975 25.7824C168.955 27.1873 170.399 29.3158 171.307 31.4375C172.214 33.5592 172.668 36.0393 172.668 38.8779C172.668 43.2933 171.554 46.8343 169.326 49.5008C167.416 51.7622 165.179 54.1289 156.469 54.7583ZM125.263 80.9825V62.4456C125.263 60.4776 126.437 58.6076 127.869 57.3249C128.98 56.329 130.381 55.7573 131.841 55.6989C130.382 55.7576 128.981 56.3292 127.87 57.3249C126.438 58.6075 125.264 60.4776 125.264 62.4456V80.9825L125.263 80.9825ZM125.264 26.9217L125.263 26.9217V53.5833C125.263 53.5828 125.264 53.5823 125.264 53.5819V26.9217ZM132.131 50.3022C132.224 50.2987 132.318 50.2969 132.412 50.2969H142.673C142.674 50.2969 142.674 50.2968 142.675 50.2968H132.413C132.319 50.2968 132.225 50.2986 132.131 50.3022ZM127.777 48.8337V29.4348H142.84C147.327 29.4348 151.06 29.5911 154.055 29.8951L154.068 29.8964L154.08 29.8975C157.063 30.1702 159.294 30.7031 160.875 31.4097C162.387 32.0853 163.312 32.9583 163.856 33.9661L163.861 33.9746L163.866 33.9831C164.445 35.035 164.833 36.6084 164.833 38.8779C164.833 41.1715 164.433 42.7452 163.841 43.786L163.838 43.7921L163.834 43.7982C163.305 44.7412 162.379 45.6013 160.819 46.2912C159.416 46.8847 157.494 47.0858 154.456 47.3616L153.968 47.406C150.925 47.656 147.166 47.7837 142.675 47.7837H132.413C130.767 47.7837 129.203 48.1859 127.777 48.8337ZM79.6247 58.1666C82.4106 58.0026 84.8841 57.6514 87.0451 57.1132C90.1806 56.3104 92.7385 55.1348 94.7189 53.5865C96.6992 52.0382 98.1432 50.1316 99.0508 47.8665C99.986 45.6014 100.454 42.9923 100.454 40.0391C100.454 37.0859 99.986 34.4767 99.0508 32.2117C98.1432 29.9466 96.6992 27.6891 94.7189 26.1695C92.7385 24.6499 90.1806 23.503 87.0451 22.7288C83.9371 21.926 80.1827 21.8898 75.782 21.8898H45.1694V21.8898H75.7806C80.1813 21.8898 83.9357 21.9261 87.0437 22.7289C90.1792 23.503 92.7371 24.6499 94.7174 26.1695C96.6978 27.6891 98.1418 29.9466 99.0494 32.2117C99.9846 34.4768 100.452 37.0859 100.452 40.0391C100.452 42.9923 99.9846 45.6015 99.0494 47.8665C98.1418 50.1316 96.6978 52.0383 94.7174 53.5866C92.7371 55.1349 90.1792 56.3104 87.0437 57.1132C84.883 57.6514 82.41 58.0025 79.6247 58.1666ZM57.0732 57.9632C55.5347 58.0438 54.0573 58.6401 52.8645 59.6702C51.4779 60.8677 50.3251 62.6472 50.3251 64.5243V80.9825H50.3265V64.5242C50.3265 62.6471 51.4793 60.8677 52.8659 59.6701C54.0583 58.6403 55.5352 58.0441 57.0732 57.9632ZM96.2668 55.5664C98.5818 53.7564 100.301 51.4975 101.379 48.8135C102.459 46.1918 102.967 43.2505 102.967 40.0391C102.967 36.8277 102.459 33.8865 101.379 31.2648C100.359 28.7257 98.6869 26.0466 96.2488 24.1757C93.9282 22.395 91.0323 21.1261 87.6604 20.2921C84.1869 19.3976 80.0974 19.3766 75.782 19.3766H42.6562V83.4956H52.8397V64.5242C52.8397 63.6422 53.4367 62.4979 54.5086 61.5721C55.3656 60.832 56.4304 60.449 57.509 60.4675L75.7599 60.7875H75.782C80.3171 60.7875 84.2875 60.39 87.6525 59.5518L87.6605 59.5498L87.6684 59.5478C91.0475 58.6826 93.9464 57.3805 96.2668 55.5664ZM91.5326 34.3885L91.5398 34.4026L91.5472 34.4166C92.1982 35.6505 92.6183 37.4685 92.6183 40.0391C92.6183 42.2205 92.2913 43.8296 91.7699 44.9792L91.7624 44.9959L91.7551 45.0127C91.2061 46.2717 90.4964 47.2118 89.6548 47.9056L89.6436 47.9148L89.6325 47.9242C88.7513 48.6678 87.7066 49.2432 86.4671 49.6374C85.7418 49.8552 84.9476 49.9259 83.7918 50.0144L83.7705 50.016L83.7703 50.016C83.2782 50.0537 82.7214 50.0963 82.1478 50.1643C80.5706 50.3253 78.9646 50.4065 77.3293 50.4072C75.6196 50.3785 74.0035 50.3642 72.4814 50.3642H57.1339C55.6079 50.3642 54.1606 50.7308 52.8397 51.3264V29.4348H72.4814C76.3255 29.4348 79.5973 29.5904 82.3113 29.8925L82.3139 29.8928C84.9799 30.1867 87.0095 30.7594 88.4964 31.5228L88.5168 31.5333L88.5374 31.5434C89.9612 32.2418 90.9192 33.1895 91.5326 34.3885ZM50.3265 26.9217H50.3251V56.1637C50.3256 56.1632 50.326 56.1628 50.3265 56.1623V26.9217ZM56.8744 52.8822C56.9603 52.879 57.0463 52.8774 57.1325 52.8774H72.48C73.9928 52.8774 75.6018 52.8917 77.3071 52.9204C77.7407 52.9204 78.1727 52.915 78.6029 52.9042C78.1731 52.9149 77.7417 52.9203 77.3085 52.9203C75.6032 52.8917 73.9942 52.8773 72.4814 52.8773H57.1339C57.0473 52.8773 56.9608 52.8789 56.8744 52.8822ZM248.054 19.3766H195.788V83.4956H248.673V73.4374H206.426V58.9963C206.426 58.0011 207.069 56.7628 208.189 55.7572C208.911 55.1088 209.814 54.7664 210.731 54.7664H245.95V44.7512H211.045C209.449 44.7512 207.885 45.0548 206.426 45.6291V29.4348H248.054V19.3766ZM211.044 47.2644H243.435V52.2533L243.437 52.2533V47.2644H211.045C211.045 47.2644 211.044 47.2644 211.044 47.2644ZM209.974 52.2996C208.698 52.4561 207.49 53.0058 206.508 53.8873C205.082 55.1682 203.911 57.0336 203.911 58.9964V75.9506H246.158V80.9825L246.159 80.9825V75.9506H203.912V58.9963C203.912 57.0335 205.083 55.1682 206.51 53.8872C207.491 53.006 208.699 52.4563 209.974 52.2996ZM203.912 50.1843C203.912 50.1847 203.912 50.1852 203.911 50.1856V26.9217L203.912 26.9217V50.1843ZM245.539 26.9217L245.541 26.9217V21.8898H198.302L245.539 21.8898V26.9217ZM268.844 21.8898C269.702 21.8898 270.545 22.0026 271.357 22.2186C271.401 22.2302 271.445 22.2421 271.488 22.2543C271.645 22.2985 271.801 22.3465 271.956 22.3984C274.158 23.1368 276.086 24.6482 277.377 26.7275L307.625 75.4334L307.624 75.4345L277.376 26.7276C275.502 23.7115 272.291 21.8903 268.844 21.8898ZM274.001 80.9825L274 80.9825V30.4914L274.001 30.4937V80.9825ZM308.012 80.9476C309.233 80.7862 310.335 80.0719 311.012 78.979L340.918 30.7086V30.7064L311.011 78.9791C310.334 80.0716 309.232 80.7858 308.012 80.9476ZM345.993 80.9825L345.994 80.9825V21.8898C345.994 21.8898 345.993 21.8898 345.993 21.8898V80.9825ZM279.512 25.4017L307.614 70.6516L335.407 25.3921C337.691 21.6736 341.67 19.3766 345.994 19.3766H348.508V83.4956H338.407V39.5345L313.149 80.3026C311.933 82.2641 309.811 83.4956 307.483 83.4956C305.152 83.4956 303.027 82.2607 301.813 80.2948L276.514 39.3416V83.4956H266.331V19.3766H268.844C273.192 19.3766 277.197 21.6739 279.512 25.4017ZM379.567 19.3766H369.384V83.4956H379.567V19.3766ZM485.01 21.8898C485.868 21.8898 486.711 22.0026 487.523 22.2186C487.567 22.2302 487.611 22.2421 487.654 22.2543C487.811 22.2985 487.967 22.3465 488.122 22.3984C490.324 23.1368 492.252 24.6482 493.543 26.7275L523.791 75.4334L523.79 75.4345L493.542 26.7276C491.668 23.7115 488.457 21.8903 485.01 21.8898ZM490.166 80.9825L490.167 80.9825V30.4937L490.166 30.4914V80.9825ZM524.178 80.9476C525.399 80.7862 526.501 80.0719 527.178 78.979L557.084 30.7087V30.7064L527.177 78.979C526.5 80.0715 525.398 80.7858 524.178 80.9476ZM562.159 80.9825L562.16 80.9825V21.8898C562.16 21.8898 562.16 21.8898 562.159 21.8898V80.9825ZM495.678 25.4017L523.78 70.6516L551.573 25.3921C553.857 21.6736 557.836 19.3766 562.16 19.3766H564.674V83.4956H554.573V39.5345L529.315 80.3026C528.099 82.2641 525.977 83.4956 523.649 83.4956C521.318 83.4956 519.193 82.2607 517.979 80.2948L492.68 39.3417V83.4956H482.497V19.3766H485.01C489.358 19.3766 493.363 21.6739 495.678 25.4017ZM377.053 80.9825V21.8898L371.897 21.8898H377.054V80.9825L377.053 80.9825Z" fill="#1B1B1B"/>
</svg>
