<svg width="214" height="30" viewBox="0 0 214 30" fill="none" xmlns="http://www.w3.org/2000/svg">
<path d="M98.2795 19V9.64H103.824V10.9985H99.638V13.6375H103.044V15.0025H99.638V19H98.2795ZM110.202 19.195C109.266 19.195 108.469 18.9913 107.81 18.584C107.151 18.1723 106.646 17.6003 106.295 16.868C105.949 16.1357 105.775 15.2863 105.775 14.32C105.775 13.3537 105.949 12.5043 106.295 11.772C106.646 11.0397 107.151 10.4698 107.81 10.0625C108.469 9.65083 109.266 9.445 110.202 9.445C111.134 9.445 111.929 9.65083 112.587 10.0625C113.25 10.4698 113.755 11.0397 114.102 11.772C114.449 12.5043 114.622 13.3537 114.622 14.32C114.622 15.2863 114.449 16.1357 114.102 16.868C113.755 17.6003 113.25 18.1723 112.587 18.584C111.929 18.9913 111.134 19.195 110.202 19.195ZM110.202 17.9015C110.865 17.9102 111.415 17.765 111.853 17.466C112.295 17.1627 112.626 16.7423 112.847 16.205C113.068 15.6633 113.179 15.035 113.179 14.32C113.179 13.605 113.068 12.981 112.847 12.448C112.626 11.9107 112.295 11.4925 111.853 11.1935C111.415 10.8945 110.865 10.7428 110.202 10.7385C109.539 10.7298 108.986 10.875 108.544 11.174C108.107 11.473 107.777 11.8933 107.556 12.435C107.335 12.9767 107.223 13.605 107.218 14.32C107.214 15.035 107.322 15.6612 107.543 16.1985C107.764 16.7315 108.096 17.1475 108.538 17.4465C108.984 17.7455 109.539 17.8972 110.202 17.9015ZM117.218 19V9.64H121.001C121.092 9.64 121.205 9.64433 121.339 9.653C121.474 9.65733 121.602 9.67033 121.723 9.692C122.243 9.77433 122.676 9.952 123.023 10.225C123.374 10.498 123.636 10.8425 123.809 11.2585C123.983 11.6745 124.069 12.1338 124.069 12.6365C124.069 13.3818 123.879 14.0253 123.497 14.567C123.116 15.1043 122.544 15.4402 121.781 15.5745L121.229 15.6395H118.577V19H117.218ZM122.691 19L120.845 15.191L122.217 14.84L124.245 19H122.691ZM118.577 14.3525H120.949C121.036 14.3525 121.131 14.3482 121.235 14.3395C121.344 14.3308 121.446 14.3157 121.541 14.294C121.818 14.229 122.041 14.1098 122.21 13.9365C122.379 13.7588 122.501 13.5552 122.574 13.3255C122.648 13.0958 122.685 12.8662 122.685 12.6365C122.685 12.4068 122.648 12.1793 122.574 11.954C122.501 11.7243 122.379 11.5228 122.21 11.3495C122.041 11.1718 121.818 11.0505 121.541 10.9855C121.446 10.9595 121.344 10.9422 121.235 10.9335C121.131 10.9248 121.036 10.9205 120.949 10.9205H118.577V14.3525ZM134.783 19.195C133.847 19.195 133.049 18.9913 132.391 18.584C131.732 18.1723 131.227 17.6003 130.876 16.868C130.529 16.1357 130.356 15.2863 130.356 14.32C130.356 13.3537 130.529 12.5043 130.876 11.772C131.227 11.0397 131.732 10.4698 132.391 10.0625C133.049 9.65083 133.847 9.445 134.783 9.445C135.862 9.445 136.754 9.718 137.461 10.264C138.171 10.81 138.665 11.5445 138.943 12.4675L137.565 12.838C137.383 12.1837 137.058 11.6702 136.59 11.2975C136.126 10.9248 135.524 10.7385 134.783 10.7385C134.12 10.7385 133.567 10.888 133.125 11.187C132.683 11.486 132.349 11.9042 132.124 12.4415C131.903 12.9788 131.793 13.605 131.793 14.32C131.788 15.035 131.897 15.6612 132.118 16.1985C132.343 16.7358 132.677 17.154 133.119 17.453C133.565 17.752 134.12 17.9015 134.783 17.9015C135.524 17.9015 136.126 17.7152 136.59 17.3425C137.058 16.9655 137.383 16.452 137.565 15.802L138.943 16.1725C138.665 17.0955 138.171 17.83 137.461 18.376C136.754 18.922 135.862 19.195 134.783 19.195ZM141.672 19V9.64H145.455C145.546 9.64 145.659 9.64433 145.793 9.653C145.927 9.65733 146.055 9.67033 146.177 9.692C146.697 9.77433 147.13 9.952 147.477 10.225C147.828 10.498 148.09 10.8425 148.263 11.2585C148.436 11.6745 148.523 12.1338 148.523 12.6365C148.523 13.3818 148.332 14.0253 147.951 14.567C147.57 15.1043 146.998 15.4402 146.235 15.5745L145.683 15.6395H143.031V19H141.672ZM147.145 19L145.299 15.191L146.671 14.84L148.699 19H147.145ZM143.031 14.3525H145.403C145.49 14.3525 145.585 14.3482 145.689 14.3395C145.797 14.3308 145.899 14.3157 145.995 14.294C146.272 14.229 146.495 14.1098 146.664 13.9365C146.833 13.7588 146.954 13.5552 147.028 13.3255C147.102 13.0958 147.139 12.8662 147.139 12.6365C147.139 12.4068 147.102 12.1793 147.028 11.954C146.954 11.7243 146.833 11.5228 146.664 11.3495C146.495 11.1718 146.272 11.0505 145.995 10.9855C145.899 10.9595 145.797 10.9422 145.689 10.9335C145.585 10.9248 145.49 10.9205 145.403 10.9205H143.031V14.3525ZM151.427 19V9.64H157.407V10.9205H152.786V13.5465H156.627V14.827H152.786V17.7195H157.407V19H151.427ZM159.618 19L162.66 9.64H164.617L167.659 19H166.248L163.447 10.459H163.798L161.029 19H159.618ZM161.198 16.8875V15.6135H166.086V16.8875H161.198ZM171.684 19V10.9205H168.57V9.64H176.156V10.9205H173.042V19H171.684ZM182.403 19.195C181.467 19.195 180.669 18.9913 180.011 18.584C179.352 18.1723 178.847 17.6003 178.496 16.868C178.149 16.1357 177.976 15.2863 177.976 14.32C177.976 13.3537 178.149 12.5043 178.496 11.772C178.847 11.0397 179.352 10.4698 180.011 10.0625C180.669 9.65083 181.467 9.445 182.403 9.445C183.334 9.445 184.129 9.65083 184.788 10.0625C185.451 10.4698 185.956 11.0397 186.303 11.772C186.649 12.5043 186.823 13.3537 186.823 14.32C186.823 15.2863 186.649 16.1357 186.303 16.868C185.956 17.6003 185.451 18.1723 184.788 18.584C184.129 18.9913 183.334 19.195 182.403 19.195ZM182.403 17.9015C183.066 17.9102 183.616 17.765 184.054 17.466C184.496 17.1627 184.827 16.7423 185.048 16.205C185.269 15.6633 185.38 15.035 185.38 14.32C185.38 13.605 185.269 12.981 185.048 12.448C184.827 11.9107 184.496 11.4925 184.054 11.1935C183.616 10.8945 183.066 10.7428 182.403 10.7385C181.74 10.7298 181.187 10.875 180.745 11.174C180.307 11.473 179.978 11.8933 179.757 12.435C179.536 12.9767 179.423 13.605 179.419 14.32C179.415 15.035 179.523 15.6612 179.744 16.1985C179.965 16.7315 180.297 17.1475 180.739 17.4465C181.185 17.7455 181.74 17.8972 182.403 17.9015ZM189.419 19V9.64H193.202C193.293 9.64 193.406 9.64433 193.54 9.653C193.675 9.65733 193.802 9.67033 193.924 9.692C194.444 9.77433 194.877 9.952 195.224 10.225C195.575 10.498 195.837 10.8425 196.01 11.2585C196.184 11.6745 196.27 12.1338 196.27 12.6365C196.27 13.3818 196.08 14.0253 195.698 14.567C195.317 15.1043 194.745 15.4402 193.982 15.5745L193.43 15.6395H190.778V19H189.419ZM194.892 19L193.046 15.191L194.418 14.84L196.446 19H194.892ZM190.778 14.3525H193.15C193.237 14.3525 193.332 14.3482 193.436 14.3395C193.545 14.3308 193.646 14.3157 193.742 14.294C194.019 14.229 194.242 14.1098 194.411 13.9365C194.58 13.7588 194.702 13.5552 194.775 13.3255C194.849 13.0958 194.886 12.8662 194.886 12.6365C194.886 12.4068 194.849 12.1793 194.775 11.954C194.702 11.7243 194.58 11.5228 194.411 11.3495C194.242 11.1718 194.019 11.0505 193.742 10.9855C193.646 10.9595 193.545 10.9422 193.436 10.9335C193.332 10.9248 193.237 10.9205 193.15 10.9205H190.778V14.3525ZM202.567 19.195C201.896 19.195 201.289 19.0802 200.747 18.8505C200.21 18.6165 199.766 18.285 199.415 17.856C199.068 17.4227 198.843 16.9092 198.739 16.3155L200.156 16.101C200.299 16.673 200.598 17.1193 201.053 17.44C201.508 17.7563 202.039 17.9145 202.645 17.9145C203.022 17.9145 203.369 17.856 203.685 17.739C204.002 17.6177 204.255 17.4465 204.446 17.2255C204.641 17.0002 204.738 16.7315 204.738 16.4195C204.738 16.2505 204.708 16.101 204.647 15.971C204.591 15.841 204.511 15.7283 204.407 15.633C204.307 15.5333 204.184 15.4488 204.036 15.3795C203.893 15.3058 203.735 15.243 203.562 15.191L201.163 14.4825C200.929 14.4132 200.691 14.3243 200.448 14.216C200.206 14.1033 199.982 13.9582 199.779 13.7805C199.579 13.5985 199.417 13.3753 199.291 13.111C199.166 12.8423 199.103 12.5173 199.103 12.136C199.103 11.5597 199.25 11.0722 199.545 10.6735C199.844 10.2705 200.247 9.96717 200.754 9.7635C201.261 9.5555 201.828 9.4515 202.457 9.4515C203.089 9.46017 203.655 9.57283 204.153 9.7895C204.656 10.0062 205.072 10.3182 205.401 10.7255C205.735 11.1285 205.965 11.6182 206.09 12.1945L204.634 12.4415C204.569 12.0905 204.431 11.7893 204.218 11.538C204.006 11.2823 203.746 11.0873 203.438 10.953C203.131 10.8143 202.797 10.7428 202.437 10.7385C202.091 10.7298 201.772 10.7818 201.482 10.8945C201.196 11.0072 200.966 11.1653 200.793 11.369C200.624 11.5727 200.539 11.8067 200.539 12.071C200.539 12.331 200.615 12.5412 200.767 12.7015C200.918 12.8618 201.105 12.9897 201.326 13.085C201.551 13.176 201.774 13.2518 201.995 13.3125L203.724 13.8C203.941 13.8607 204.186 13.943 204.459 14.047C204.736 14.1467 205.003 14.2875 205.258 14.4695C205.518 14.6515 205.733 14.8942 205.902 15.1975C206.071 15.4965 206.155 15.8735 206.155 16.3285C206.155 16.8008 206.06 17.2168 205.869 17.5765C205.679 17.9318 205.416 18.2308 205.083 18.4735C204.753 18.7118 204.372 18.8917 203.939 19.013C203.505 19.1343 203.048 19.195 202.567 19.195Z" fill="white"/>
<path fill-rule="evenodd" clip-rule="evenodd" d="M0 7.98237C0 6.58935 1.1294 5.46008 2.52258 5.46008L12.9493 5.46008C14.3425 5.46008 15.4719 6.58935 15.4719 7.98237L15.4719 18.4078C15.4719 19.8008 14.3425 20.9301 12.9493 20.9301H2.52258C1.1294 20.9301 0 19.8008 0 18.4078L0 7.98237ZM2.80287 8.26262L2.80287 18.1275H12.669L12.669 8.26262L2.80287 8.26262Z" fill="white"/>
<path d="M21.6028 16.3266V13.0335H23.5886V11.1287H21.6028V8.73956H19.5466C19.5466 11.1287 19.5466 11.1287 18.0994 11.1287V13.0335H19.2618V16.4557C19.2618 18.6995 20.526 19.2 22.2374 19.2C22.7217 19.2 23.5886 19.2 23.5886 19.2V17.392C23.5886 17.392 22.9661 17.392 22.6845 17.392C21.9418 17.392 21.6028 17.053 21.6028 16.3266Z" fill="white"/>
<path d="M27.6397 19.2L28.8828 12.8721L30.1098 19.2H33.0481L34.8563 11.1287H32.7252L31.4982 17.4243L30.2713 11.1287H27.4783L26.2513 17.4243L25.0243 11.1287H22.8932L24.7014 19.2H27.6397Z" fill="white"/>
<path d="M36.2068 9.72426C37.0301 9.72426 37.6114 9.12698 37.6114 8.36828C37.6114 7.60958 37.0301 7.02844 36.2068 7.02844C35.4157 7.02844 34.8183 7.60958 34.8183 8.36828C34.8183 9.12698 35.4157 9.72426 36.2068 9.72426ZM37.3853 19.2V11.1287H35.0444V19.2H37.3853Z" fill="white"/>
<path d="M42.9011 10.9672C41.9486 10.9672 41.1252 11.3869 40.5278 12.0972V7.09301H38.1869V19.2H40.4794V18.1668C41.0768 18.9255 41.9163 19.3614 42.9011 19.3614C45.0967 19.3614 46.6627 17.6826 46.6627 15.1643C46.6627 12.6461 45.0967 10.9672 42.9011 10.9672ZM42.449 13.0496C43.5469 13.0496 44.3541 13.8891 44.3541 15.1643C44.3541 16.4396 43.5469 17.279 42.449 17.279C41.3512 17.279 40.5278 16.4396 40.5278 15.1643C40.5278 13.8891 41.3512 13.0496 42.449 13.0496Z" fill="white"/>
<path d="M51.7036 10.9672C50.7511 10.9672 49.9277 11.3869 49.3304 12.0972V7.09301L46.9894 7.09301V19.2H49.2819V18.1668C49.8793 18.9255 50.7188 19.3614 51.7036 19.3614C53.8993 19.3614 55.4653 17.6826 55.4653 15.1643C55.4653 12.6461 53.8993 10.9672 51.7036 10.9672ZM51.2516 13.0496C52.3494 13.0496 53.1566 13.8891 53.1566 15.1643C53.1566 16.4396 52.3494 17.279 51.2516 17.279C50.1537 17.279 49.3304 16.4396 49.3304 15.1643C49.3304 13.8891 50.1537 13.0496 51.2516 13.0496Z" fill="white"/>
<path d="M59.9895 19.3614C62.3951 19.3614 64.1871 17.6503 64.1871 15.1643C64.1871 12.6784 62.3951 10.9672 59.9895 10.9672C57.584 10.9672 55.792 12.6784 55.792 15.1643C55.792 17.6503 57.584 19.3614 59.9895 19.3614ZM59.9895 17.279C58.8917 17.279 58.0683 16.4234 58.0683 15.1643C58.0683 13.9052 58.8917 13.0496 59.9895 13.0496C61.0874 13.0496 61.9107 13.9052 61.9107 15.1643C61.9107 16.4234 61.0874 17.279 59.9895 17.279Z" fill="white"/>
<path d="M69.9197 14.7446V19.2H72.2607V14.2119C72.2607 12.0488 71.0014 10.9672 69.3223 10.9672C68.3052 10.9672 67.4496 11.4515 66.9652 12.3071V11.1287H64.6727V19.2H67.0137V14.7446C67.0137 13.5339 67.5465 12.9044 68.4667 12.9044C69.3869 12.9044 69.9197 13.5339 69.9197 14.7446Z" fill="white"/>
<path d="M74.0682 9.72426C74.8916 9.72426 75.4728 9.12698 75.4728 8.36828C75.4728 7.60958 74.8916 7.02844 74.0682 7.02844C73.2771 7.02844 72.6798 7.60958 72.6798 8.36828C72.6798 9.12698 73.2771 9.72426 74.0682 9.72426ZM75.2468 19.2V11.1287H72.9058V19.2H75.2468Z" fill="white"/>
<path d="M82.7483 19.2V17.2951L78.2601 17.2951L82.4254 13.5178V11.1287L76.0483 11.1287V13.0335L80.1329 13.0335L75.9676 16.8109V19.2L82.7483 19.2Z" fill="white"/>
<path d="M90.9615 15.81C90.9776 15.6002 90.9938 15.3903 90.9938 15.1643C90.9938 12.6945 89.2824 10.9672 86.9092 10.9672C84.5359 10.9672 82.8246 12.6945 82.8246 15.1643C82.8246 17.6341 84.5359 19.3614 86.9092 19.3614C88.895 19.3614 90.2995 18.4251 90.8 16.6494L88.4268 16.6494C88.2007 17.1821 87.7164 17.4566 86.9738 17.4566C85.9082 17.4566 85.2463 16.8754 85.0687 15.81L90.9615 15.81ZM86.9092 12.8882C87.894 12.8882 88.5398 13.4209 88.7335 14.4379H85.0849C85.2786 13.4209 85.9082 12.8882 86.9092 12.8882Z" fill="white"/>
</svg>
