<svg width="176" height="31" viewBox="0 0 176 31" fill="none" xmlns="http://www.w3.org/2000/svg">
<path fill-rule="evenodd" clip-rule="evenodd" d="M0 5.38907C0 2.70347 2.17737 0.526367 4.86328 0.526367L24.9648 0.526367C27.6508 0.526367 29.8281 2.70347 29.8281 5.38907L29.8281 25.4882C29.8281 28.1738 27.6508 30.3509 24.9648 30.3509L4.86328 30.3509C2.17736 30.3509 0 28.1738 0 25.4882L0 5.38907ZM5.40365 5.92937L5.40365 24.9479L24.4245 24.9479L24.4245 5.92937L5.40365 5.92937Z" fill="#1B1B1B"/>
<path d="M41.6479 21.4759V15.1272H45.4763V11.4549L41.6479 11.4549V6.8489L37.6838 6.8489C37.6838 11.4549 37.6838 11.4549 34.8938 11.4549V15.1272H37.1348V21.7249C37.1348 26.0507 39.5721 27.0155 42.8713 27.0155C43.8051 27.0155 45.4763 27.0155 45.4763 27.0155V23.5299C45.4763 23.5299 44.2763 23.5299 43.7333 23.5299C42.3016 23.5299 41.6479 22.8764 41.6479 21.4759Z" fill="#1B1B1B"/>
<path d="M53.2865 27.0155L55.6831 14.816L58.0486 27.0155H63.7133L67.1993 11.4549L63.0908 11.4549L60.7253 23.5922L58.3598 11.4549H52.9752L50.6097 23.5922L48.2442 11.4549H44.1357L47.6217 27.0155H53.2865Z" fill="#1B1B1B"/>
<path d="M69.8029 8.7473C71.3903 8.7473 72.5108 7.59582 72.5108 6.13312C72.5108 4.67041 71.3903 3.55005 69.8029 3.55005C68.2778 3.55005 67.1261 4.67041 67.1261 6.13312C67.1261 7.59582 68.2778 8.7473 69.8029 8.7473ZM72.075 27.0155V11.4549L67.5619 11.4549V27.0155L72.075 27.0155Z" fill="#1B1B1B"/>
<path d="M82.7088 11.1436C80.8725 11.1436 79.2851 11.9528 78.1335 13.3221V3.67453L73.6203 3.67453V27.0155H78.0401V25.0237C79.1917 26.4864 80.8102 27.3267 82.7088 27.3267C86.9418 27.3267 89.9609 24.0901 89.9609 19.2352C89.9609 14.3803 86.9418 11.1436 82.7088 11.1436ZM81.8373 15.1583C83.9538 15.1583 85.5101 16.7766 85.5101 19.2352C85.5101 21.6938 83.9538 23.3121 81.8373 23.3121C79.7208 23.3121 78.1335 21.6938 78.1335 19.2352C78.1335 16.7766 79.7208 15.1583 81.8373 15.1583Z" fill="#1B1B1B"/>
<path d="M99.6792 11.1436C97.8428 11.1436 96.2554 11.9528 95.1038 13.3221V3.67453L90.5907 3.67453V27.0155H95.0104V25.0237C96.1621 26.4864 97.7806 27.3267 99.6792 27.3267C103.912 27.3267 106.931 24.0901 106.931 19.2352C106.931 14.3803 103.912 11.1436 99.6792 11.1436ZM98.8077 15.1583C100.924 15.1583 102.48 16.7766 102.48 19.2352C102.48 21.6938 100.924 23.3121 98.8077 23.3121C96.6912 23.3121 95.1038 21.6938 95.1038 19.2352C95.1038 16.7766 96.6912 15.1583 98.8077 15.1583Z" fill="#1B1B1B"/>
<path d="M115.654 27.3267C120.291 27.3267 123.746 24.0279 123.746 19.2352C123.746 14.4425 120.291 11.1436 115.654 11.1436C111.016 11.1436 107.561 14.4425 107.561 19.2352C107.561 24.0279 111.016 27.3267 115.654 27.3267ZM115.654 23.3121C113.537 23.3121 111.95 21.6626 111.95 19.2352C111.95 16.8077 113.537 15.1583 115.654 15.1583C117.77 15.1583 119.357 16.8077 119.357 19.2352C119.357 21.6626 117.77 23.3121 115.654 23.3121Z" fill="#1B1B1B"/>
<path d="M134.798 18.426V27.0155H139.311V17.399C139.311 13.2288 136.883 11.1436 133.646 11.1436C131.685 11.1436 130.036 12.0773 129.102 13.7267V11.4549H124.682V27.0155H129.195V18.426C129.195 16.0919 130.223 14.8782 131.997 14.8782C133.771 14.8782 134.798 16.0919 134.798 18.426Z" fill="#1B1B1B"/>
<path d="M142.796 8.7473C144.383 8.7473 145.504 7.59582 145.504 6.13312C145.504 4.67041 144.383 3.55005 142.796 3.55005C141.271 3.55005 140.119 4.67041 140.119 6.13312C140.119 7.59582 141.271 8.7473 142.796 8.7473ZM145.068 27.0155V11.4549H140.555V27.0155H145.068Z" fill="#1B1B1B"/>
<path d="M159.53 27.0155V23.3432L150.877 23.3432L158.908 16.0608V11.4549L146.613 11.4549V15.1272L154.488 15.1272L146.458 22.4095V27.0155L159.53 27.0155Z" fill="#1B1B1B"/>
<path d="M175.364 20.48C175.395 20.0754 175.427 19.6709 175.427 19.2352C175.427 14.4736 172.127 11.1436 167.552 11.1436C162.977 11.1436 159.677 14.4736 159.677 19.2352C159.677 23.9967 162.977 27.3267 167.552 27.3267C171.38 27.3267 174.088 25.5217 175.053 22.0983H170.478C170.042 23.1253 169.108 23.6544 167.676 23.6544C165.622 23.6544 164.346 22.534 164.004 20.48H175.364ZM167.552 14.8471C169.451 14.8471 170.696 15.8741 171.069 17.8347H164.035C164.408 15.8741 165.622 14.8471 167.552 14.8471Z" fill="#1B1B1B"/>
</svg>
