<svg width="217" height="46" viewBox="0 0 217 46" fill="none" xmlns="http://www.w3.org/2000/svg">
<path d="M142.402 22.7787C144.115 20.2091 145.603 18.4621 146.865 17.538C148.128 16.5912 149.232 16.1179 150.179 16.1179C151.126 16.1179 151.858 16.4109 152.377 16.997C152.895 17.5605 153.154 18.2818 153.154 19.1609C153.154 21.5953 152.275 23.8494 150.517 25.9232C148.781 27.9744 146.82 29 144.634 29C143.665 29 142.898 28.8309 142.335 28.4928L143.146 27.0389C144.318 27.1967 145.051 27.2756 145.344 27.2756C146.561 27.2756 147.699 26.5656 148.759 25.1455C149.818 23.7254 150.348 22.2715 150.348 20.7838C150.348 20.2203 150.179 19.7582 149.841 19.3976C149.525 19.0144 149.108 18.8228 148.59 18.8228C147.35 18.8228 145.941 19.916 144.363 22.1025C142.808 24.289 141.343 26.9939 139.968 30.2172C138.615 33.4631 137.432 36.9118 136.418 40.5635L134.389 39.8534C134.434 39.7182 134.862 38.5461 135.674 36.3371C136.463 34.1506 137.24 31.9754 138.007 29.8115C140.126 23.8607 141.185 20.6035 141.185 20.04C141.185 18.5974 140.892 17.29 140.306 16.1179L141.997 15.2726C142.695 16.2419 143.045 17.2675 143.045 18.3494C143.045 19.4089 142.831 20.8853 142.402 22.7787ZM158.027 25.7541L158.737 26.3289C157.971 27.5236 157.306 28.3914 156.742 28.9324C156.201 29.4508 155.593 29.71 154.916 29.71C154.24 29.71 153.688 29.4395 153.26 28.8986C152.831 28.3576 152.617 27.6814 152.617 26.8699C152.617 25.292 153.654 21.8996 155.728 16.6927C157.802 11.4632 159.932 6.86485 162.118 2.89766L163.606 3.70913C161.397 7.9919 159.402 12.2521 157.621 16.4898C155.841 20.705 154.95 23.7367 154.95 25.5851C154.95 26.6445 155.345 27.1742 156.134 27.1742C156.765 27.1742 157.396 26.7008 158.027 25.7541ZM174.138 25.2808L174.848 25.8555C174.465 26.8023 173.856 27.6025 173.022 28.2562C172.21 28.9098 171.467 29.2367 170.79 29.2367C170.137 29.2367 169.618 29.0113 169.235 28.5605C168.852 28.0871 168.66 27.4785 168.66 26.7346C168.66 25.9908 168.784 25.0328 169.032 23.8607C167.973 25.5287 166.834 26.8361 165.617 27.7828C164.4 28.7295 163.374 29.2029 162.54 29.2029C161.278 29.2029 160.647 28.3012 160.647 26.498C160.647 24.9652 161.165 23.0041 162.202 20.6148C163.239 18.2255 163.994 16.8392 164.468 16.456L166.091 17.166C165.166 18.6537 164.468 20.1189 163.994 21.5615C163.521 23.0041 163.284 23.9734 163.284 24.4693C163.284 24.9426 163.431 25.3258 163.724 25.6189C164.039 25.9119 164.4 26.0584 164.806 26.0584C165.707 26.0584 166.823 25.2357 168.153 23.5902C169.506 21.9222 170.881 19.4427 172.278 16.1517L174.002 16.9294C173.957 17.1097 173.439 18.4171 172.447 20.8515C171.478 23.2859 170.993 24.751 170.993 25.2469C170.993 25.7203 171.095 26.081 171.298 26.3289C171.523 26.5769 171.737 26.7008 171.94 26.7008C172.165 26.7008 172.334 26.6896 172.447 26.667C172.56 26.6445 172.673 26.5994 172.785 26.5318C172.898 26.4642 172.988 26.4078 173.056 26.3627C173.146 26.3176 173.247 26.2387 173.36 26.126L173.631 25.8894C173.676 25.8217 173.754 25.7203 173.867 25.5851C174.002 25.4273 174.093 25.3258 174.138 25.2808ZM185.175 15.7798L184.87 17.0984C184.487 17.0533 183.991 17.0308 183.383 17.0308C181.129 17.0308 180.002 17.7746 180.002 19.2623C180.002 19.5779 180.452 20.5021 181.354 22.0349C182.278 23.5676 182.74 24.5933 182.74 25.1117C182.74 26.3289 182.323 27.2869 181.489 27.9857C180.678 28.6619 179.585 29 178.21 29C176.316 29 174.795 27.9518 173.645 25.8555L174.93 24.9426C175.245 25.1906 175.584 25.4949 175.944 25.8555C176.305 26.1937 176.575 26.4303 176.756 26.5656C177.184 26.9488 177.657 27.1404 178.176 27.1404C178.694 27.1404 179.145 26.9601 179.528 26.5994C179.911 26.2162 180.103 25.7541 180.103 25.2131C180.103 24.6496 179.607 23.6127 178.615 22.1025C177.646 20.5923 177.161 19.5328 177.161 18.9242C177.161 17.8197 177.624 16.9744 178.548 16.3884C179.494 15.8023 180.723 15.5093 182.233 15.5093C183.766 15.5093 184.746 15.5994 185.175 15.7798Z" fill="#1B1B1B"/>
<path d="M137.026 34.0717H184.972V36.6075H137.026V34.0717Z" fill="#1B1B1B"/>
<path fill-rule="evenodd" clip-rule="evenodd" d="M0 15.7289C0 13.682 1.65953 12.0227 3.70667 12.0227L19.0275 12.0227C21.0747 12.0227 22.7342 13.682 22.7342 15.7289L22.7342 31.048C22.7342 33.0949 21.0747 34.7542 19.0275 34.7542H3.70666C1.65953 34.7542 0 33.0949 0 31.048L0 15.7289ZM4.11852 16.1407L4.11852 30.6362L18.6157 30.6362L18.6157 16.1407L4.11852 16.1407Z" fill="#1B1B1B"/>
<path d="M31.7435 27.99V23.1512H34.6614V20.3522H31.7435V16.8417H28.7222C28.7222 20.3522 28.7222 20.3522 26.5957 20.3522V23.1512H28.3037L28.3037 28.1798C28.3037 31.4768 30.1613 32.2121 32.676 32.2121C33.3876 32.2121 34.6614 32.2121 34.6614 32.2121V29.5555C34.6614 29.5555 33.7468 29.5555 33.3329 29.5555C32.2417 29.5555 31.7435 29.0574 31.7435 27.99Z" fill="#1B1B1B"/>
<path d="M40.6141 32.2121L42.4407 22.914L44.2437 32.2121H48.5612L51.2181 20.3522H48.0867L46.2838 29.603L44.4809 20.3522L40.3769 20.3522L38.574 29.603L36.771 20.3522H33.6396L36.2966 32.2121H40.6141Z" fill="#1B1B1B"/>
<path d="M53.2025 18.2886C54.4123 18.2886 55.2664 17.411 55.2664 16.2961C55.2664 15.1813 54.4123 14.3274 53.2025 14.3274C52.0401 14.3274 51.1623 15.1813 51.1623 16.2961C51.1623 17.411 52.0401 18.2886 53.2025 18.2886ZM54.9342 32.2121V20.3522H51.4945V32.2121H54.9342Z" fill="#1B1B1B"/>
<path d="M63.0391 20.115C61.6394 20.115 60.4296 20.7317 59.5518 21.7754V14.4223H56.112V32.2121H59.4807V30.6941C60.3584 31.8089 61.592 32.4493 63.0391 32.4493C66.2653 32.4493 68.5664 29.9825 68.5664 26.2822C68.5664 22.5819 66.2653 20.115 63.0391 20.115ZM62.3748 23.1749C63.988 23.1749 65.1741 24.4083 65.1741 26.2822C65.1741 28.156 63.988 29.3895 62.3748 29.3895C60.7617 29.3895 59.5518 28.156 59.5518 26.2822C59.5518 24.4083 60.7617 23.1749 62.3748 23.1749Z" fill="#1B1B1B"/>
<path d="M75.9734 20.115C74.5738 20.115 73.3639 20.7317 72.4862 21.7754V14.4223H69.0464V32.2121H72.415V30.6941C73.2928 31.8089 74.5263 32.4493 75.9734 32.4493C79.1997 32.4493 81.5008 29.9825 81.5008 26.2822C81.5008 22.5819 79.1997 20.115 75.9734 20.115ZM75.3092 23.1749C76.9223 23.1749 78.1085 24.4083 78.1085 26.2822C78.1085 28.156 76.9223 29.3895 75.3092 29.3895C73.696 29.3895 72.4862 28.156 72.4862 26.2822C72.4862 24.4083 73.696 23.1749 75.3092 23.1749Z" fill="#1B1B1B"/>
<path d="M88.1487 32.4493C91.6834 32.4493 94.3166 29.935 94.3166 26.2822C94.3166 22.6293 91.6834 20.115 88.1487 20.115C84.614 20.115 81.9808 22.6293 81.9808 26.2822C81.9808 29.935 84.614 32.4493 88.1487 32.4493ZM88.1487 29.3895C86.5356 29.3895 85.3257 28.1323 85.3257 26.2822C85.3257 24.432 86.5356 23.1749 88.1487 23.1749C89.7618 23.1749 90.9717 24.432 90.9717 26.2822C90.9717 28.1323 89.7618 29.3895 88.1487 29.3895Z" fill="#1B1B1B"/>
<path d="M102.74 25.6655V32.2121H106.18V24.8827C106.18 21.7043 104.329 20.115 101.862 20.115C100.368 20.115 99.1104 20.8266 98.3987 22.0838V20.3522H95.0301V32.2121H98.4699V25.6655C98.4699 23.8865 99.2528 22.9614 100.605 22.9614C101.957 22.9614 102.74 23.8865 102.74 25.6655Z" fill="#1B1B1B"/>
<path d="M108.836 18.2886C110.046 18.2886 110.9 17.411 110.9 16.2961C110.9 15.1813 110.046 14.3274 108.836 14.3274C107.673 14.3274 106.796 15.1813 106.796 16.2961C106.796 17.411 107.673 18.2886 108.836 18.2886ZM110.568 32.2121V20.3522H107.128V32.2121H110.568Z" fill="#1B1B1B"/>
<path d="M121.59 32.2121V29.4132H114.995L121.116 23.8628V20.3522H111.745V23.1512H117.747L111.627 28.7016V32.2121H121.59Z" fill="#1B1B1B"/>
<path d="M133.659 27.231C133.682 26.9226 133.706 26.6143 133.706 26.2822C133.706 22.653 131.191 20.115 127.704 20.115C124.217 20.115 121.702 22.653 121.702 26.2822C121.702 29.9113 124.217 32.4493 127.704 32.4493C130.622 32.4493 132.686 31.0736 133.421 28.4644L129.934 28.4644C129.602 29.2472 128.89 29.6504 127.799 29.6504C126.233 29.6504 125.261 28.7965 125 27.231L133.659 27.231ZM127.704 22.9377C129.151 22.9377 130.1 23.7204 130.385 25.2148H125.024C125.308 23.7204 126.233 22.9377 127.704 22.9377Z" fill="#1B1B1B"/>
</svg>
