<svg width="176" height="31" viewBox="0 0 176 31" fill="none" xmlns="http://www.w3.org/2000/svg">
<path fill-rule="evenodd" clip-rule="evenodd" d="M0.5 5.38907C0.5 2.70347 2.67737 0.526367 5.36328 0.526367L25.4648 0.526367C28.1508 0.526367 30.3281 2.70347 30.3281 5.38907L30.3281 25.4882C30.3281 28.1738 28.1508 30.3509 25.4648 30.3509L5.36328 30.3509C2.67736 30.3509 0.5 28.1738 0.5 25.4882L0.5 5.38907ZM5.90365 5.92937L5.90365 24.9479L24.9245 24.9479L24.9245 5.92937L5.90365 5.92937Z" fill="white"/>
<path d="M42.1477 21.4759V15.1272H45.9761V11.4549L42.1477 11.4549V6.8489L38.1836 6.8489C38.1836 11.4549 38.1836 11.4549 35.3936 11.4549V15.1272H37.6346V21.7249C37.6346 26.0507 40.0718 27.0155 43.3711 27.0155C44.3048 27.0155 45.9761 27.0155 45.9761 27.0155V23.5299C45.9761 23.5299 44.776 23.5299 44.2331 23.5299C42.8013 23.5299 42.1477 22.8764 42.1477 21.4759Z" fill="white"/>
<path d="M53.7862 27.0155L56.1828 14.816L58.5483 27.0155H64.2131L67.6991 11.4549L63.5906 11.4549L61.2251 23.5922L58.8596 11.4549H53.475L51.1095 23.5922L48.7439 11.4549H44.6354L48.1214 27.0155H53.7862Z" fill="white"/>
<path d="M70.3027 8.7473C71.89 8.7473 73.0105 7.59582 73.0105 6.13312C73.0105 4.67041 71.89 3.55005 70.3027 3.55005C68.7775 3.55005 67.6259 4.67041 67.6259 6.13312C67.6259 7.59582 68.7775 8.7473 70.3027 8.7473ZM72.5748 27.0155V11.4549L68.0617 11.4549V27.0155L72.5748 27.0155Z" fill="white"/>
<path d="M83.2086 11.1436C81.3722 11.1436 79.7848 11.9528 78.6332 13.3221V3.67453L74.1201 3.67453V27.0155H78.5398V25.0237C79.6915 26.4864 81.31 27.3267 83.2086 27.3267C87.4416 27.3267 90.4607 24.0901 90.4607 19.2352C90.4607 14.3803 87.4416 11.1436 83.2086 11.1436ZM82.3371 15.1583C84.4536 15.1583 86.0098 16.7766 86.0098 19.2352C86.0098 21.6938 84.4536 23.3121 82.3371 23.3121C80.2206 23.3121 78.6332 21.6938 78.6332 19.2352C78.6332 16.7766 80.2206 15.1583 82.3371 15.1583Z" fill="white"/>
<path d="M100.179 11.1436C98.3426 11.1436 96.7552 11.9528 95.6036 13.3221V3.67453L91.0905 3.67453V27.0155H95.5102V25.0237C96.6618 26.4864 98.2803 27.3267 100.179 27.3267C104.412 27.3267 107.431 24.0901 107.431 19.2352C107.431 14.3803 104.412 11.1436 100.179 11.1436ZM99.3074 15.1583C101.424 15.1583 102.98 16.7766 102.98 19.2352C102.98 21.6938 101.424 23.3121 99.3074 23.3121C97.1909 23.3121 95.6036 21.6938 95.6036 19.2352C95.6036 16.7766 97.1909 15.1583 99.3074 15.1583Z" fill="white"/>
<path d="M116.153 27.3267C120.791 27.3267 124.246 24.0279 124.246 19.2352C124.246 14.4425 120.791 11.1436 116.153 11.1436C111.516 11.1436 108.061 14.4425 108.061 19.2352C108.061 24.0279 111.516 27.3267 116.153 27.3267ZM116.153 23.3121C114.037 23.3121 112.449 21.6626 112.449 19.2352C112.449 16.8077 114.037 15.1583 116.153 15.1583C118.27 15.1583 119.857 16.8077 119.857 19.2352C119.857 21.6626 118.27 23.3121 116.153 23.3121Z" fill="white"/>
<path d="M135.298 18.426V27.0155H139.811V17.399C139.811 13.2288 137.383 11.1436 134.146 11.1436C132.185 11.1436 130.536 12.0773 129.602 13.7267V11.4549H125.182V27.0155H129.695V18.426C129.695 16.0919 130.722 14.8782 132.496 14.8782C134.271 14.8782 135.298 16.0919 135.298 18.426Z" fill="white"/>
<path d="M143.296 8.7473C144.883 8.7473 146.003 7.59582 146.003 6.13312C146.003 4.67041 144.883 3.55005 143.296 3.55005C141.77 3.55005 140.619 4.67041 140.619 6.13312C140.619 7.59582 141.77 8.7473 143.296 8.7473ZM145.568 27.0155V11.4549H141.055V27.0155H145.568Z" fill="white"/>
<path d="M160.03 27.0155V23.3432L151.377 23.3432L159.407 16.0608V11.4549L147.113 11.4549V15.1272L154.988 15.1272L146.957 22.4095V27.0155L160.03 27.0155Z" fill="white"/>
<path d="M175.864 20.48C175.895 20.0754 175.926 19.6709 175.926 19.2352C175.926 14.4736 172.627 11.1436 168.052 11.1436C163.476 11.1436 160.177 14.4736 160.177 19.2352C160.177 23.9967 163.476 27.3267 168.052 27.3267C171.88 27.3267 174.588 25.5217 175.553 22.0983H170.977C170.542 23.1253 169.608 23.6544 168.176 23.6544C166.122 23.6544 164.846 22.534 164.503 20.48H175.864ZM168.052 14.8471C169.95 14.8471 171.195 15.8741 171.569 17.8347H164.535C164.908 15.8741 166.122 14.8471 168.052 14.8471Z" fill="white"/>
</svg>
