<svg width="176" height="50" viewBox="0 0 176 50" fill="none" xmlns="http://www.w3.org/2000/svg">
<path fill-rule="evenodd" clip-rule="evenodd" d="M0.5 15.3891C0.5 12.7035 2.67737 10.5264 5.36328 10.5264L25.4648 10.5264C28.1508 10.5264 30.3281 12.7035 30.3281 15.3891L30.3281 35.4882C30.3281 38.1738 28.1508 40.3509 25.4648 40.3509H5.36328C2.67736 40.3509 0.5 38.1738 0.5 35.4882L0.5 15.3891ZM5.90365 15.9294L5.90365 34.9479H24.9245L24.9245 15.9294L5.90365 15.9294Z" fill="#1B1B1B"/>
<path d="M42.1479 31.4759V25.1272H45.9763V21.4549H42.1479V16.8489H38.1838C38.1838 21.4549 38.1838 21.4549 35.3938 21.4549V25.1272H37.6348V31.7249C37.6348 36.0507 40.0721 37.0155 43.3713 37.0155C44.3051 37.0155 45.9763 37.0155 45.9763 37.0155V33.5299C45.9763 33.5299 44.7763 33.5299 44.2333 33.5299C42.8016 33.5299 42.1479 32.8764 42.1479 31.4759Z" fill="#1B1B1B"/>
<path d="M53.7865 37.0155L56.1831 24.816L58.5486 37.0155H64.2133L67.6993 21.4549L63.5908 21.4549L61.2253 33.5922L58.8598 21.4549H53.4752L51.1097 33.5922L48.7442 21.4549H44.6357L48.1217 37.0155H53.7865Z" fill="#1B1B1B"/>
<path d="M70.3029 18.7473C71.8903 18.7473 73.0108 17.5958 73.0108 16.1331C73.0108 14.6704 71.8903 13.55 70.3029 13.55C68.7778 13.55 67.6261 14.6704 67.6261 16.1331C67.6261 17.5958 68.7778 18.7473 70.3029 18.7473ZM72.575 37.0155V21.4549H68.0619V37.0155L72.575 37.0155Z" fill="#1B1B1B"/>
<path d="M83.2088 21.1436C81.3725 21.1436 79.7851 21.9528 78.6335 23.3221V13.6745H74.1203V37.0155H78.5401V35.0237C79.6917 36.4864 81.3102 37.3267 83.2088 37.3267C87.4418 37.3267 90.4609 34.0901 90.4609 29.2352C90.4609 24.3803 87.4418 21.1436 83.2088 21.1436ZM82.3373 25.1583C84.4538 25.1583 86.0101 26.7766 86.0101 29.2352C86.0101 31.6938 84.4538 33.3121 82.3373 33.3121C80.2208 33.3121 78.6335 31.6938 78.6335 29.2352C78.6335 26.7766 80.2208 25.1583 82.3373 25.1583Z" fill="#1B1B1B"/>
<path d="M100.179 21.1436C98.3428 21.1436 96.7554 21.9528 95.6038 23.3221V13.6745H91.0907V37.0155H95.5104V35.0237C96.6621 36.4864 98.2806 37.3267 100.179 37.3267C104.412 37.3267 107.431 34.0901 107.431 29.2352C107.431 24.3803 104.412 21.1436 100.179 21.1436ZM99.3077 25.1583C101.424 25.1583 102.98 26.7766 102.98 29.2352C102.98 31.6938 101.424 33.3121 99.3077 33.3121C97.1912 33.3121 95.6038 31.6938 95.6038 29.2352C95.6038 26.7766 97.1912 25.1583 99.3077 25.1583Z" fill="#1B1B1B"/>
<path d="M116.154 37.3267C120.791 37.3267 124.246 34.0279 124.246 29.2352C124.246 24.4425 120.791 21.1436 116.154 21.1436C111.516 21.1436 108.061 24.4425 108.061 29.2352C108.061 34.0279 111.516 37.3267 116.154 37.3267ZM116.154 33.3121C114.037 33.3121 112.45 31.6626 112.45 29.2352C112.45 26.8077 114.037 25.1583 116.154 25.1583C118.27 25.1583 119.857 26.8077 119.857 29.2352C119.857 31.6626 118.27 33.3121 116.154 33.3121Z" fill="#1B1B1B"/>
<path d="M135.298 28.426V37.0155H139.811V27.399C139.811 23.2288 137.383 21.1436 134.146 21.1436C132.185 21.1436 130.536 22.0773 129.602 23.7267V21.4549H125.182V37.0155H129.695V28.426C129.695 26.0919 130.723 24.8782 132.497 24.8782C134.271 24.8782 135.298 26.0919 135.298 28.426Z" fill="#1B1B1B"/>
<path d="M143.296 18.7473C144.883 18.7473 146.004 17.5958 146.004 16.1331C146.004 14.6704 144.883 13.55 143.296 13.55C141.771 13.55 140.619 14.6704 140.619 16.1331C140.619 17.5958 141.771 18.7473 143.296 18.7473ZM145.568 37.0155V21.4549H141.055V37.0155H145.568Z" fill="#1B1B1B"/>
<path d="M160.03 37.0155V33.3432L151.377 33.3432L159.408 26.0608V21.4549L147.113 21.4549V25.1272L154.988 25.1272L146.958 32.4095V37.0155L160.03 37.0155Z" fill="#1B1B1B"/>
<path d="M175.864 30.48C175.895 30.0754 175.927 29.6709 175.927 29.2352C175.927 24.4736 172.627 21.1436 168.052 21.1436C163.477 21.1436 160.177 24.4736 160.177 29.2352C160.177 33.9967 163.477 37.3267 168.052 37.3267C171.88 37.3267 174.588 35.5217 175.553 32.0983H170.978C170.542 33.1253 169.608 33.6544 168.176 33.6544C166.122 33.6544 164.846 32.534 164.504 30.48H175.864ZM168.052 24.8471C169.951 24.8471 171.196 25.8741 171.569 27.8347H164.535C164.908 25.8741 166.122 24.8471 168.052 24.8471Z" fill="#1B1B1B"/>
</svg>
