<svg width="637" height="540" viewBox="0 0 637 540" fill="none" xmlns="http://www.w3.org/2000/svg">
<mask id="mask0_14_123" style="mask-type:alpha" maskUnits="userSpaceOnUse" x="0" y="0" width="637" height="540">
<rect width="637" height="540" fill="#EFEFEF"/>
</mask>
<g mask="url(#mask0_14_123)">
<path fill-rule="evenodd" clip-rule="evenodd" d="M213.569 -53.6718C214.816 -62.1137 222.671 -67.9463 231.113 -66.6992L294.293 -57.3659C302.735 -56.1188 308.567 -48.2643 307.32 -39.8223L297.987 23.3576C296.74 31.7996 288.885 37.6322 280.443 36.3851L217.263 27.0517C208.821 25.8046 202.989 17.9501 204.236 9.5082L213.569 -53.6718ZM230.302 -49.4644L221.471 10.3188L281.254 19.1503L290.085 -40.6329L230.302 -49.4644Z" fill="#EFEFEF"/>
<path fill-rule="evenodd" clip-rule="evenodd" d="M99.5247 -14.7018C100.772 -23.1438 108.626 -28.9763 117.068 -27.7292L180.248 -18.3959C188.69 -17.1488 194.523 -9.29431 193.276 -0.852377L183.942 62.3276C182.695 70.7696 174.841 76.6021 166.399 75.355L103.219 66.0217C94.7768 64.7746 88.9442 56.9201 90.1913 48.4782L99.5247 -14.7018ZM116.258 -10.4945L107.426 49.2887L167.209 58.1203L176.041 -1.66295L116.258 -10.4945Z" fill="#EFEFEF"/>
<path fill-rule="evenodd" clip-rule="evenodd" d="M-17.9945 52.4982C-20.262 44.2714 -15.431 35.7642 -7.20417 33.4967L54.3657 16.5268C62.5925 14.2594 71.0998 19.0904 73.3672 27.3172L90.3371 88.887C92.6045 97.1138 87.7735 105.621 79.5467 107.889L17.9769 124.858C9.7501 127.126 1.24283 122.295 -1.02464 114.068L-17.9945 52.4982ZM-0.987275 49.5915L15.0702 107.851L73.3299 91.7937L57.2724 33.534L-0.987275 49.5915Z" fill="#EFEFEF"/>
<path fill-rule="evenodd" clip-rule="evenodd" d="M49.4252 -117.064C56.5038 -121.83 66.1058 -119.955 70.8717 -112.876L106.54 -59.8991C111.306 -52.8205 109.432 -43.2185 102.353 -38.4525L49.376 -2.7838C42.2973 1.98216 32.6954 0.107355 27.9294 -6.97128L-7.73931 -59.9483C-12.5053 -67.0269 -10.6305 -76.6289 -3.55183 -81.3948L49.4252 -117.064ZM57.5894 -101.864L7.46066 -68.1125L41.2117 -17.9838L91.3405 -51.7348L57.5894 -101.864Z" fill="#EFEFEF"/>
<path fill-rule="evenodd" clip-rule="evenodd" d="M73.04 158.452C66.7057 152.733 66.2064 142.963 71.9246 136.629L114.72 89.2226C120.439 82.8883 130.209 82.389 136.544 88.1072L183.95 130.903C190.284 136.621 190.783 146.392 185.065 152.726L142.269 200.132C136.551 206.466 126.78 206.966 120.446 201.248L73.04 158.452ZM85.8186 146.859L130.676 187.354L171.171 142.496L126.314 102.001L85.8186 146.859Z" fill="#EFEFEF"/>
<path fill-rule="evenodd" clip-rule="evenodd" d="M310.409 5.70973C304.964 -0.860192 305.875 -10.6009 312.445 -16.0468L361.614 -56.8042C368.184 -62.2501 377.925 -61.3389 383.371 -54.769L424.128 -5.59934C429.574 0.970578 428.663 10.7113 422.093 16.1572L372.923 56.9146C366.354 62.3605 356.613 61.4493 351.167 54.8794L310.409 5.70973ZM324.723 -3.9248L363.289 42.6013L409.815 4.03518L371.249 -42.4909L324.723 -3.9248Z" fill="#EFEFEF"/>
<path fill-rule="evenodd" clip-rule="evenodd" d="M530.522 216.146C527.899 208.025 532.355 199.316 540.476 196.693L601.25 177.062C609.37 174.439 618.079 178.896 620.702 187.016L640.333 247.79C642.956 255.911 638.499 264.62 630.379 267.243L569.605 286.873C561.484 289.496 552.775 285.04 550.152 276.919L530.522 216.146ZM547.387 212.502L565.962 270.009L623.468 251.434L604.893 193.927L547.387 212.502Z" fill="#EFEFEF"/>
<path fill-rule="evenodd" clip-rule="evenodd" d="M436.075 240.603C438.139 232.323 446.525 227.284 454.805 229.348L516.774 244.799C525.054 246.863 530.092 255.249 528.028 263.529L512.578 325.498C510.513 333.778 502.127 338.816 493.847 336.752L431.879 321.302C423.599 319.237 418.56 310.851 420.624 302.571L436.075 240.603ZM452.317 246.422L437.698 305.059L496.335 319.679L510.954 261.042L452.317 246.422Z" fill="#EFEFEF"/>
<path fill-rule="evenodd" clip-rule="evenodd" d="M397.99 445.885C396.715 437.448 402.521 429.574 410.959 428.299L474.108 418.757C482.546 417.482 490.419 423.289 491.694 431.727L501.236 494.876C502.511 503.314 496.704 511.187 488.266 512.462L425.118 522.004C416.68 523.279 408.806 517.472 407.531 509.034L397.99 445.885ZM415.222 445.018L424.25 504.772L484.004 495.743L474.975 435.989L415.222 445.018Z" fill="#EFEFEF"/>
<path fill-rule="evenodd" clip-rule="evenodd" d="M249.22 475.031C252.794 467.282 261.973 463.897 269.722 467.471L327.717 494.22C335.466 497.794 338.85 506.973 335.276 514.722L308.528 572.716C304.954 580.465 295.775 583.85 288.026 580.276L230.031 553.528C222.282 549.954 218.898 540.774 222.472 533.025L249.22 475.031ZM264.091 483.78L238.781 538.657L293.657 563.967L318.967 509.091L264.091 483.78Z" fill="#EFEFEF"/>
<path fill-rule="evenodd" clip-rule="evenodd" d="M316.566 294.663C322.112 288.177 331.866 287.415 338.351 292.961L386.89 334.468C393.376 340.013 394.138 349.767 388.592 356.253L347.085 404.792C341.539 411.277 331.786 412.039 325.3 406.493L276.761 364.987C270.275 359.441 269.514 349.687 275.06 343.202L316.566 294.663ZM328.498 307.125L289.223 353.054L335.153 392.329L374.428 346.4L328.498 307.125Z" fill="#EFEFEF"/>
<path fill-rule="evenodd" clip-rule="evenodd" d="M70.1499 165.303C78.1591 168.248 82.2643 177.128 79.319 185.137L57.2768 245.079C54.3315 253.088 45.4512 257.193 37.442 254.248L-22.4993 232.206C-30.5085 229.26 -34.6136 220.38 -31.6684 212.371L-9.62611 152.43C-6.68088 144.42 2.19943 140.315 10.2086 143.26L70.1499 165.303ZM62.6133 180.823L5.89461 159.966L-14.9626 216.685L41.7561 237.542L62.6133 180.823Z" fill="#EFEFEF"/>
<path fill-rule="evenodd" clip-rule="evenodd" d="M556.364 -16.5396C552.129 -23.9484 554.702 -33.3872 562.111 -37.6217L617.559 -69.3131C624.968 -73.5477 634.407 -70.9744 638.641 -63.5656L670.333 -8.11762C674.567 -0.708806 671.994 8.72997 664.585 12.9645L609.137 44.6559C601.728 48.8904 592.289 46.3171 588.055 38.9083L556.364 -16.5396ZM572.121 -23.5683L602.108 28.8986L654.575 -1.08896L624.588 -53.5559L572.121 -23.5683Z" fill="#EFEFEF"/>
<path fill-rule="evenodd" clip-rule="evenodd" d="M467.294 68.7977C474.074 63.6155 483.771 64.9106 488.954 71.6904L527.738 122.431C532.92 129.211 531.625 138.908 524.845 144.09L474.105 182.874C467.325 188.057 457.628 186.762 452.446 179.982L413.661 129.241C408.479 122.461 409.774 112.764 416.554 107.582L467.294 68.7977ZM476.356 83.4802L428.344 120.179L465.043 168.192L513.055 131.493L476.356 83.4802Z" fill="#EFEFEF"/>
<path fill-rule="evenodd" clip-rule="evenodd" d="M176.954 105.625C171.784 98.8363 173.096 89.1415 179.886 83.9715L230.696 45.2788C237.485 40.1088 247.18 41.4213 252.35 48.2105L291.043 99.0209C296.213 105.81 294.9 115.505 288.111 120.675L237.301 159.368C230.511 164.538 220.817 163.225 215.647 156.436L176.954 105.625ZM191.653 96.5901L228.265 144.669L276.344 108.056L239.731 59.9776L191.653 96.5901Z" fill="#EFEFEF"/>
<path fill-rule="evenodd" clip-rule="evenodd" d="M454.872 -36.8537C457.109 -45.0888 465.599 -49.9511 473.834 -47.714L535.466 -30.9713C543.701 -28.7341 548.563 -20.2447 546.326 -12.0096L529.583 49.6224C527.346 57.8575 518.857 62.7198 510.622 60.4827L448.99 43.7399C440.755 41.5028 435.892 33.0134 438.129 24.7783L454.872 -36.8537ZM470.99 -30.6962L455.147 27.6223L513.466 43.4649L529.308 -14.8536L470.99 -30.6962Z" fill="#EFEFEF"/>
<path fill-rule="evenodd" clip-rule="evenodd" d="M302.259 97.2498C300.68 88.8636 306.198 80.7852 314.584 79.2061L377.347 67.3881C385.733 65.809 393.811 71.3272 395.39 79.7134L407.208 142.476C408.787 150.862 403.269 158.941 394.883 160.52L332.12 172.338C323.734 173.917 315.656 168.399 314.077 160.013L302.259 97.2498ZM319.448 95.7601L330.631 155.148L390.019 143.966L378.836 84.5775L319.448 95.7601Z" fill="#EFEFEF"/>
<path fill-rule="evenodd" clip-rule="evenodd" d="M565.131 62.5199C568.749 54.7912 577.947 51.4588 585.676 55.0767L643.518 82.1535C651.247 85.7714 654.579 94.9697 650.961 102.698L623.884 160.54C620.266 168.269 611.068 171.601 603.339 167.983L545.498 140.906C537.769 137.288 534.437 128.09 538.055 120.362L565.131 62.5199ZM579.952 71.3534L554.331 126.085L609.063 151.706L634.684 96.9745L579.952 71.3534Z" fill="#EFEFEF"/>
</g>
</svg>
