<svg width="212" height="98" viewBox="0 0 212 98" fill="none" xmlns="http://www.w3.org/2000/svg">
<path d="M201.676 39.4593H202.114C203.251 33.4235 205.438 31.3241 208.499 31.3241C209.462 31.3241 210.424 31.499 211.211 31.7615C210.861 33.8609 210.686 37.5348 210.599 40.334C209.811 40.0716 208.849 39.9841 208.062 39.9841C204.563 39.9841 203.163 41.6462 203.163 48.9941C203.163 60.8032 203.076 76.7236 203.338 87.2207H195.203C195.291 79.4354 195.291 70.7753 195.291 58.5288C195.291 47.0696 195.291 39.3718 195.203 31.7615H201.851C201.764 34.0358 201.676 36.4851 201.676 39.4593Z" fill="#1B1B1B"/>
<path d="M181.308 37.4473C178.508 37.4473 177.109 40.5089 176.846 56.9542C179.383 57.1292 182.357 57.0417 184.807 56.9542C184.894 55.4671 184.982 53.2803 184.982 49.6063C184.982 40.2465 183.844 37.4473 181.308 37.4473ZM188.306 69.1132H191.805C191.98 82.7594 189.618 88.0079 181.308 88.0079C173.522 88.0079 169.586 83.6341 169.586 60.2783C169.586 36.9224 173.785 30.9741 181.483 30.9741C189.268 30.9741 191.805 36.3976 191.805 49.5188C191.805 54.0675 191.63 60.7156 191.455 62.7276C189.268 62.6401 186.119 62.6401 183.32 62.6401C180.87 62.6401 178.683 62.6401 176.846 62.7276C176.934 78.9104 178.333 81.3597 181.395 81.3597C184.107 81.3597 184.894 78.823 184.807 69.1132H188.306Z" fill="#1B1B1B"/>
<path d="M168.731 40.0042L162.345 39.9168C162.171 50.8511 162.083 62.6404 162.083 76.8113C162.083 79.523 163.045 80.4853 165.057 80.4853C166.282 80.4853 167.419 80.1354 168.469 79.4356C168.556 81.7974 169.081 84.7715 169.431 86.696C167.332 87.3083 166.019 87.7457 163.57 87.7457C156.835 87.7457 154.56 83.6344 154.56 77.0737C154.56 66.5767 154.735 54.1553 154.823 38.7597L152.023 38.6722V31.7617H154.823V23.0142C156.047 23.0142 157.359 23.1016 158.759 23.1016C159.984 23.1016 161.296 23.1016 162.608 23.0142C162.52 25.7259 162.433 28.7 162.433 31.8491C164.532 31.8491 166.719 31.8491 168.819 31.7617C168.731 34.036 168.644 37.7299 168.731 40.0042Z" fill="#1B1B1B"/>
<path d="M142.77 39.4593H143.207C144.345 33.4235 146.613 31.7792 149.674 31.7792C150.637 31.7792 154.072 31.7793 154.963 31.7793C154.963 33.9957 154.991 37.1849 154.904 39.9841C154.116 39.7217 149.258 39.9841 149.258 39.9841C145.759 39.9841 144.257 41.6462 144.257 48.9941C144.257 60.8032 144.17 76.7237 144.432 87.2207H136.297C136.384 79.4354 136.384 70.7753 136.384 58.5288C136.384 47.0696 136.384 39.3718 136.297 31.7615H142.945C142.858 34.0358 142.77 36.4851 142.77 39.4593Z" fill="#1B1B1B"/>
<path d="M125.762 59.0536C125.762 40.6839 124.188 37.8846 121.214 37.8846C118.327 37.8846 116.665 40.5964 116.665 59.0536C116.578 77.5108 118.24 81.0098 121.214 81.0098C124.275 81.0098 125.762 77.5108 125.762 59.0536ZM133.548 58.4413C133.548 81.0098 129.611 88.0079 121.214 88.0079C112.816 88.0079 109.055 81.0098 109.055 58.4413C109.055 35.7852 113.166 30.9741 121.214 30.9741C129.261 30.9741 133.548 35.7852 133.548 58.4413Z" fill="#1B1B1B"/>
<path d="M91.1993 46.8947V80.1352C92.249 80.66 93.5612 81.0099 95.0482 81.0099C98.3723 81.0099 99.8594 78.3857 99.8594 58.9662C99.8594 40.0716 98.4598 38.0597 95.748 38.0597C93.2987 38.0597 91.1993 39.8092 91.1993 46.8947ZM91.1993 37.0975L91.6367 37.1849C92.8614 32.9861 95.3107 31.1492 98.9846 31.1492C104.758 31.1492 107.47 35.0855 107.47 59.0537C107.47 83.0219 104.233 87.833 98.4598 87.833C94.6983 87.833 92.5989 86.0835 91.4618 83.6342H91.1119C91.1993 85.3837 91.2868 87.4831 91.2868 89.3201V97.1928H83.4141C83.589 88.4453 83.6765 74.9742 83.6765 58.7913C83.6765 47.4195 83.5015 38.2347 83.5015 31.7615H91.3743C91.3743 32.8112 91.2868 33.5985 91.2868 34.9106C91.2868 35.6979 91.2868 36.3977 91.1993 37.0975Z" fill="#1B1B1B"/>
<path d="M64.4181 46.8947V80.1352C65.4678 80.66 66.7799 81.0099 68.267 81.0099C71.591 81.0099 73.0781 78.3857 73.0781 58.9662C73.0781 40.0716 71.6785 38.0597 68.9668 38.0597C66.5175 38.0597 64.4181 39.8092 64.4181 46.8947ZM64.4181 37.0975L64.8555 37.1849C66.0801 32.9861 68.5294 31.1492 72.2034 31.1492C77.9767 31.1492 80.6885 35.0855 80.6885 59.0537C80.6885 83.0219 77.4519 87.833 71.6785 87.833C67.9171 87.833 65.8177 86.0835 64.6805 83.6342H64.3306C64.4181 85.3837 64.5056 87.4831 64.5056 89.3201V97.1928H56.6328C56.8078 88.4453 56.8952 74.9742 56.8952 58.7913C56.8952 47.4195 56.7203 38.2347 56.7203 31.7615H64.593C64.593 32.8112 64.5056 33.5985 64.5056 34.9106C64.5056 35.6979 64.5056 36.3977 64.4181 37.0975Z" fill="#1B1B1B"/>
<path d="M44.994 31.7615H52.7793C52.7793 39.6342 52.6918 47.2446 52.6918 59.2286C52.6918 71.1252 52.7793 80.1352 52.7793 87.2207H44.994C44.994 85.2962 44.994 83.9841 45.0814 82.4095L44.7315 82.322C43.4194 86.2584 40.6202 87.833 37.0337 87.833C32.1351 87.833 29.4234 84.5964 29.4234 76.8986C29.4234 64.827 29.5109 59.4036 29.5109 52.4931C29.5109 44.5328 29.5109 38.2346 29.3359 31.7615H37.2087C37.1212 42.8708 37.1212 56.7793 37.1212 75.6739C37.1212 79.4354 37.9085 81.0974 40.4453 81.0974C43.157 81.0974 45.0814 79.0855 45.0814 73.9244C45.0814 46.6322 44.994 39.3718 44.994 31.7615Z" fill="#1B1B1B"/>
<path d="M10.3211 64.2148V69.9007C10.3211 78.8231 11.3708 81.01 14.7824 81.01C18.0189 81.01 19.0686 78.9981 19.0686 73.4871C19.0686 67.3639 17.2317 62.3778 12.8579 57.9166C5.77244 51.5309 2.62334 44.9703 2.62334 35.0856C2.62334 25.1134 6.64719 20.8271 14.6074 20.8271C23.0925 20.8271 26.504 24.851 26.504 37.2725C26.504 39.5468 26.4166 41.9086 26.3291 44.5329H22.8301C21.4305 44.5329 20.0309 44.5329 18.8937 44.6204C18.9812 41.9086 19.0686 39.2844 19.0686 36.4852C19.0686 29.8371 17.9315 27.9126 14.7824 27.9126C11.6333 27.9126 10.4086 30.012 10.4086 35.1731C10.4086 41.0339 11.7207 45.4076 16.3569 50.2188C22.3927 56.1671 26.5915 63.0776 26.5915 72.6124C26.5915 82.9344 23.18 88.008 14.6949 88.008C5.16011 88.008 2.27344 81.4474 2.27344 71.0378C2.27344 67.6263 2.36091 65.9643 2.44839 64.1273C3.41061 64.2148 4.46031 64.3023 6.03486 64.3023C7.69689 64.3023 9.18397 64.2148 10.3211 64.2148Z" fill="#1B1B1B"/>
<path d="M136.071 6.81923C136.071 5.59013 137.027 4.59375 138.206 4.59375V5.60476C137.59 5.60476 137.091 6.12513 137.091 6.76705V12.6181C137.091 13.2022 136.974 13.7352 136.74 14.2172C136.501 14.6935 136.144 15.1046 135.671 15.4505C135.198 15.7907 134.608 16.0544 133.9 16.2415C133.193 16.4286 132.369 16.5222 131.428 16.5222C130.487 16.5222 129.663 16.4286 128.956 16.2415C128.249 16.0544 127.661 15.7907 127.194 15.4505C126.72 15.1046 126.367 14.6935 126.133 14.2172C125.894 13.7352 125.774 13.2022 125.774 12.6181V4.60595H126.794V12.7032C126.794 13.0944 126.894 13.4659 127.096 13.8174C127.291 14.1633 127.585 14.4667 127.977 14.7275C128.369 14.9883 128.853 15.1953 129.429 15.3484C130.006 15.5015 130.672 15.5781 131.428 15.5781C132.19 15.5781 132.859 15.5015 133.435 15.3484C134.012 15.1953 134.496 14.9883 134.888 14.7275C135.279 14.4667 135.576 14.1633 135.777 13.8174C135.973 13.4659 136.071 13.0944 136.071 12.7032V6.81923Z" fill="#1B1B1B"/>
<path fill-rule="evenodd" clip-rule="evenodd" d="M71.6913 11.6138C71.4082 11.8675 71.176 12.2373 71.176 12.6265V16.2925H70.1561V4.60595L75.7607 4.60595C76.6045 4.60594 77.3283 4.60593 77.9318 4.74637C78.5411 4.88246 79.0388 5.09226 79.425 5.37578C79.8166 5.65363 80.1022 6.07457 80.2817 6.49417C80.4612 6.91378 80.5509 7.40426 80.5509 7.96563C80.5509 8.83886 80.3306 9.53914 79.89 10.0665C79.4495 10.5882 78.9207 11.1382 76.375 11.1382L78.8271 14.441C79.2207 14.9712 79.4984 15.2974 80.4706 15.2815H81.2996V16.2925L79.9535 16.2925C79.3029 16.2925 78.6899 15.9749 78.297 15.4343L75.2859 11.2913H72.5262C72.2198 11.2913 71.9237 11.4057 71.6913 11.6138ZM79.4984 7.96563C79.4984 7.46664 79.4141 7.06404 79.2455 6.75784C79.0768 6.44597 78.8022 6.20499 78.4214 6.03488C78.0406 5.86477 77.5402 5.75136 76.9201 5.69466C76.3054 5.63228 75.5493 5.60109 74.6518 5.60109H71.176V10.8739C71.5606 10.5025 72.0656 10.2239 72.5899 10.2239H74.6192C75.5167 10.2239 76.2755 10.1984 76.8956 10.1474C76.9288 10.1443 76.9617 10.1414 76.9942 10.1384C77.5692 10.0862 78.0395 10.0435 78.4051 9.88787C78.7913 9.71776 79.0687 9.48244 79.2373 9.18191C79.4114 8.87571 79.4984 8.47029 79.4984 7.96563Z" fill="#1B1B1B"/>
<path fill-rule="evenodd" clip-rule="evenodd" d="M66.2693 8.19527C66.2693 8.77932 66.1768 9.29532 65.9919 9.74328C65.8124 10.1912 65.5268 10.5683 65.1352 10.8745C64.7435 11.1807 64.2376 11.4132 63.6175 11.572C63.0029 11.7251 62.2604 11.8016 61.3901 11.8016L57.7849 11.7384C57.447 11.7326 57.1183 11.8529 56.8581 12.0776C56.5838 12.3145 56.3558 12.6664 56.3558 13.0376V16.2925H55.3359V4.60595H61.3901C62.2604 4.60595 63.0029 4.61312 63.6175 4.77189C64.2376 4.92499 64.7435 5.1518 65.1352 5.45233C65.5268 5.75286 65.8124 6.19932 65.9919 6.64727C66.1768 7.09523 66.2693 7.61123 66.2693 8.19527ZM65.2168 8.19527C65.2168 7.63958 65.127 7.19162 64.9475 6.8514C64.7734 6.51118 64.5015 6.25035 64.1316 6.0689C63.7671 5.88178 63.3021 5.75703 62.7364 5.69466C62.1761 5.63228 61.5097 5.60109 60.7373 5.60109H56.3558V11.3842C56.714 11.0141 57.1978 10.7342 57.7021 10.7342H60.7373C61.0365 10.7342 61.3547 10.7371 61.692 10.7428C62.0347 10.7428 62.3719 10.7257 62.7037 10.6917C62.8081 10.6792 62.9109 10.6714 63.0121 10.6636C63.2324 10.6468 63.4452 10.6305 63.6502 10.5683C63.9548 10.4719 64.2213 10.3273 64.4498 10.1345C64.6837 9.94174 64.8686 9.68941 65.0046 9.37754C65.146 9.06567 65.2168 8.67158 65.2168 8.19527Z" fill="#1B1B1B"/>
<path d="M85.6204 16.2925V4.60595H94.9627V5.60109H86.73V10.2019C87.1134 9.83059 87.6173 9.6242 88.1406 9.6242H94.5466V10.6108H88.0785C87.7721 10.6108 87.4759 10.7255 87.2437 10.934C86.9615 11.1873 86.73 11.5562 86.73 11.9444V15.2974H95.0851V16.2925H85.6204Z" fill="#1B1B1B"/>
<path d="M113.825 16.2925V6.34958L107.911 15.8963C107.758 16.1433 107.495 16.2925 107.213 16.2925C106.93 16.2925 106.667 16.1429 106.514 15.8953L100.591 6.30705V16.2925H99.5713V4.60595C100.253 4.60595 100.888 4.96613 101.259 5.5627L107.241 15.1953L113.159 5.55869C113.523 4.96506 114.153 4.60595 114.829 4.60595V16.2925H113.825Z" fill="#1B1B1B"/>
<path d="M119.952 16.2925V4.60595H120.972V16.2925H119.952Z" fill="#1B1B1B"/>
<path d="M156.576 16.2925V6.34958L150.661 15.8963C150.508 16.1433 150.245 16.2925 149.963 16.2925C149.681 16.2925 149.418 16.1429 149.265 15.8953L143.342 6.30705V16.2925H142.322V4.60595C143.003 4.60595 143.639 4.96613 144.009 5.56269L149.991 15.1953L155.909 5.55869C156.274 4.96506 156.903 4.60595 157.579 4.60595V16.2925H156.576Z" fill="#1B1B1B"/>
<path fill-rule="evenodd" clip-rule="evenodd" d="M138.7 4.09668V6.10172H138.203C137.881 6.10172 137.585 6.3799 137.585 6.767V12.6181C137.585 13.2704 137.454 13.8786 137.184 14.4341L137.183 14.4372L137.181 14.4403C136.903 14.9939 136.492 15.464 135.961 15.8517L135.96 15.8528L135.958 15.854C135.425 16.2373 134.776 16.5231 134.025 16.7219C133.266 16.9226 132.398 17.0191 131.425 17.0191C130.453 17.0191 129.584 16.9226 128.826 16.7219C128.074 16.523 127.427 16.2369 126.898 15.8524L126.897 15.8517C126.367 15.4638 125.958 14.9932 125.685 14.4382C125.408 13.8818 125.274 13.2722 125.274 12.6181V4.10888H127.288V12.7031C127.288 13.0046 127.364 13.2913 127.524 13.5704L127.525 13.5715L127.525 13.5725C127.676 13.8392 127.911 14.0882 128.249 14.3138C128.585 14.5376 129.016 14.7253 129.554 14.868C130.079 15.0075 130.701 15.081 131.425 15.081C132.155 15.081 132.78 15.0075 133.305 14.868C133.842 14.7253 134.273 14.5376 134.609 14.3138C134.947 14.0888 135.185 13.8395 135.342 13.5714C135.497 13.2929 135.571 13.0058 135.571 12.7031V6.81918C135.571 5.33525 136.73 4.09668 138.203 4.09668H138.7ZM135.774 13.8174C135.573 14.1633 135.276 14.4666 134.885 14.7274C134.493 14.9883 134.009 15.1953 133.432 15.3484C132.856 15.5015 132.187 15.578 131.425 15.578C130.669 15.578 130.003 15.5015 129.426 15.3484C128.85 15.1953 128.366 14.9883 127.974 14.7274C127.582 14.4666 127.289 14.1633 127.093 13.8174C126.891 13.4658 126.791 13.0944 126.791 12.7031V4.6059H125.771V12.6181C125.771 13.2021 125.891 13.7351 126.13 14.2171C126.364 14.6934 126.717 15.1045 127.191 15.4504C127.658 15.7906 128.246 16.0543 128.953 16.2414C129.66 16.4285 130.484 16.5221 131.425 16.5221C132.366 16.5221 133.19 16.4285 133.897 16.2414C134.605 16.0543 135.195 15.7906 135.668 15.4504C136.141 15.1045 136.498 14.6934 136.737 14.2171C136.971 13.7351 137.088 13.2021 137.088 12.6181V6.767C137.088 6.12508 137.587 5.6047 138.203 5.6047V4.5937C138.032 4.5937 137.865 4.61468 137.706 4.65433C136.766 4.88782 136.068 5.76846 136.068 6.81918V12.7031C136.068 13.0944 135.97 13.4658 135.774 13.8174ZM71.67 16.7895H69.6561V4.10888L75.7999 4.10888C76.6089 4.10882 77.3802 4.10876 78.0393 4.26173C78.6938 4.40815 79.2583 4.63984 79.713 4.97276C80.1986 5.31856 80.5324 5.82343 80.7357 6.29864C80.9469 6.79249 81.045 7.35204 81.045 7.96557C81.045 8.92301 80.8021 9.74638 80.2685 10.3851L80.2676 10.3861L80.2668 10.3871C80.0263 10.6719 79.7205 11.0119 79.104 11.2592C78.6745 11.4314 78.1124 11.552 77.3376 11.6049L79.2232 14.1447C79.4248 14.4163 79.5408 14.5525 79.6869 14.6411C79.8195 14.7217 80.0288 14.7915 80.4595 14.7845L80.4636 14.7845H81.7936V16.7895L79.9505 16.7895C79.1358 16.7895 78.3753 16.3916 77.892 15.7265L75.0298 11.7882H72.5232C72.3417 11.7882 72.163 11.8559 72.02 11.984C71.7978 12.183 71.67 12.4287 71.67 12.6265V16.7895ZM75.283 11.2912L78.294 15.4343C78.6869 15.9749 79.2999 16.2925 79.9505 16.2925L81.2966 16.2925V15.2815H80.4676C79.4954 15.2973 79.2177 14.9711 78.8241 14.441L76.372 11.1381C76.5898 11.1381 76.7929 11.1341 76.9823 11.1264C79.0075 11.0442 79.4842 10.5435 79.8871 10.0664C80.3277 9.53909 80.548 8.8388 80.548 7.96557C80.548 7.40421 80.4582 6.91372 80.2787 6.49412C80.0992 6.07451 79.8136 5.65357 79.422 5.37573C79.0358 5.09221 78.5381 4.88241 77.9289 4.74632C77.3253 4.60587 76.6016 4.60588 75.7577 4.6059L70.1531 4.6059V16.2925H71.173V12.6265C71.173 12.2373 71.4052 11.8674 71.6884 11.6138C71.9207 11.4057 72.2169 11.2912 72.5232 11.2912H75.283ZM79.2425 6.75779C79.4111 7.06399 79.4954 7.46658 79.4954 7.96557C79.4954 8.47023 79.4084 8.87566 79.2343 9.18186C79.0657 9.48239 78.7883 9.71771 78.4021 9.88782C78.0366 10.0435 77.5663 10.0861 76.9912 10.1383C76.9587 10.1413 76.9258 10.1443 76.8926 10.1473C76.2725 10.1983 75.5137 10.2239 74.6162 10.2239H72.5869C72.2664 10.2239 71.953 10.328 71.67 10.4938C71.4901 10.5992 71.3225 10.7295 71.173 10.8738V5.60104H74.6489C75.5464 5.60104 76.3025 5.63223 76.9171 5.6946C77.5372 5.75131 78.0376 5.86471 78.4184 6.03482C78.7992 6.20493 79.0739 6.44592 79.2425 6.75779ZM71.67 6.09806V9.9345C71.9521 9.80639 72.2613 9.72685 72.5869 9.72685H74.6162C75.5044 9.72685 76.2479 9.70159 76.8496 9.65216C76.8822 9.64918 76.9145 9.64625 76.9463 9.64336C77.547 9.58883 77.9271 9.54907 78.2047 9.43168C78.5132 9.29524 78.6962 9.12515 78.8009 8.93865L78.8016 8.93744L78.8023 8.93623C78.9193 8.73041 78.9984 8.41918 78.9984 7.96557C78.9984 7.51674 78.9217 7.20558 78.8071 6.99755L78.8062 6.99587L78.8053 6.99418C78.6975 6.79487 78.5148 6.62223 78.2157 6.48861C77.9029 6.34888 77.4617 6.24349 76.8719 6.18955L76.8694 6.18933L76.8669 6.18908C76.2745 6.12897 75.5364 6.09806 74.6489 6.09806H71.67ZM63.6146 11.5719C62.9999 11.725 62.2574 11.8016 61.3871 11.8016L57.7819 11.7383C57.444 11.7325 57.1153 11.8529 56.8551 12.0776C56.5808 12.3144 56.3529 12.6663 56.3529 13.0376V16.2925H55.333V4.6059H61.3871C62.2574 4.6059 62.9999 4.61307 63.6146 4.77184C64.2347 4.92494 64.7405 5.15175 65.1322 5.45228C65.5238 5.75281 65.8094 6.19926 65.9889 6.64722C66.1738 7.09517 66.2663 7.61118 66.2663 8.19522C66.2663 8.77927 66.1738 9.29527 65.9889 9.74322C65.8094 10.1912 65.5238 10.5683 65.1322 10.8745C64.7405 11.1807 64.2347 11.4131 63.6146 11.5719ZM66.4493 9.93051C66.2361 10.4613 65.8961 10.9081 65.4383 11.266C64.9794 11.6248 64.4061 11.8823 63.7378 12.0534L63.7363 12.0538L63.7347 12.0542C63.0692 12.2199 62.284 12.2986 61.3871 12.2986H61.3827L57.7733 12.2353C57.56 12.2316 57.3494 12.3074 57.1799 12.4537C56.9679 12.6368 56.8499 12.8631 56.8499 13.0376V16.7895H54.8359V4.10888H61.3871C62.2406 4.10888 63.0493 4.11302 63.7362 4.28994C64.4031 4.45486 64.9758 4.70581 65.4348 5.05797C65.9169 5.42797 66.2477 5.95781 66.4493 6.45996C66.6629 6.97844 66.7633 7.56012 66.7633 8.19522C66.7633 8.83033 66.6629 9.41202 66.4493 9.93051ZM64.5035 7.08051L64.5021 7.07773C64.3807 6.84061 64.1913 6.65319 63.9097 6.51506L63.9056 6.51306L63.9016 6.51099C63.6075 6.36001 63.2062 6.24676 62.6789 6.18863L62.6784 6.18857C62.1416 6.12881 61.4946 6.09806 60.7344 6.09806H56.8499V10.4275C57.1111 10.3097 57.3973 10.2372 57.6991 10.2372H60.7344C61.0354 10.2372 61.355 10.24 61.6931 10.2457C62.0165 10.2455 62.3341 10.2295 62.646 10.1977C62.7595 10.1842 62.8696 10.1758 62.967 10.1683L62.9712 10.168C63.1997 10.1505 63.3568 10.1365 63.5003 10.0934C63.7454 10.0155 63.952 9.9017 64.1263 9.75463L64.1285 9.75278L64.1307 9.75095C64.2971 9.61376 64.4375 9.42783 64.546 9.17883L64.5475 9.17551L64.549 9.17222C64.6521 8.94486 64.7168 8.62663 64.7168 8.19522C64.7168 7.68685 64.6337 7.32731 64.5049 7.08328L64.5035 7.08051ZM62.7007 10.6917C62.3689 10.7257 62.0317 10.7427 61.689 10.7427C61.3517 10.737 61.0335 10.7342 60.7344 10.7342H57.6991C57.4018 10.7342 57.1115 10.8315 56.8499 10.9873C56.6679 11.0956 56.4998 11.2323 56.3529 11.3841V5.60104H60.7344C61.5068 5.60104 62.1731 5.63223 62.7334 5.6946C63.2991 5.75698 63.7642 5.88172 64.1286 6.06884C64.4985 6.25029 64.7705 6.51113 64.9445 6.85135C65.124 7.19157 65.2138 7.63953 65.2138 8.19522C65.2138 8.67153 65.1431 9.06562 65.0016 9.37749C64.8656 9.68935 64.6807 9.94168 64.4468 10.1345C64.2183 10.3273 63.9518 10.4719 63.6472 10.5683C63.4422 10.6304 63.2295 10.6467 63.0091 10.6636C62.9079 10.6713 62.8051 10.6792 62.7007 10.6917ZM85.1204 4.10888H95.4567V6.09806H87.2241V9.30075C87.5128 9.18717 87.822 9.12713 88.1377 9.12713H95.0406V11.1078H88.0756C87.8942 11.1078 87.7156 11.1755 87.5728 11.3037C87.3513 11.5026 87.2241 11.7475 87.2241 11.9443V14.8003H95.5791V16.7895H85.1204V4.10888ZM87.2241 9.84541C87.0441 9.93755 86.8764 10.0572 86.727 10.2019V5.60104H94.9597V4.6059H85.6174V16.2925H95.0821V15.2973H86.727V11.9443C86.727 11.5562 86.9586 11.1872 87.2407 10.9339C87.4729 10.7254 87.7691 10.6108 88.0756 10.6108H94.5436V9.62415H88.1377C87.8182 9.62415 87.506 9.70104 87.2241 9.84541ZM99.5683 16.2925H100.588V6.307L106.511 15.8953C106.664 16.1428 106.927 16.2925 107.21 16.2925C107.492 16.2925 107.755 16.1433 107.908 15.8962L113.823 6.34953V16.2925H114.826V4.6059C114.656 4.6059 114.49 4.62853 114.329 4.67184C114.326 4.6727 114.323 4.67357 114.32 4.67444C114.302 4.67938 114.284 4.68458 114.266 4.69003C113.814 4.82893 113.417 5.13369 113.156 5.55863L107.238 15.1953L101.256 5.56265C101 5.15142 100.619 4.85251 100.184 4.70648C100.153 4.69623 100.122 4.68673 100.091 4.67799C100.083 4.67558 100.074 4.67322 100.065 4.67092C99.9048 4.62821 99.738 4.6059 99.5683 4.6059V16.2925ZM107.236 14.2493L101.678 5.30043C101.22 4.56321 100.428 4.10888 99.5683 4.10888H99.0713V16.7895H101.085V8.05729L106.088 16.1565C106.329 16.5452 106.749 16.7895 107.21 16.7895C107.67 16.7895 108.09 16.5459 108.33 16.158L113.325 8.09544V16.7895H115.323V4.10888H114.826C113.971 4.10888 113.184 4.56314 112.732 5.29854L107.236 14.2493ZM119.452 4.10888H121.466V16.7895H119.452V4.10888ZM142.319 16.2925H143.339V6.307L149.262 15.8953C149.415 16.1428 149.678 16.2925 149.96 16.2925C150.242 16.2925 150.505 16.1433 150.658 15.8962L156.573 6.34953V16.2925H157.577V4.6059C157.407 4.6059 157.24 4.62853 157.08 4.67184C157.076 4.6727 157.073 4.67356 157.07 4.67444C157.052 4.67938 157.034 4.68458 157.016 4.69003C156.564 4.82892 156.167 5.13369 155.906 5.55864L149.988 15.1953L144.006 5.56264C143.751 5.15142 143.37 4.85252 142.934 4.70648C142.904 4.69623 142.873 4.68673 142.842 4.67799C142.833 4.67558 142.824 4.67322 142.816 4.67092C142.655 4.62821 142.488 4.6059 142.319 4.6059V16.2925ZM149.986 14.2493L144.429 5.30043C143.971 4.5632 143.179 4.10888 142.319 4.10888H141.822V16.7895H143.836V8.0573L148.839 16.1565C149.079 16.5452 149.499 16.7895 149.96 16.7895C150.421 16.7895 150.84 16.5459 151.081 16.158L156.076 8.09544V16.7895H158.074V4.10888H157.577C156.721 4.10888 155.934 4.56314 155.483 5.29855L149.986 14.2493ZM119.949 16.2925V4.6059H120.969V16.2925H119.949Z" fill="#1B1B1B"/>
</svg>
