<svg width="200" height="34" viewBox="0 0 200 34" fill="none" xmlns="http://www.w3.org/2000/svg">
<path fill-rule="evenodd" clip-rule="evenodd" d="M0 5.54348C0 2.4819 2.4822 0 5.54414 0L28.4599 0C31.5219 0 34.0041 2.4819 34.0041 5.54348L34.0041 28.4565C34.0041 31.5181 31.5219 34 28.4599 34L5.54414 34C2.48219 34 0 31.5181 0 28.4565L0 5.54348ZM6.16016 6.15942L6.16016 27.8406L27.8439 27.8406L27.8439 6.15942L6.16016 6.15942Z" fill="#353851"/>
<path d="M47.4785 23.8824V16.6449H51.8429V12.4584H47.4785V7.20766L42.9594 7.20766C42.9594 12.4584 42.9594 12.4584 39.7788 12.4584V16.6449H42.3335V24.1663C42.3335 29.0977 45.112 30.1976 48.8732 30.1976C49.9376 30.1976 51.8429 30.1976 51.8429 30.1976V26.224C51.8429 26.224 50.4748 26.224 49.8558 26.224C48.2236 26.224 47.4785 25.479 47.4785 23.8824Z" fill="#353851"/>
<path d="M60.7464 30.1976L63.4786 16.2901L66.1753 30.1976H72.6331L76.6071 12.4584H71.9234L69.2268 26.295L66.5301 12.4584H60.3916L57.6949 26.295L54.9983 12.4584H50.3146L54.2886 30.1976H60.7464Z" fill="#353851"/>
<path d="M79.5752 9.37183C81.3848 9.37183 82.6622 8.05913 82.6622 6.39166C82.6622 4.72418 81.3848 3.44696 79.5752 3.44696C77.8365 3.44696 76.5237 4.72418 76.5237 6.39166C76.5237 8.05913 77.8365 9.37183 79.5752 9.37183ZM82.1654 30.1976V12.4584L77.0204 12.4584V30.1976H82.1654Z" fill="#353851"/>
<path d="M94.2879 12.1037C92.1945 12.1037 90.3849 13.0261 89.072 14.5871V3.58887L83.9271 3.58887V30.1976H88.9656V27.927C90.2784 29.5944 92.1235 30.5524 94.2879 30.5524C99.1136 30.5524 102.555 26.8626 102.555 21.328C102.555 15.7934 99.1136 12.1037 94.2879 12.1037ZM93.2944 16.6804C95.7073 16.6804 97.4814 18.5252 97.4814 21.328C97.4814 24.1308 95.7073 25.9757 93.2944 25.9757C90.8816 25.9757 89.072 24.1308 89.072 21.328C89.072 18.5252 90.8816 16.6804 93.2944 16.6804Z" fill="#353851"/>
<path d="M113.634 12.1037C111.541 12.1037 109.731 13.0261 108.418 14.5871V3.58887L103.273 3.58887V30.1976H108.312V27.927C109.625 29.5944 111.47 30.5524 113.634 30.5524C118.46 30.5524 121.902 26.8626 121.902 21.328C121.902 15.7934 118.46 12.1037 113.634 12.1037ZM112.641 16.6804C115.053 16.6804 116.828 18.5252 116.828 21.328C116.828 24.1308 115.053 25.9757 112.641 25.9757C110.228 25.9757 108.418 24.1308 108.418 21.328C108.418 18.5252 110.228 16.6804 112.641 16.6804Z" fill="#353851"/>
<path d="M131.845 30.5524C137.132 30.5524 141.07 26.7917 141.07 21.328C141.07 15.8644 137.132 12.1037 131.845 12.1037C126.558 12.1037 122.62 15.8644 122.62 21.328C122.62 26.7917 126.558 30.5524 131.845 30.5524ZM131.845 25.9757C129.432 25.9757 127.623 24.0953 127.623 21.328C127.623 18.5607 129.432 16.6804 131.845 16.6804C134.258 16.6804 136.067 18.5607 136.067 21.328C136.067 24.0953 134.258 25.9757 131.845 25.9757Z" fill="#353851"/>
<path d="M153.67 20.4056V30.1976H158.814V19.2348C158.814 14.4807 156.047 12.1037 152.357 12.1037C150.121 12.1037 148.241 13.168 147.176 15.0484V12.4584L142.138 12.4584V30.1976H147.283V20.4056C147.283 17.7447 148.454 16.361 150.476 16.361C152.499 16.361 153.67 17.7447 153.67 20.4056Z" fill="#353851"/>
<path d="M162.787 9.37183C164.597 9.37183 165.874 8.05913 165.874 6.39166C165.874 4.72418 164.597 3.44696 162.787 3.44696C161.048 3.44696 159.736 4.72418 159.736 6.39166C159.736 8.05913 161.048 9.37183 162.787 9.37183ZM165.377 30.1976V12.4584H160.232V30.1976L165.377 30.1976Z" fill="#353851"/>
<path d="M181.864 30.1976V26.0111H172L181.155 17.7092V12.4584L167.139 12.4584V16.6449H176.116L166.962 24.9468V30.1976H181.864Z" fill="#353851"/>
<path d="M199.915 22.7471C199.951 22.2859 199.986 21.8247 199.986 21.328C199.986 15.8998 196.225 12.1037 191.009 12.1037C185.793 12.1037 182.032 15.8998 182.032 21.328C182.032 26.7562 185.793 30.5524 191.009 30.5524C195.373 30.5524 198.46 28.4946 199.56 24.592H194.344C193.848 25.7628 192.783 26.3659 191.151 26.3659C188.809 26.3659 187.354 25.0887 186.964 22.7471H199.915ZM191.009 16.3256C193.173 16.3256 194.593 17.4964 195.019 19.7315H187C187.425 17.4964 188.809 16.3256 191.009 16.3256Z" fill="#353851"/>
</svg>
