<?xml version="1.0" standalone="no"?>
<!DOCTYPE svg PUBLIC "-//W3C//DTD SVG 20010904//EN"
 "http://www.w3.org/TR/2001/REC-SVG-20010904/DTD/svg10.dtd">
<svg version="1.0" xmlns="http://www.w3.org/2000/svg"
 width="448.000000pt" height="448.000000pt" viewBox="0 0 448.000000 448.000000"
 preserveAspectRatio="xMidYMid meet">
<metadata>
Created by potrace 1.14, written by Peter Selinger 2001-2017
</metadata>
<g transform="translate(0.000000,448.000000) scale(0.100000,-0.100000)"
fill="#000000" stroke="none">
<path d="M560 4459 c-231 -60 -401 -203 -501 -424 -62 -137 -59 -56 -56 -1823
1 -884 5 -1616 9 -1628 3 -11 13 -43 21 -70 67 -226 246 -402 492 -485 l70
-24 1620 -2 c1744 -2 1671 -4 1804 50 96 39 167 86 245 163 84 83 144 180 183
295 l28 84 0 1640 0 1640 -23 75 c-79 250 -243 416 -497 501 l-70 24 -1625 2
c-1578 1 -1627 1 -1700 -18z m3110 -2219 l0 -1430 -1430 0 -1430 0 0 1430 0
1430 1430 0 1430 0 0 -1430z"/>
</g>
</svg>
