<svg width="32" height="32" viewBox="0 0 32 32" fill="none" xmlns="http://www.w3.org/2000/svg">
<g clip-path="url(#clip0_1831_8273)">
<rect width="32" height="32" rx="16" fill="#98D9D3"/>
<rect x="-531.723" y="-524.782" width="1097" height="1097" fill="#CBECE9"/>
<path fill-rule="evenodd" clip-rule="evenodd" d="M19.7994 8.35797C20.8061 9.36329 21.3735 10.7266 21.3774 12.1494C21.375 13.5733 20.8083 14.9383 19.8015 15.9451C18.7946 16.952 17.4297 17.5187 16.0058 17.521C14.583 17.5171 13.2197 16.9497 12.2144 15.9429C11.209 14.9362 10.6434 13.5722 10.6415 12.1494C10.645 10.7277 11.2113 9.36534 12.2165 8.36009C13.2218 7.35491 14.5842 6.78859 16.0058 6.78516C17.4286 6.78706 18.7927 7.35257 19.7994 8.35797ZM6.37354 29.4235V34.6989C9.21059 36.3266 12.4994 37.2573 16.0058 37.2573C19.5122 37.2573 22.801 36.3265 25.6381 34.6988V29.4235C25.636 27.0382 24.6875 24.7511 23.0008 23.0645C21.314 21.3777 19.027 20.4292 16.6416 20.4271H15.37C12.9847 20.4292 10.6976 21.3777 9.01087 23.0645C7.32419 24.7511 6.37565 27.0382 6.37354 29.4235Z" fill="#FEFFFF"/>
</g>
<defs>
<clipPath id="clip0_1831_8273">
<rect width="32" height="32" rx="16" fill="white"/>
</clipPath>
</defs>
</svg>
