<svg width="101" height="25" viewBox="0 0 101 25" fill="none" xmlns="http://www.w3.org/2000/svg">
<path d="M100.769 1.21543C100.414 0.744686 100.059 0.391624 98.2857 0.273937C97.8127 0.273937 96.3937 0.15625 93.9104 0.15625C87.4064 0.15625 82.9129 2.15691 80.666 6.04061C81.2573 2.15708 77.4732 0.15625 69.1954 0.15625C59.4987 0.15625 53.3496 4.03978 50.8663 11.925C49.9202 14.8671 49.9202 17.2209 50.6298 19.1038H48.2647C46.4909 19.2215 44.1258 19.3392 42.5886 19.3392C39.041 19.3392 36.7941 18.7508 35.9664 17.5739C35.2569 16.5147 35.2569 14.5141 36.2029 11.5719C37.7402 6.7468 41.4062 4.62833 47.3187 4.62833C50.3932 4.62833 53.3496 4.9814 53.3496 4.9814C53.7043 4.9814 53.9409 4.51065 53.9409 4.15759L53.8226 3.80452L53.5861 2.15693C53.4678 1.09774 52.6401 0.509333 51.221 0.273959C49.9202 0.156272 48.856 0.156272 47.437 0.156272H47.3187C39.6322 0.156272 34.1926 2.74529 31.2362 7.68829C32.3005 2.62789 28.7529 0.156272 20.5933 0.156272C15.9813 0.156272 12.6704 0.273959 10.7783 0.509333C9.24105 0.744705 8.29504 1.33314 7.94018 2.3923L7.23065 4.51065C7.1124 4.86371 7.34891 5.09908 7.82193 5.09908C8.17669 5.09908 9.59572 4.86371 11.9608 4.74602C15.1536 4.51065 17.4005 4.39296 18.9379 4.39296C23.4314 4.39296 25.4419 5.56983 24.7324 7.80593C24.6141 8.27668 24.2594 8.62974 23.6681 8.74743C19.411 9.45355 15.9816 9.9243 13.4983 10.2773C6.40302 11.2188 2.26412 13.3372 1.20002 16.8678C-0.337262 21.6929 3.44683 24.0466 12.5524 24.0466C17.0459 24.0466 20.9484 23.8113 24.023 23.2228C25.7968 22.8698 26.7429 22.5167 27.0975 21.3399L28.7531 15.9263C28.6348 21.3399 32.3007 24.0468 40.1055 24.0468C43.4164 24.0468 46.6094 23.9291 48.1466 23.6937C49.6838 23.4583 50.5117 23.1053 50.8666 21.9284L51.2213 20.2808C52.8769 22.8698 56.5428 24.1643 62.1006 24.1643C68.0133 24.1643 71.4425 24.0467 72.3886 23.6936C73.2164 23.4582 73.6895 22.9875 73.926 22.399C73.926 22.2814 73.926 22.1637 74.0442 22.046L74.7537 19.8099C74.872 19.4569 74.6355 19.2215 74.1625 19.2215L70.3784 19.4569C67.8951 19.5746 65.8849 19.6923 64.4657 19.6923C61.7458 19.6923 59.9722 19.4569 58.9078 19.1038C57.3705 18.5154 56.661 17.4562 56.7793 15.6908L68.7229 14.1609C74.0444 13.4548 77.7102 11.8072 79.484 9.21817L75.3451 22.9875C75.2269 23.2228 75.3451 23.4582 75.4634 23.5759C75.5816 23.6936 75.8181 23.8113 76.2912 23.8113H81.2578C82.0855 23.8113 82.4403 23.3405 82.5585 22.9875L86.9339 7.80602C87.5251 5.80537 89.2989 4.86384 92.6099 4.86384C95.5663 4.86384 97.6947 4.86385 99.1139 4.98153H99.2322C99.4687 4.98153 99.9417 4.86385 100.296 4.27541L101.006 2.15707C101.006 1.804 101.006 1.45094 100.769 1.21557L100.769 1.21543ZM21.0667 19.3391C19.5295 19.5744 17.2827 19.6921 14.4446 19.6921C9.35976 19.6921 7.23109 18.6329 7.82236 16.6323C8.29537 15.2201 9.59615 14.2786 11.7246 14.0433L23.1952 12.5134L21.0667 19.3391ZM73.9266 7.09979C73.4536 8.6297 71.2066 9.68881 67.1862 10.2772L57.6076 11.5718L57.8441 10.748C58.6719 8.15897 59.7362 6.51131 61.1551 5.56971C62.5742 4.62822 64.9392 4.15747 68.2504 4.15747C72.6257 4.27516 74.5177 5.21665 73.9264 7.09965L73.9266 7.09979Z" fill="white"/>
</svg>
