<svg width="112" height="29" viewBox="0 0 112 29" fill="none" xmlns="http://www.w3.org/2000/svg">
<path d="M10.8414 15.1806H7.06838L9.07789 8.62412L10.8414 15.1806ZM5.11139 22.406L6.39947 18.0885H11.4827L12.6878 22.3949H17.3868L12.7182 5.9761C12.4418 5.00589 11.8614 4.55811 10.8414 4.55811H4.17712V6.10877H4.72994C5.4265 6.10877 5.80242 6.38519 5.80242 6.91313C5.80242 7.26417 5.72502 7.55717 5.44861 8.356L0.771729 22.406H5.11139Z" fill="white"/>
<path d="M22.8234 22.406V5.92634C22.8234 5.0667 22.3203 4.55811 21.4883 4.55811H17.356V6.10877H17.6324C18.3262 6.10877 18.6219 6.40453 18.6219 7.10662V22.406H22.8234Z" fill="white"/>
<path d="M29.9664 22.406V5.92634C29.9664 5.0667 29.455 4.55811 28.6285 4.55811H24.51V6.10877H24.7864C25.483 6.10877 25.7787 6.40453 25.7787 7.10662V22.406H29.9664Z" fill="white"/>
<path d="M37.2934 6.18647C37.2934 4.98961 36.4061 4.25159 34.8859 4.25159C33.3656 4.25159 32.4728 4.97579 32.4728 6.18647C32.4728 7.39715 33.3877 8.12135 34.8859 8.12135C36.384 8.12135 37.2934 7.40268 37.2934 6.18647ZM37.2132 22.4063V10.3935C37.2132 9.53658 36.7047 9.03074 35.8727 9.03074H31.8066V10.551H32.0471C32.7409 10.551 33.0367 10.8716 33.0367 11.5682V22.4063H37.2132Z" fill="white"/>
<path d="M46.4128 15.9822V18.5832C45.7134 19.3046 44.8621 19.7469 44.1407 19.7469C43.4192 19.7469 43.1235 19.3765 43.1235 18.3648C43.1235 17.3532 43.3335 16.9247 44.0854 16.6345C44.834 16.3297 45.6148 16.1109 46.4128 15.9822ZM40.7629 12.8587C42.0469 12.2217 43.4518 11.8655 44.8842 11.8139C46.012 11.8139 46.4128 12.2147 46.4128 13.3839V13.6824C44.7018 13.9588 44.1655 14.0639 43.2009 14.2767C42.6605 14.3957 42.1316 14.5613 41.6198 14.7715C39.9309 15.4487 39.1321 16.7533 39.1321 18.7573C39.1321 21.3003 40.2377 22.5276 42.5015 22.5276C43.2716 22.5307 44.0352 22.3872 44.7515 22.1047C45.4013 21.8089 46.0054 21.4217 46.5454 20.9548V21.1428C46.5454 21.972 46.9711 22.3949 47.8031 22.3949H51.6314V20.9659H51.4435C50.722 20.9659 50.4567 20.6425 50.4567 19.7883V13.4171C50.4567 10.02 49.2764 8.83691 45.8738 8.83691C44.795 8.84229 43.7204 8.96932 42.6701 9.2156C41.6779 9.43688 40.7221 9.79798 39.8314 10.2881L40.7629 12.8587Z" fill="white"/>
<path d="M57.7259 22.4059V13.3617C58.4253 12.585 59.1439 12.2339 59.9732 12.2339C60.8604 12.2339 61.0788 12.585 61.0788 13.9311V22.4059H65.2526V13.3119C65.2526 11.1946 65.1006 10.5257 64.4234 9.80703C63.8706 9.1851 63.0054 8.87 61.9025 8.87C60.2689 8.87 59.1191 9.37583 57.5739 10.8215V10.288C57.5739 9.45875 57.14 9.03031 56.2858 9.03031H52.3193V10.5506H52.5598C53.2536 10.5506 53.5521 10.8712 53.5521 11.5678V22.4059H57.7259Z" fill="white"/>
<path d="M77.6336 19.5975H71.8096L77.3793 11.7889V9.02478H68.6447C67.6551 9.02478 67.199 9.4781 67.199 10.4704V12.9028H68.7497V12.6651C68.7497 12.0487 69.0704 11.7557 69.7365 11.7557H72.7383L67.1106 19.6528V22.4169H77.6142L77.6336 19.5975Z" fill="white"/>
<path d="M99.5442 22.0663V6.94382C99.5442 5.73866 99.1157 5.33234 97.9465 5.33234H94.4057V7.03227H94.6185C95.4257 7.03227 95.5832 7.2147 95.5832 8.18767V22.0663H99.5442ZM101.291 22.0663H105.222V10.2884C105.222 9.10536 104.766 8.67968 103.613 8.67968H101.291V22.0663ZM93.8473 22.0663V8.69074H91.5172C90.3646 8.69074 89.914 9.11641 89.914 10.2995V22.0663H93.8473ZM108.942 14.3793C108.942 21.0436 104.149 25.8891 97.5678 25.8891C90.9865 25.8891 86.1825 21.0436 86.1825 14.3793C86.1825 7.71501 90.9837 2.86951 97.5678 2.86951C104.152 2.86951 108.942 7.74265 108.942 14.3793ZM111.27 14.3793C111.27 6.54302 105.407 0.674805 97.5678 0.674805C89.7288 0.674805 83.8606 6.54302 83.8606 14.3793C83.8606 22.2156 89.7233 28.081 97.5678 28.081C105.412 28.081 111.27 22.2349 111.27 14.3793Z" fill="white"/>
</svg>
