<svg width="44" height="44" viewBox="0 0 44 44" fill="none" xmlns="http://www.w3.org/2000/svg">
<path d="M43.7616 20.7858C43.0746 9.45062 33.6287 0.405396 22.0645 0.405396C10.5004 0.405396 1.05441 9.45062 0.367432 20.7858C0.367432 21.2438 0.42468 21.7018 0.481928 22.1597C0.939914 25.9381 2.37112 29.4303 4.54655 32.3499C8.49669 37.7313 14.8512 41.2234 22.0645 41.2234C11.9888 41.2234 3.74508 33.3804 3.0581 23.5337C3.00085 23.0757 3.00085 22.6177 3.00085 22.1597C3.00085 21.7018 3.00085 21.2438 3.0581 20.7858C3.74508 10.9391 11.9888 3.09606 22.0645 3.09606C29.2778 3.09606 35.6324 6.58821 39.5825 11.9695C41.7579 14.8892 43.1891 18.3814 43.6471 22.1597C43.7044 22.6177 43.7616 23.0757 43.7616 23.4764C43.7616 23.0185 43.8189 22.5605 43.8189 22.1025C43.8189 21.7018 43.8189 21.2438 43.7616 20.7858Z" fill="white"/>
<path d="M0.368772 23.5338C1.05575 34.869 10.5017 43.9142 22.0659 43.9142C33.63 43.9142 43.076 34.869 43.763 23.5338C43.763 23.0758 43.7057 22.6179 43.6485 22.1599C43.1905 18.3815 41.7593 14.8893 39.5838 11.9697C35.6337 6.58834 29.2791 3.09619 22.0659 3.09619C32.1416 3.09619 40.3853 10.9392 41.0723 20.7859C41.1295 21.2439 41.1295 21.7019 41.1295 22.1599C41.1295 22.6179 41.1295 23.0758 41.0723 23.5338C40.3853 33.4378 32.1416 41.2235 22.0659 41.2235C14.8526 41.2235 8.49802 37.7314 4.54789 32.3501C2.37246 29.4304 0.941254 25.9383 0.483268 22.1599C0.42602 21.7019 0.368772 21.2439 0.368772 20.8432C0.368772 21.3011 0.311523 21.7591 0.311523 22.2171C0.311523 22.6179 0.311523 23.0758 0.368772 23.5338Z" fill="white"/>
<path d="M19.375 4.58398V10.5951H23.5541C24.5846 10.5951 25.3861 9.79358 25.3861 8.76311C25.3861 8.24788 25.1571 7.78987 24.8136 7.44638C25.0426 7.16014 25.2143 6.7594 25.2715 6.35866C25.2715 5.38544 24.4701 4.58398 23.4969 4.58398H19.375ZM20.7489 5.84344H23.2678C23.5541 5.84344 23.7831 6.07242 23.7831 6.35866C23.7831 6.6449 23.5541 6.87388 23.2678 6.87388H20.7489V5.84344ZM20.7489 8.13334H23.3251C23.6686 8.13334 23.8976 8.36235 23.8976 8.70584C23.8976 9.04933 23.6686 9.27833 23.3251 9.27833H20.7489V8.13334Z" fill="white"/>
<path d="M21.3803 11.74L18.4033 17.7511H19.9491L20.407 16.7206H23.7847L24.2427 17.7511H25.7883L22.7542 11.74H21.3803ZM22.0672 13.2857L23.0977 15.4612H21.0368L22.0672 13.2857Z" fill="white"/>
<path d="M24.1258 19.0682H25.8433L22.8091 22.9611V25.0793H21.3779V22.9611L18.3438 19.0682H20.0612L22.1221 21.8162L24.1258 19.0682Z" fill="white"/>
<path d="M33.9731 19.0682V25.0793H35.4043V22.7894H36.4921L38.2095 25.0793H39.927L38.1523 22.7321C38.8965 22.5032 39.469 21.8162 39.469 20.9575C39.469 19.927 38.6675 19.0682 37.6371 19.0682H33.9731ZM35.4616 20.3277H37.5226C37.8088 20.3277 38.0951 20.614 38.0951 20.9002C38.0951 21.1864 37.8661 21.4727 37.5226 21.4727H35.4616V20.3277Z" fill="white"/>
<path d="M4.71924 19.0682V25.0793H8.89837C9.92883 25.0793 10.7303 24.2778 10.7303 23.2474C10.7303 22.7321 10.5013 22.2741 10.1578 21.9306C10.3868 21.6444 10.5585 21.2437 10.6158 20.8429C10.6158 19.8697 9.81431 19.0682 8.84109 19.0682H4.71924ZM6.09316 20.3277H8.61208C8.89832 20.3277 9.12738 20.5567 9.12738 20.8429C9.12738 21.1292 8.89832 21.3581 8.61208 21.3581H6.09316V20.3277ZM6.09316 22.6176H8.66935C9.01284 22.6176 9.24185 22.8466 9.24185 23.1901C9.24185 23.5336 9.01284 23.7626 8.66935 23.7626H6.09316V22.6176Z" fill="white"/>
<path d="M14.5661 19.0682L11.5891 25.0793H13.1349L13.5928 24.0489H16.9705L17.4285 25.0793H18.9741L15.94 19.0682H14.5661ZM15.253 20.614L16.2835 22.7894H14.2226L15.253 20.614Z" fill="white"/>
<path d="M32.0829 19.0682V20.3603H28.0755V21.3716H31.9684V22.6637H28.0755V23.7872H32.0829V25.0793H26.6443V19.0682H32.0829Z" fill="white"/>
<path d="M19.3188 33.8379V39.849H20.75V37.5591H21.8378L23.5553 39.849H25.2727L23.498 37.5018C24.2422 37.2728 24.8147 36.5858 24.8147 35.7271C24.8147 34.6967 24.0132 33.8379 22.9828 33.8379H19.3188ZM20.8073 35.0973H22.8683C23.1545 35.0973 23.4408 35.3836 23.4408 35.6698C23.4408 35.9561 23.2118 36.2423 22.8683 36.2423H20.8073V35.0973Z" fill="white"/>
<path d="M24.8136 26.3822V27.6743H20.8062V28.6855H24.6991V29.9776H20.8062V31.1012H24.8136V32.3933H19.375V26.3822H24.8136Z" fill="white"/>
</svg>
