<svg width="121" height="30" viewBox="0 0 121 30" fill="none" xmlns="http://www.w3.org/2000/svg">
<g clip-path="url(#clip0_2601_7544)">
<path fill-rule="evenodd" clip-rule="evenodd" d="M47.5706 14.4638C48.344 14.1646 49.0075 13.6362 49.4724 12.9495C49.9372 12.2628 50.1812 11.4504 50.1717 10.6212C50.1717 7.16288 47.7184 5.44849 44.3487 5.44849H35.5107V24.2536H45.1172C48.0731 24.2536 50.9698 22.1845 50.9698 19.0217C50.9698 15.2619 47.5706 14.4993 47.5706 14.4638ZM40.1219 9.3502H43.5506C43.7702 9.33659 43.9903 9.36642 44.1983 9.43796C44.4063 9.50951 44.5982 9.62138 44.7629 9.76717C44.9276 9.91295 45.062 10.0898 45.1583 10.2876C45.2546 10.4853 45.311 10.7002 45.3242 10.9198C45.3242 10.9868 45.3242 11.0547 45.3242 11.1237C45.3148 11.586 45.1232 12.0259 44.791 12.3476C44.4588 12.6692 44.013 12.8466 43.5506 12.8411H40.0923L40.1219 9.3502ZM43.5802 20.3164H40.1514V16.6216H43.4915C45.1764 16.6216 45.9744 17.3605 45.9744 18.4542C45.9744 19.8198 44.9694 20.3164 43.5802 20.3164Z" fill="white"/>
<path fill-rule="evenodd" clip-rule="evenodd" d="M61.1362 4.97546C55.6974 4.97546 52.5051 9.32056 52.5051 14.8184C52.5051 20.3163 55.6974 24.6614 61.1362 24.6614C66.575 24.6614 69.7673 20.3459 69.7673 14.8184C69.7673 9.291 66.6045 4.97546 61.1362 4.97546ZM61.1362 20.1685C58.4759 20.1685 57.1458 17.7743 57.1458 14.8184C57.1458 11.8626 58.4759 9.49791 61.1362 9.49791C63.7965 9.49791 65.1561 11.8921 65.1561 14.8184C65.1561 17.8038 63.7965 20.1685 61.1362 20.1685Z" fill="white"/>
<path fill-rule="evenodd" clip-rule="evenodd" d="M79.7908 12.838L79.1405 12.6902C77.5444 12.3651 76.2734 11.9513 76.2734 10.7985C76.2734 9.55704 77.4853 9.05455 78.5494 9.05455C79.2754 9.06536 79.9913 9.22582 80.6525 9.52588C81.3137 9.82595 81.9058 10.2592 82.392 10.7985L85.3183 7.90177C83.9881 6.39429 81.8304 4.94592 78.4607 4.94592C74.4999 4.94592 71.4849 7.16281 71.4849 10.8576C71.4849 14.2273 73.9087 15.8826 76.8645 16.5033L77.5148 16.6511C79.9682 17.1536 80.8845 17.5378 80.8845 18.7202C80.8845 19.8434 79.8795 20.5823 78.3425 20.5823C76.5098 20.5823 74.8546 19.7843 73.5835 18.1586L70.5981 21.1144C72.2534 23.0948 74.3521 24.6319 78.4016 24.6319C81.919 24.6319 85.673 22.6219 85.673 18.5133C85.7321 14.2273 82.4806 13.3996 79.7908 12.838Z" fill="white"/>
<path fill-rule="evenodd" clip-rule="evenodd" d="M96.1955 20.1685C94.1264 20.1685 91.9686 18.4541 91.9686 14.7002C91.9686 11.3601 93.9786 9.49789 96.0772 9.49789C97.7325 9.49789 98.7079 10.2664 99.4764 11.5965L103.26 9.08407C101.368 6.2169 99.1217 5.005 96.0181 5.005C90.3429 5.005 87.2688 9.40921 87.2688 14.7297C87.2688 20.3163 90.668 24.6909 95.959 24.6909C99.6833 24.6909 101.457 23.3904 103.378 20.6119L99.5651 18.0462C98.7966 19.2817 97.969 20.1685 96.1955 20.1685Z" fill="white"/>
<path fill-rule="evenodd" clip-rule="evenodd" d="M115.881 5.44836V12.365H110.176V5.44836H105.24V24.2475H110.176V16.8284H115.881V24.2475H120.817V5.44836H115.881Z" fill="white"/>
<path d="M14.4715 0.659546C11.6537 0.659546 8.89917 1.49513 6.55624 3.06063C4.2133 4.62613 2.38721 6.85123 1.30887 9.45456C0.230538 12.0579 -0.0516032 14.9225 0.498127 17.6862C1.04786 20.4499 2.40477 22.9885 4.39727 24.981C6.38978 26.9735 8.92838 28.3304 11.6921 28.8801C14.4557 29.4299 17.3204 29.1477 19.9237 28.0694C22.527 26.9911 24.7521 25.165 26.3176 22.822C27.8831 20.4791 28.7187 17.7245 28.7187 14.9067C28.7187 11.1281 27.2177 7.50431 24.5458 4.83245C21.874 2.16058 18.2501 0.659546 14.4715 0.659546ZM14.4715 27.8238C11.9168 27.8238 9.41942 27.0662 7.29522 25.6468C5.17102 24.2275 3.51541 22.2101 2.53775 19.8499C1.56009 17.4896 1.30429 14.8924 1.8027 12.3867C2.30111 9.88107 3.53133 7.57947 5.33782 5.77299C7.1443 3.96651 9.44589 2.73628 11.9516 2.23787C14.4572 1.73947 17.0544 1.99527 19.4147 2.97293C21.775 3.95059 23.7923 5.6062 25.2117 7.73039C26.631 9.85459 27.3886 12.352 27.3886 14.9067C27.3878 18.3323 26.0267 21.6173 23.6044 24.0396C21.1822 26.4618 17.8971 27.823 14.4715 27.8238Z" fill="white"/>
<path d="M20.3543 6.00977H19.3789V10.8869H9.59503V6.00977H8.59004C7.11806 6.98085 5.91001 8.30198 5.07416 9.85475C4.23831 11.4075 3.80078 13.1434 3.80078 14.9069C3.80078 16.6703 4.23831 18.4062 5.07416 19.959C5.91001 21.5117 7.11806 22.8329 8.59004 23.804H9.59503V18.9327H19.3789V23.8099H20.3543C21.8269 22.8393 23.0356 21.5183 23.8719 19.9655C24.7082 18.4126 25.146 16.6765 25.146 14.9128C25.146 13.1491 24.7082 11.4129 23.8719 9.86009C23.0356 8.30726 21.8269 6.98629 20.3543 6.01568V6.00977ZM8.23534 21.8886C7.31862 21.074 6.57133 20.0869 6.03613 18.9836C5.50093 17.8802 5.18832 16.6822 5.11613 15.458C5.04394 14.2339 5.2136 13.0075 5.61541 11.8488C6.01722 10.6902 6.64332 9.62212 7.45795 8.7055C7.70212 8.43276 7.96167 8.17419 8.23534 7.93107V21.8886ZM19.3789 17.573H9.59503V12.217H19.3789V17.573ZM20.709 21.859V18.9032V10.8869V7.93107C21.6235 8.75221 22.3672 9.7455 22.8976 10.8542C23.4281 11.9629 23.7349 13.1652 23.8005 14.3925C23.8661 15.6198 23.6892 16.848 23.28 18.0069C22.8707 19.1658 22.2372 20.2327 21.4155 21.1467C21.1919 21.3938 20.9562 21.6296 20.709 21.8531V21.859Z" fill="white"/>
</g>
<defs>
<clipPath id="clip0_2601_7544">
<rect width="120.512" height="28.4086" fill="white" transform="translate(0.226562 0.737793)"/>
</clipPath>
</defs>
</svg>
