<svg width="43" height="47" viewBox="0 0 43 47" fill="none" xmlns="http://www.w3.org/2000/svg">
<path d="M6.92622 8.24967C6.60998 8.40401 5.97136 8.59411 5.0242 8.59411C2.4014 8.59411 0.89624 6.79015 0.89624 4.48858C0.89624 1.74861 2.81415 0.298706 5.1984 0.298706C6.12275 0.298706 6.61114 0.475602 6.92571 0.642756L6.63434 2.28135C6.28414 2.12625 5.9124 1.98499 5.27044 1.98499C4.13498 1.98499 2.93055 2.66027 2.93055 4.45833C2.93055 6.0668 3.89091 6.91757 5.27993 6.91757C5.8301 6.91757 6.20351 6.80963 6.63447 6.61184L6.92622 8.24967Z" fill="white"/>
<path d="M11.2813 2.33019C10.5747 2.33019 9.89099 2.65052 9.54284 3.16506H9.52143V0.326904L7.74414 0.942195V8.34683H9.52143V4.888C9.52143 4.38859 9.84613 3.85137 10.4689 3.85137C11.135 3.85137 11.3917 4.37577 11.3917 5.13861V8.34696H13.1705V4.89326C13.1705 3.13019 12.4143 2.33019 11.2813 2.33019Z" fill="white"/>
<path d="M15.8522 6.011C15.9176 6.76102 16.5397 7.15955 17.5009 7.16814C18.0802 7.17262 18.7537 7.00419 19.2023 6.73987L19.4705 8.12312C18.7952 8.4623 18.0238 8.59369 17.2385 8.59369C15.1229 8.59369 13.989 7.32132 13.989 5.372C13.989 3.48639 15.2083 2.26965 17.0355 2.26965C18.9185 2.26965 19.7626 3.65611 19.7626 5.39328C19.7626 5.57633 19.7401 5.87449 19.7198 6.011H15.8522ZM17.9875 4.7462C17.9875 4.31062 17.775 3.54894 16.9522 3.54894C16.2307 3.54894 15.8905 4.17 15.84 4.7462H17.9875Z" fill="white"/>
<path d="M21.8505 8.34709L19.8867 2.51721H21.8476L22.9145 6.64107H22.9504L24.0174 2.51721H25.979L24.0153 8.34709H21.8505Z" fill="white"/>
<path d="M26.4848 4.43444C26.4848 3.57675 26.4579 3.01722 26.4214 2.51704H28.0957L28.1465 3.60072H28.1915C28.4845 2.74303 29.0469 2.41718 29.6253 2.38437C29.9002 2.36835 30.049 2.38783 30.2193 2.42077V4.12539C30.0563 4.09347 29.7331 4.05591 29.5058 4.0768C28.8218 4.13974 28.4079 4.63723 28.2917 5.20996C28.2684 5.32866 28.2564 5.46044 28.2564 5.61465V8.34692H26.4855V4.43444H26.4848Z" fill="white"/>
<path d="M36.4623 5.43173C36.4623 7.34247 35.3111 8.59369 33.4456 8.59369C31.5797 8.59369 30.4277 7.34247 30.4277 5.43173C30.4277 3.52074 31.5797 2.26965 33.4456 2.26965C35.3111 2.26965 36.4623 3.52087 36.4623 5.43173ZM34.6197 5.43173C34.6197 4.48303 34.2936 3.65726 33.4456 3.65726C32.5965 3.65726 32.2721 4.48291 32.2721 5.43173C32.2721 6.38133 32.5965 7.20582 33.4456 7.20582C34.2938 7.20582 34.6197 6.38133 34.6197 5.43173Z" fill="white"/>
<path d="M37.2551 4.37566C37.2551 3.64808 37.2285 3.02689 37.1909 2.51697H38.8653L38.9036 3.33261H38.9395C39.1714 2.95331 39.785 2.3302 40.7424 2.3302C41.9142 2.3302 42.6791 3.13021 42.6791 4.84635V8.34697H40.9033V5.11426C40.9033 4.36412 40.6459 3.85125 40.0033 3.85125C39.5106 3.85125 39.2046 4.19774 39.091 4.52986C39.049 4.65151 39.0318 4.81674 39.0318 4.98364V8.34685H37.2551V4.37566Z" fill="white"/>
<path d="M0.960693 23.8014V9.89709L21.8224 16.8496L0.960693 23.8014Z" fill="#DADADA"/>
<path d="M0.96582 23.8022L21.8223 30.754L42.6775 23.8022V9.89856L21.8223 16.8494L0.96582 23.8022Z" fill="white"/>
<path d="M0.960779 39.9633L0.958984 26.0546L21.8193 33.0067L0.960779 39.9633Z" fill="#DADADA"/>
<path d="M42.677 26.0546L21.8148 33.0045L0.962646 39.9608L21.8188 46.9143L42.677 39.9586V26.0546Z" fill="white"/>
</svg>
