<svg width="151" height="28" viewBox="0 0 151 28" fill="none" xmlns="http://www.w3.org/2000/svg">
<path d="M10.1809 23.6523C15.0567 23.6523 19.2601 21.2514 19.2601 17.0337C19.2601 7.68949 5.67498 12.1668 5.67498 5.19123C5.67498 3.34192 6.91918 1.84943 9.47491 1.84943C14.3842 1.84943 13.1401 7.62465 16.7717 7.62465C18.2176 7.62465 18.9238 6.84593 18.9238 5.61301C18.9574 2.92014 15.2249 0 9.57559 0C4.02735 0 0.664792 2.85519 0.664792 6.74856C0.69839 16.3522 14.2833 11.6154 14.2833 18.526C14.2833 20.5053 12.7366 21.803 10.3827 21.803C4.69991 21.803 5.60778 15.898 2.24522 15.8332C0.8665 15.8332 0.227539 16.6767 0.227539 17.8123C0.227539 20.4079 3.79193 23.6523 10.1809 23.6523ZM36.2116 20.0185V8.14368C36.2116 7.59223 35.808 7.46244 34.9339 7.5597L30.6296 8.1761C30.2261 8.24105 29.957 8.53304 29.957 8.85756V8.95482C29.957 9.6687 31.3022 9.993 31.3022 11.4206V18.0069C31.3022 20.3105 30.0244 21.803 28.4103 21.803C26.5609 21.803 25.6193 20.4079 25.6193 17.3905L25.7202 8.14368C25.7202 7.59223 25.2159 7.46244 24.3416 7.5597L20.1047 8.1761C19.6675 8.24105 19.3985 8.53304 19.3985 8.85756V8.95482C19.3985 9.6687 20.7099 9.993 20.7099 11.4206V16.9039C20.7099 21.3488 23.5008 23.6523 26.9644 23.6523C29.2846 23.6523 30.9323 22.8413 31.8402 21.4138C31.941 23.0035 32.9163 23.5227 34.833 23.5227C36.716 23.5227 37.8256 23.3279 37.8256 22.5817C37.8256 21.3812 36.2116 22.5817 36.2116 20.0185ZM52.6871 7.75444C49.2572 7.75444 48.1475 7.42991 45.9954 7.42991C41.2878 7.42991 38.026 10.1877 38.026 14.2433C38.026 17.9421 41.3887 20.6675 45.8945 20.6675C46.3317 20.6675 46.7689 20.635 47.206 20.6025C48.5175 20.8621 49.2908 21.9652 49.2908 23.5875C49.2908 25.4045 47.9794 26.6373 45.8945 26.6373C41.9603 26.5725 42.7001 21.7056 39.9428 21.7056C38.564 21.7056 37.9588 22.6141 37.9588 23.5227C37.9588 26.0533 40.8506 28 45.7936 28C50.5686 28 54.2338 26.2155 54.2338 23.4577C54.2338 21.7381 53.1915 20.4079 50.1987 19.7589C52.519 18.6884 53.9648 16.6767 53.9648 14.1135C53.9648 12.5562 53.1578 11.0313 52.0817 9.96058C53.1242 9.6687 54.402 9.79837 54.6373 8.72766C54.8392 8.14368 54.5028 7.75444 52.6871 7.75444ZM42.7674 12.102C42.7674 10.1228 43.7088 8.85756 45.2557 8.85756C47.6095 8.85756 49.19 12.8482 49.19 15.963C49.19 17.8771 48.2484 19.2075 46.6344 19.2075C44.5159 19.2075 42.7674 15.5412 42.7674 12.102ZM70.3701 20.0834L69.6304 14.0811C69.1596 9.993 66.2005 7.42991 61.8292 7.42991C58.332 7.42991 55.3729 8.79261 55.3729 11.1287C55.3729 12.2318 56.1799 12.9456 57.3905 12.9456C59.9124 12.9456 59.139 8.79261 61.8292 8.79261C63.8803 8.79261 64.4184 10.6095 64.8219 14.4055L64.8555 14.7949C63.9812 14.2109 62.737 13.8215 61.1902 13.8215C57.8948 13.8215 55.0703 15.5088 55.1039 18.7532C55.1039 21.9976 57.794 23.6523 61.4256 23.6523C63.7459 23.6523 65.1581 22.8413 65.898 21.7705C66.0996 23.1657 66.974 23.5227 68.8906 23.5227C70.5047 23.5227 72.1188 23.3279 72.1188 22.5817C72.1188 21.7056 70.6392 22.3222 70.3701 20.0834ZM62.9051 22.2248C61.1902 22.2248 60.0805 20.2457 60.0805 18.0069C60.0805 16.3522 61.123 15.2816 62.5353 15.2816C63.914 15.2816 64.99 16.2549 65.1917 18.1692L65.2926 19.3048C65.3935 20.7648 64.452 22.2248 62.9051 22.2248ZM82.1102 7.42991C79.8573 7.42991 78.2769 8.56546 77.537 10.6419V8.20852C77.537 7.59223 77.2344 7.20287 76.461 7.5597L72.4259 9.3766C71.9888 9.57133 71.7197 9.83079 71.7197 10.1553V10.2851C71.7197 11.0962 73.2665 11.1936 73.2665 12.6211V20.2131C73.2665 21.576 71.9552 21.8354 71.9552 22.6466V22.7763C71.9552 23.1333 72.2578 23.3279 72.7284 23.3279H78.9493C79.3865 23.3279 79.6891 23.1333 79.6891 22.7763V22.6466C79.6891 21.8354 78.0079 21.576 78.0079 20.2131V13.7243C78.0079 11.9397 78.4786 10.1553 79.79 10.1553C81.6058 10.1553 80.429 12.9456 83.0516 12.9456C84.6658 12.9456 85.2037 11.7452 85.2037 10.3824C85.2037 8.72766 84.0941 7.42991 82.1102 7.42991ZM93.0339 23.6523C97.4065 23.6523 99.6933 21.0244 99.8944 18.3638C99.9606 17.6502 99.1207 17.5204 98.7173 18.0394C98.0122 19.2075 96.7333 20.3105 94.6819 20.3105C91.2523 20.3105 88.9654 17.4879 88.9654 13.1727C88.9654 10.7717 90.1769 8.85756 92.0922 8.85756C95.0191 8.82503 94.8168 13.4323 97.7093 13.5945C99.2555 13.6594 99.7938 12.8158 99.7938 11.9722C99.7938 9.44155 96.7002 7.39749 92.8316 7.42991C88.2935 7.46244 84.3589 10.5121 84.3589 15.5088C84.3589 19.8887 87.9563 23.6523 93.0339 23.6523ZM115.559 20.0834L114.82 14.0811C114.349 9.993 111.39 7.42991 107.019 7.42991C103.522 7.42991 100.562 8.79261 100.562 11.1287C100.562 12.2318 101.368 12.9456 102.58 12.9456C105.101 12.9456 104.328 8.79261 107.019 8.79261C109.07 8.79261 109.607 10.6095 110.011 14.4055L110.045 14.7949C109.171 14.2109 107.926 13.8215 106.38 13.8215C103.084 13.8215 100.26 15.5088 100.293 18.7532C100.293 21.9976 102.983 23.6523 106.615 23.6523C108.934 23.6523 110.347 22.8413 111.087 21.7705C111.288 23.1657 112.164 23.5227 114.079 23.5227C115.694 23.5227 117.308 23.3279 117.308 22.5817C117.308 21.7056 115.829 22.3222 115.559 20.0834ZM108.094 22.2248C106.38 22.2248 105.27 20.2457 105.27 18.0069C105.27 16.3522 106.312 15.2816 107.725 15.2816C109.103 15.2816 110.179 16.2549 110.381 18.1692L110.481 19.3048C110.582 20.7648 109.64 22.2248 108.094 22.2248ZM134.495 20.1807L134.091 14.3407C133.688 9.18197 130.729 7.42991 127.669 7.42991C125.383 7.42991 123.6 8.40325 122.693 10.0579V8.24105C122.693 7.62465 122.324 7.17034 121.549 7.5597L117.548 9.44155C117.144 9.63617 116.876 9.79837 116.876 10.1228V10.2526C116.876 11.0638 118.523 11.1936 118.523 12.6536V20.2131C118.523 21.6084 117.077 21.8678 117.077 22.679V22.8088C117.077 23.1333 117.38 23.3604 117.849 23.3604H124.105C124.575 23.3604 124.878 23.1333 124.878 22.8088V22.679C124.878 21.8678 123.432 21.6084 123.432 20.2131V12.8482C123.432 10.7393 124.474 9.27934 126.29 9.27934C128.073 9.27934 129.049 10.7069 129.216 14.1785L129.552 20.1807C129.62 21.6084 128.342 21.8678 128.342 22.679V22.8088C128.342 23.1333 128.645 23.3604 129.116 23.3604H134.933C135.403 23.3604 135.706 23.1333 135.706 22.8088V22.679C135.706 21.8678 134.597 21.6084 134.495 20.1807ZM149.579 18.3962C148.94 19.4021 147.527 20.2781 145.746 20.2781C143.727 20.2781 142.181 19.2399 141.307 17.4554L148.772 14.1785C149.68 13.7891 150.251 13.1403 150.251 12.0371C150.251 9.89574 148.302 7.42991 143.896 7.42991C139.491 7.42991 135.758 10.7069 135.758 15.4114C135.758 20.4079 139.222 23.6523 143.896 23.6523C148.234 23.6523 150.52 20.635 150.723 18.7532C150.756 18.0718 149.982 17.9096 149.579 18.3962ZM143.291 8.85756C145.107 8.85756 145.981 11.1611 145.981 12.329C145.981 13.0105 145.712 13.5621 145.107 13.8539L140.769 15.963C140.534 15.1194 140.433 14.1785 140.433 13.1727C140.433 10.7069 141.509 8.85756 143.291 8.85756Z" fill="white"/>
</svg>
