<svg width="123" height="26" viewBox="0 0 123 26" fill="none" xmlns="http://www.w3.org/2000/svg">
<path d="M28.7178 15.4697L31.9424 14.6201C31.9957 15.3051 32.3276 15.942 32.866 16.3923C33.4964 16.897 34.3015 17.1532 35.1199 17.1097C35.7298 17.1432 36.3345 16.984 36.8421 16.6566C37.0329 16.534 37.1895 16.3682 37.2982 16.1737C37.4069 15.9791 37.4643 15.7619 37.4655 15.5409C37.4664 15.3577 37.4255 15.1767 37.3454 15.0105C37.2654 14.8444 37.1482 14.6973 37.0024 14.5798C36.6052 14.2767 36.1306 14.0822 35.6284 14.0167L33.313 13.5155C32.1223 13.304 31.0332 12.7307 30.205 11.8798C29.4888 11.1069 29.1005 10.1026 29.1177 9.06661C29.1171 8.41984 29.2666 7.78111 29.5549 7.19712C29.8434 6.61313 30.2635 6.09862 30.7848 5.69121C31.9129 4.74603 33.3682 4.24349 34.8625 4.28292C35.6218 4.27459 36.3782 4.37556 37.1067 4.58238C37.6919 4.74163 38.2465 4.99113 38.7487 5.32131C39.1624 5.60804 39.5286 5.95315 39.8353 6.34516C40.106 6.67964 40.3316 7.04591 40.5067 7.43514C40.6451 7.75661 40.7435 8.09281 40.7997 8.43659L37.7353 9.28625C37.7012 9.0423 37.6273 8.80514 37.5163 8.5834C37.389 8.32882 37.2263 8.09205 37.0328 7.87968C36.7929 7.62454 36.493 7.42882 36.1582 7.3089C35.7451 7.15568 35.3051 7.08103 34.8625 7.08926C34.2795 7.06868 33.708 7.24841 33.2497 7.59649C33.0531 7.73612 32.8928 7.91787 32.7815 8.12737C32.6703 8.33696 32.611 8.56856 32.6086 8.80399C32.6063 8.99014 32.6435 9.17476 32.7179 9.34654C32.7923 9.51833 32.9024 9.67366 33.0413 9.80286C33.3602 10.0956 33.764 10.2878 34.1991 10.3539L36.5581 10.8216C37.7891 11.0163 38.9278 11.5725 39.8183 12.4144C40.5623 13.158 40.97 14.1554 40.9519 15.1881C40.9518 15.8103 40.8263 16.4265 40.5824 17.0025C40.3294 17.5975 39.9695 18.1448 39.519 18.6193C39.0081 19.1425 38.3818 19.5484 37.6864 19.8071C36.8779 20.1172 36.014 20.2709 35.1439 20.2593C34.1659 20.2742 33.194 20.1093 32.2799 19.7736C31.5251 19.5073 30.8425 19.0798 30.2834 18.5233C29.836 18.067 29.4615 17.5493 29.172 16.987C28.9305 16.5104 28.7768 15.997 28.7178 15.4697Z" fill="white"/>
<path d="M40.9614 7.90624V4.75317H41.7629C42.0941 4.77613 42.4265 4.72972 42.7374 4.61717C43.0483 4.50452 43.3301 4.32843 43.5635 4.10084C43.9858 3.62423 44.2039 3.01048 44.1736 2.38448V0.106812H47.5398V4.75317H50.7795V7.90624H47.5398V14.923C47.5146 15.1833 47.5439 15.4459 47.6259 15.6951C47.7079 15.9445 47.841 16.1753 48.0171 16.3742C48.4418 16.7081 48.9851 16.8689 49.531 16.8222C49.9619 16.823 50.3918 16.7823 50.8143 16.7003V19.6457C50.0801 19.897 49.3022 20.0089 48.5239 19.9752C47.8973 20.0085 47.2702 19.9199 46.68 19.7146C46.0897 19.5094 45.5483 19.1918 45.0882 18.7807C44.6565 18.3427 44.3224 17.8242 44.1066 17.2571C43.8909 16.6901 43.7978 16.0864 43.8334 15.4834V7.90624H40.9614Z" fill="white"/>
<path d="M51.702 15.7595C51.6751 15.1823 51.7772 14.6062 52.0013 14.0704C52.2255 13.5345 52.5665 13.0513 53.0012 12.6536C53.9566 11.8397 55.148 11.3278 56.4146 11.1869L60.4221 10.5981C61.1939 10.5043 61.5798 10.1658 61.5798 9.58279C61.5875 9.28812 61.5251 8.99574 61.3973 8.72786C61.2694 8.46008 61.0796 8.22408 60.8424 8.03803C60.2008 7.59377 59.4174 7.38102 58.6294 7.43729C57.8058 7.39652 56.9979 7.66641 56.3772 8.19C55.8176 8.69025 55.4731 9.37473 55.4119 10.108L52.0279 9.38459C52.0983 8.68499 52.3114 8.00558 52.6547 7.38551C52.9981 6.76535 53.4651 6.21658 54.0289 5.77069C55.3037 4.75067 56.9249 4.22124 58.5804 4.28421C59.629 4.26574 60.6729 4.42346 61.6653 4.75029C62.4638 5.00726 63.1856 5.44721 63.7687 6.03245C64.2765 6.5615 64.6668 7.18501 64.9157 7.8647C65.1697 8.57665 65.2956 9.32525 65.288 10.0781V17.3806C65.275 18.1891 65.3429 18.997 65.491 19.793H61.9752C61.824 19.1652 61.7641 18.5202 61.797 17.8766C61.3284 18.5771 60.69 19.1571 59.9367 19.5665C59.0343 20.0516 58.0122 20.2915 56.9793 20.2607C55.5752 20.3204 54.2033 19.8447 53.1606 18.9366C52.6967 18.5377 52.3266 18.0478 52.0749 17.4999C51.8234 16.9519 51.6962 16.3586 51.702 15.7595ZM55.4119 15.5019C55.4073 15.7595 55.4586 16.015 55.5625 16.2522C55.6665 16.4895 55.8209 16.7031 56.0157 16.8794C56.242 17.0752 56.5063 17.2259 56.7933 17.3228C57.0804 17.4197 57.3845 17.461 57.6881 17.444C58.1927 17.4496 58.6951 17.3808 59.178 17.2398C59.6264 17.1051 60.0445 16.8902 60.4105 16.6064C60.8058 16.2867 61.1041 15.8697 61.2734 15.3998C61.4904 14.8064 61.5942 14.1802 61.5798 13.5513V12.8723L57.5109 13.4732C56.9479 13.5435 56.4185 13.7711 55.9881 14.128C55.7949 14.3028 55.6433 14.516 55.5438 14.7527C55.4445 14.9895 55.3994 15.2442 55.4119 15.4993V15.5019Z" fill="white"/>
<path d="M67.7964 19.7957V4.75461H71.3823V6.62899C71.8256 5.8822 72.4991 5.28692 73.3095 4.92544C74.1417 4.52636 75.0582 4.31839 75.9876 4.31782C76.9815 4.3004 77.9625 4.52971 78.8373 4.98373C79.6635 5.41717 80.3202 6.0984 80.707 6.92414C81.2198 6.08404 81.9637 5.39631 82.8554 4.93655C83.7472 4.47678 84.7529 4.26269 85.7627 4.31782C86.4501 4.31284 87.1335 4.42768 87.7782 4.6568C88.412 4.88592 88.9942 5.22902 89.4952 5.66773C90.0466 6.16606 90.4672 6.78393 90.7211 7.47004C91.0356 8.2908 91.1883 9.16056 91.1734 10.0352V19.7957H87.683V10.5785C87.7256 9.76292 87.4598 8.96006 86.9341 8.3196C86.6494 8.02474 86.2993 7.79524 85.9105 7.64814C85.5207 7.50114 85.1021 7.44027 84.6855 7.47004C84.2471 7.45558 83.8106 7.53435 83.4069 7.70068C83.0032 7.86711 82.6432 8.11719 82.3516 8.43292C81.7465 9.08878 81.4241 9.94323 81.4529 10.8205V19.7957H77.7433V10.5785C77.7829 9.76675 77.5201 8.96809 77.0013 8.32735C76.7176 8.02876 76.3665 7.79639 75.9757 7.64766C75.5849 7.49894 75.1643 7.43797 74.7458 7.46917C74.3054 7.45176 73.8679 7.52726 73.4613 7.69034C73.0556 7.85342 72.6916 8.10015 72.395 8.4132C71.7919 9.07816 71.4765 9.94055 71.5122 10.823V19.7982L67.7964 19.7957Z" fill="white"/>
<path d="M93.8462 25.6664V4.75434H97.4626V6.7695C97.9189 6.0365 98.5864 5.44705 99.3839 5.07275C100.322 4.61528 101.362 4.38693 102.412 4.4077C103.408 4.36148 104.402 4.53489 105.318 4.91474C106.234 5.2945 107.048 5.87074 107.698 6.59952C109.029 8.19664 109.712 10.2053 109.622 12.2517C109.706 14.3234 108.99 16.3517 107.612 17.9435C106.955 18.6763 106.135 19.2573 105.213 19.6435C104.291 20.0297 103.291 20.2113 102.286 20.1747C101.303 20.193 100.328 19.9939 99.4365 19.5929C98.6866 19.2654 98.0379 18.7552 97.5539 18.1125V25.6647L93.8462 25.6664ZM97.5251 12.2543C97.4636 13.5053 97.8802 14.7345 98.6965 15.7087C99.0645 16.1326 99.5257 16.4711 100.048 16.6985C100.57 16.9259 101.14 17.0364 101.712 17.0217C102.286 17.0374 102.857 16.9282 103.381 16.7022C103.905 16.4762 104.369 16.1392 104.74 15.7163C105.559 14.7404 105.976 13.5079 105.912 12.2543C105.973 11.0213 105.558 9.81012 104.748 8.85403C104.374 8.43379 103.906 8.09998 103.38 7.87718C102.855 7.65438 102.283 7.54824 101.709 7.56671C101.138 7.55149 100.569 7.66021 100.047 7.88493C99.5257 8.10974 99.0625 8.4448 98.6936 8.86523C97.8832 9.81605 97.4666 11.0225 97.5251 12.2517V12.2543Z" fill="white"/>
<path d="M109.892 15.4697L113.117 14.62C113.17 15.3051 113.503 15.942 114.04 16.3923C114.671 16.897 115.476 17.1533 116.296 17.1097C116.905 17.143 117.51 16.9839 118.017 16.6566C118.208 16.534 118.364 16.3682 118.473 16.1737C118.582 15.9791 118.64 15.7619 118.641 15.5409C118.642 15.3577 118.6 15.1767 118.521 15.0105C118.44 14.8444 118.323 14.6973 118.177 14.5798C117.781 14.2767 117.305 14.0821 116.804 14.0167L114.489 13.5155C113.298 13.3042 112.209 12.7309 111.382 11.8798C110.665 11.1074 110.276 10.1028 110.293 9.06661C110.293 8.41984 110.443 7.78111 110.73 7.19712C111.019 6.61313 111.439 6.09862 111.96 5.69121C113.089 4.74603 114.544 4.24349 116.038 4.28292C116.798 4.27459 117.553 4.37556 118.282 4.58238C118.868 4.74144 119.422 4.99103 119.924 5.32131C120.338 5.60823 120.705 5.95334 121.012 6.34516C121.282 6.67984 121.507 7.0461 121.683 7.43514C121.821 7.75661 121.919 8.09281 121.975 8.43658L118.911 9.28625C118.878 9.0424 118.803 8.80514 118.693 8.5834C118.565 8.32892 118.402 8.09224 118.208 7.87968C117.968 7.62453 117.668 7.42882 117.334 7.3089C116.921 7.15558 116.48 7.08093 116.038 7.08926C115.456 7.06868 114.884 7.24851 114.426 7.59649C114.23 7.73593 114.069 7.91768 113.958 8.12727C113.846 8.33676 113.786 8.56846 113.784 8.80399C113.782 8.99014 113.819 9.17475 113.893 9.34654C113.968 9.51833 114.078 9.67366 114.217 9.80286C114.536 10.0954 114.94 10.2876 115.374 10.3539L117.733 10.8216C118.964 11.0161 120.104 11.5724 120.994 12.4144C121.737 13.1583 122.145 14.1556 122.127 15.1881C122.127 15.8103 122.001 16.4267 121.757 17.0025C121.504 17.5977 121.144 18.1451 120.694 18.6193C120.183 19.1426 119.557 19.5484 118.861 19.8071C118.053 20.1172 117.189 20.2708 116.32 20.2593C115.342 20.2743 114.368 20.1094 113.455 19.7736C112.7 19.5071 112.018 19.0796 111.459 18.5233C111.012 18.067 110.637 17.5493 110.347 16.987C110.106 16.5103 109.953 15.9969 109.892 15.4697Z" fill="white"/>
<path d="M1.77718 4.47918C1.79335 4.43813 1.80496 4.39564 1.8119 4.35219C1.92448 3.58033 2.33661 2.87834 2.96517 2.38776C3.41033 2.0458 3.94278 1.82549 4.50666 1.75008C4.54396 1.74472 4.58066 1.73582 4.61617 1.72347C4.72686 1.71247 4.83805 1.70701 4.94924 1.7072C5.71716 1.70289 6.46009 1.96943 7.03806 2.45666C7.61604 2.94399 7.98899 3.61823 8.08659 4.35219C8.09701 4.46856 8.15275 4.5769 8.24261 4.65518C8.33248 4.73357 8.44982 4.77615 8.57103 4.77443H8.68599C8.8073 4.77654 8.92484 4.73414 9.0148 4.65566C9.10486 4.57728 9.16041 4.46875 9.17043 4.35219C9.26377 3.61995 9.63265 2.94629 10.2071 2.45877C10.7817 1.97115 11.5218 1.70376 12.2872 1.7072C13.0552 1.70289 13.7981 1.96943 14.3761 2.45666C14.954 2.94399 15.327 3.61823 15.4246 4.35219C15.4349 4.46856 15.4906 4.5769 15.5806 4.65518C15.6705 4.73357 15.7878 4.77615 15.909 4.77443H15.9981C16.1194 4.77654 16.237 4.73414 16.327 4.65566C16.417 4.57728 16.4726 4.46875 16.4825 4.35219C16.5795 3.62148 16.9495 2.94992 17.5232 2.46307C18.0969 1.97622 18.835 1.70749 19.5994 1.7072C20.4254 1.7071 21.2186 2.01882 21.8088 2.57572C22.3877 3.14564 22.7116 3.91165 22.7109 4.70926C22.711 5.44608 22.4322 6.15774 21.9267 6.71072C21.4213 7.2637 20.724 7.62001 19.9655 7.71294C19.8445 7.72251 19.7319 7.7761 19.6505 7.86281C19.5691 7.94962 19.5251 8.06293 19.5272 8.17988V8.26564C19.5255 8.38249 19.5697 8.49552 19.651 8.58222C19.7324 8.66884 19.8446 8.72252 19.9655 8.73248C20.7271 8.82617 21.427 9.18535 21.9328 9.74226C22.4386 10.2991 22.7154 11.0151 22.7109 11.7551C22.7145 12.493 22.4368 13.2064 21.9308 13.76C21.4247 14.3138 20.7253 14.6691 19.9655 14.7589C19.8445 14.7685 19.7319 14.8221 19.6505 14.9088C19.5691 14.9955 19.5251 15.1089 19.5272 15.2257V15.3373C19.5257 15.4541 19.57 15.5671 19.6512 15.6536C19.7326 15.7402 19.8447 15.794 19.9655 15.8042C20.7271 15.8979 21.427 16.257 21.9328 16.814C22.4386 17.3708 22.7154 18.0867 22.7109 18.8268C22.7109 18.9263 22.7056 19.0242 22.6958 19.1212C22.6794 19.1623 22.6674 19.2047 22.6602 19.2482C22.5483 20.0201 22.1365 20.7223 21.5078 21.2126C21.0623 21.5547 20.5295 21.7749 19.9655 21.8503C19.9286 21.8559 19.8923 21.8646 19.8568 21.876C19.7459 21.8874 19.6344 21.8932 19.5229 21.8932C18.7551 21.8975 18.0122 21.6309 17.4344 21.1436C16.8566 20.6564 16.4838 19.9822 16.3864 19.2482C16.376 19.1318 16.3203 19.0236 16.2304 18.9452C16.1405 18.8668 16.0231 18.8242 15.9019 18.8259H15.7861C15.6648 18.8238 15.5473 18.8663 15.4572 18.9447C15.3673 19.0232 15.3116 19.1316 15.3017 19.2482C15.2086 19.9804 14.8397 20.6544 14.2652 21.1419C13.6907 21.6295 12.9503 21.8968 12.1849 21.8932C11.417 21.8976 10.674 21.6309 10.0961 21.1437C9.51808 20.6564 9.14513 19.9822 9.04753 19.2482C9.03712 19.1318 8.98137 19.0236 8.89151 18.9452C8.80164 18.8668 8.6842 18.8242 8.56309 18.8259H8.47402C8.35271 18.8238 8.23507 18.8663 8.14511 18.9447C8.05515 19.0232 7.9995 19.1316 7.98948 19.2482C7.89287 19.9791 7.523 20.6508 6.94929 21.1378C6.37548 21.6247 5.63722 21.8933 4.87267 21.8932C4.04494 21.8943 3.24974 21.5824 2.65788 21.0247C2.07931 20.4545 1.75576 19.6886 1.75665 18.8912C1.75665 18.1544 2.03527 17.4429 2.54054 16.8899C3.04581 16.3371 3.74291 15.9806 4.50131 15.8874C4.62242 15.8781 4.73519 15.8246 4.81683 15.7379C4.89836 15.651 4.9426 15.5376 4.94032 15.4206V15.3347C4.9419 15.2179 4.89747 15.1048 4.81603 15.0182C4.7346 14.9315 4.62212 14.8779 4.50131 14.8679C3.73973 14.774 3.04016 14.4147 2.53449 13.8579C2.02893 13.3011 1.75219 12.5852 1.75665 11.8453C1.75298 11.1075 2.03041 10.3941 2.53628 9.84045C3.04224 9.2867 3.74142 8.93126 4.50131 8.84149C4.62242 8.83211 4.73519 8.77861 4.81683 8.6919C4.89836 8.60519 4.9426 8.49169 4.94032 8.37464V8.26305C4.9419 8.1462 4.89747 8.03307 4.81603 7.94646C4.7346 7.85985 4.62212 7.80616 4.50131 7.7962C3.73973 7.70232 3.04016 7.34304 2.53449 6.78623C2.02893 6.22942 1.75219 5.51346 1.75665 4.77357C1.75665 4.67404 1.76201 4.57623 1.77183 4.47918H1.77718ZM4.50934 0.769203C4.47076 0.759537 4.43148 0.752931 4.3918 0.74939C3.34189 0.890458 2.3859 1.40813 1.71489 2.19893C1.20804 2.78081 0.882102 3.48883 0.774482 4.24145C0.777061 4.27418 0.782418 4.30663 0.790452 4.3385C0.776863 4.46818 0.77002 4.59853 0.77002 4.72897C0.776467 5.45259 0.982879 6.16147 1.36803 6.78269C1.75328 7.40381 2.30338 7.91488 2.9616 8.26305C2.30318 8.61141 1.75308 9.12257 1.36783 9.74388C0.98268 10.3652 0.776268 11.0743 0.77002 11.7981C0.776467 12.5217 0.982879 13.2306 1.36803 13.8517C1.75328 14.4729 2.30338 14.984 2.9616 15.3322C2.29931 15.676 1.74594 16.1861 1.36009 16.8085C0.97425 17.4308 0.770317 18.1421 0.77002 18.8671C0.77002 18.9796 0.775276 19.0903 0.784203 19.201C0.771507 19.2521 0.76734 19.3049 0.771804 19.3572C0.894104 20.2407 1.31615 21.0605 1.97219 21.6889C2.62426 22.3212 3.4749 22.7279 4.3918 22.8458C4.44645 22.8501 4.50141 22.8461 4.55477 22.8339C4.66874 22.8432 4.78449 22.8475 4.90114 22.8475C5.65329 22.8473 6.39135 22.6508 7.03707 22.279C7.68269 21.9071 8.21187 21.3737 8.56835 20.7354C8.9296 21.37 9.45976 21.9002 10.1044 22.2714C10.749 22.6426 11.4847 22.8415 12.2356 22.8475C12.9866 22.8417 13.7225 22.6428 14.3673 22.2716C15.0121 21.9004 15.5424 21.3701 15.9037 20.7354C16.2649 21.37 16.7951 21.9002 17.4397 22.2714C18.0843 22.6426 18.82 22.8415 19.5709 22.8475C19.7036 22.8475 19.8381 22.8415 19.9646 22.8295C20.0033 22.8393 20.043 22.8456 20.083 22.8484C21.1311 22.7072 22.0853 22.1899 22.7545 21.3997C23.2617 20.8179 23.588 20.1099 23.6959 19.3572C23.6932 19.3245 23.6878 19.2921 23.6799 19.2603C23.6932 19.1315 23.6994 19.0028 23.6994 18.8698C23.6932 18.1462 23.487 17.4373 23.1018 16.8162C22.7168 16.1949 22.1669 15.6839 21.5087 15.3356C22.167 14.9872 22.717 14.4761 23.1021 13.8548C23.4872 13.2334 23.6934 12.5244 23.6994 11.8007C23.6932 11.077 23.487 10.3682 23.1018 9.74704C22.7168 9.12582 22.1669 8.61476 21.5087 8.26649C22.1708 7.92253 22.7241 7.41243 23.1097 6.79006C23.4954 6.1677 23.6991 5.45642 23.6994 4.73155C23.6994 4.6191 23.695 4.50751 23.686 4.39764C23.6979 4.34644 23.7021 4.2939 23.6985 4.24145C23.5765 3.35762 23.1541 2.53763 22.4973 1.90971C21.8458 1.2772 20.9952 0.870361 20.0785 0.752836C20.0239 0.748529 19.9688 0.752549 19.9156 0.764895C19.8016 0.75542 19.6857 0.751113 19.5691 0.751113C18.8169 0.7514 18.079 0.947881 17.4333 1.31979C16.7876 1.6916 16.2585 2.22496 15.9019 2.86322C15.5406 2.2286 15.0103 1.6983 14.3655 1.32706C13.7207 0.955827 12.9848 0.757047 12.2338 0.751113C11.4829 0.757142 10.7472 0.956017 10.1026 1.32725C9.45797 1.69849 8.92781 2.22869 8.56656 2.86322C8.20532 2.2286 7.67495 1.6983 7.03023 1.32706C6.3854 0.955827 5.64952 0.757047 4.89846 0.751113C4.76585 0.751113 4.63134 0.757144 4.50488 0.769203H4.50934Z" fill="white"/>
<path d="M20.1065 23.6026L20.0245 23.5966C19.9907 23.5966 19.956 23.5897 19.9222 23.5855C19.8064 23.5932 19.6889 23.5975 19.5721 23.5975C18.6687 23.5962 17.7833 23.3541 17.0136 22.8981C16.6039 22.6564 16.2318 22.3599 15.9085 22.0175C15.4431 22.5112 14.8765 22.9066 14.2446 23.1785C13.6126 23.4505 12.929 23.5931 12.2368 23.5975C11.3334 23.5962 10.4479 23.3541 9.67833 22.8981C9.26987 22.6568 8.89871 22.3612 8.57585 22.0201C8.25566 22.3619 7.88619 22.6575 7.47872 22.8981C6.70326 23.3554 5.81165 23.5975 4.90239 23.5975C4.79913 23.5975 4.69498 23.5975 4.59163 23.5881C4.50593 23.5983 4.41944 23.6 4.33334 23.5932H4.31112H4.2889C3.74237 23.5225 3.21181 23.3651 2.71884 23.1272C2.23966 22.8953 1.80273 22.5902 1.42492 22.2235C1.04444 21.8597 0.728023 21.4385 0.488085 20.9765C0.24041 20.5016 0.0766477 19.9903 0.00364465 19.4635V19.442V19.4205C-0.00260425 19.3376 -0.000817247 19.2543 0.00900245 19.1717C0.00275355 19.0722 7.4681e-05 18.9717 7.4681e-05 18.873C-0.000322075 17.9968 0.250527 17.1376 0.724948 16.3902C0.974209 15.9968 1.2814 15.6404 1.63679 15.332C1.28209 15.0213 0.975102 14.6635 0.724948 14.2695C0.252015 13.5278 0.00106657 12.6745 7.4681e-05 11.8039C0.00453818 11.137 0.152429 10.4782 0.434522 9.86914C0.716516 9.26017 1.12656 8.71408 1.63858 8.26551C1.28328 7.9539 0.975697 7.59539 0.724948 7.20042C0.252015 6.45871 0.00106657 5.60541 7.4681e-05 4.73479C7.4681e-05 4.61554 0.00453758 4.49533 0.0142581 4.37609C0.0106873 4.35207 0.00801058 4.32804 0.00622518 4.30402L7.4681e-05 4.22506L0.0106881 4.14601C0.137749 3.255 0.523295 2.41673 1.12299 1.72766C1.9163 0.789851 3.04874 0.176574 4.29237 0.0111971L4.37431 0L4.45713 0.00603118C4.49105 0.00603118 4.52487 0.0129216 4.5587 0.0172283C4.67534 0.00947623 4.79288 0.00516958 4.90864 0.00516958C5.81235 0.00670085 6.6981 0.248737 7.46801 0.704673C7.87746 0.946327 8.24932 1.24282 8.57228 1.58515C9.03767 1.09151 9.60424 0.696153 10.2363 0.424161C10.8682 0.152265 11.5519 0.00957199 12.244 0.00516958C13.1477 0.00670085 14.0334 0.248737 14.8033 0.704673C15.2119 0.945944 15.5829 1.24148 15.9058 1.58257C16.226 1.24081 16.5955 0.945178 17.0029 0.704673C17.7785 0.247206 18.67 0.00507388 19.5793 0.00516958C19.6826 0.00516958 19.7868 0.00516876 19.8892 0.0146435C19.9751 0.00430742 20.062 0.0025832 20.1483 0.00947391H20.1697H20.192C20.7385 0.0800081 21.2691 0.237442 21.762 0.475459C22.2416 0.707064 22.6789 1.01227 23.0568 1.3792C23.4377 1.74268 23.7542 2.16397 23.9937 2.62613C24.2406 3.10121 24.4041 3.61256 24.4772 4.13922V4.16066V4.18209C24.4836 4.26507 24.4816 4.34843 24.471 4.43102C24.4772 4.53055 24.4808 4.63009 24.4808 4.72962C24.4809 5.60589 24.2297 6.46512 23.755 7.21248C23.5061 7.60582 23.1992 7.96223 22.844 8.27059C23.1987 8.58115 23.5054 8.93898 23.755 9.33309C24.2283 10.0747 24.4795 10.9281 24.4808 11.7987C24.4763 12.4658 24.3283 13.1246 24.0461 13.7337C23.7639 14.3427 23.3537 14.8887 22.8413 15.3372C23.1967 15.6483 23.5043 16.0067 23.755 16.4013C24.2281 17.1433 24.4792 17.9969 24.4808 18.8678C24.4808 18.9872 24.4763 19.1073 24.4665 19.2258C24.4665 19.2498 24.4728 19.2747 24.4745 19.2987L24.4808 19.3777L24.4692 19.4566C24.3426 20.3475 23.9574 21.1859 23.3579 21.8751C22.5644 22.813 21.4315 23.4263 20.1875 23.5914L20.1065 23.6026ZM17.1606 19.1605C17.2348 19.7128 17.5165 20.2197 17.9524 20.5853C18.3882 20.9509 18.948 21.1499 19.5259 21.1447C19.5891 21.1447 19.6515 21.1447 19.7138 21.1379C19.7556 21.1275 19.7975 21.1189 19.8402 21.1121H19.8633C20.2869 21.0549 20.6867 20.8892 21.0211 20.6323C21.4958 20.2626 21.8069 19.7327 21.8912 19.1502V19.1287C21.8999 19.0778 21.9115 19.0274 21.9259 18.9777C21.9259 18.9288 21.9312 18.879 21.9312 18.8301C21.9364 18.273 21.7298 17.7335 21.3503 17.3133C20.9707 16.8932 20.4446 16.6216 19.8714 16.5498C19.5617 16.5187 19.2752 16.3777 19.0674 16.1541C18.8597 15.9307 18.7457 15.6407 18.7476 15.3406V15.2291C18.7451 14.9353 18.8543 14.6508 19.0547 14.4295C19.255 14.2081 19.5326 14.0651 19.8349 14.0275H19.8572H19.8803C20.4483 13.9561 20.9697 13.6874 21.3468 13.2718C21.7239 12.8564 21.9307 12.3224 21.9286 11.7704C21.9338 11.2134 21.7271 10.6738 21.3476 10.2537C20.968 9.83354 20.4419 9.56192 19.8687 9.49015C19.559 9.45904 19.2725 9.31798 19.0648 9.09451C18.857 8.87104 18.743 8.58105 18.7449 8.28092V8.19517C18.7424 7.90136 18.8516 7.61693 19.052 7.39556C19.2523 7.1741 19.5299 7.03121 19.8322 6.9936H19.8544H19.8776C20.4431 6.91665 20.9612 6.64639 21.3372 6.23199C21.7131 5.81768 21.9221 5.2869 21.9259 4.73651C21.9273 4.13721 21.6853 3.56126 21.2517 3.13164C20.806 2.7136 20.2083 2.48047 19.5864 2.482C19.0136 2.47989 18.4596 2.67915 18.0284 3.04254C17.5973 3.40593 17.3185 3.90847 17.2443 4.4559V4.4782V4.49964C17.2054 4.79096 17.057 5.05846 16.8273 5.25159C16.5976 5.44463 16.3024 5.55 15.9976 5.54751H15.9085C15.597 5.54942 15.296 5.43955 15.064 5.23934C14.8319 5.03922 14.6854 4.76302 14.6529 4.46442C14.5785 3.91202 14.2966 3.40507 13.8606 3.03929C13.4246 2.6735 12.8648 2.47434 12.2867 2.47942C11.7139 2.47731 11.16 2.67657 10.7287 3.04005C10.2976 3.40344 10.0187 3.90589 9.94465 4.45332V4.47562V4.49706C9.90567 4.78838 9.75729 5.05587 9.52756 5.24901C9.29784 5.44204 9.00266 5.54732 8.69785 5.54492H8.58299C8.27154 5.54684 7.9705 5.43697 7.73849 5.23676C7.50639 5.03664 7.35979 4.76043 7.32736 4.46193C7.25287 3.90943 6.97107 3.40248 6.53513 3.0367C6.0991 2.67102 5.53918 2.47176 4.96121 2.47683C4.89882 2.47683 4.83563 2.47683 4.77324 2.48458C4.73228 2.49492 4.68963 2.50344 4.64688 2.51033H4.62367C4.20013 2.56727 3.8002 2.73294 3.46603 2.9901C2.99072 3.35932 2.67956 3.88943 2.59595 4.47217V4.49361C2.58722 4.54453 2.57561 4.59496 2.56123 4.64473C2.56123 4.69363 2.55677 4.7434 2.55677 4.7923C2.55151 5.34921 2.75802 5.88869 3.13742 6.30884C3.51672 6.72898 4.04262 7.00068 4.61563 7.07256C4.9253 7.10366 5.21196 7.24473 5.41966 7.4682C5.62746 7.69177 5.74143 7.98175 5.73954 8.28178V8.39337C5.74202 8.687 5.63291 8.97133 5.43275 9.1927C5.23259 9.41406 4.95525 9.55714 4.65312 9.59485H4.62991H4.6068C4.03865 9.66615 3.51712 9.93479 3.14 10.3503C2.76288 10.766 2.55617 11.2999 2.55855 11.8519C2.5531 12.4088 2.75961 12.9482 3.13901 13.3683C3.5184 13.7883 4.0444 14.0598 4.61742 14.1313C4.92718 14.1629 5.21364 14.3042 5.42134 14.5277C5.62895 14.7514 5.74301 15.0414 5.74133 15.3414V15.4273C5.7438 15.7209 5.6347 16.0052 5.43453 16.2266C5.23437 16.448 4.95704 16.591 4.65481 16.6287H4.6317H4.60859C4.04301 16.7058 3.52505 16.9761 3.14902 17.3904C2.773 17.8048 2.56411 18.3354 2.56034 18.8859C2.55875 19.4849 2.80077 20.0607 3.23443 20.4898C3.67989 20.9083 4.27779 21.1415 4.89971 21.1396C5.47084 21.1358 6.02144 20.9343 6.45142 20.572C6.8813 20.2097 7.16181 19.7106 7.24186 19.1657V19.1434L7.24632 19.121C7.2855 18.8298 7.43388 18.5625 7.66361 18.3696C7.89333 18.1768 8.18841 18.0716 8.49302 18.074H8.5821C8.89355 18.0722 9.19459 18.182 9.42669 18.3822C9.65869 18.5824 9.80529 18.8586 9.83773 19.1571C9.91222 19.7094 10.1941 20.2163 10.6301 20.5819C11.0661 20.9476 11.626 21.1466 12.2039 21.1413C12.7768 21.1436 13.3309 20.9443 13.762 20.5809C14.1933 20.2175 14.472 19.7148 14.546 19.1674V19.1451L14.5505 19.1237C14.5894 18.8322 14.7378 18.5647 14.9675 18.3717C15.1972 18.1786 15.4924 18.0733 15.7972 18.0757H15.913C16.2233 18.0759 16.5226 18.1868 16.7531 18.3871C16.9835 18.5875 17.1287 18.8631 17.1606 19.1605Z" fill="white"/>
<path d="M12.248 14.7265C11.6855 14.728 11.1283 14.622 10.6085 14.4146C10.0888 14.2072 9.61692 13.9024 9.22027 13.5181C8.82143 13.1357 8.50522 12.6811 8.29008 12.1801C8.07484 11.6793 7.96484 11.1422 7.96632 10.6002C7.96632 10.3572 8.0664 10.1242 8.24465 9.95233C8.42279 9.78045 8.66451 9.68379 8.91655 9.68359C9.16869 9.68379 9.41031 9.78045 9.58856 9.95233C9.7667 10.1242 9.86678 10.3572 9.86678 10.6002C9.86768 11.2085 10.1189 11.7915 10.5653 12.2216C11.0117 12.6516 11.6169 12.8935 12.248 12.8942C12.8792 12.8935 13.4844 12.6516 13.9307 12.2216C14.3772 11.7915 14.6283 11.2085 14.6293 10.6002C14.6292 10.4799 14.6537 10.3607 14.7013 10.2495C14.7491 10.1383 14.8191 10.0372 14.9073 9.95205C14.9955 9.86697 15.1004 9.7994 15.2156 9.75336C15.331 9.70733 15.4547 9.68359 15.5796 9.68359C15.8316 9.68379 16.0733 9.78045 16.2515 9.95233C16.4296 10.1242 16.5297 10.3572 16.5297 10.6002C16.5313 11.1422 16.4212 11.6792 16.2059 12.1801C15.9908 12.681 15.6746 13.1357 15.2759 13.5181C14.8791 13.9024 14.4073 14.2071 13.8875 14.4146C13.3678 14.6219 12.8106 14.728 12.248 14.7265Z" fill="white"/>
</svg>
