<svg width="104" height="25" viewBox="0 0 104 25" fill="none" xmlns="http://www.w3.org/2000/svg">
<path fill-rule="evenodd" clip-rule="evenodd" d="M49.7068 16.3508C53.8474 18.1313 58.143 18.9208 62.8251 18.946C67.7436 18.975 71.4585 18.2291 76.1798 16.499L76.1526 21.4026C71.9275 23.4194 67.3592 24.358 62.7929 24.3328C57.8149 24.3047 54.2289 23.3206 49.6756 21.2534L49.7068 16.3508ZM94.0294 6.68621C101.333 6.72593 101.257 9.64556 101.24 12.4799L101.202 18.5178C101.197 19.624 101.248 20.8727 101.89 21.8104L95.9397 21.7774C95.7967 21.3793 95.7102 20.7836 95.7434 20.3883L95.683 20.3874C94.439 21.7397 92.6415 22.1281 90.7564 22.1174C87.8095 22.099 85.3738 20.7254 85.3928 17.6363C85.4221 12.9866 91.0734 13.19 94.0515 12.6679C94.8477 12.5294 95.6448 12.3075 95.6498 11.3727C95.6569 10.3798 94.6886 10.0049 93.7436 10.0001C91.947 9.99138 91.5887 10.8671 91.5575 11.4899L86.1357 11.4609C86.337 7.32264 90.4061 6.66393 94.0294 6.68621ZM31.192 1.16855L37.0224 1.20052L36.9801 8.34558H37.0385C37.9282 7.10275 39.4943 6.37429 41.2324 6.38301C46.3553 6.41207 47.715 10.6152 47.6939 14.0734C47.6707 17.7583 45.5552 21.8559 41.2264 21.8337C38.37 21.8162 37.4924 20.7622 36.7617 19.8226H36.7033L36.6923 21.4403L31.0682 21.4074L31.192 1.16855ZM79.2898 1.44657L85.1212 1.47756L84.9974 21.7183L79.167 21.6854L79.2898 1.44657ZM23.1584 6.2813C30.4623 6.32295 30.3858 9.24258 30.3677 12.077L30.3334 18.1158C30.3254 19.2211 30.3767 20.4687 31.0178 21.4074L25.0697 21.3735C24.9247 20.9763 24.8392 20.3806 24.8724 19.9844H24.813C23.569 21.3367 21.7694 21.7242 19.8833 21.7135C16.9384 21.6961 14.5038 20.3225 14.5208 17.2333C14.5491 12.5836 20.2044 12.7861 23.1805 12.2649C23.9766 12.1264 24.7727 11.9045 24.7788 10.9698C24.7848 9.97685 23.8166 9.60197 22.8735 9.59713C21.077 9.58841 20.7167 10.4641 20.6855 11.0879L15.2657 11.0579C15.467 6.91967 19.5341 6.26192 23.1584 6.2813ZM1.15813 1L19.4184 1.10171L19.3872 6.29002L13.4953 6.25611L13.4057 21.3096L6.92615 21.2727L7.01774 6.22027L1.12793 6.18734L1.15813 1ZM95.6266 15.171C94.9171 15.5061 94.121 15.7008 93.3269 15.8655C92.0255 16.1435 91.3502 16.4516 91.3431 17.4425C91.3391 18.1235 92.101 18.8074 93.1598 18.8132C94.4863 18.82 95.521 18.0615 95.6186 16.53L95.6266 15.171ZM24.7556 14.767C24.0471 15.1041 23.249 15.2979 22.4549 15.4635C21.1565 15.7406 20.4772 16.0467 20.4721 17.0386C20.4681 17.7206 21.23 18.4045 22.2888 18.4112C23.6143 18.418 24.6489 17.6586 24.7476 16.128L24.7556 14.767ZM39.3212 10.4553C37.2307 10.4438 36.7486 12.3405 36.7376 14.0686C36.7275 15.8258 37.1874 17.7293 39.2769 17.7409C41.3693 17.7506 41.8514 15.8558 41.8625 14.0977C41.8725 12.3685 41.4126 10.466 39.3212 10.4553ZM55.9006 1.00097C59.5172 1.01988 61.8757 2.47178 63.1201 4.56383C64.3878 2.49051 66.7616 1.06938 70.3725 1.09009C76.1154 1.12302 78.6859 4.7653 78.6617 8.84639C78.6366 12.9294 76.0228 16.5698 70.2789 16.5397C66.6639 16.519 64.306 15.0557 63.0617 12.956C61.7919 15.0365 59.4183 16.4688 55.807 16.4487C50.0641 16.4167 47.4936 12.7454 47.5198 8.66331C47.545 4.58028 50.1567 0.968033 55.9006 1.00097ZM70.3474 5.17209C68.1392 5.15956 67.8322 7.22674 67.8241 8.78633C67.8131 10.3459 68.0939 12.4441 70.3041 12.4568C72.5112 12.4703 72.8192 10.373 72.8293 8.81442C72.8383 7.25483 72.5565 5.1828 70.3474 5.17209ZM55.8764 5.082C53.6662 5.06947 53.3603 7.13762 53.3502 8.69527C53.3412 10.2539 53.622 12.355 55.8322 12.3667C58.0403 12.3792 58.3483 10.2839 58.3574 8.72337C58.3674 7.16378 58.0856 5.09368 55.8764 5.082Z" fill="white" stroke="white" stroke-width="1.18608"/>
</svg>
