<svg width="114" height="24" viewBox="0 0 114 24" fill="none" xmlns="http://www.w3.org/2000/svg">
<path d="M29.5245 22.607V22.8091H20.5837V22.607C21.5885 22.4387 21.9842 22.2027 22.0915 21.4618V10.2779C22.0915 8.22173 21.302 7.21104 19.6862 7.21104C19.1519 7.22121 18.6349 7.38964 18.2089 7.69227C17.7829 7.99479 17.4697 8.41613 17.3141 8.89588C17.3874 9.28532 17.4236 9.68016 17.4222 10.0757V20.5899C17.4222 21.8367 17.8169 22.3425 19.0353 22.6114V22.8136H10.4901V22.607C11.7103 22.3399 12.1031 21.8322 12.1031 20.5855V10.2734C12.1031 8.21728 11.2767 7.20659 9.69689 7.20659C9.19454 7.21093 8.70638 7.36272 8.30066 7.64086C7.89494 7.91889 7.59221 8.30918 7.43491 8.75692V20.5855C7.43491 21.8322 7.82964 22.3381 9.04791 22.607V22.8091H0V22.607C1.39942 22.3043 2.11776 21.7307 2.11776 20.3807V9.63766C2.11776 7.85127 1.61575 7.31163 0 7.17712V6.97498L7.43205 5.05418V8.22173C7.74522 7.25524 8.39079 6.41351 9.26786 5.82808C10.145 5.24276 11.2043 4.9467 12.2796 4.98645C14.9724 4.98645 16.6603 6.26702 17.1983 8.35709C17.5483 7.35488 18.2337 6.48548 19.1523 5.87821C20.071 5.27095 21.1741 4.95815 22.2974 4.98645C25.6372 4.98645 27.3963 7.00879 27.3963 10.0757V20.3878C27.4058 21.7351 28.124 22.3087 29.5245 22.607Z" fill="white"/>
<path d="M48.5204 19.1403C47.9103 21.9008 46.0069 23.3194 43.4915 23.3194C43.0382 23.3583 42.5811 23.3121 42.1469 23.1836C41.7127 23.0551 41.3101 22.8467 40.9626 22.5708C40.615 22.2948 40.3294 21.9566 40.1224 21.5761C39.9154 21.1955 39.7912 20.7801 39.7569 20.354L39.6858 20.0868C39.3576 21.0641 38.6931 21.9117 37.7967 22.4966C36.9003 23.0816 35.8225 23.371 34.7321 23.3194C34.1153 23.3644 33.4952 23.2887 32.9113 23.0971C32.3274 22.9053 31.7922 22.6018 31.3399 22.2058C30.8875 21.8098 30.5278 21.3299 30.2834 20.7965C30.0392 20.2631 29.9155 19.6878 29.9206 19.1073C29.9206 16.1081 32.506 14.1534 36.6354 13.344L39.6156 12.7713V12.0589C39.6156 9.46399 38.6099 7.67844 35.5935 7.67844C33.2604 7.67844 31.6085 8.72306 30.8182 11.3518L30.5335 11.2842C31.1028 7.40868 33.8363 4.98206 38.0738 4.98206C42.8492 4.98206 44.9318 7.84677 44.9318 12.1604V18.9337C44.9318 20.1135 45.5419 20.72 46.3324 20.72C47.0145 20.72 47.804 20.3496 48.1987 19.1028L48.5204 19.1403ZM39.6156 19.5116V13.6129L38.2152 13.8488C35.4142 14.3885 34.8763 16.0395 34.8763 17.6905C34.8763 19.4092 35.7738 20.7574 37.4969 20.7574C37.9455 20.7893 38.3932 20.6856 38.7744 20.4614C39.1558 20.2372 39.4505 19.9044 39.6156 19.5116Z" fill="white"/>
<path d="M68.019 22.6069V22.809H58.9711V22.6069C60.1562 22.3398 60.5841 21.8322 60.5841 20.5854V10.3116C60.5841 8.25545 59.7586 7.21084 58.0706 7.21084C57.4984 7.20628 56.9374 7.36051 56.4583 7.65423C55.9791 7.94806 55.6033 8.36823 55.3779 8.86187V20.5899C55.3779 21.8366 55.7726 22.3424 56.991 22.6113V22.8135H47.9438V22.6069C49.3444 22.3042 50.0626 21.7306 50.0626 20.3806V9.63746C50.0626 7.85117 49.5597 7.31143 47.9438 7.17702V6.97488L55.377 5.05409V8.35869C55.7411 7.33061 56.4553 6.44352 57.4097 5.83403C58.364 5.22464 59.5056 4.92678 60.6581 4.98635C64.0739 4.98635 65.9004 6.94552 65.9004 10.1086V20.3877C65.9014 21.7351 66.6196 22.3086 68.019 22.6069Z" fill="white"/>
<path d="M80.2289 18.8378C79.4397 21.2974 77.5007 23.3198 74.3767 23.3198C71.3604 23.3198 69.9237 21.5335 69.9237 18.9056V6.23355H67.8418V6.06523C70.7031 4.55178 73.1873 2.48428 75.1307 0H75.2747V5.56036H78.9011V6.23355H75.2703V18.1299C75.2703 19.6803 75.9529 20.7248 77.2808 20.7248C77.8986 20.7239 78.4966 20.5268 78.9791 20.1657C79.4617 19.8046 79.7991 19.3007 79.9376 18.7363L80.2289 18.8378Z" fill="white"/>
<path d="M95.132 16.7141C94.2339 21.5665 90.967 23.319 87.843 23.319C83.677 23.319 79.8726 20.2859 79.8726 14.4896C79.8726 8.96304 83.1405 4.98608 88.0596 4.98608C91.5419 4.98608 95.133 7.04224 95.0968 12.6026H84.0375C84.397 16.9162 86.7669 19.309 90.2503 19.309C91.2242 19.3932 92.2025 19.1794 93.0368 18.6995C93.8711 18.2197 94.5186 17.4995 94.8813 16.6464L95.132 16.7141ZM84.0001 11.3862V11.7566H90.2118C90.2481 7.44302 89.0632 5.9265 87.2703 5.9265C85.2576 5.93 84.0001 8.01912 84.0001 11.3862Z" fill="white"/>
<path d="M108.885 4.98608V9.83932H108.706C108.119 9.59733 107.478 9.49303 106.838 9.53564C104.505 9.53564 102.96 10.7156 102.96 15.1975V20.3874C102.96 21.9013 103.858 22.375 105.796 22.6137V22.8159H95.5273V22.6066C96.9278 22.3038 97.6466 21.7303 97.6466 20.3803V9.94002C97.6466 8.01912 97.1069 7.34508 95.5273 7.21056V7.00843L102.745 5.05382V12.6026H102.925C103.21 7.17675 105.366 4.98608 108.49 4.98608H108.885Z" fill="white"/>
<path d="M107.306 20.4887C107.318 19.7539 107.638 19.0529 108.195 18.5367C108.752 18.0205 109.503 17.7302 110.286 17.7281C111.063 17.7378 111.805 18.0317 112.354 18.5474C112.904 19.063 113.217 19.7596 113.227 20.4887C113.232 21.2254 112.924 21.9335 112.372 22.4578C111.821 22.9822 111.071 23.2799 110.286 23.2858C109.894 23.2867 109.506 23.215 109.144 23.0748C108.782 22.9346 108.453 22.7285 108.176 22.4686C107.899 22.2087 107.679 21.9 107.53 21.5602C107.38 21.2205 107.305 20.8563 107.306 20.4887Z" fill="white"/>
</svg>
