<svg width="91" height="24" viewBox="0 0 91 24" fill="none" xmlns="http://www.w3.org/2000/svg">
<path d="M12.4825 22.1527C11.1158 22.3691 9.74907 22.4557 8.29127 22.6288L3.91785 10.4211V23.1483C2.55116 23.2782 1.32114 23.4514 0 23.6678V0.334473H3.64451L8.61016 13.5812V0.334473H12.4825V22.1527ZM20.0448 8.9059C21.5482 8.9059 23.826 8.81932 25.1927 8.81932V12.4557C23.5071 12.4557 21.5026 12.4557 20.0448 12.5423V17.9535C22.2771 17.8237 24.5549 17.6505 26.8327 17.5639V21.0704L16.2181 21.8496V0.334473H26.8327V3.97084H20.0448C20.0448 4.01413 20.0448 8.9059 20.0448 8.9059ZM41.0463 4.01413H37.0829V20.7674C35.8074 20.7674 34.4862 20.7674 33.2562 20.8107V4.01413H29.2928V0.334473H41.0919C41.0463 0.334473 41.0463 4.01413 41.0463 4.01413ZM47.2876 8.64616H52.5266V12.2825H47.2876V20.5509H43.5064V0.334473H54.2121V3.97084H47.2876C47.2876 4.01413 47.2876 8.64616 47.2876 8.64616ZM60.4534 17.3475C62.6401 17.3908 64.8268 17.5639 66.9679 17.6505V21.2436C63.5512 21.0271 60.1345 20.854 56.6266 20.7674V0.334473H60.4534V17.3475ZM70.2025 21.5033C71.4325 21.5899 72.7081 21.6332 73.9836 21.763V0.334473H70.2025V21.5033ZM90.7484 0.334473L85.8739 11.4167L90.7484 23.6245C89.2906 23.4514 87.8783 23.1916 86.4205 22.9752L83.6872 16.2219L80.8627 22.4124C79.496 22.1959 78.1293 22.1094 76.7626 21.9362L81.6827 11.2869L77.2181 0.334473H81.3182L83.8238 6.43837L86.5116 0.334473H90.7484Z" fill="white"/>
</svg>
