<svg width="108" height="34" viewBox="0 0 108 34" fill="none" xmlns="http://www.w3.org/2000/svg">
<path d="M52.7528 33.7121C47.6799 33.5274 42.4686 32.2903 37.141 30.006C34.9728 29.0763 32.6797 27.9247 30.3462 26.5937C28.8072 25.7158 25.2844 23.5596 25.0882 23.3755C24.9648 23.2597 24.9165 23.1511 24.9165 22.9894C24.9165 22.6902 25.1315 22.4765 25.432 22.477C25.5878 22.4772 25.6255 22.4936 25.9933 22.7217C27.4698 23.6368 29.5119 24.6733 31.5017 25.5176C40.7691 29.4498 51.7483 30.8306 62.2875 29.3894C69.4851 28.4051 76.4034 26.1021 81.8001 22.8938C82.5788 22.431 82.6506 22.4066 82.8838 22.5268C83.2061 22.6929 83.2759 23.0993 83.025 23.348C82.9263 23.4458 82.8052 23.5234 81.0337 24.6232C76.3092 27.5565 72.4949 29.493 68.5234 30.9747C63.1815 32.9677 57.8284 33.8969 52.7528 33.7121Z" fill="white"/>
<path fill-rule="evenodd" clip-rule="evenodd" d="M0.739746 0.758041C0.739746 0.758041 0.839638 1.07243 0.936262 1.9659C1.0521 4.19166 1.05824 6.03659 1.07163 8.09371C1.0983 9.68223 1.08269 11.2301 1.06897 12.7206C1.05971 13.73 1.05272 14.2802 1.05272 15.198C1.05272 17.929 0.836104 19.8431 0.836104 19.8431C0.836104 19.8431 2.85519 20.2775 5.90279 20.2775C8.95146 20.2775 12.1862 19.2226 14.0527 17.6398C15.9187 16.057 17.5981 13.7914 17.5981 9.72649C17.5981 5.66142 15.8565 3.42692 13.555 1.96865C11.2529 0.509706 7.73822 0.230867 5.03193 0.354784C2.3263 0.479202 0.833401 0.758041 0.739778 0.758041H0.739746ZM106.74 16.057L102.669 15.0953C101.6 16.1498 100.446 16.6739 98.9639 16.6466C95.912 16.5907 94.3954 14.796 93.8315 11.8364H106.957C107.143 10.7814 107.205 9.6642 107.143 8.60918C107.018 6.47824 106.362 4.5169 105.028 2.83746C103.707 1.17474 101.435 0.302752 98.6254 0.323609C95.9874 0.343574 93.8312 1.24556 92.1243 3.05484C90.5201 4.75453 89.5599 7.34655 89.6046 10.7193C89.6475 13.9234 90.4647 16.3091 92.4662 18.2604C93.8596 19.619 95.7326 20.3446 98.1895 20.3393C102.871 20.1985 104.816 18.6931 106.74 16.057ZM103.407 8.54751H93.9856C94.1519 6.1162 96.383 3.85177 98.7467 3.86298C101.193 3.87419 103.295 5.62015 103.407 8.54751ZM62.0921 4.0025C65.2079 4.0025 67.7347 6.8167 67.7347 10.2869C67.7347 13.7571 65.2079 16.5714 62.0921 16.5714C58.9773 16.5714 56.4501 13.7571 56.4501 10.2869C56.4501 6.8167 58.9773 4.0025 62.0921 4.0025ZM62.2134 0.240356C67.442 0.240356 71.6816 4.77271 71.6816 10.2869C71.6816 15.8011 67.3207 20.2728 62.0921 20.2728C56.8646 20.2728 52.6245 15.8011 52.6245 10.2869C52.6245 4.77271 56.9859 0.240356 62.2134 0.240356ZM72.5021 19.5948H76.729V6.84023C80.5965 10.2231 83.4462 14.4748 85.1568 19.5948L88.7879 19.6165V0.881958L84.7404 0.881963L84.736 10.0605C83.4689 7.94629 81.9173 6.20745 80.3917 4.70846C78.8638 3.20714 77.6227 1.93589 76.0758 0.881963H72.502L72.5021 19.5948ZM35.5763 19.5948H39.682V6.84023C43.5494 10.2231 46.3391 14.4748 48.0496 19.5948H51.7198V0.881957H47.6136V9.91098C45.2278 6.48153 42.3376 3.40116 39.0294 0.881957H35.5763V19.5948ZM23.8504 0.881957H27.8318C31.6977 5.14925 34.0641 11.3559 34.8615 19.5948H30.5376C30.4252 18.1638 30.25 16.8487 30.0123 15.5282H21.4768C21.2398 16.8466 21.0662 18.1616 20.9576 19.5948H16.7585C17.516 11.3062 20.0534 4.89305 23.8504 0.881957ZM29.2156 12.0231C28.2875 9.06565 27.1824 6.63266 25.6869 4.38869C24.2009 6.64136 23.0387 9.18097 22.2173 12.0231H29.2156ZM5.06811 4.01644C5.06811 4.01644 5.90277 3.98527 6.92965 3.98527C7.95636 3.98527 10.1989 4.17153 11.8471 5.78533C13.4954 7.39919 13.5267 9.22982 13.5267 10.5025C13.5267 11.7748 13.0884 14.5365 10.3821 15.7776C7.67626 17.0193 5.03704 16.5538 5.03704 16.5538L5.06811 4.01644Z" fill="white"/>
</svg>
