<svg width="131" height="19" viewBox="0 0 131 19" fill="none" xmlns="http://www.w3.org/2000/svg">
<g clip-path="url(#clip0_2601_7529)">
<path d="M0.146729 17.356H15.9317L15.0245 18.626H0.146729V17.356Z" fill="white"/>
<path d="M130.327 18.6259H111.004L112.002 17.3558H130.418V18.6259H130.327Z" fill="white"/>
<path d="M0.146729 14.9974H17.7461L16.7482 16.2675H0.146729V14.9974Z" fill="white"/>
<path d="M0.146729 12.6389H19.5604L18.5625 13.909H0.146729V12.6389Z" fill="white"/>
<path d="M130.327 16.2672H112.818L113.816 14.9972H130.417V16.2672H130.327Z" fill="white"/>
<path d="M115.54 12.6389H130.327V13.909H114.542L115.54 12.6389Z" fill="white"/>
<path d="M17.2014 18.6264L25.5475 7.46802C25.5475 7.46802 34.8008 7.46802 35.8894 7.46802C37.0687 7.46802 37.0687 7.92161 36.4337 8.64736C35.8894 9.3731 34.8915 10.7339 34.3472 11.4596C34.075 11.9132 33.5307 12.5482 35.2544 12.5482C37.1594 12.5482 49.1343 12.5482 49.1343 12.5482C48.0456 14.1812 44.2355 18.7171 37.5223 18.7171C32.0792 18.6264 17.2014 18.6264 17.2014 18.6264Z" fill="white"/>
<path d="M65.0108 12.639L60.4749 18.7172H48.5908L53.1267 12.639H65.0108Z" fill="white"/>
<path d="M82.3376 12.639L77.8017 18.7172H65.8269L70.3628 12.639H82.3376Z" fill="white"/>
<path d="M86.2381 12.639C86.2381 12.639 85.3309 13.8184 84.9681 14.3627C83.4258 16.3585 84.7866 18.7172 89.6854 18.7172C95.3099 18.7172 108.918 18.7172 108.918 18.7172L113.454 12.639H86.2381Z" fill="white"/>
<path d="M23.1003 0.57314L18.9272 6.10696C18.9272 6.10696 40.4275 6.10696 41.6068 6.10696C42.7862 6.10696 42.7862 6.56055 42.1511 7.28629C41.6068 8.01204 40.6089 9.37282 40.0646 10.0986C39.7925 10.4614 39.2481 11.1872 40.9718 11.1872C42.8769 11.1872 50.2251 11.1872 50.2251 11.1872C50.2251 11.1872 51.7673 9.19138 52.9466 7.46773C54.6703 5.19977 53.128 0.482422 47.0499 0.482422C41.6068 0.57314 23.1003 0.57314 23.1003 0.57314Z" fill="white"/>
<path d="M83.3356 11.1875H54.1243L62.1075 0.573486H74.0823L69.5464 6.65161H74.8988L79.4347 0.573486H91.4095L83.3356 11.1875Z" fill="white"/>
<path d="M107.919 0.573364L99.9362 11.1874H87.2356L95.2188 0.573364H107.919Z" fill="white"/>
</g>
<defs>
<clipPath id="clip0_2601_7529">
<rect width="130.181" height="18.1437" fill="white" transform="translate(0.148438 0.57251)"/>
</clipPath>
</defs>
</svg>
