<svg width="82" height="29" viewBox="0 0 82 29" fill="none" xmlns="http://www.w3.org/2000/svg">
<g clip-path="url(#clip0_2601_7595)">
<path d="M38.3671 18.2956C38.3671 24.5648 42.7986 28.9954 48.7784 28.9954C50.1113 28.9954 51.6615 28.5991 52.6329 27.8423V25.717C51.9847 26.2574 50.3998 26.87 48.7784 26.87C43.8786 26.87 40.5646 23.4118 40.5646 18.2956C40.5646 13.4323 44.0959 9.79332 48.7784 9.79332C53.4262 9.79332 56.8123 13.216 56.8123 18.0071V28.3828H58.9742V17.9715C58.9742 11.9908 54.7591 7.59585 48.7784 7.59585C42.9063 7.59585 38.3671 12.2437 38.3671 18.2956ZM52.6329 22.5828L52.5973 22.5463C51.6971 23.2666 50.2199 23.6994 48.814 23.6994C45.9327 23.6994 43.7709 21.5384 43.7709 18.3321C43.7709 15.2692 45.8962 12.9275 48.7428 12.9275C51.8048 12.9275 53.6782 15.1615 53.6782 18.1514V28.3828H55.8035V18.0436C55.8035 13.8642 52.8857 10.8021 48.7784 10.8021C44.7076 10.8021 41.5734 13.8642 41.5734 18.3321C41.5734 22.7627 44.6719 25.9333 48.7784 25.8256C50.3286 25.7891 51.9134 25.213 52.6329 24.7082V22.5828ZM61.2794 12.3149C61.9285 11.4868 62.6488 10.5858 63.4056 9.82983V0.0658684H61.2794V12.3149ZM64.4501 0.0658684V9.03739C65.0983 8.53254 65.8195 7.91995 66.5763 7.63147V0.0658684H64.4501ZM66.5763 17.5032H66.5042L64.8463 19.7728C65.1339 22.3664 67.765 25.8256 71.7272 25.8256C75.7624 25.8256 78.6802 22.5463 78.6802 18.2591C78.6802 13.9728 75.6903 10.8021 71.5838 10.8021C67.5842 10.8021 65.279 13.7199 63.6576 15.8818C62.8652 16.9262 61.4966 18.6197 59.9821 20.7451V24.2042C61.3871 22.1145 63.297 19.665 64.702 17.9715C67.0803 15.1249 68.5209 12.964 71.5473 12.964C74.5016 12.964 76.5192 15.2336 76.5192 18.2591C76.5192 21.3933 74.6094 23.6994 71.7272 23.6994C68.7008 23.6994 66.5763 20.9258 66.5763 17.8273V17.5032ZM59.9821 15.9183V19.0524C61.2438 17.3589 62.3247 15.8818 63.3335 14.6575C65.8907 11.5224 68.1247 9.79332 71.5838 9.79332C76.2664 9.79332 79.689 13.3246 79.689 18.2956C79.689 23.1589 76.3385 26.87 71.7272 26.87C67.9813 26.87 64.7385 24.3119 63.9826 20.8181L62.4681 22.8713C63.6576 26.293 67.1524 28.9954 71.6916 28.9954C77.5271 28.9954 81.8152 24.3119 81.8152 18.2956C81.8152 12.2072 77.4915 7.63147 71.5838 7.63147C65.4589 7.63147 62.6488 12.2072 59.9821 15.9183ZM26.6586 28.3828H28.7839V17.2512C28.7839 12.8554 31.7382 9.86544 36.0254 9.86544C37.4661 9.86544 38.9432 10.3338 39.5923 10.73C39.9876 10.2617 40.4212 9.75771 40.9973 9.28937C39.6644 8.35268 37.8632 7.81222 35.9177 7.81222C30.2611 7.81222 26.6586 11.6311 26.6586 17.2868V28.3828ZM29.7927 17.2512V28.3828H31.919V17.2868C31.919 14.8008 33.5395 13.0361 35.9533 13.0361C36.6745 13.0361 37.3218 13.216 38.0074 13.5044C38.295 12.8197 38.5835 12.2437 38.9432 11.7032C38.1873 11.1984 37.0698 10.8743 35.9889 10.8743C32.3508 10.8743 29.7927 13.5044 29.7927 17.2512ZM0.322754 15.4134C0.322754 23.1954 6.08711 28.9954 13.8326 28.9954C20.8942 28.9954 25.217 24.5648 25.217 17.3945V13.7199H14.0854V15.8097H23.2003V17.7551C23.2003 23.3753 19.7055 26.87 13.8326 26.87C7.3844 26.87 2.59235 21.9337 2.59235 15.4134C2.59235 9.073 7.63638 4.06548 14.1576 4.06548C17.2552 4.06548 20.0653 4.82231 22.1915 6.29856V4.17322C20.1374 2.69607 17.436 1.93924 14.1576 1.93924C6.33909 1.93924 0.322754 7.88434 0.322754 15.4134ZM3.67327 15.4134C3.67327 21.2855 8.10561 25.7891 13.8326 25.7891C19.3458 25.7891 22.1194 22.2222 22.1194 18.2956V16.8906H14.0854V19.0524H19.9219C19.9575 21.1778 18.0129 23.6637 13.8326 23.6637C9.22215 23.6637 6.01587 20.2411 6.01587 15.4134C6.01587 10.7656 9.47413 7.27176 14.2297 7.27176C17.3273 7.27176 19.7777 8.02769 22.0473 9.61346L22.1915 9.50484V7.48812C20.498 6.29856 17.6158 5.14552 14.1576 5.14552C8.28547 5.14552 3.67327 9.68559 3.67327 15.4134Z" fill="white"/>
</g>
<defs>
<clipPath id="clip0_2601_7595">
<rect width="81.4925" height="28.9295" fill="white" transform="translate(0.32251 0.06604)"/>
</clipPath>
</defs>
</svg>
