<svg width="129" height="29" viewBox="0 0 129 29" fill="none" xmlns="http://www.w3.org/2000/svg">
<path d="M47.2853 9.71592H44.3345V23.8036H47.2853V18.0924H53.758V23.8036H56.6136V9.71592H53.758V15.4271H47.2853V9.71592ZM69.9398 17.8068C69.9398 20.0913 68.7976 21.3287 66.7035 21.3287C64.6093 21.3287 63.4671 20.0913 63.4671 17.7116V9.71592H60.6115V17.8068C60.6115 21.8047 62.8008 24.0892 66.7035 24.0892C70.6061 24.0892 72.7954 21.8047 72.7954 17.7116V9.71592H69.9398V17.8068ZM97.5441 9.71592L94.3077 19.425L91.1665 9.71592H88.1206L93.0703 23.8036H95.45L98.6863 14.5705L101.828 23.8036H104.302L109.157 9.71592H106.206L103.065 19.425L99.8286 9.71592H97.5441ZM119.532 15.1416H114.297V12.286H121.912V9.71592H111.441V23.8036H122.198V21.2336H114.297V17.7116H119.532V15.1416ZM125.624 9.71592H128.48V23.8036H125.624V9.71592ZM84.8842 20.8528L86.1216 23.8036H89.1676L82.9805 9.71592L82.8853 9.62073H80.4104L74.2232 23.8036H77.174L78.4115 21.0432L78.5067 20.8528H84.8842ZM81.6478 13.2378L83.6468 17.9972L83.742 18.2828H79.3633L79.4585 17.9972L81.6478 13.2378Z" fill="white"/>
<path d="M16.1602 22.3757C16.1602 22.3757 16.2554 22.2805 16.1602 22.2805C11.7816 12.7618 5.78483 5.43237 5.78483 5.43237C5.78483 5.43237 2.54846 8.47836 2.73884 11.6195C2.83402 13.9992 4.64258 15.3318 4.64258 15.3318C7.49819 18.0923 14.3517 21.6142 15.9699 22.3757H16.1602ZM15.018 24.7554C15.018 24.6602 14.8276 24.6602 14.8276 24.6602L3.40515 25.0409C4.64258 27.2302 6.7367 28.9436 8.926 28.4677C10.449 28.0869 13.8757 25.7072 14.9228 24.9457C15.1132 24.7554 15.018 24.7554 15.018 24.7554ZM15.2084 23.7083C15.3035 23.6131 15.2084 23.5179 15.2084 23.5179C10.1634 20.0912 0.454344 14.9511 0.454344 14.9511C-0.402341 17.7115 0.739905 19.9008 0.739905 19.9008C1.97734 22.5661 4.35702 23.3276 4.35702 23.3276C5.40408 23.8035 6.54632 23.8035 6.54632 23.8035H15.1132C15.2084 23.8035 15.2084 23.7083 15.2084 23.7083ZM15.9699 0.482638C15.4939 0.482638 14.1613 0.863387 14.1613 0.863387C11.1153 1.62488 10.449 4.38531 10.449 4.38531C9.87787 6.09868 10.449 8.00242 10.449 8.00242C11.4961 12.4762 16.4458 19.9008 17.4928 21.4238L17.588 21.519C17.6832 21.519 17.6832 21.4238 17.6832 21.4238C19.3966 4.76606 15.9699 0.482638 15.9699 0.482638ZM19.7773 21.4238C19.8725 21.4238 19.9677 21.3286 19.9677 21.3286C21.11 19.7104 25.9645 12.381 27.0116 7.90724C27.0116 7.90724 27.5827 5.71793 27.0116 4.29012C27.0116 4.29012 26.2501 1.5297 23.2041 0.7682C23.2041 0.7682 22.3474 0.577825 21.3955 0.387451C21.3955 0.387451 17.9688 4.76606 19.6822 21.2334C19.6822 21.4238 19.7773 21.4238 19.7773 21.4238ZM22.4426 24.6602C22.4426 24.6602 22.3474 24.6602 22.3474 24.7554V24.9457C23.4896 25.7072 26.726 28.0869 28.3442 28.4677C28.3442 28.4677 31.295 29.5147 33.865 25.0409L22.4426 24.6602ZM37.0062 14.8559C37.0062 14.8559 27.2971 20.0912 22.2522 23.5179C22.2522 23.5179 22.157 23.6131 22.157 23.7083C22.157 23.7083 22.157 23.8035 22.2522 23.8035H31.0094C31.0094 23.8035 31.8661 23.8035 33.0084 23.3276C33.0084 23.3276 35.388 22.5661 36.7207 19.8056C36.7207 19.7104 37.8629 17.5211 37.0062 14.8559ZM21.3003 22.3757C21.3003 22.3757 21.3955 22.4709 21.4907 22.3757C23.1089 21.519 29.9624 18.0923 32.818 15.3318C32.818 15.3318 34.6265 13.904 34.7217 11.6195C34.9121 8.38317 31.6757 5.43237 31.6757 5.43237C31.6757 5.43237 25.6789 12.5714 21.3003 22.1853C21.3003 22.1853 21.2051 22.2805 21.3003 22.3757Z" fill="white"/>
</svg>
