<svg width="197" height="37" viewBox="0 0 197 37" fill="none" xmlns="http://www.w3.org/2000/svg">
<g clip-path="url(#clip0_2601_7575)">
<path fill-rule="evenodd" clip-rule="evenodd" d="M71.9057 13.7919C71.9057 13.4689 72.1254 13.2963 72.4013 13.2963C72.8681 13.2963 73.5728 13.7919 73.9703 14.783C73.8278 14.783 73.6134 14.8262 73.4695 14.8262C72.6196 14.8262 71.9057 14.4221 71.9057 13.7919ZM20.4843 13.7919C20.4843 13.4689 20.6948 13.2963 20.9825 13.2963C21.4375 13.2963 22.1135 13.7919 22.5058 14.783C21.193 14.783 20.4843 14.4993 20.4843 13.7919ZM30.4022 8.67015C30.4022 3.36797 31.4351 2.55335 31.7555 2.55335C32.3256 2.55335 32.3936 2.90901 32.3936 4.94228C32.3936 7.03177 31.5031 9.7659 30.4022 11.267V8.67015ZM66.5054 13.8978C65.8935 14.7503 65.3979 15.9612 65.3979 17.5211C65.3979 20.5089 67.1017 23.3607 70.4124 23.3607C73.6134 23.3607 75.8559 20.8318 75.8559 17.3053C75.8559 16.2815 75.8166 16.1403 75.7499 15.7153C76.4939 15.3911 77.136 14.8955 77.6354 14.4993C78.0604 14.1789 78.3782 13.9998 78.6318 13.9998C78.9509 13.9998 79.0908 14.2495 79.0908 14.7111V21.6883C79.0908 22.8246 79.4503 23.3607 80.3356 23.3607C81.1515 23.3607 81.7255 22.788 82.0433 22.1133C83.2201 19.659 84.9238 16.3874 85.6678 15.1452C85.847 14.8602 85.9921 14.6418 86.0941 14.6418C86.2366 14.6418 86.3099 14.7503 86.3099 15.2106V20.7652C86.3099 22.3277 87.0238 23.3607 88.5824 23.3607C90.2221 23.3607 91.0354 21.7903 92.4685 19.3726C92.5365 19.2275 92.5666 19.1242 92.5666 19.0209C92.5666 18.7005 92.2894 18.5188 92.003 18.5188C91.68 18.5188 91.5022 18.8417 90.4378 20.012C90.2221 20.2343 90.0129 20.5429 89.618 20.5429C89.4768 20.5429 89.3683 20.3716 89.3683 20.1545V13.9279C89.3683 12.2555 88.6203 11.5808 87.6606 11.5808C86.8799 11.5808 86.2366 11.9012 85.5619 12.8975C84.3524 14.6797 83.1076 17.2073 82.4342 18.4808C82.3584 18.6299 82.2564 18.8417 82.1871 18.8417C82.1125 18.8417 82.0812 18.7319 82.0812 18.4808V13.9279C82.0812 12.6151 81.7255 11.5808 80.3356 11.5808C78.8763 11.5808 78.131 12.5785 77.064 13.3238C76.388 13.8272 75.7852 14.1789 75.325 14.3921C74.6097 12.5785 73.2956 11.6593 72.1933 11.6867C71.0871 11.7246 70.3052 12.4046 70.3052 13.5435C70.3052 14.7111 71.0205 15.5244 71.9763 15.8866C72.5072 16.0998 73.0067 16.1403 73.7219 16.1403C73.9363 16.1403 74.1482 16.1403 74.2855 16.0998C74.3613 16.4541 74.3273 16.9588 74.3273 17.3485C74.3273 19.0941 73.2956 20.8319 71.3774 20.8319C69.3808 20.8319 68.2118 18.911 68.2118 16.7078C68.2118 15.0341 68.7074 13.6494 69.5194 12.6922C69.8476 12.334 70.0921 12.1169 70.0921 11.7887C70.0921 11.6227 69.8476 11.5808 69.6318 11.5808C68.2772 11.5808 66.7879 12.1875 65.7588 12.7184C64.4002 13.431 62.8037 14.6091 61.4857 15.782C60.8463 14.3555 60.0643 13.1107 59.6708 12.147C59.5295 11.756 59.4263 11.3023 59.1412 11.3023C58.8888 11.3023 58.779 11.5507 58.6051 12.0411C57.967 13.9279 54.5503 19.4458 53.8037 20.1924C53.7331 20.2944 53.6298 20.4069 53.5958 20.4069C53.5187 20.4069 53.4781 20.3716 53.4781 20.1545V13.9279C53.4781 12.2555 52.8034 11.5808 51.8855 11.5808C51.0997 11.5808 50.4263 11.9012 49.7869 12.8975C48.6153 14.6797 47.1861 17.2766 46.5127 18.5541C46.4042 18.7737 46.297 18.8417 46.2604 18.8417C46.225 18.8417 46.1963 18.7005 46.1963 18.4808V13.9279C46.1963 12.2555 45.5177 11.5808 44.5919 11.5808C43.8074 11.5808 43.0647 11.8724 42.4566 12.8975C40.966 15.4264 38.4777 19.3033 38.0148 19.9388C37.9429 20.0486 37.871 20.1205 37.8004 20.1545C37.7298 20.1545 37.6892 20.0852 37.6892 19.9087V13.9279C37.6892 12.2555 37.0145 11.5808 36.0953 11.5808C34.8126 11.5808 34.1052 12.7602 33.6384 13.5029C32.9951 14.5346 32.1452 15.9245 31.4718 17.2073C31.0076 18.065 30.614 18.8417 30.4702 18.8417C30.4022 18.8417 30.4022 18.5188 30.4022 17.916V13.1512C32.6394 10.6564 34.0281 7.60057 34.0281 4.25712C34.0281 2.33238 33.1781 1.27064 31.8653 1.27064C29.4058 1.27064 27.5255 5.11358 27.5255 9.66261V13.3617C26.3853 14.0743 25.317 14.4222 23.999 14.6797C23.3256 12.6922 21.9004 11.6593 20.7667 11.6867C19.667 11.7246 18.8812 12.4046 18.8812 13.5435C18.8812 15.4264 20.7314 16.2083 22.3632 16.2083H22.8261C22.8954 16.5666 22.8954 16.9588 22.8954 17.3485C22.8954 19.0941 21.8651 20.8319 19.9495 20.8319C17.9594 20.8319 16.7826 18.911 16.7826 16.7078C16.7826 15.0341 17.2755 13.6494 18.094 12.6922C18.417 12.334 18.6681 12.0136 18.6681 11.7887C18.6681 11.6227 18.417 11.5808 18.2013 11.5808C16.8505 11.5808 13.8667 13.4023 10.3075 16.9588C9.99234 14.1123 9.63407 11.335 9.63407 8.63093C9.63407 5.60914 10.2316 3.04238 10.3742 2.3023C10.4461 1.84334 10.4905 1.55437 10.4905 1.34516C10.4905 1.0588 10.3388 0.912354 9.95573 0.912354C7.07123 0.912354 0.73999 5.50322 0.73999 12.368C0.73999 17.236 2.52221 19.5857 5.61068 22.6088C3.73563 25.6332 2.23193 29.2238 2.23193 32.426C2.23193 34.7339 2.77064 36.4821 4.4731 36.4821C8.03099 36.4821 10.6958 29.0878 10.6958 23.6065C10.6958 21.972 10.6304 20.3337 10.4905 18.7005C11.802 17.3053 13.8301 15.4264 14.3243 15.2485C14.1125 15.9965 13.97 16.781 13.97 17.5211C13.97 20.5089 15.6803 23.3607 18.9845 23.3607C22.0834 23.3607 24.4266 20.8318 24.4266 17.3053C24.4266 16.8503 24.39 16.4541 24.3586 16.0291C25.4909 15.816 26.5331 15.5244 27.5255 14.9295V22.078C27.5255 22.9985 28.161 23.3607 28.7664 23.3607C29.5889 23.3607 30.0151 22.788 30.614 21.4791C31.1174 20.4069 32.4642 17.9552 33.2814 16.492C33.9261 15.3505 34.2817 14.6091 34.5681 14.6091C34.6348 14.6091 34.7106 14.783 34.7106 15.2106V21.2947C34.7106 22.9318 35.5644 23.3607 36.3032 23.3607C37.0145 23.3607 37.48 22.9697 37.9429 22.3277C39.7944 19.693 41.7532 16.5666 42.5299 15.2106C42.6737 14.9674 42.8502 14.783 42.994 14.783C43.1326 14.783 43.2046 14.8602 43.2046 15.3165V21.6883C43.2046 22.8246 43.5602 23.3607 44.4533 23.3607C45.2666 23.3607 45.7988 22.788 46.1165 22.1133C47.2985 19.659 49.0363 16.4201 49.7869 15.1452C49.9608 14.8602 50.1399 14.6091 50.2458 14.6091C50.3936 14.6091 50.4263 14.783 50.4263 15.2485V21.2947C50.4263 22.9318 51.2801 23.3607 52.0319 23.3607C53.0192 23.3607 53.6664 22.6454 54.3058 21.8308C55.4722 20.2944 57.1812 17.5668 58.2141 15.816C58.5724 16.3874 58.9594 17.0647 59.285 17.8101C58.4299 18.8417 57.5747 20.012 57.5747 21.2555C57.5747 22.5735 58.4992 23.3607 59.4602 23.3607C61.0934 23.3607 62.5853 21.7903 62.5853 19.625C62.5853 18.7737 62.3408 17.882 62.0231 17.0307C63.4732 15.6042 65.2188 14.2169 66.5054 13.8978ZM7.92115 21.6517C8.20882 23.5346 8.45856 25.3887 8.45856 26.844C8.45856 30.2529 7.3236 34.2383 5.36617 34.2056C4.61039 34.2056 3.97491 33.4499 3.94353 32.141C3.87162 27.877 5.89835 24.2472 7.92115 21.6517ZM59.8486 19.2275C60.0644 19.8394 60.1729 20.3337 60.1729 20.8318C60.1729 21.4019 59.9584 21.972 59.5649 21.972C59.285 21.972 59 21.6517 59 21.1522C59 20.6174 59.4603 19.7636 59.8486 19.2275ZM9.20519 2.26438C9.20519 2.48143 8.707 3.47388 8.06891 5.25479C7.3929 7.10107 6.74827 9.73059 6.74827 12.8975C6.74827 14.783 7.21507 17.2766 7.60865 19.8002L6.46975 21.3353C4.65354 19.1242 3.51727 16.6385 3.51727 12.368C3.51727 6.32307 7.17976 2.1297 9.06135 2.1297C9.1738 2.1297 9.20519 2.16108 9.20519 2.26438Z" fill="white"/>
<path fill-rule="evenodd" clip-rule="evenodd" d="M176.215 13.792C176.215 13.4691 176.423 13.2965 176.711 13.2965C177.17 13.2965 177.882 13.792 178.272 14.7832C178.133 14.7832 177.92 14.8263 177.771 14.8263C176.925 14.8263 176.215 14.4223 176.215 13.792ZM124.783 13.792C124.783 13.4691 125 13.2965 125.281 13.2965C125.744 13.2965 126.427 13.792 126.81 14.7832C125.495 14.7832 124.783 14.4994 124.783 13.792ZM134.708 8.67028C134.708 3.36809 135.734 2.55347 136.058 2.55347C136.626 2.55347 136.698 2.90913 136.698 4.9424C136.698 7.03189 135.806 9.76602 134.708 11.2671V8.67028ZM112.233 21.6518C112.509 23.5347 112.768 25.3888 112.768 26.8442C112.768 30.253 111.632 34.2385 109.67 34.2058C108.925 34.2058 108.284 33.45 108.249 32.1411C108.176 27.8771 110.207 24.2473 112.233 21.6518ZM164.159 19.2276C164.375 19.8395 164.477 20.3338 164.477 20.832C164.477 21.4021 164.264 21.9722 163.873 21.9722C163.592 21.9722 163.299 21.6518 163.299 21.1523C163.299 20.6175 163.766 19.7637 164.159 19.2276ZM113.507 2.2645C113.507 2.48156 113.014 3.474 112.369 5.25491C111.698 7.10119 111.054 9.73071 111.054 12.8976C111.054 14.7832 111.528 17.2767 111.917 19.8003L110.775 21.3354C108.964 19.1243 107.82 16.6386 107.82 12.3681C107.82 6.32319 111.491 2.12982 113.372 2.12982C113.475 2.12982 113.507 2.1612 113.507 2.2645ZM107.577 20.0487C108.212 20.9026 108.997 21.7198 109.921 22.6089C108.035 25.6334 106.543 29.2239 106.543 32.4262C106.543 34.734 107.08 36.4822 108.788 36.4822C112.34 36.4822 115.005 29.0879 115.005 23.6066C115.005 21.9722 114.936 20.3338 114.793 18.7006C116.112 17.3055 118.132 15.4265 118.636 15.2486C118.422 15.9966 118.274 16.7811 118.274 17.5212C118.274 20.509 119.983 23.3608 123.294 23.3608C126.385 23.3608 128.732 20.832 128.732 17.3055C128.732 16.8504 128.699 16.4542 128.66 16.0293C129.8 15.8161 130.839 15.5245 131.828 14.9296V22.0781C131.828 22.9986 132.465 23.3608 133.065 23.3608C133.894 23.3608 134.321 22.7881 134.922 21.4792C135.418 20.407 136.772 17.9553 137.592 16.4921C138.23 15.3506 138.586 14.6092 138.878 14.6092C138.944 14.6092 139.011 14.7832 139.011 15.2107V21.2948C139.011 22.9319 139.862 23.3608 140.61 23.3608C141.324 23.3608 141.782 22.9698 142.254 22.3278C144.097 19.6931 146.056 16.5667 146.837 15.2107C146.979 14.9675 147.16 14.7832 147.297 14.7832C147.436 14.7832 147.514 14.8603 147.514 15.3166V21.6884C147.514 22.8247 147.866 23.3608 148.754 23.3608C149.572 23.3608 150.106 22.7881 150.429 22.1134C151.603 19.6591 153.345 16.4202 154.089 15.1454C154.27 14.8603 154.447 14.6092 154.558 14.6092C154.697 14.6092 154.736 14.7832 154.736 15.2486V21.2948C154.736 22.9319 155.582 23.3608 156.327 23.3608C157.33 23.3608 157.971 22.6456 158.606 21.8309C159.779 20.2946 161.491 17.567 162.521 15.8161C162.873 16.3875 163.269 17.0649 163.592 17.8102C162.729 18.8418 161.884 20.0121 161.884 21.2556C161.884 22.5736 162.798 23.3608 163.766 23.3608C165.399 23.3608 166.891 21.7904 166.891 19.6251C166.891 18.7739 166.644 17.8821 166.323 17.0309C167.78 15.6043 169.524 14.217 170.804 13.8979C170.2 14.7505 169.702 15.9613 169.702 17.5212C169.702 20.509 171.411 23.3608 174.719 23.3608C177.92 23.3608 180.155 20.832 180.155 17.3055C180.155 16.2816 180.122 16.1404 180.055 15.7155C180.794 15.3912 181.439 14.8956 181.942 14.4994C182.359 14.1791 182.686 13.9999 182.931 13.9999C183.253 13.9999 183.403 14.2497 183.403 14.7112V21.6884C183.403 22.8247 183.753 23.3608 184.642 23.3608C185.457 23.3608 186.03 22.7881 186.351 22.1134C187.518 19.6591 189.228 16.3875 189.972 15.1454C190.15 14.8603 190.295 14.6419 190.402 14.6419C190.547 14.6419 190.617 14.7505 190.617 15.2107V20.7653C190.617 22.3278 191.322 23.3608 192.891 23.3608C194.532 23.3608 195.348 21.7904 196.773 19.3727C196.839 19.2276 196.873 19.1243 196.873 19.021C196.873 18.7006 196.588 18.5189 196.306 18.5189C195.988 18.5189 195.806 18.8418 194.742 20.0121C194.532 20.2344 194.315 20.543 193.925 20.543C193.778 20.543 193.678 20.3717 193.678 20.1546V13.928C193.678 12.2556 192.922 11.5809 191.962 11.5809C191.184 11.5809 190.547 11.9013 189.869 12.8976C188.657 14.6799 187.416 17.2074 186.745 18.481C186.668 18.63 186.565 18.8418 186.489 18.8418C186.413 18.8418 186.385 18.732 186.385 18.481V13.928C186.385 12.6152 186.03 11.5809 184.642 11.5809C183.181 11.5809 182.438 12.5786 181.372 13.3239C180.69 13.8273 180.09 14.1791 179.623 14.3922C178.918 12.5786 177.597 11.6594 176.5 11.6868C175.391 11.7248 174.616 12.4047 174.616 13.5436C174.616 14.7112 175.327 15.5245 176.279 15.8867C176.814 16.0999 177.312 16.1404 178.033 16.1404C178.241 16.1404 178.447 16.1404 178.599 16.0999C178.668 16.4542 178.632 16.959 178.632 17.3486C178.632 19.0942 177.597 20.832 175.675 20.832C173.685 20.832 172.516 18.9112 172.516 16.7079C172.516 15.0342 173.01 13.6495 173.825 12.6924C174.149 12.3341 174.4 12.117 174.4 11.7888C174.4 11.6228 174.149 11.5809 173.936 11.5809C172.591 11.5809 171.092 12.1876 170.061 12.7185C168.707 13.4311 167.107 14.6093 165.795 15.7821C165.153 14.3556 164.375 13.1108 163.979 12.1471C163.833 11.7561 163.736 11.3024 163.44 11.3024C163.194 11.3024 163.086 11.5508 162.911 12.0412C162.269 13.928 158.857 19.4459 158.111 20.1926C158.039 20.2946 157.933 20.407 157.895 20.407C157.828 20.407 157.789 20.3717 157.789 20.1546V13.928C157.789 12.2556 157.118 11.5809 156.185 11.5809C155.401 11.5809 154.736 11.9013 154.089 12.8976C152.913 14.6799 151.494 17.2767 150.818 18.5542C150.714 18.7739 150.609 18.8418 150.575 18.8418C150.535 18.8418 150.498 18.7006 150.498 18.481V13.928C150.498 12.2556 149.827 11.5809 148.901 11.5809C148.117 11.5809 147.365 11.8725 146.766 12.8976C145.268 15.4265 142.782 19.3034 142.316 19.9389C142.254 20.0487 142.178 20.1206 142.102 20.1546C142.039 20.1546 141.997 20.0853 141.997 19.9088V13.928C141.997 12.2556 141.324 11.5809 140.396 11.5809C139.112 11.5809 138.406 12.7603 137.94 13.503C137.301 14.5347 136.452 15.9247 135.773 17.2074C135.314 18.0652 134.922 18.8418 134.78 18.8418C134.708 18.8418 134.708 18.5189 134.708 17.9161V13.1513C136.952 10.6565 138.334 7.60069 138.334 4.25723C138.334 2.33249 137.482 1.27075 136.162 1.27075C133.711 1.27075 131.828 5.11369 131.828 9.66272V13.3618C130.687 14.0745 129.62 14.4223 128.302 14.6799C127.631 12.6924 126.207 11.6594 125.076 11.6868C123.966 11.7248 123.187 12.4047 123.187 13.5436C123.187 15.4265 125.03 16.2084 126.67 16.2084H127.136C127.201 16.5667 127.201 16.9589 127.201 17.3486C127.201 19.0942 126.173 20.832 124.251 20.832C122.258 20.832 121.091 18.9111 121.091 16.7079C121.091 15.0342 121.588 13.6495 122.4 12.6924C122.719 12.3341 122.97 12.0137 122.97 11.7888C122.97 11.6228 122.719 11.5809 122.508 11.5809C121.155 11.5809 118.17 13.4024 114.609 16.9589C114.297 14.1124 113.937 11.3351 113.937 8.63105C113.937 5.60926 114.541 3.0425 114.684 2.30242C114.754 1.84346 114.793 1.55449 114.793 1.34528C114.793 1.05892 114.648 0.912476 114.264 0.912476C111.382 0.912476 105.051 5.50335 105.051 12.3681C105.051 15.1741 105.655 17.1708 106.722 18.9111C106.324 18.8418 106.012 18.8418 105.72 18.8418C104.587 18.8418 103.516 19.1243 102.851 19.2694V18.5542C102.851 17.0309 102.491 14.9296 101.849 14.217C101.773 14.1438 101.667 14.1124 101.567 14.1124C101.275 14.1124 100.924 14.2497 100.534 14.4654C100.103 14.6799 99.6767 14.8956 99.6767 15.0342C99.6767 15.1022 99.6767 15.1741 99.7839 15.3506C100.035 15.7155 100.712 16.4202 100.957 18.0965C99.7447 16.8857 98.3639 16.3483 96.5568 16.3483C94.419 16.3483 93.7756 17.3055 93.7756 18.2717C93.7756 20.1206 96.2299 21.0451 99.3289 21.0451C99.8964 21.0451 100.534 20.9379 101.171 20.7927C101.171 21.3628 101.243 21.8676 101.243 22.2912C101.243 22.8966 101.346 23.3608 101.743 23.3608C102.345 23.3608 102.704 22.1461 102.772 20.407C103.874 20.1206 105.014 19.8748 105.978 19.8748C106.438 19.8748 107.013 19.9389 107.577 20.0487ZM100.571 19.6931C99.9722 19.7637 99.6074 19.7637 98.9732 19.7637C97.582 19.7637 96.5568 19.2276 96.5568 18.4522C96.5568 17.9553 96.8027 17.6663 97.514 17.6663C98.6542 17.6663 99.5734 18.4522 100.571 19.6931Z" fill="white"/>
</g>
<defs>
<clipPath id="clip0_2601_7575">
<rect width="196.134" height="35.5698" fill="white" transform="translate(0.738525 0.913086)"/>
</clipPath>
</defs>
</svg>
