<svg width="91" height="28" viewBox="0 0 91 28" fill="none" xmlns="http://www.w3.org/2000/svg">
<g clip-path="url(#clip0_2601_7555)">
<path d="M38.6839 0.434814C40.1363 4.24846 41.5856 8.06211 43.041 11.8727C44.2386 15.0108 45.4361 18.1459 46.6336 21.284C47.4074 23.3106 48.1781 25.3402 48.9611 27.3637C49.0563 27.6093 49.0593 27.7076 48.7523 27.6953C48.1259 27.6769 47.4995 27.68 46.8731 27.6923C46.6735 27.6953 46.5691 27.6431 46.4954 27.4435C44.6807 22.6657 42.8599 17.8941 41.039 13.1193C40.1946 10.9085 39.3533 8.69771 38.5089 6.4869C38.4874 6.43163 38.4597 6.37944 38.3953 6.2474C36.3257 10.4817 34.2868 14.6546 32.205 18.9135C30.1293 14.67 28.0904 10.4971 26.0086 6.24126C25.8827 6.55753 25.7814 6.8001 25.6862 7.04268C23.2942 13.3066 20.9022 19.5706 18.5103 25.8346C18.3045 26.3719 18.1019 26.9093 17.9023 27.4497C17.847 27.5971 17.7917 27.6984 17.5983 27.6953C16.9351 27.683 16.2718 27.68 15.6086 27.6953C15.3138 27.7015 15.3599 27.5879 15.4336 27.3944C16.1643 25.4937 16.8859 23.593 17.6106 21.6924C19.5297 16.6658 21.4488 11.6393 23.3679 6.61587C24.1202 4.64763 24.8755 2.67633 25.6278 0.708095C25.6555 0.640543 25.6678 0.563778 25.7783 0.502367C27.9031 4.85029 30.0249 9.19208 32.1681 13.5738C32.4169 13.3158 32.5059 13.0119 32.6379 12.7355C34.6123 8.70693 36.5806 4.67527 38.5457 0.640543C38.5764 0.576061 38.5856 0.505438 38.6071 0.434814C38.6317 0.434814 38.6563 0.434814 38.6808 0.434814H38.6839Z" fill="white"/>
<path d="M2.94696 0.435031C2.9531 0.631547 2.96846 0.824993 2.96846 1.02151C2.96846 8.93129 2.96846 16.8441 2.96846 24.7539C2.96846 25.3128 2.93161 25.2391 3.46896 25.2391C6.97862 25.2391 10.4883 25.2391 13.9979 25.2391C14.2866 25.2391 14.3766 25.3783 14.2681 25.6567C14.0379 26.2524 13.8076 26.845 13.5865 27.4437C13.5251 27.6126 13.4483 27.6986 13.2487 27.6986C9.00212 27.6894 4.75553 27.6863 0.512001 27.6802C0.515071 18.708 0.515071 9.73578 0.505859 0.763582C0.505859 0.481089 0.579553 0.422748 0.849763 0.42889C1.54678 0.450384 2.24687 0.435031 2.94696 0.435031Z" fill="white"/>
<path d="M7.29381 0.434467C7.29381 7.09453 7.29381 13.7577 7.29381 20.4177C7.29381 20.9612 7.20169 20.9121 7.77589 20.9121C10.4166 20.9121 13.0542 20.9182 15.6949 20.909C15.9897 20.909 16.091 20.9397 15.9559 21.2591C15.6949 21.8793 15.4677 22.5149 15.2374 23.1475C15.1729 23.3225 15.09 23.3931 14.8935 23.3931C11.6295 23.387 8.36237 23.387 5.09835 23.3931C4.8742 23.3931 4.78823 23.3317 4.80358 23.1014C4.81893 22.868 4.80358 22.6347 4.80358 22.4013C4.80358 15.2008 4.80358 7.99728 4.80358 0.796794C4.80358 0.673971 4.7913 0.554219 4.78516 0.431396H7.29074L7.29381 0.434467Z" fill="white"/>
<path d="M91.146 0.434814C91.146 4.54631 91.1429 8.6578 91.1552 12.7693C91.1552 13.104 91.0754 13.2084 90.7345 13.193C90.1481 13.1623 89.5554 13.1777 88.9659 13.19C88.7571 13.193 88.6834 13.1316 88.6957 12.9197C88.711 12.6557 88.6988 12.3885 88.6988 12.1368C88.6066 12.103 88.579 12.149 88.5514 12.1859C86.884 14.1357 83.4051 13.7795 82.2659 11.1112C81.4798 9.26884 81.4983 7.38658 82.4931 5.61486C83.7398 3.39177 86.7797 3.06322 88.5207 4.91477C88.5606 4.95469 88.6036 4.99461 88.7141 5.09901V0.434814H91.146ZM88.6988 8.56875C88.6988 8.10202 88.6988 7.63837 88.6988 7.17164C88.6988 7.04882 88.6988 6.93521 88.6128 6.82774C87.9649 5.9864 86.2116 5.35694 85.0509 6.50226C84.271 7.27297 84.1605 8.24941 84.3447 9.26577C84.5074 10.1716 84.9957 10.8625 85.9107 11.1327C86.8748 11.4182 87.7193 11.1357 88.4531 10.4725C88.6404 10.3036 88.7141 10.1102 88.7018 9.85532C88.6865 9.42851 88.6988 8.99863 88.6988 8.56875Z" fill="white"/>
<path d="M54.8914 0.434974C54.8852 0.557797 54.873 0.677549 54.873 0.800372C54.873 3.97534 54.873 7.15338 54.873 10.3283C54.873 10.8411 54.7993 10.7889 55.352 10.7889C56.875 10.7889 58.3949 10.7951 59.9179 10.7828C60.1912 10.7828 60.2802 10.8442 60.2679 11.1267C60.2465 11.7255 60.2557 12.3273 60.2649 12.9291C60.2649 13.1195 60.2127 13.184 60.0162 13.184C57.4768 13.1778 54.9344 13.1748 52.395 13.184C52.1217 13.184 52.1402 13.0427 52.1402 12.8616C52.1402 11.5627 52.1402 10.2608 52.1402 8.96194C52.1402 6.25063 52.1402 3.54239 52.1402 0.831077C52.1402 0.695972 52.1555 0.563938 52.1616 0.428833C53.0705 0.428833 53.9794 0.428833 54.8883 0.428833L54.8914 0.434974Z" fill="white"/>
<path d="M85.1758 27.901C84.921 27.7444 84.617 27.7597 84.3406 27.6768C83.6037 27.4619 82.919 27.1487 82.3079 26.6789C82.1175 26.5346 82.1145 26.421 82.2404 26.2337C82.5106 25.8253 82.7654 25.4046 83.0141 24.9839C83.1124 24.8181 83.1769 24.7997 83.3396 24.9256C84.1533 25.5551 85.0745 25.9297 86.1031 26.0279C86.5484 26.0709 86.9844 26.0279 87.3989 25.8406C87.6937 25.7055 87.8564 25.4752 87.881 25.1559C87.9056 24.8366 87.7244 24.6216 87.4665 24.4712C86.9905 24.1948 86.4532 24.1119 85.925 24.0075C85.3232 23.8847 84.7214 23.7649 84.1472 23.5439C83.1063 23.1416 82.44 22.4384 82.4031 21.2778C82.3663 20.1539 82.8821 19.3095 83.8586 18.7814C85.2157 18.0475 86.6436 18.1028 88.0775 18.5112C88.6609 18.6739 89.1891 18.9595 89.6865 19.3034C89.8677 19.4262 89.9352 19.5245 89.7909 19.7363C89.5452 20.1017 89.3242 20.4856 89.1184 20.8755C88.9987 21.1027 88.9342 21.1396 88.7101 20.9615C87.7981 20.243 86.7602 19.9605 85.6026 20.157C85.4184 20.1877 85.2495 20.2583 85.096 20.3658C84.6385 20.6821 84.6508 21.2194 85.1328 21.5019C85.575 21.7599 86.0755 21.8397 86.5699 21.9379C87.2669 22.0792 87.9639 22.2174 88.6179 22.5121C89.6312 22.9666 90.2054 23.7312 90.2269 24.8519C90.2484 25.9389 89.7694 26.7618 88.8298 27.3114C88.4675 27.5233 88.0775 27.6676 87.6691 27.7659C87.5463 27.7966 87.3928 27.7628 87.3099 27.901H85.1728H85.1758Z" fill="white"/>
<path d="M26.4558 16.3437C26.2225 16.9425 26.029 17.443 25.8356 17.9435C24.6381 21.0816 23.4375 24.2166 22.2522 27.3578C22.154 27.6219 22.0311 27.7109 21.7517 27.7017C21.1622 27.6802 20.5726 27.6864 19.9831 27.7017C19.719 27.7079 19.6392 27.6741 19.7497 27.3855C21.3249 23.277 22.8909 19.1655 24.46 15.0571C24.9697 13.7184 25.4825 12.3796 25.9952 11.0378C26.0505 10.8934 26.1119 10.7522 26.1979 10.5403C28.2061 14.6487 30.1866 18.6958 32.2009 22.8165C34.2121 18.7019 36.1895 14.658 38.2038 10.5342C38.4495 11.1698 38.6705 11.7317 38.8855 12.2936C40.7954 17.2956 42.7053 22.3006 44.6121 27.3056C44.7595 27.6925 44.7564 27.6956 44.3542 27.6956C43.7646 27.6956 43.1751 27.6833 42.5855 27.7017C42.346 27.7079 42.2478 27.6188 42.1679 27.4039C40.8384 23.8973 39.4996 20.3938 38.1608 16.8903C38.1056 16.7429 38.0442 16.5955 37.9459 16.3468C36.0176 20.1604 34.1292 23.9004 32.2009 27.714C30.2848 23.9219 28.3934 20.1788 26.4558 16.3468V16.3437Z" fill="white"/>
<path d="M58.6736 23.0158C59.1925 21.6924 59.6869 20.4427 60.1782 19.1899C60.734 17.7743 61.2867 16.3619 61.8363 14.9463C61.9008 14.7836 61.9714 14.6884 62.1741 14.6915C63.1075 14.7038 64.041 14.7068 64.9713 14.6884C65.2508 14.6823 65.2201 14.8389 65.2201 15.0108C65.2201 16.1899 65.2201 17.3659 65.2201 18.545C65.2201 21.4774 65.217 24.4098 65.2262 27.3422C65.2262 27.6278 65.1556 27.7138 64.8639 27.7015C64.2743 27.6769 63.6848 27.68 63.0952 27.7015C62.8281 27.7107 62.7728 27.6186 62.7759 27.3699C62.7851 24.6585 62.782 21.9472 62.782 19.2359V18.8398C62.7605 18.8337 62.7421 18.8275 62.7206 18.8214C62.5732 19.1868 62.4228 19.5522 62.2785 19.9207C61.302 22.4078 60.3225 24.8919 59.3583 27.3821C59.2632 27.6247 59.1403 27.7076 58.8793 27.7015C58.1117 27.6861 58.1148 27.6953 57.8353 26.9799C56.8159 24.3668 55.7934 21.7538 54.7709 19.1407C54.731 19.0425 54.6911 18.9442 54.5805 18.849V19.2236C54.5805 21.9227 54.5744 24.6217 54.5867 27.3207C54.5867 27.6309 54.5038 27.7138 54.1998 27.7015C53.6102 27.6769 53.0207 27.6892 52.4311 27.7015C52.2223 27.7045 52.1333 27.6708 52.1333 27.4251C52.1425 23.2799 52.1425 19.1315 52.1333 14.9863C52.1333 14.7191 52.2408 14.6945 52.4557 14.6945C53.3278 14.7038 54.1998 14.7099 55.0688 14.6915C55.3328 14.6853 55.4526 14.7682 55.5478 15.0139C56.5211 17.541 57.5099 20.0619 58.4925 22.5859C58.5416 22.7087 58.5907 22.8316 58.6644 23.0189L58.6736 23.0158Z" fill="white"/>
<path d="M67.6289 12.2687C66.6801 13.1776 65.587 13.4816 64.3741 13.3956C62.2677 13.2421 60.9565 11.2585 61.6628 9.27182C62.0865 8.0743 63.0507 7.55844 64.2359 7.44176C65.4703 7.31894 66.634 7.53081 67.6289 8.49804C67.6135 7.91463 67.6872 7.39263 67.5644 6.88292C67.414 6.25959 66.7753 5.81743 65.9616 5.74067C64.893 5.64241 63.9473 5.9464 63.1244 6.62499C62.9493 6.76931 62.8695 6.7908 62.7559 6.56358C62.5655 6.17976 62.3475 5.80822 62.1203 5.44589C61.9883 5.23709 62.0128 5.12041 62.2124 4.96995C63.3393 4.1102 64.6197 3.72637 66.0199 3.71716C66.5358 3.71716 67.0486 3.76629 67.5521 3.89219C69.0997 4.28215 70.0086 5.33842 70.0424 6.93819C70.0854 8.93713 70.0546 10.9361 70.0669 12.935C70.0669 13.1684 69.9687 13.1899 69.7814 13.1868C69.1672 13.1776 68.5531 13.1714 67.9421 13.1899C67.678 13.1991 67.5951 13.1131 67.6228 12.8613C67.6412 12.6924 67.6258 12.5205 67.6258 12.2687H67.6289ZM67.6289 10.4786C67.6289 9.77539 67.6043 9.68635 67.2082 9.4407C66.5266 9.02003 65.7835 8.91256 65.0158 9.11829C64.2789 9.31481 63.9135 9.82452 63.9504 10.5062C63.9811 11.0804 64.4509 11.5563 65.1264 11.6976C65.762 11.8296 66.373 11.7528 66.9564 11.4765C67.4047 11.2646 67.7671 10.9852 67.6289 10.4755V10.4786Z" fill="white"/>
<path d="M74.8027 5.20039C75.2357 4.79508 75.6348 4.47881 76.1016 4.2608C77.2714 3.71117 78.5396 3.85548 79.3226 4.63848C79.7494 5.06529 79.9613 5.59035 80.0288 6.1799C80.1301 7.04887 80.0718 7.92092 80.0779 8.78989C80.0872 10.1532 80.0749 11.5135 80.0872 12.8768C80.0872 13.1378 80.0135 13.2084 79.7586 13.1992C79.1691 13.1808 78.5795 13.1747 77.99 13.1992C77.6952 13.2115 77.6553 13.101 77.6553 12.84C77.6675 11.1112 77.6614 9.37944 77.6614 7.65071C77.6614 7.44191 77.6553 7.23618 77.6123 7.03045C77.4188 6.13692 76.642 5.71625 75.8283 6.12156C75.2049 6.43169 74.7597 6.8585 74.7843 7.67834C74.8334 9.40707 74.7935 11.1389 74.8058 12.8676C74.8058 13.1225 74.7444 13.2054 74.4834 13.1962C73.8815 13.1777 73.2797 13.1808 72.6779 13.1962C72.4629 13.1992 72.377 13.1562 72.377 12.9167C72.3862 10.058 72.3831 7.19933 72.377 4.34063C72.377 4.11648 72.4414 4.04279 72.6687 4.04893C73.2951 4.06428 73.9215 4.05814 74.5478 4.04893C74.7352 4.04893 74.815 4.09806 74.8027 4.29765C74.7874 4.56479 74.7996 4.835 74.7996 5.20039H74.8027Z" fill="white"/>
<path d="M72.381 21.161C72.381 19.1252 72.3902 17.0894 72.3718 15.0536C72.3718 14.7159 72.467 14.6422 72.7833 14.6545C73.3698 14.679 73.9624 14.6729 74.5489 14.6545C74.7822 14.6483 74.8375 14.7281 74.8375 14.9492C74.8314 19.1068 74.8314 23.2643 74.8375 27.4219C74.8375 27.6675 74.7515 27.7013 74.5396 27.6982C73.9255 27.6859 73.3114 27.6829 72.7004 27.6982C72.4455 27.7074 72.3718 27.6368 72.3718 27.3758C72.3841 25.3032 72.378 23.2306 72.378 21.1579L72.381 21.161Z" fill="white"/>
<path d="M80.0793 21.1642C80.0793 23.2246 80.0762 25.288 80.0854 27.3484C80.0854 27.6094 80.0424 27.7138 79.7507 27.7015C79.1734 27.6769 78.5962 27.6769 78.0189 27.7015C77.718 27.7138 77.632 27.637 77.6351 27.3269C77.6474 23.547 77.6412 19.7702 77.6412 15.9903C77.6412 15.6464 77.6596 15.3025 77.6351 14.9617C77.6167 14.7007 77.7241 14.6577 77.9513 14.6608C78.5532 14.6731 79.155 14.6761 79.7568 14.6608C80.0117 14.6546 80.0885 14.7222 80.0885 14.9832C80.0762 16.3312 80.0823 17.6822 80.0823 19.0333C80.0823 19.7456 80.0823 20.4549 80.0823 21.1673L80.0793 21.1642Z" fill="white"/>
<path d="M70.0117 23.0926C70.0117 24.5142 70.0025 25.939 70.0178 27.3606C70.0178 27.6431 69.938 27.7107 69.6678 27.6984C69.066 27.6769 68.4641 27.6861 67.8654 27.6984C67.6566 27.7015 67.5645 27.6708 67.5645 27.4251C67.5737 24.5296 67.5737 21.6371 67.5645 18.7416C67.5645 18.5082 67.6381 18.4529 67.8562 18.4591C68.4826 18.4744 69.1089 18.4775 69.7323 18.4591C69.9718 18.4529 70.0148 18.5389 70.0117 18.7508C70.0025 20.197 70.0086 21.6463 70.0086 23.0926H70.0117Z" fill="white"/>
<path d="M68.796 17.1758C67.9762 17.1727 67.3283 16.5156 67.3375 15.6989C67.3436 14.9036 67.9977 14.2618 68.796 14.2649C69.6159 14.2649 70.276 14.9312 70.2576 15.7388C70.2392 16.5433 69.5913 17.1819 68.796 17.1758Z" fill="white"/>
</g>
<defs>
<clipPath id="clip0_2601_7555">
<rect width="110.54" height="27.4877" fill="white" transform="translate(0.505859 0.428955)"/>
</clipPath>
</defs>
</svg>
