<svg width="132" height="24" viewBox="0 0 132 24" fill="none" xmlns="http://www.w3.org/2000/svg">
<g clip-path="url(#clip0_2601_7582)">
<path d="M71.6809 22.1711H88.5483V20.1108H74.5725V13.5181H85.07V11.4335H74.5725V5.35956H88.5483V3.30676H71.6809V22.1711Z" fill="white"/>
<path d="M80.445 0.256958L78.1614 2.82246L85.3303 0.256958H80.445Z" fill="white"/>
<path d="M116.862 20.1108V3.30676H114.225V22.1711H131.277V20.1108H116.862Z" fill="white"/>
<path d="M99.4758 3.30676L89.8838 22.1711H93.126L95.58 17.2884H107.084L109.559 22.1711H112.768L103.168 3.30676H99.4758ZM96.7941 14.9239L101.314 5.91344L105.887 14.9239H96.7941Z" fill="white"/>
<path d="M62.5265 14.2829C66.8482 13.1297 67.2681 9.91413 67.2462 8.76454C66.9882 5.39452 64.7177 3.30676 60.6377 3.30676H48.748V22.1711H51.4585V14.2578H59.1989L64.8935 22.1711H68.3097C68.3097 22.1711 64.2116 16.8453 62.5265 14.2829ZM60.2676 12.0288H51.4585V5.53961H60.5746C62.6735 5.53961 63.8542 6.51944 64.2794 7.76412C64.5608 8.61733 64.3804 9.73735 63.9149 10.4999C63.1531 11.7606 61.7058 12.0288 60.2676 12.0288Z" fill="white"/>
<path d="M32.4606 0.111816C24.8095 0.111816 19.5947 5.50636 19.5947 12.0356C19.5947 18.9093 25.3553 23.7618 32.4606 23.7618C39.5613 23.7618 45.3195 18.9786 45.3195 12.0356C45.3195 5.50636 40.0402 0.111816 32.4606 0.111816ZM32.3688 21.4201C27.0754 21.4201 22.7139 17.1663 22.7139 12.042C22.7139 6.92473 26.8695 2.4672 32.574 2.4672C38.1372 2.4672 42.2266 6.92473 42.2266 12.042C42.2266 17.1661 37.6599 21.4201 32.3688 21.4201Z" fill="white"/>
<path d="M12.7668 9.9803H14.7226L18.2725 3.30676H15.4158L12.7668 9.9803Z" fill="white"/>
<path d="M3.20649 20.1108V3.30676H0.568604V22.1711H17.6195V20.1108H3.20649Z" fill="white"/>
</g>
<defs>
<clipPath id="clip0_2601_7582">
<rect width="130.71" height="23.6426" fill="white" transform="translate(0.568604 0.221558)"/>
</clipPath>
</defs>
</svg>
