<svg width="101" height="56" viewBox="0 0 101 56" fill="none" xmlns="http://www.w3.org/2000/svg">
<path d="M94.6967 24.1797H94.9858C95.7375 20.2237 97.183 18.8477 99.2067 18.8477C99.8427 18.8477 100.479 18.9623 100.999 19.1343C100.768 20.5104 100.652 22.9184 100.594 24.7531C100.074 24.5811 99.438 24.5237 98.9176 24.5237C96.6048 24.5237 95.6796 25.6131 95.6796 30.4292C95.6796 38.1693 95.6218 48.6041 95.7953 55.4842H90.418C90.4758 50.3815 90.4758 44.7054 90.4758 36.6786C90.4758 29.1678 90.4758 24.1224 90.418 19.1343H94.8123C94.7545 20.625 94.6967 22.2304 94.6967 24.1797Z" fill="white"/>
<path d="M83.4617 37.0225C83.4617 24.9823 82.4209 23.1476 80.455 23.1476C78.5469 23.1476 77.4484 24.9249 77.4484 37.0225C77.3905 49.12 78.4891 51.4134 80.455 51.4134C82.4787 51.4134 83.4617 49.12 83.4617 37.0225ZM88.6077 36.6211C88.6077 51.4134 86.0058 56.0001 80.455 56.0001C74.9043 56.0001 72.418 51.4134 72.418 36.6211C72.418 21.7715 75.1355 18.6182 80.455 18.6182C85.7745 18.6182 88.6077 21.7715 88.6077 36.6211Z" fill="white"/>
<path d="M71.907 23.8352L67.6861 23.7779C67.5705 30.9447 67.5126 39.3728 67.5126 48.661C67.5126 50.4383 68.1487 51.069 69.4785 51.069C70.288 51.069 71.0397 50.8397 71.7335 50.381C71.7913 51.929 72.1383 53.8784 72.3695 55.1397C70.9819 55.5411 70.1146 55.8277 68.4956 55.8277C64.0434 55.8277 62.5401 53.133 62.5401 48.833C62.5401 41.9529 62.6557 33.8114 62.7135 23.7206L60.8633 23.6632V19.1338H62.7135V13.4004C63.523 13.4004 64.3903 13.4577 65.3155 13.4577C66.1249 13.4577 66.9922 13.4577 67.8596 13.4004C67.8017 15.1778 67.7439 17.1271 67.7439 19.1912C69.1316 19.1912 70.5771 19.1912 71.9648 19.1338C71.907 20.6245 71.8492 22.3445 71.907 23.8352Z" fill="white"/>
<path d="M54.6248 45.1079V37.8837C54.1044 37.7691 53.5262 37.7117 52.8901 37.7117C50.8664 37.7117 49.9413 38.5717 49.9413 44.4198C49.9413 50.7839 50.346 51.4146 51.9072 51.4146C53.7575 51.4146 54.6248 49.0639 54.6248 45.1079ZM54.856 51.644H54.5091C53.9309 54.4533 52.3698 55.8294 49.9413 55.8294C46.7612 55.8294 44.9688 54.1093 44.9688 45.1652C44.9688 36.6797 47.3972 34.501 51.965 34.501C53.0058 34.501 53.9309 34.6157 54.6826 34.845C54.6826 32.0356 54.6826 29.1689 54.6826 26.4169C54.6826 24.5822 54.1044 23.3208 52.7167 23.3208C51.0399 23.3208 50.2304 24.2382 50.4617 30.889C49.7678 30.7743 49.0162 30.7743 48.2645 30.7743C47.2816 30.7743 46.2986 30.8316 45.547 30.889C45.0844 22.4608 47.1081 18.6768 52.6589 18.6768C57.5158 18.6768 59.713 21.2568 59.713 26.3595C59.713 33.3543 59.5973 38.2277 59.5973 44.1332C59.5973 48.4332 59.713 54.1667 60.0599 55.4854H55.7812C54.856 55.4854 54.7404 55.3134 54.7404 54.224C54.7404 53.4787 54.7982 52.504 54.856 51.644Z" fill="white"/>
<path d="M36.7128 22.8609C34.8625 22.8609 33.9374 24.8676 33.7639 35.6464C35.4407 35.7611 37.4066 35.7038 39.0256 35.6464C39.0834 34.6718 39.1412 33.2384 39.1412 30.8304C39.1412 24.6956 38.3896 22.8609 36.7128 22.8609ZM41.3384 43.6159H43.6512C43.7669 52.56 42.2057 56.0001 36.7128 56.0001C31.5668 56.0001 28.9648 53.1334 28.9648 37.8251C28.9648 22.5169 31.7402 18.6182 36.8284 18.6182C41.9744 18.6182 43.6512 22.1729 43.6512 30.773C43.6512 33.7544 43.5356 38.1118 43.4199 39.4305C41.9744 39.3732 39.8929 39.3732 38.0426 39.3732C36.4237 39.3732 34.9782 39.3732 33.7639 39.4305C33.8218 50.0373 34.7469 51.6427 36.7706 51.6427C38.563 51.6427 39.0834 49.98 39.0256 43.6159H41.3384Z" fill="white"/>
<path d="M23.2357 24.1797H23.5248C24.2765 20.2237 25.722 18.8477 27.7457 18.8477C28.3818 18.8477 29.0178 18.9623 29.5382 19.1343C29.3069 20.5104 29.1912 22.9184 29.1334 24.7531C28.613 24.5811 27.977 24.5237 27.4566 24.5237C25.1438 24.5237 24.2187 25.6131 24.2187 30.4292C24.2187 38.1693 24.1609 48.6041 24.3343 55.4842H18.957C19.0149 50.3815 19.0148 44.7054 19.0148 36.6786C19.0148 29.1678 19.0149 24.1224 18.957 19.1343H23.3514C23.2936 20.625 23.2357 22.2304 23.2357 24.1797Z" fill="white"/>
<path d="M14.0504 30.0854H11.5063C11.6219 28.136 11.6219 26.5307 11.6219 25.2693C11.6219 17.9879 10.5811 16.8412 8.67306 16.8412C6.53371 16.8412 5.31948 18.1025 5.31948 33.6401C5.31948 49.8084 6.5337 51.1271 8.7887 51.1271C10.8702 51.1271 11.7375 49.0057 11.7375 41.6669C11.7375 40.5776 11.7375 39.4309 11.6797 38.1695H14.2238H16.7679C16.8257 39.0295 16.8257 39.8896 16.8257 40.6922C16.8257 50.8977 14.5129 56.0005 8.73088 56.0005C2.60192 56.0005 0 51.8151 0 33.7548C0 16.0958 2.65974 11.9678 8.7887 11.9678C14.6864 11.9678 16.7101 15.7518 16.7101 25.384C16.7101 26.76 16.6523 28.3654 16.5945 30.0854H14.0504Z" fill="white"/>
<path d="M69.3386 4.05305C69.3386 3.28486 69.936 2.66211 70.6729 2.66211V3.29399C70.288 3.29399 69.9761 3.61923 69.9761 4.02044V7.6774C69.9761 8.04244 69.903 8.37557 69.7568 8.67681C69.6072 8.97451 69.3845 9.23145 69.0887 9.44763C68.793 9.66027 68.4241 9.82507 67.9821 9.94202C67.5402 10.059 67.0251 10.1174 66.437 10.1174C65.8488 10.1174 65.3338 10.059 64.8918 9.94202C64.4498 9.82507 64.0827 9.66027 63.7903 9.44763C63.4945 9.23145 63.2735 8.97451 63.1273 8.67681C62.9778 8.37557 62.903 8.04244 62.903 7.6774V2.66973H63.5404V7.73056C63.5404 7.9751 63.6033 8.20723 63.7291 8.42696C63.8515 8.64314 64.0351 8.83275 64.2798 8.99577C64.5246 9.15879 64.8272 9.28815 65.1876 9.38384C65.5479 9.47953 65.9644 9.52737 66.437 9.52737C66.9129 9.52737 67.3311 9.47953 67.6914 9.38384C68.0518 9.28815 68.3544 9.15879 68.5992 8.99577C68.8439 8.83275 69.0292 8.64314 69.155 8.42696C69.2774 8.20723 69.3386 7.9751 69.3386 7.73056V4.05305Z" fill="white"/>
<path fill-rule="evenodd" clip-rule="evenodd" d="M29.1011 7.04971C28.9241 7.20825 28.779 7.4394 28.779 7.68265V9.97391H28.1416V2.66973L31.6445 2.66973C32.1719 2.66973 32.6242 2.66972 33.0015 2.7575C33.3822 2.84256 33.6933 2.97368 33.9347 3.15088C34.1795 3.32454 34.3579 3.58763 34.4701 3.84989C34.5823 4.11214 34.6384 4.4187 34.6384 4.76955C34.6384 5.31533 34.5007 5.75301 34.2253 6.0826C33.95 6.40865 33.6195 6.75242 32.0284 6.75242L33.561 8.81673C33.807 9.14807 33.9806 9.35194 34.5882 9.34204H35.1063V9.97392L34.265 9.97392C33.8584 9.97392 33.4752 9.77541 33.2297 9.43755L31.3478 6.84811H29.6229C29.4314 6.84811 29.2463 6.91963 29.1011 7.04971ZM33.9806 4.76955C33.9806 4.45768 33.9279 4.20606 33.8225 4.01468C33.7171 3.81976 33.5454 3.66914 33.3074 3.56282C33.0694 3.4565 32.7567 3.38562 32.3691 3.35018C31.9849 3.3112 31.5124 3.29171 30.9514 3.29171H28.779V6.58721C29.0194 6.35509 29.335 6.181 29.6627 6.181H30.931C31.492 6.181 31.9662 6.16505 32.3538 6.13316C32.3746 6.13126 32.3951 6.1294 32.4154 6.12755C32.7748 6.09493 33.0688 6.06824 33.2972 5.97097C33.5386 5.86465 33.712 5.71757 33.8174 5.52974C33.9262 5.33837 33.9806 5.08497 33.9806 4.76955Z" fill="white"/>
<path fill-rule="evenodd" clip-rule="evenodd" d="M25.7123 4.91309C25.7123 5.27812 25.6545 5.60062 25.5389 5.8806C25.4267 6.16057 25.2483 6.39625 25.0035 6.58762C24.7587 6.779 24.4425 6.9243 24.055 7.02354C23.6708 7.11922 23.2067 7.16707 22.6628 7.16707L20.4095 7.12756C20.1983 7.12393 19.9929 7.19913 19.8302 7.33959C19.6588 7.48761 19.5164 7.70756 19.5164 7.93958V9.97391H18.8789V2.66973H22.6628C23.2067 2.66973 23.6708 2.67422 24.055 2.77345C24.4425 2.86914 24.7587 3.0109 25.0035 3.19873C25.2483 3.38656 25.4267 3.6656 25.5389 3.94557C25.6545 4.22555 25.7123 4.54805 25.7123 4.91309ZM25.0545 4.91309C25.0545 4.56577 24.9984 4.2858 24.8862 4.07316C24.7774 3.86052 24.6074 3.69749 24.3762 3.58409C24.1484 3.46713 23.8578 3.38917 23.5042 3.35018C23.154 3.3112 22.7376 3.29171 22.2548 3.29171H19.5164V6.90617C19.7402 6.67487 20.0426 6.49996 20.3578 6.49996H22.2548C22.4418 6.49996 22.6407 6.50173 22.8515 6.50528C23.0656 6.50528 23.2764 6.49465 23.4838 6.47338C23.5491 6.46558 23.6133 6.46066 23.6765 6.45582C23.8143 6.44528 23.9472 6.43511 24.0754 6.39625C24.2657 6.336 24.4323 6.24563 24.5751 6.12513C24.7213 6.00464 24.8369 5.84693 24.9219 5.65201C25.0103 5.45709 25.0545 5.21078 25.0545 4.91309Z" fill="white"/>
<path d="M37.8068 9.97391V2.66973H43.6458V3.29171H38.5004V6.16725C38.74 5.93517 39.0549 5.80617 39.382 5.80617H43.3857V6.42283H39.3432C39.1517 6.42283 38.9665 6.49449 38.8214 6.62479C38.6451 6.78312 38.5004 7.01369 38.5004 7.2563V9.35194H43.7223V9.97391H37.8068Z" fill="white"/>
<path d="M55.4352 9.97391V3.75951L51.7384 9.72627C51.6428 9.88066 51.4785 9.97391 51.3022 9.97391C51.1256 9.97391 50.9612 9.8804 50.8656 9.72566L47.1637 3.73293V9.97391H46.5262V2.66973C46.9523 2.66973 47.3494 2.89485 47.5809 3.26771L51.3198 9.28815L55.0185 3.2652C55.2463 2.89418 55.6398 2.66973 56.0624 2.66973V9.97391H55.4352Z" fill="white"/>
<path d="M59.2641 9.97391V2.66973H59.9016V9.97391H59.2641Z" fill="white"/>
<path d="M82.1544 9.97391V3.75951L78.4577 9.72627C78.362 9.88066 78.1977 9.97391 78.0214 9.97391C77.8449 9.97391 77.6804 9.8804 77.5848 9.72566L73.8829 3.73293V9.97391H73.2455V2.66973C73.6716 2.66973 74.0686 2.89485 74.3002 3.26771L78.039 9.28815L81.7377 3.2652C81.9656 2.89418 82.359 2.66973 82.7816 2.66973V9.97391H82.1544Z" fill="white"/>
<path fill-rule="evenodd" clip-rule="evenodd" d="M70.9856 2.35156V3.60473H70.675C70.4737 3.60473 70.2887 3.77859 70.2887 4.02053V7.6775C70.2887 8.0852 70.2068 8.46531 70.0383 8.81253L70.0374 8.81446L70.0364 8.81638C69.8625 9.16239 69.6056 9.45618 69.2741 9.69851L69.2731 9.69923L69.2721 9.69994C68.9389 9.93952 68.5332 10.1181 68.0636 10.2424C67.5896 10.3679 67.0468 10.4282 66.439 10.4282C65.8313 10.4282 65.2884 10.3679 64.8144 10.2424C64.3447 10.1181 63.9401 9.93929 63.6096 9.69895L63.609 9.69851C63.2774 9.45611 63.0218 9.16193 62.8512 8.81506C62.6785 8.4673 62.5944 8.0863 62.5944 7.6775V2.35919H63.8531V7.73065C63.8531 7.91909 63.9009 8.09825 64.0007 8.27272L64.0011 8.27336L64.0015 8.27401C64.0958 8.4407 64.2424 8.59635 64.4541 8.73732C64.6641 8.87719 64.9335 8.99451 65.2693 9.0837C65.5978 9.17092 65.9866 9.21682 66.439 9.21682C66.8951 9.21682 67.2854 9.17088 67.6138 9.0837C67.9496 8.99451 68.219 8.87719 68.429 8.73732C68.6402 8.59669 68.789 8.44091 68.8871 8.2733C68.9836 8.09923 69.03 7.91979 69.03 7.73065V4.05314C69.03 3.12568 69.7544 2.35156 70.675 2.35156H70.9856ZM69.1571 8.42705C69.0313 8.64323 68.846 8.83284 68.6012 8.99586C68.3564 9.15889 68.0539 9.28824 67.6935 9.38393C67.3331 9.47962 66.915 9.52746 66.439 9.52746C65.9665 9.52746 65.55 9.47962 65.1896 9.38393C64.8293 9.28824 64.5267 9.15889 64.2819 8.99586C64.0371 8.83284 63.8535 8.64323 63.7311 8.42705C63.6054 8.20732 63.5425 7.97519 63.5425 7.73065V2.66983H62.905V7.6775C62.905 8.04253 62.9798 8.37566 63.1294 8.6769C63.2756 8.9746 63.4966 9.23154 63.7923 9.44772C64.0847 9.66036 64.4519 9.82516 64.8938 9.94211C65.3358 10.0591 65.8509 10.1175 66.439 10.1175C67.0272 10.1175 67.5422 10.0591 67.9842 9.94211C68.4261 9.82516 68.795 9.66036 69.0908 9.44772C69.3866 9.23154 69.6092 8.9746 69.7588 8.6769C69.905 8.37566 69.9781 8.04253 69.9781 7.6775V4.02053C69.9781 3.61932 70.2901 3.29409 70.675 3.29409V2.6622C70.568 2.6622 70.464 2.67532 70.3643 2.70009C69.7772 2.84603 69.3407 3.39644 69.3407 4.05314V7.73065C69.3407 7.97519 69.2795 8.20732 69.1571 8.42705ZM29.0917 10.2846H27.833V2.35919L31.6729 2.35919C32.1785 2.35915 32.6606 2.35912 33.0725 2.45472C33.4816 2.54623 33.8344 2.69104 34.1186 2.89912C34.4221 3.11524 34.6307 3.43079 34.7578 3.7278C34.8898 4.03646 34.9511 4.38619 34.9511 4.76965C34.9511 5.36805 34.7993 5.88266 34.4658 6.28187L34.4652 6.2825L34.4647 6.28314C34.3144 6.46112 34.1233 6.67364 33.7379 6.82819C33.4696 6.93582 33.1182 7.01118 32.634 7.04427L33.8125 8.63165C33.9385 8.80141 34.011 8.88649 34.1023 8.94192C34.1851 8.99224 34.316 9.03592 34.5852 9.03153L34.5877 9.03149H35.419V10.2847L34.267 10.2846C33.7579 10.2846 33.2826 10.036 32.9804 9.62027L31.1916 7.15884H29.6249C29.5115 7.15884 29.3998 7.20111 29.3104 7.28118C29.1716 7.40556 29.0917 7.55913 29.0917 7.68274V10.2846ZM31.3498 6.8482L33.2317 9.43764C33.4773 9.77551 33.8604 9.97401 34.267 9.97401L35.1084 9.97401V9.34213H34.5903C33.9826 9.35203 33.809 9.14816 33.563 8.81682L32.0305 6.75251C32.1666 6.75251 32.2935 6.75 32.4119 6.74519C33.6777 6.69382 33.9756 6.38085 34.2274 6.0827C34.5028 5.7531 34.6405 5.31542 34.6405 4.76965C34.6405 4.41879 34.5844 4.11223 34.4722 3.84998C34.36 3.58772 34.1815 3.32463 33.9367 3.15098C33.6953 2.97378 33.3843 2.84265 33.0035 2.75759C32.6263 2.66981 32.1739 2.66982 31.6465 2.66983L28.1436 2.66983V9.97401H28.7811V7.68274C28.7811 7.43949 28.9262 7.20834 29.1032 7.0498C29.2484 6.91972 29.4335 6.8482 29.6249 6.8482H31.3498ZM33.8245 4.01477C33.9299 4.20615 33.9826 4.45777 33.9826 4.76965C33.9826 5.08506 33.9282 5.33846 33.8194 5.52983C33.714 5.71766 33.5407 5.86474 33.2993 5.97106C33.0708 6.06834 32.7769 6.09502 32.4175 6.12764C32.3971 6.12949 32.3766 6.13135 32.3559 6.13325C31.9683 6.16515 31.494 6.18109 30.9331 6.18109H29.6647C29.4644 6.18109 29.2686 6.24617 29.0917 6.34979C28.9793 6.41566 28.8745 6.4971 28.7811 6.58731V3.2918H30.9535C31.5144 3.2918 31.987 3.31129 32.3712 3.35027C32.7587 3.38571 33.0715 3.45659 33.3095 3.56291C33.5475 3.66923 33.7191 3.81985 33.8245 4.01477ZM29.0917 3.60244V6.00024C29.268 5.92017 29.4613 5.87045 29.6647 5.87045H30.9331C31.4882 5.87045 31.9529 5.85467 32.329 5.82377C32.3494 5.82191 32.3695 5.82008 32.3894 5.81828C32.7649 5.78419 33.0024 5.75934 33.1759 5.68597C33.3687 5.6007 33.4831 5.49439 33.5485 5.37783L33.5489 5.37707L33.5494 5.37632C33.6225 5.24767 33.672 5.05315 33.672 4.76965C33.672 4.48912 33.624 4.29464 33.5524 4.16462L33.5518 4.16357L33.5513 4.16252C33.4839 4.03795 33.3697 3.93005 33.1828 3.84654C32.9873 3.75921 32.7115 3.69333 32.3429 3.65962L32.3413 3.65948L32.3398 3.65933C31.9695 3.62175 31.5082 3.60244 30.9535 3.60244H29.0917ZM24.057 7.02363C23.6728 7.11932 23.2088 7.16716 22.6648 7.16716L20.4115 7.12765C20.2004 7.12402 19.9949 7.19922 19.8323 7.33968C19.6609 7.4877 19.5184 7.70765 19.5184 7.93967V9.97401H18.881V2.66983H22.6648C23.2088 2.66983 23.6728 2.67431 24.057 2.77354C24.4446 2.86923 24.7607 3.01099 25.0055 3.19882C25.2503 3.38665 25.4288 3.66569 25.541 3.94567C25.6566 4.22564 25.7144 4.54815 25.7144 4.91318C25.7144 5.27821 25.6566 5.60071 25.541 5.88069C25.4288 6.16066 25.2503 6.39634 25.0055 6.58772C24.7607 6.77909 24.4446 6.9244 24.057 7.02363ZM25.8287 5.99774C25.6955 6.3295 25.483 6.60872 25.1968 6.83244C24.91 7.05667 24.5517 7.21762 24.134 7.32456L24.1331 7.32481L24.1321 7.32506C23.7161 7.42866 23.2254 7.4778 22.6648 7.4778H22.6621L20.4062 7.43825C20.2729 7.43595 20.1413 7.48329 20.0353 7.57478C19.9028 7.68921 19.829 7.83065 19.829 7.93967V10.2846H18.5703V2.35919H22.6648C23.1982 2.35919 23.7037 2.36178 24.133 2.47235C24.5498 2.57543 24.9078 2.73227 25.1946 2.95238C25.496 3.18363 25.7027 3.51478 25.8287 3.82863C25.9622 4.15268 26.025 4.51624 26.025 4.91318C26.025 5.31012 25.9622 5.67368 25.8287 5.99774ZM24.6126 4.21648L24.6117 4.21474C24.5359 4.06654 24.4174 3.9494 24.2415 3.86307L24.2389 3.86182L24.2364 3.86052C24.0526 3.76616 23.8017 3.69538 23.4722 3.65904L23.4719 3.65901C23.1364 3.62166 22.732 3.60244 22.2569 3.60244H19.829V6.30835C19.9923 6.23474 20.1712 6.18941 20.3598 6.18941H22.2569C22.445 6.18941 22.6447 6.19119 22.8561 6.19473C23.0582 6.19465 23.2567 6.18461 23.4517 6.16471C23.5226 6.1563 23.5914 6.15104 23.6522 6.14638L23.6549 6.14618C23.7977 6.13525 23.8959 6.1265 23.9856 6.09958C24.1388 6.05085 24.2679 5.97974 24.3768 5.88782L24.3782 5.88666L24.3796 5.88552C24.4836 5.79977 24.5713 5.68357 24.6392 5.52794L24.6401 5.52587L24.641 5.52381C24.7055 5.38171 24.7459 5.18281 24.7459 4.91318C24.7459 4.59544 24.694 4.37073 24.6135 4.21821L24.6126 4.21648ZM23.4858 6.47347C23.2785 6.49474 23.0677 6.50537 22.8535 6.50537C22.6427 6.50183 22.4438 6.50005 22.2569 6.50005H20.3598C20.174 6.50005 19.9925 6.56088 19.829 6.65824C19.7153 6.72596 19.6102 6.81137 19.5184 6.90626V3.2918H22.2569C22.7396 3.2918 23.1561 3.31129 23.5062 3.35027C23.8598 3.38926 24.1505 3.46723 24.3783 3.58418C24.6095 3.69759 24.7794 3.86061 24.8882 4.07325C25.0004 4.28589 25.0565 4.56587 25.0565 4.91318C25.0565 5.21087 25.0123 5.45718 24.9239 5.6521C24.8389 5.84702 24.7233 6.00473 24.5772 6.12522C24.4344 6.24572 24.2678 6.33609 24.0774 6.39634C23.9493 6.4352 23.8163 6.44537 23.6786 6.45591C23.6153 6.46075 23.5511 6.46567 23.4858 6.47347ZM37.4982 2.35919H43.9585V3.60244H38.813V5.60414C38.9935 5.53315 39.1867 5.49563 39.3841 5.49563H43.6984V6.73356H39.3452C39.2319 6.73356 39.1202 6.77588 39.031 6.85602C38.8926 6.98032 38.813 7.13338 38.813 7.2564V9.0414H44.035V10.2846H37.4982V2.35919ZM38.813 5.94455C38.7006 6.00215 38.5958 6.07692 38.5024 6.16734V3.2918H43.6479V2.66983H37.8089V9.97401H43.7243V9.35203H38.5024V7.2564C38.5024 7.01379 38.6471 6.78321 38.8234 6.62488C38.9686 6.49459 39.1537 6.42292 39.3452 6.42292H43.3878V5.80626H39.3841C39.1844 5.80626 38.9893 5.85432 38.813 5.94455ZM46.5283 9.97401H47.1657V3.73303L50.8676 9.72575C50.9632 9.88049 51.1277 9.97401 51.3043 9.97401C51.4806 9.97401 51.6448 9.88075 51.7405 9.72636L55.4372 3.75961V9.97401H56.0645V2.66983C55.9584 2.66983 55.8541 2.68398 55.7538 2.71104C55.7518 2.71158 55.7498 2.71212 55.7478 2.71267C55.7366 2.71575 55.7255 2.719 55.7144 2.72241C55.4316 2.80922 55.1836 2.9997 55.0205 3.26529L51.3219 9.28824L47.583 3.2678C47.4234 3.01078 47.1851 2.82396 46.9129 2.73269C46.8938 2.72628 46.8745 2.72035 46.8551 2.71489C46.8497 2.71338 46.8443 2.7119 46.8389 2.71047C46.7386 2.68377 46.6343 2.66983 46.5283 2.66983V9.97401ZM51.3204 8.69705L47.8469 3.10392C47.5607 2.64314 47.0657 2.35919 46.5283 2.35919H46.2177V10.2846H47.4764V4.82697L50.6034 9.88901C50.7535 10.132 51.0161 10.2846 51.3043 10.2846C51.592 10.2846 51.8543 10.1324 52.0045 9.88997L55.1266 4.85081V10.2846H56.3751V2.35919H56.0645C55.53 2.35919 55.0381 2.6431 54.7558 3.10273L51.3204 8.69705ZM58.9555 2.35919H60.2143V10.2846H58.9555V2.35919ZM73.2475 9.97401H73.885V3.73303L77.5869 9.72575C77.6825 9.88049 77.8469 9.97401 78.0235 9.97401C78.1998 9.97401 78.3641 9.88075 78.4597 9.72636L82.1564 3.75961V9.97401H82.7837V2.66983C82.6776 2.66983 82.5733 2.68398 82.473 2.71104C82.4711 2.71158 82.4691 2.71212 82.4671 2.71267C82.4559 2.71575 82.4447 2.719 82.4336 2.72241C82.1508 2.80922 81.9029 2.9997 81.7398 3.2653L78.0411 9.28824L74.3022 3.2678C74.1426 3.01078 73.9043 2.82396 73.6322 2.73269C73.613 2.72628 73.5938 2.72035 73.5743 2.71489C73.5689 2.71338 73.5636 2.7119 73.5582 2.71047C73.4578 2.68377 73.3536 2.66983 73.2475 2.66983V9.97401ZM78.0396 8.69705L74.5661 3.10391C74.28 2.64314 73.7849 2.35919 73.2475 2.35919H72.9369V10.2846H74.1956V4.82697L77.3226 9.88901C77.4727 10.132 77.7353 10.2846 78.0235 10.2846C78.3112 10.2846 78.5736 10.1324 78.7238 9.88996L81.8458 4.85081V10.2846H83.0943V2.35919H82.7837C82.2492 2.35919 81.7573 2.6431 81.4751 3.10274L78.0396 8.69705ZM59.2662 9.97401V2.66983H59.9036V9.97401H59.2662Z" fill="white"/>
</svg>
