<svg width="121" height="21" viewBox="0 0 121 21" fill="none" xmlns="http://www.w3.org/2000/svg">
<path fill-rule="evenodd" clip-rule="evenodd" d="M119.172 2.19114V5.76988C117.318 5.06996 115.667 4.71607 114.222 4.71607C113.367 4.71607 112.685 4.87453 112.173 5.1809C111.661 5.48991 111.399 5.87026 111.399 6.31925C111.399 6.91614 111.977 7.44698 113.142 7.92243L116.507 9.55993C119.227 10.8567 120.577 12.5787 120.577 14.7418C120.577 16.5405 119.861 17.9746 118.417 19.0363C116.982 20.1087 115.052 20.6395 112.648 20.6395C111.539 20.6395 110.543 20.592 109.659 20.4916C108.774 20.3966 107.757 20.2011 106.629 19.9211V16.176C108.697 16.8759 110.58 17.2298 112.276 17.2298C114.299 17.2298 115.305 16.6435 115.305 15.4602C115.305 14.8713 114.893 14.3959 114.056 14.0234L110.319 12.4308C108.94 11.8075 107.915 11.0522 107.245 10.1568C106.584 9.25357 106.249 8.21824 106.249 7.03501C106.249 5.37896 106.946 4.04519 108.325 3.03098C109.714 2.0247 111.558 1.52026 113.85 1.52026C114.595 1.52026 115.453 1.58627 116.404 1.70777C117.363 1.83719 118.284 1.99566 119.172 2.19114Z" fill="white"/>
<path fill-rule="evenodd" clip-rule="evenodd" d="M13.3254 2.19114V5.76988C11.4713 5.06996 9.8232 4.71607 8.37848 4.71607C7.5201 4.71607 6.84136 4.87453 6.32895 5.1809C5.8166 5.48991 5.55511 5.87026 5.55511 6.31925C5.55511 6.91614 6.14145 7.44698 7.3062 7.92243L10.671 9.55993C13.3808 10.8567 14.7331 12.5787 14.7331 14.7418C14.7331 16.5405 14.0147 17.9746 12.5806 19.0363C11.1359 20.1087 9.21575 20.6395 6.8044 20.6395C5.6951 20.6395 4.69673 20.592 3.81194 20.4916C2.92716 20.3966 1.92088 20.2011 0.785227 19.9211V16.176C2.86116 16.8759 4.74431 17.2298 6.42933 17.2298C8.45247 17.2298 9.45875 16.6435 9.45875 15.4602C9.45875 14.8713 9.04936 14.3959 8.22002 14.0234L4.48282 12.4308C3.09355 11.8075 2.06878 11.0522 1.40852 10.1568C0.737644 9.25357 0.410156 8.21824 0.410156 7.03501C0.410156 5.37896 1.10215 4.04519 2.48873 3.03098C3.86745 2.0247 5.71357 1.52026 8.00611 1.52026C8.75883 1.52026 9.60666 1.58627 10.568 1.70777C11.5188 1.83719 12.4406 1.99566 13.3254 2.19114Z" fill="white"/>
<path fill-rule="evenodd" clip-rule="evenodd" d="M17.1824 1.85596H22.6628V20.3044H17.1824V1.85596Z" fill="white"/>
<path fill-rule="evenodd" clip-rule="evenodd" d="M40.3172 1.85596V5.26573H32.1745V9.35681H39.2369V12.4311H32.1745V16.7257H40.4835V20.3044H26.9001V1.85596H40.3172Z" fill="white"/>
<path fill-rule="evenodd" clip-rule="evenodd" d="M65.9023 1.85596V20.3044H60.7862V8.13662L55.4778 20.4734H52.319L47.2137 8.13662V20.3044H43.5134V1.85596H50.2034L54.77 13.1495L59.5478 1.85596H65.9023Z" fill="white"/>
<path fill-rule="evenodd" clip-rule="evenodd" d="M83.551 1.85583V5.26561H75.4528V9.35669H82.5152V12.431H75.4528V16.7255H83.7174V20.3043H70.134V1.85583H83.551Z" fill="white"/>
<path fill-rule="evenodd" clip-rule="evenodd" d="M102.781 1.85596V20.3044H96.9683L90.445 8.47203V20.3044H86.7471V1.85596H92.7295L99.0841 13.485V1.85596H102.781Z" fill="white"/>
</svg>
