<svg width="106" height="26" viewBox="0 0 106 26" fill="none" xmlns="http://www.w3.org/2000/svg">
<g clip-path="url(#clip0_2601_7446)">
<path d="M91.2252 0.455933C85.7541 0.455933 81.2485 4.88109 81.2485 10.4326C81.2485 15.9037 85.6737 20.4094 91.2252 20.4094C96.6963 20.4094 101.202 15.9842 101.202 10.4326C101.202 4.88109 96.6963 0.455933 91.2252 0.455933ZM98.9491 4.88109C98.4664 5.20292 97.9032 5.52474 97.34 5.84657C97.0182 5.20292 96.6159 4.55926 96.1331 3.99606C96.5354 3.75468 96.9377 3.43285 97.2595 3.19148C97.9837 3.59377 98.5469 4.23743 98.9491 4.88109ZM94.7654 1.58234C95.5699 1.90416 96.2941 2.30645 97.0182 2.86965C96.6963 3.19148 96.2941 3.43285 95.8918 3.67423C95.409 3.11102 94.8458 2.62828 94.2826 2.14554C94.4435 1.90416 94.6044 1.74325 94.7654 1.58234ZM95.5699 3.83514C95.0067 4.15697 94.4435 4.31788 93.8803 4.55926C93.639 3.99606 93.3976 3.43285 93.0758 2.95011C93.3976 2.7892 93.7194 2.62828 93.9608 2.38691C94.524 2.7892 95.0872 3.27194 95.5699 3.83514ZM94.3631 1.42142C94.2022 1.58234 94.0412 1.74325 93.9608 1.90416C93.3976 1.58234 92.9148 1.26051 92.2712 1.01913C92.9953 1.01913 93.7194 1.18005 94.3631 1.42142ZM93.639 2.14554C93.3976 2.30645 93.1562 2.46737 92.9148 2.54782C92.593 2.06508 92.2712 1.66279 91.9494 1.18005C92.5126 1.42142 93.0758 1.74325 93.639 2.14554ZM91.3862 1.26051C91.7884 1.66279 92.1103 2.14554 92.4321 2.70874C92.1103 2.7892 91.7884 2.86965 91.3862 2.86965V1.26051ZM91.3862 3.27194C91.7884 3.27194 92.2712 3.19148 92.6735 3.03057C92.9953 3.51331 93.2367 4.07651 93.478 4.63971C92.8344 4.80063 92.1103 4.88109 91.3862 4.96154V3.27194ZM90.9839 1.26051V2.86965C90.662 2.86965 90.3402 2.7892 89.9379 2.70874C90.3402 2.22599 90.662 1.74325 90.9839 1.26051ZM89.6161 2.54782C89.3747 2.46737 89.0529 2.30645 88.892 2.14554C89.4552 1.82371 90.0184 1.50188 90.5816 1.26051C90.1793 1.66279 89.8575 2.06508 89.6161 2.54782ZM90.1793 0.938677C89.6161 1.18005 89.0529 1.50188 88.4897 1.82371C88.3288 1.66279 88.1679 1.50188 88.0874 1.34096C88.7311 1.18005 89.4552 1.01913 90.1793 0.938677ZM97.0182 17.9956C95.7309 17.2715 95.6504 16.2256 95.7309 15.9037C95.8113 15.5015 96.0527 15.6624 96.2136 15.6624C97.0986 15.6624 97.9837 15.421 99.1101 14.2141C100.397 12.9268 100.8 10.0304 98.7882 8.17984C96.6963 6.1684 94.4435 6.49023 92.9953 8.34075C92.6735 8.74304 91.9494 8.98441 91.3862 8.98441C90.4207 8.98441 91.0643 9.70853 91.0643 9.86944C91.0643 10.0304 90.9034 10.1108 90.823 10.1108C90.5011 10.0304 90.662 10.5131 90.662 10.5936C90.662 10.674 90.5011 10.8349 90.5011 10.8349C90.0988 10.8349 90.1793 11.1568 90.2598 11.3177C90.2598 11.3981 90.2598 11.559 90.0988 11.6395C89.9379 11.72 89.8575 12.0418 89.8575 12.2832C89.8575 12.6854 90.2598 13.0073 90.9034 13.49C91.5471 13.9728 91.6275 14.4555 91.6275 14.7773C91.6275 15.0992 91.708 15.6624 91.7884 15.9842C91.9494 16.3865 91.9494 17.1911 91.0643 17.1911C89.9379 17.2715 88.0069 18.0761 87.846 18.1565C87.2024 18.3979 86.3978 18.4784 85.7541 18.3175C85.4323 18.0761 85.1105 17.8347 84.7887 17.5129C84.6277 17.1106 84.8691 16.6279 85.1105 16.306C85.5128 16.7083 85.9955 16.6279 86.3173 16.6279C86.6392 16.6279 88.0874 16.3865 88.3288 16.306C88.5701 16.2256 88.6506 16.2256 88.7311 16.306C89.2943 16.5474 90.0988 16.5474 90.4207 15.5015C90.7425 14.3751 90.0184 14.6969 89.8575 14.7773C89.777 14.8578 89.6161 14.7773 89.6966 14.6969C89.8575 14.4555 89.6161 14.4555 89.5356 14.4555C89.2138 14.4555 88.8115 14.7773 88.7311 14.8578C88.5701 14.9383 88.4897 14.9383 88.4092 14.9383C88.0069 14.6969 86.8001 15.0187 86.3978 14.3751C86.3978 14.2141 86.076 11.559 85.9151 11.0763C85.9151 10.9958 85.8346 10.8349 85.9955 10.674C86.3173 10.1913 87.1219 10.674 87.6047 10.674C88.1679 10.674 88.2483 10.4326 88.4092 10.2717C88.5701 10.1108 88.6506 10.1913 88.7311 10.1108C88.8115 10.0304 88.7311 9.9499 88.7311 9.86944C88.7311 9.78898 88.8115 9.86944 88.892 9.78898C88.9724 9.70853 88.892 9.54761 88.892 9.46715C89.0529 9.22578 89.3747 9.3867 89.2138 8.90395C89.1333 8.58212 89.2943 8.26029 89.4552 8.09938C89.6966 7.77755 90.7425 6.32932 88.9724 4.80063C87.2828 3.3524 85.5128 3.51331 84.3864 4.72017C83.26 5.92703 83.8232 7.69709 83.9036 8.17984C83.9841 8.66258 83.6623 9.06487 83.26 9.22578C82.9381 9.3867 82.214 9.86944 81.7313 10.2717C81.8117 6.40978 84.145 3.03057 87.6851 1.66279C87.846 1.82371 88.0069 2.06508 88.1679 2.22599C87.7656 2.54782 86.8805 3.27194 86.8805 3.27194C86.8805 3.27194 86.961 3.27194 87.1219 3.3524C87.2024 3.3524 87.3633 3.43285 87.3633 3.43285C87.3633 3.43285 88.0874 2.7892 88.4897 2.54782C88.7311 2.7892 89.0529 2.95011 89.3747 3.11102C89.2138 3.43285 88.7311 4.23743 88.7311 4.23743C88.7311 4.23743 88.8115 4.31788 88.892 4.31788C88.9724 4.39834 89.0529 4.39834 89.0529 4.39834C89.0529 4.39834 89.5356 3.51331 89.6966 3.19148C90.0988 3.3524 90.5011 3.43285 90.9034 3.43285V5.042C90.662 5.042 90.0988 5.042 89.8575 4.96154H89.6966L89.777 5.12246C89.8575 5.20292 89.8575 5.28337 89.9379 5.36383C90.0988 5.36383 90.662 5.36383 90.9034 5.36383V8.34075H91.3057V7.61664C91.9494 7.61664 92.4321 7.53618 92.9953 7.45572L93.5585 6.97298H93.2367C92.593 7.05343 92.0298 7.13389 91.5471 7.13389C91.5471 7.13389 91.3862 7.13389 91.3057 7.13389V5.28337C92.0298 5.28337 92.8344 5.20292 93.5585 4.96154C93.7194 5.44429 94.1217 6.65115 94.1217 6.65115L94.524 6.49023C94.524 6.49023 94.1217 5.28337 93.9608 4.80063C94.6044 4.63971 95.1677 4.31788 95.7309 4.07651C96.2136 4.63971 96.6159 5.28337 96.9377 5.92703C96.6159 6.08795 96.1331 6.24886 96.1331 6.24886C96.5354 6.32932 96.8573 6.40978 96.8573 6.40978C96.8573 6.40978 97.0182 6.32932 97.0986 6.32932C97.0986 6.40978 97.1791 6.57069 97.1791 6.57069L97.7423 6.81206L97.6618 6.65115C97.6618 6.65115 97.5009 6.24886 97.4205 6.1684C97.9837 5.92703 98.5469 5.6052 99.1101 5.20292C100.156 6.73161 100.639 8.58212 100.639 10.4326C100.8 13.49 99.271 16.2256 97.0182 17.9956Z" fill="white"/>
<path d="M80.3641 3.11061L80.2032 3.27152C79.64 3.75427 78.2722 5.12204 78.5136 6.65073V6.73119L78.5941 7.05302L78.755 6.8921C79.5596 6.16799 80.2032 4.88067 80.4446 3.43244L80.5251 3.03015L80.3641 3.11061Z" fill="white"/>
<path d="M77.6279 5.68519L77.5474 5.84611C77.4669 6.08748 77.306 6.65068 77.2256 7.29434C77.0647 8.25983 77.1451 9.70806 77.9497 10.754L78.0301 10.9149L78.1106 11.0758L78.2715 10.4322C78.4324 9.30577 78.1911 6.97251 77.7888 5.92657L77.6279 5.60474V5.68519Z" fill="white"/>
<path d="M76.6623 9.70805V9.86896C76.5818 10.8344 76.6623 13.3286 78.6737 14.6964L78.9151 14.8573V14.5355C78.9151 13.57 77.7887 10.754 76.9841 9.7885L76.7428 9.46667L76.6623 9.70805Z" fill="white"/>
<path d="M76.9851 14.1338V14.2947C77.3069 15.743 78.5943 17.9958 80.6861 18.7199L81.008 18.8003L80.9275 18.4785C80.5252 17.4326 78.5138 14.9384 77.2265 14.1338L76.9851 13.9729V14.1338Z" fill="white"/>
<path d="M81.2488 5.28358L81.0074 5.36404C79.4788 6.32953 78.7546 7.45593 78.7546 8.90416V9.22599L78.996 9.06508C79.8006 8.34096 80.927 6.5709 81.1684 5.60541L81.2488 5.20312V5.28358Z" fill="white"/>
<path d="M80.2835 8.34047L80.2031 8.50138C79.8008 8.90367 78.5135 10.2714 78.5939 11.961C78.5939 12.2024 78.6744 12.5242 78.7549 12.7656L78.8353 13.007L78.9962 12.7656C79.6399 11.8806 80.4445 9.62778 80.364 8.58184V8.26001L80.2835 8.34047Z" fill="white"/>
<path d="M80.3643 11.3173L80.2838 11.4782C79.6402 12.4437 79.3184 13.4092 79.3184 14.3747C79.3184 15.0183 79.5597 15.662 79.962 16.3056L80.1229 16.547L80.2034 16.3056C80.4448 15.7424 80.6861 14.0528 80.6861 12.685C80.6861 12.2023 80.6057 11.8 80.5252 11.5586L80.4448 11.2368L80.3643 11.3173Z" fill="white"/>
<path d="M81.0871 14.4552L81.0067 14.6161C80.8458 15.2598 80.6848 15.823 80.7653 16.4667C80.7653 17.754 81.409 18.7999 82.5354 19.524L82.6963 19.6045L82.7767 19.3631V19.1218C82.7767 18.0758 81.9722 15.3403 81.3285 14.5357L81.1676 14.2943L81.0871 14.4552Z" fill="white"/>
<path d="M78.9181 18.6387L78.9986 18.7996C79.8031 20.1674 81.2514 22.0179 83.9065 21.5351H84.1478L83.9869 21.3742C83.5042 20.6501 80.2859 18.7996 79.1595 18.6387L78.8376 18.5582L78.9181 18.6387Z" fill="white"/>
<path d="M82.8583 22.1792L82.4561 22.2596L82.8583 22.4205C84.5479 23.1447 86.6398 23.3056 87.9271 22.9033C88.4099 22.7424 88.6513 22.501 88.9731 22.1792C91.1454 22.4205 93.1569 24.1906 94.3637 25.6388L94.4442 25.7193H94.5247C94.6856 25.6388 94.8465 25.4779 94.9269 25.3975L95.0074 25.317L94.9269 25.2365C93.7201 23.6274 91.7891 22.6619 91.7086 22.5815C89.9386 21.7769 86.8812 21.1332 82.8583 22.1792Z" fill="white"/>
<path d="M82.9396 17.6735V17.8344C83.181 19.4435 83.8246 21.5354 86.5602 21.2941H86.7211L86.6406 21.1331C86.4797 20.409 83.9855 18.3171 83.1005 17.7539L82.8591 17.593L82.9396 17.6735Z" fill="white"/>
<path d="M101.929 2.94983L102.009 3.35212C102.251 4.80035 102.894 6.08767 103.699 6.81178L103.86 6.9727L103.94 6.65087V6.57041C104.182 5.04172 102.814 3.67395 102.251 3.1912L102.09 3.03029L101.929 2.94983Z" fill="white"/>
<path d="M104.742 5.52441L104.581 5.84624C104.178 6.89219 104.018 9.22545 104.098 10.3519L104.259 10.9955L104.339 10.9151L104.42 10.7541C105.305 9.7082 105.305 8.34042 105.144 7.29448C105.063 6.57036 104.903 6.08762 104.822 5.84624L104.742 5.68533V5.52441Z" fill="white"/>
<path d="M105.788 9.54749L105.546 9.86931C104.742 10.9153 103.615 13.6508 103.615 14.6163V14.9381L103.857 14.7772C105.868 13.4899 105.949 10.9957 105.868 9.94977V9.78886L105.788 9.54749Z" fill="white"/>
<path d="M105.465 13.9729L105.144 14.1338C103.856 14.9384 101.845 17.4326 101.443 18.4785L101.362 18.8003L101.684 18.7199C103.776 18.0762 105.144 15.743 105.385 14.2947V14.1338L105.465 13.9729Z" fill="white"/>
<path d="M101.203 5.12183L101.283 5.52411C101.605 6.57006 102.571 8.34012 103.456 9.06423L103.697 9.22515V8.90332C103.778 7.45509 103.053 6.32869 101.525 5.3632L101.364 5.28274L101.203 5.12183Z" fill="white"/>
<path d="M102.087 8.26001V8.58184C102.006 9.62778 102.891 11.961 103.454 12.7656L103.615 13.007L103.696 12.7656C103.776 12.4438 103.857 12.2024 103.857 11.961C103.937 10.2714 102.65 8.90367 102.248 8.50138L102.167 8.42092L102.087 8.26001Z" fill="white"/>
<path d="M102.008 11.1567L101.927 11.4786C101.847 11.7199 101.766 12.1222 101.766 12.605C101.766 13.9727 101.927 15.6623 102.249 16.2256L102.33 16.4669L102.49 16.2256C102.893 15.6623 103.134 15.0187 103.134 14.2946C103.134 13.4095 102.812 12.3636 102.169 11.3981L102.088 11.2372L102.008 11.1567Z" fill="white"/>
<path d="M101.284 14.2942L101.124 14.5356C100.48 15.3401 99.6753 18.0757 99.6753 19.1216C99.6753 19.1216 99.6753 19.2825 99.6753 19.363L99.7558 19.6044L99.9167 19.5239C101.043 18.7998 101.606 17.7539 101.687 16.4665C101.687 15.9033 101.606 15.2597 101.445 14.616L101.365 14.4551L101.284 14.2942Z" fill="white"/>
<path d="M103.616 18.4783L103.294 18.5587C102.168 18.7196 98.9493 20.5702 98.4666 21.2943L98.3057 21.4552H98.547C101.202 21.9379 102.65 20.0874 103.455 18.7196L103.535 18.5587L103.616 18.4783Z" fill="white"/>
<path d="M90.8246 22.5815C90.7442 22.5815 88.8132 23.6274 87.6063 25.2365L87.5259 25.317L87.6063 25.3975C87.6868 25.4779 87.9282 25.6388 88.0086 25.7193H88.0891L88.1695 25.6388C89.3764 24.1906 91.3878 22.3401 93.5602 22.1792C93.882 22.501 94.2038 22.7424 94.6061 22.9033C95.813 23.3056 97.9853 23.1447 99.6749 22.4205L100.077 22.2596L99.6749 22.1792C95.5716 21.1332 92.5142 21.7769 90.8246 22.5815Z" fill="white"/>
<path d="M99.5121 17.5127L99.2707 17.6736C98.3857 18.2368 95.972 20.3287 95.7306 21.0528L95.6501 21.2137H95.8111C98.4662 21.4551 99.1098 19.3632 99.4316 17.7541V17.5932L99.5121 17.5127Z" fill="white"/>
<path d="M31.606 1.42078H34.9852V4.47816H31.606V1.42078ZM31.9278 8.01828H34.7438V22.9833H31.9278V8.01828Z" fill="white"/>
<path d="M10.6079 8.01868H13.424V22.9837H10.6884V20.8114H10.6079C9.48155 22.6619 7.55057 23.4665 5.45868 23.4665C2.32084 23.4665 0.550781 21.0528 0.550781 18.0758V8.01868H3.36679V16.869C3.36679 19.4436 3.92999 21.3746 6.66554 21.3746C7.79194 21.3746 9.40109 20.8114 9.96429 19.2022C10.5275 17.8345 10.5275 16.0644 10.5275 15.6621V8.01868H10.6079Z" fill="white"/>
<path d="M19.055 10.1912C20.101 8.34071 22.1124 7.53613 23.6411 7.53613C24.687 7.53613 29.2731 7.7775 29.2731 12.6049V22.9035H26.4571V13.49C26.4571 10.9958 25.4111 9.70848 22.9974 9.70848C22.9974 9.70848 21.4687 9.62802 20.2619 10.8349C19.8596 11.2372 19.055 11.8808 19.055 14.8578V22.9839H16.239V8.01888H19.055V10.1912Z" fill="white"/>
<path d="M46.5707 12.7659C46.4098 10.9153 45.5247 9.62802 43.5133 9.62802C40.8582 9.62802 39.8123 11.9613 39.8123 15.421C39.8123 18.8806 40.8582 21.2139 43.5133 21.2139C45.3638 21.2139 46.4902 20.007 46.6511 17.8347H49.4671C49.2258 21.2139 46.7316 23.2253 43.4328 23.2253C38.6859 23.2253 36.7549 19.8461 36.7549 15.5014C36.7549 11.1567 38.9272 7.53613 43.6742 7.53613C46.812 7.53613 49.1453 9.54757 49.3062 12.7659H46.5707Z" fill="white"/>
<path d="M53.651 15.984C53.4096 18.5587 54.536 21.2942 57.352 21.2942C59.5244 21.2942 60.6508 20.4092 60.9726 18.2368H63.9495C63.4668 21.616 60.8922 23.3056 57.352 23.3056C52.605 23.3056 50.6741 19.9264 50.6741 15.5817C50.6741 11.237 52.8464 7.61646 57.5934 7.61646C62.0186 7.69691 64.1104 10.5129 64.1104 14.6162V15.984H53.651ZM61.214 14.053C61.2944 11.5589 60.168 9.62789 57.4325 9.62789C55.0992 9.62789 53.7315 11.6393 53.7315 14.053H61.214Z" fill="white"/>
<path d="M67.3288 22.8225V9.94937H64.7542V8.0184H67.3288V4.8001C67.4092 1.58181 69.9034 0.696777 71.9953 0.696777C72.639 0.696777 73.3631 0.857692 74.0067 1.01861V3.35187C73.524 3.35187 73.0413 3.27141 72.5585 3.27141C70.9494 3.27141 70.0643 3.6737 70.1448 5.28285V8.0184H73.6045V9.94937H70.1448V22.8225H67.3288Z" fill="white"/>
</g>
<defs>
<clipPath id="clip0_2601_7446">
<rect width="105.319" height="25.3441" fill="white" transform="translate(0.550537 0.455933)"/>
</clipPath>
</defs>
</svg>
