<svg width="103" height="24" viewBox="0 0 103 24" fill="none" xmlns="http://www.w3.org/2000/svg">
<path d="M11.298 1.56641C5.15316 1.56641 0.171387 6.54782 0.171387 12.6937C0.171387 18.8385 5.15316 23.821 11.298 23.821C17.4431 23.821 22.4252 18.8385 22.4252 12.6937C22.4252 6.54782 17.4435 1.56641 11.298 1.56641ZM11.298 22.5649C5.84626 22.5649 1.42607 18.145 1.42607 12.6937C1.42607 7.24128 5.8459 2.82181 11.298 2.82181C16.75 2.82181 21.1698 7.24128 21.1698 12.6937C21.1698 18.145 16.75 22.5649 11.298 22.5649Z" fill="white"/>
<path d="M19.386 17.175L17.7705 15.2884C17.7505 15.2656 17.727 15.246 17.6998 15.2301C17.6172 15.183 17.5201 15.1819 17.44 15.2207C17.1933 15.3373 16.8951 15.3352 16.6408 15.1884C16.4143 15.0587 16.2701 14.8399 16.2252 14.6022H16.2256C16.1118 13.9968 15.7451 13.4432 15.1702 13.1117L14.4466 12.6943L18.5599 10.3197L18.0509 9.43746L13.4285 12.1059L12.8731 11.7856V11.1439L17.4951 8.47516L16.9861 7.5933L12.8731 9.96824V9.13312C12.8731 8.469 12.5767 7.87445 12.1097 7.47373C11.926 7.31649 11.8094 7.08244 11.8094 6.82121C11.8094 6.52738 11.9565 6.26724 12.1814 6.11217C12.255 6.06217 12.3025 5.97739 12.3025 5.8821C12.3025 5.85058 12.2974 5.82015 12.288 5.79189L11.4623 3.44991C11.4394 3.38143 11.3749 3.33252 11.2992 3.33252C11.2239 3.33252 11.1594 3.38143 11.1365 3.44991L10.3112 5.79189C10.3014 5.82015 10.2963 5.85058 10.2963 5.8821C10.2963 5.97739 10.3442 6.06217 10.417 6.11217H10.4174C10.642 6.26724 10.7894 6.52738 10.7894 6.82121C10.7894 7.08244 10.6731 7.31649 10.4887 7.47373C10.0214 7.87445 9.7257 8.46936 9.7257 9.13312V9.96824L5.61239 7.5933L5.10334 8.47516L9.7257 11.1439V11.786L9.17028 12.1059L4.54792 9.43746L4.03923 10.3197L8.15255 12.6943L7.42865 13.1117C6.85367 13.4432 6.48701 13.9968 6.3736 14.6022C6.32868 14.8399 6.18484 15.0587 5.9584 15.1884C5.70369 15.3352 5.40587 15.3373 5.15877 15.2207C5.07834 15.1823 4.98161 15.183 4.89936 15.2301C4.87182 15.246 4.84791 15.266 4.82871 15.2884L3.2128 17.1742C3.16534 17.2282 3.1552 17.3079 3.19288 17.3746C3.23056 17.4395 3.30519 17.471 3.37548 17.4576L5.81673 17.0003C5.84608 16.9945 5.87543 16.984 5.90224 16.9685C5.98521 16.9203 6.03376 16.8373 6.041 16.7482C6.0631 16.4764 6.21455 16.2185 6.46889 16.0717C6.69461 15.942 6.95584 15.9254 7.18446 16.0054C7.76524 16.2098 8.42791 16.1688 9.00289 15.8362L9.72643 15.4196V20.1687H10.7445V14.8312L11.3003 14.5105L11.8557 14.8312V20.1684H12.8742V15.4192L13.5974 15.8359C14.1723 16.1685 14.8354 16.2094 15.4162 16.0051C15.6441 15.9246 15.9056 15.9413 16.1317 16.0714C16.3861 16.2181 16.5372 16.4761 16.5593 16.7478C16.5661 16.8369 16.615 16.9203 16.6973 16.9681C16.7245 16.9837 16.7538 16.9942 16.7832 17L19.224 17.4572C19.2947 17.4706 19.369 17.4391 19.407 17.3742C19.4436 17.3079 19.4331 17.2286 19.386 17.175ZM9.72534 14.2439L8.36776 15.0272C8.10183 15.1808 7.76234 15.0895 7.60908 14.8239C7.45583 14.5576 7.54677 14.2182 7.8127 14.0645L9.17028 13.2809L9.7257 13.6019V14.2439H9.72534ZM10.7434 8.98892C10.7434 8.68168 10.992 8.43277 11.2989 8.43277C11.6057 8.43277 11.8546 8.68168 11.8546 8.98892V10.5559L11.2992 10.8762L10.7434 10.5559V8.98892ZM11.938 13.0627L11.2992 13.4312L10.6597 13.0624V12.3244L11.2992 11.9552L11.938 12.3244V13.0627ZM14.989 14.8243C14.8354 15.0895 14.4952 15.1808 14.2296 15.0276L12.8724 14.2435V13.6022L13.4278 13.2812L14.785 14.0649C15.051 14.2185 15.1419 14.5576 14.989 14.8243Z" fill="white"/>
<path d="M85.3797 10.4336H81.666V3.00916H78.2737V22.3787H81.666V13.8727H85.3797V22.3787H88.8459V3.00916H85.3797V10.4336Z" fill="white"/>
<path d="M24.8987 3.00916L28.6635 14.8861V22.3787H32.4319V14.5013L36.3347 3.00916H33.1634L30.6015 10.5554L28.2823 3.00916H24.8987Z" fill="white"/>
<path d="M57.6151 3.00916L55.9901 12.2231L54.1057 3.00916H48.8098V22.3787H51.8467V7.77789L54.4383 20.4707H57.2745L59.573 7.57174V22.3787H63.1338V3.00916H57.6151Z" fill="white"/>
<path d="M99.1831 3.00916H93.9372L90.3975 22.3787H93.5365L94.2872 17.8715H98.1918L98.9201 22.3787H102.379L99.1831 3.00916ZM94.8256 14.6426L96.2691 5.97974L97.6701 14.6426H94.8256Z" fill="white"/>
<path d="M68.2257 3.00916L64.6848 22.3787H67.8246L68.576 17.8715H72.4807L73.2089 22.3787H76.6672L73.4709 3.00916H68.2257ZM69.1137 14.6426L70.5571 5.97974L71.9582 14.6426H69.1137Z" fill="white"/>
<path d="M38.7635 3.00916L35.2227 22.3787H38.3628L39.1142 17.8715H43.0185L43.7471 22.3787H47.2046L44.0087 3.00916H38.7635ZM39.6519 14.6426L41.0954 5.97974L42.496 14.6426H39.6519Z" fill="white"/>
</svg>
